<?xml version="1.0" encoding="utf-8"?>
<!-- Generator: Adobe Illustrator 27.5.0, SVG Export Plug-In . SVG Version: 6.00 Build 0)  -->
<svg version="1.1" id="Layer_1" xmlns="http://www.w3.org/2000/svg" xmlns:xlink="http://www.w3.org/1999/xlink" x="0px" y="0px"
	 viewBox="0 0 220.425 232.484" style="enable-background:new 0 0 220.425 232.484;" xml:space="preserve">
<g>
	<g>
		<path style="fill:#FFFFFF;" d="M27.736,149.393c6.466,3.291,13.883,3.336,19.844,3.373l0.402,0.001c2.371,0,5.482-0.115,8.71-0.84
			c3.049,7.323,9.542,13.428,17.938,16.579c4.122,1.546,8.863,2.364,13.713,2.364c3.571,0,6.954-0.44,10.056-1.31
			c0.41-0.115,0.912-0.222,1.462-0.344c0.019-0.004,0.037-0.008,0.056-0.012c0.021,5.837-0.073,11.025-0.288,15.983
			c-0.271,6.29-0.232,12.592-0.194,18.687c0.023,3.802,0.048,7.731-0.005,11.582c-0.253,0.454-0.504,0.686-0.7,0.804
			c-2.72,1.629-3.122,4.241-2.64,5.982c0.322,1.167,1.548,3.88,5.946,3.88c0.392,0,0.806-0.019,1.239-0.057
			c0.629,0.071,1.309,0.077,2.145,0.013c0.781-0.061,1.536-0.31,2.2-0.725c0.15-0.094,0.297-0.191,0.44-0.293
			c0.982-0.322,2.049-0.75,3.098-1.314c1.088,2.54,2.881,5.252,6.408,5.252c1.02,0,2.559-0.273,4.101-1.578
			c1.483-1.256,2.642-2.713,3.536-4.141c3.147,2.017,7.209,4.02,10.93,4.02c0.72,0,1.421-0.071,2.088-0.211
			c2.957-0.623,4.537-2.233,5.362-3.566c1.258,0.418,1.971,0.418,2.349,0.418c3.074,0,5.482-2.391,5.482-5.443
			c0-2.742-1.764-4.58-3.318-6.199c-1.152-1.199-2.438-2.538-3.561-4.461c-0.278-4.206-0.605-8.439-0.924-12.544
			c-0.889-11.488-1.807-23.344-1.68-35.064c2.847,0.517,5.496,0.605,6.963,0.605c0.912,0,1.773-0.031,2.563-0.093
			c9.344-0.738,17.049-3.204,23.556-7.537c6.622-4.41,11.932-10.649,14.949-17.568c1.264-2.896,1.889-6.011,1.899-9.479
			c5.335-2.747,10.272-6.433,14.157-10.602c8.994-9.651,12.71-22.101,10.461-35.055c-2.286-13.16-13.014-24.042-27.328-27.721
			c-2.744-0.708-5.282-1.175-7.673-1.412c-0.476-6.475-2.365-12.98-5.484-18.731c-5.787-10.663-16.322-18.036-29.665-20.761
			c-2.612-0.534-5.317-0.804-8.039-0.804c-8.741,0-17.637,2.748-25.415,7.795c-1.755-1.962-3.768-3.704-5.961-5.148
			c-4.976-3.279-11.101-5.012-17.713-5.012c-5.909,0-12.003,1.347-17.622,3.894c-11.161,5.06-19.391,11.989-24.461,20.593
			c-2.418,4.102-4.052,9.253-4.549,14.118c-4.991,1.94-9.485,5.11-12.667,8.997c-5.077,6.204-6.728,15.541-4.502,24.192
			c-12.32,9.567-19.749,26.627-17.557,41.242C9.648,133.791,16.898,143.869,27.736,149.393z"/>
		<path style="fill:#F1F1F1;" d="M27.358,148.918c6.467,3.29,13.883,3.336,19.844,3.373l0.402,0.001c2.372,0,5.481-0.115,8.71-0.84
			c3.049,7.322,9.543,13.427,17.938,16.578c4.122,1.546,8.863,2.364,13.713,2.364c3.571,0,6.954-0.44,10.057-1.31
			c0.409-0.115,0.911-0.221,1.461-0.344c0.019-0.004,0.037-0.008,0.056-0.012c0.021,5.837-0.073,11.025-0.287,15.983
			c-0.272,6.29-0.233,12.592-0.195,18.687c0.023,3.802,0.048,7.731-0.005,11.582c-0.253,0.454-0.504,0.686-0.7,0.804
			c-2.72,1.63-3.121,4.241-2.64,5.982c0.322,1.167,1.548,3.88,5.947,3.88c0.391,0,0.805-0.019,1.238-0.057
			c0.629,0.071,1.309,0.077,2.145,0.013c0.781-0.06,1.536-0.309,2.2-0.725c0.15-0.094,0.297-0.191,0.44-0.293
			c0.982-0.322,2.049-0.75,3.098-1.315c1.088,2.54,2.881,5.252,6.408,5.252c1.02,0,2.56-0.274,4.102-1.578
			c1.482-1.256,2.641-2.713,3.535-4.141c3.147,2.017,7.209,4.02,10.93,4.02c0.72,0,1.421-0.071,2.088-0.211
			c2.957-0.623,4.537-2.233,5.362-3.566c1.258,0.418,1.971,0.418,2.349,0.418c3.074,0,5.482-2.391,5.482-5.443
			c0-2.742-1.764-4.58-3.318-6.199c-1.152-1.199-2.438-2.538-3.561-4.461c-0.278-4.206-0.607-8.439-0.924-12.544
			c-0.889-11.488-1.807-23.344-1.68-35.063c2.847,0.517,5.497,0.604,6.963,0.604c0.912,0,1.774-0.031,2.563-0.093
			c9.344-0.738,17.05-3.204,23.556-7.537c6.623-4.41,11.932-10.649,14.949-17.568c1.264-2.896,1.889-6.011,1.899-9.479
			c5.335-2.747,10.272-6.434,14.157-10.603c8.994-9.651,12.71-22.101,10.462-35.055c-2.287-13.16-13.015-24.041-27.329-27.721
			c-2.743-0.708-5.282-1.175-7.672-1.412c-0.477-6.475-2.365-12.981-5.485-18.731c-5.787-10.663-16.322-18.036-29.665-20.761
			c-2.611-0.534-5.317-0.804-8.039-0.804c-8.741,0-17.637,2.748-25.415,7.795c-1.755-1.962-3.768-3.704-5.96-5.148
			c-4.977-3.279-11.102-5.012-17.713-5.012c-5.909,0-12.004,1.347-17.623,3.894c-11.161,5.06-19.39,11.988-24.462,20.593
			c-2.417,4.102-4.051,9.253-4.548,14.118c-4.991,1.941-9.485,5.11-12.667,8.997c-5.078,6.203-6.727,15.541-4.502,24.192
			c-12.32,9.567-19.749,26.627-17.557,41.242C9.269,133.316,16.521,143.395,27.358,148.918z"/>
		<path style="fill:#E2E2E2;" d="M26.981,148.444c6.465,3.291,13.883,3.337,19.844,3.373l0.402,0.001c2.37,0,5.48-0.114,8.71-0.839
			c3.049,7.323,9.542,13.427,17.938,16.578c4.122,1.546,8.862,2.364,13.713,2.364c3.571,0,6.954-0.44,10.055-1.31
			c0.411-0.115,0.913-0.217,1.463-0.343c0.018-0.004,0.037-0.008,0.056-0.012c0.021,5.837-0.074,11.025-0.289,15.983
			c-0.271,6.29-0.231,12.592-0.193,18.687c0.022,3.802,0.048,7.732-0.005,11.582c-0.254,0.453-0.504,0.685-0.7,0.803
			c-2.72,1.631-3.123,4.241-2.641,5.983c0.323,1.167,1.549,3.879,5.946,3.879c0.392,0,0.807-0.019,1.24-0.057
			c0.629,0.071,1.308,0.077,2.145,0.013c0.781-0.061,1.536-0.309,2.2-0.725c0.15-0.094,0.297-0.191,0.441-0.293
			c0.982-0.322,2.048-0.75,3.098-1.314c1.088,2.54,2.881,5.252,6.408,5.252c1.02,0,2.558-0.273,4.1-1.578
			c1.484-1.256,2.643-2.713,3.537-4.141c3.148,2.017,7.209,4.02,10.93,4.02c0.719,0,1.421-0.072,2.088-0.212
			c2.957-0.622,4.535-2.232,5.362-3.566c1.257,0.418,1.971,0.418,2.349,0.418c3.074,0,5.481-2.39,5.481-5.443
			c0-2.742-1.764-4.58-3.319-6.199c-1.151-1.199-2.438-2.537-3.561-4.46c-0.278-4.206-0.606-8.44-0.925-12.544
			c-0.888-11.488-1.806-23.344-1.68-35.064c2.848,0.517,5.496,0.605,6.964,0.605c0.912,0,1.773-0.031,2.564-0.093
			c9.343-0.738,17.048-3.204,23.556-7.537c6.621-4.41,11.931-10.649,14.949-17.568c1.264-2.896,1.889-6.011,1.9-9.479
			c5.335-2.747,10.272-6.434,14.156-10.602c8.995-9.651,12.711-22.101,10.461-35.055c-2.285-13.161-13.013-24.041-27.327-27.721
			c-2.745-0.707-5.283-1.175-7.674-1.412c-0.475-6.475-2.365-12.98-5.483-18.731c-5.787-10.663-16.322-18.036-29.665-20.761
			c-2.613-0.534-5.317-0.804-8.039-0.804c-8.741,0-17.638,2.748-25.415,7.795c-1.756-1.961-3.769-3.704-5.962-5.147
			c-4.976-3.279-11.1-5.012-17.712-5.012c-5.91,0-12.003,1.347-17.622,3.895C59.662,16.71,51.432,23.64,46.361,32.244
			c-2.417,4.103-4.052,9.253-4.549,14.118c-4.99,1.94-9.485,5.109-12.666,8.996c-5.078,6.204-6.729,15.542-4.502,24.192
			c-12.32,9.567-19.749,26.626-17.557,41.242C8.893,132.842,16.143,142.92,26.981,148.444z"/>
		<path style="fill:#D4D4D4;" d="M26.604,147.969c6.466,3.291,13.883,3.337,19.844,3.374l0.402,0.001c2.371,0,5.481-0.115,8.71-0.84
			c3.049,7.323,9.542,13.427,17.938,16.579c4.121,1.546,8.863,2.364,13.713,2.364c3.57,0,6.953-0.441,10.056-1.311
			c0.41-0.115,0.914-0.214,1.462-0.343c0.019-0.004,0.036-0.009,0.055-0.013c0.021,5.837-0.072,11.025-0.287,15.983
			c-0.271,6.29-0.233,12.592-0.195,18.687c0.024,3.802,0.049,7.731-0.004,11.581c-0.253,0.454-0.504,0.686-0.701,0.804
			c-2.719,1.631-3.121,4.241-2.64,5.982c0.323,1.167,1.549,3.88,5.947,3.88c0.392,0,0.806-0.019,1.239-0.057
			c0.629,0.071,1.309,0.077,2.145,0.013c0.781-0.061,1.536-0.309,2.2-0.725c0.149-0.094,0.297-0.191,0.44-0.293
			c0.983-0.322,2.048-0.75,3.098-1.314c1.088,2.54,2.881,5.252,6.408,5.252c1.02,0,2.559-0.273,4.101-1.578
			c1.483-1.254,2.642-2.713,3.536-4.141c3.147,2.017,7.209,4.019,10.93,4.019c0.719,0,1.42-0.07,2.087-0.211
			c2.957-0.623,4.537-2.233,5.363-3.566c1.257,0.418,1.971,0.418,2.348,0.418c3.075,0,5.482-2.391,5.482-5.443
			c0-2.742-1.764-4.58-3.319-6.199c-1.151-1.198-2.438-2.537-3.561-4.461c-0.278-4.206-0.607-8.439-0.925-12.543
			c-0.888-11.488-1.806-23.344-1.679-35.063c2.847,0.517,5.496,0.605,6.962,0.605c0.913,0,1.774-0.032,2.563-0.094
			c9.345-0.738,17.05-3.203,23.557-7.536c6.622-4.411,11.932-10.649,14.949-17.567c1.263-2.897,1.889-6.011,1.899-9.48
			c5.335-2.747,10.273-6.433,14.157-10.602c8.994-9.651,12.709-22.102,10.461-35.055c-2.286-13.16-13.014-24.041-27.328-27.72
			c-2.744-0.708-5.283-1.175-7.673-1.412c-0.476-6.475-2.365-12.981-5.484-18.731c-5.787-10.664-16.322-18.036-29.665-20.76
			c-2.612-0.535-5.317-0.805-8.039-0.805c-8.741,0-17.637,2.748-25.415,7.795c-1.756-1.962-3.768-3.704-5.961-5.148
			c-4.976-3.279-11.101-5.011-17.713-5.011c-5.909,0-12.003,1.346-17.622,3.894c-11.161,5.06-19.391,11.988-24.462,20.593
			c-2.417,4.102-4.051,9.253-4.55,14.117c-4.989,1.941-9.483,5.11-12.665,8.997c-5.078,6.203-6.727,15.541-4.502,24.191
			C11.945,88.643,4.518,105.702,6.71,120.318C8.515,132.368,15.765,142.446,26.604,147.969z"/>
		<path style="fill:#C5C5C5;" d="M26.226,147.495c6.467,3.291,13.882,3.337,19.844,3.374l0.402,0.001
			c2.372,0,5.482-0.115,8.711-0.84c3.049,7.322,9.541,13.427,17.939,16.579c4.12,1.546,8.863,2.364,13.713,2.364
			c3.57,0,6.953-0.44,10.055-1.31c0.411-0.115,0.914-0.218,1.463-0.344c0.018-0.004,0.036-0.008,0.055-0.012
			c0.021,5.837-0.073,11.025-0.288,15.983c-0.271,6.29-0.233,12.592-0.195,18.688c0.025,3.802,0.05,7.732-0.004,11.581
			c-0.252,0.455-0.504,0.686-0.7,0.803c-2.719,1.631-3.122,4.242-2.64,5.983c0.322,1.167,1.549,3.88,5.947,3.88
			c0.392,0,0.806-0.02,1.239-0.057c0.629,0.07,1.309,0.078,2.145,0.014c0.78-0.061,1.535-0.311,2.2-0.727
			c0.148-0.094,0.297-0.191,0.439-0.291c0.982-0.323,2.049-0.752,3.098-1.314c1.088,2.539,2.882,5.251,6.408,5.251
			c1.02,0,2.559-0.274,4.102-1.578c1.483-1.255,2.641-2.713,3.535-4.141c3.147,2.017,7.209,4.02,10.93,4.02
			c0.72,0,1.421-0.071,2.088-0.212c2.957-0.622,4.537-2.232,5.363-3.566c1.257,0.419,1.971,0.419,2.348,0.419
			c3.074,0,5.482-2.391,5.482-5.444c0-2.742-1.765-4.58-3.32-6.198c-1.15-1.199-2.438-2.538-3.56-4.461
			c-0.278-4.206-0.607-8.439-0.925-12.544c-0.888-11.487-1.805-23.344-1.678-35.063c2.845,0.517,5.496,0.605,6.962,0.605
			c0.913,0,1.773-0.031,2.563-0.094c9.345-0.737,17.049-3.203,23.556-7.537c6.622-4.41,11.933-10.649,14.948-17.567
			c1.264-2.897,1.89-6.011,1.9-9.48c5.335-2.747,10.273-6.434,14.157-10.602c8.994-9.651,12.709-22.101,10.461-35.055
			c-2.285-13.16-13.014-24.041-27.327-27.721c-2.745-0.707-5.284-1.175-7.673-1.412c-0.476-6.475-2.366-12.98-5.484-18.73
			c-5.788-10.664-16.323-18.037-29.665-20.761c-2.612-0.534-5.317-0.804-8.04-0.804c-8.741,0-17.637,2.748-25.415,7.795
			c-1.755-1.962-3.767-3.704-5.96-5.148c-4.976-3.278-11.101-5.012-17.714-5.012c-5.909,0-12.003,1.347-17.621,3.894
			c-11.162,5.06-19.391,11.989-24.463,20.593c-2.417,4.102-4.05,9.254-4.549,14.118c-4.991,1.94-9.483,5.109-12.666,8.996
			c-5.077,6.204-6.726,15.541-4.502,24.192c-12.32,9.567-19.749,26.626-17.557,41.243C8.137,131.894,15.388,141.972,26.226,147.495z
			"/>
		<path style="fill:#B7B7B7;" d="M25.849,147.02c6.467,3.291,13.882,3.336,19.844,3.374h0.402c2.372,0,5.481-0.115,8.71-0.84
			c3.048,7.323,9.542,13.427,17.939,16.579c4.121,1.546,8.863,2.363,13.713,2.363c3.571,0,6.953-0.441,10.056-1.31
			c0.41-0.115,0.913-0.217,1.462-0.343c0.02-0.005,0.037-0.009,0.056-0.013c0.021,5.837-0.074,11.025-0.288,15.983
			c-0.271,6.29-0.232,12.592-0.195,18.687c0.024,3.803,0.049,7.732-0.004,11.581c-0.253,0.455-0.504,0.686-0.7,0.803
			c-2.72,1.631-3.122,4.242-2.641,5.983c0.323,1.167,1.549,3.88,5.948,3.88c0.391,0,0.804-0.019,1.238-0.057
			c0.629,0.07,1.309,0.078,2.145,0.014c0.781-0.061,1.537-0.311,2.2-0.727c0.149-0.094,0.297-0.191,0.441-0.291
			c0.981-0.323,2.047-0.752,3.097-1.315c1.088,2.539,2.881,5.251,6.408,5.251c1.019,0,2.56-0.274,4.102-1.578
			c1.482-1.255,2.641-2.713,3.535-4.141c3.147,2.017,7.209,4.02,10.93,4.02c0.719,0,1.421-0.071,2.088-0.212
			c2.956-0.621,4.537-2.232,5.362-3.566c1.257,0.419,1.971,0.419,2.349,0.419c3.073,0,5.482-2.39,5.482-5.444
			c0-2.742-1.764-4.578-3.318-6.198c-1.152-1.199-2.438-2.538-3.562-4.46c-0.278-4.207-0.606-8.44-0.925-12.544
			c-0.888-11.487-1.806-23.343-1.679-35.063c2.846,0.518,5.496,0.605,6.963,0.605c0.912,0,1.773-0.031,2.564-0.094
			c9.344-0.738,17.049-3.204,23.556-7.536c6.622-4.411,11.932-10.649,14.948-17.567c1.264-2.897,1.89-6.012,1.9-9.48
			c5.335-2.747,10.272-6.433,14.158-10.602c8.993-9.652,12.708-22.102,10.46-35.056c-2.286-13.16-13.014-24.041-27.328-27.721
			c-2.744-0.707-5.283-1.175-7.672-1.412c-0.477-6.475-2.366-12.98-5.485-18.731c-5.787-10.664-16.322-18.037-29.665-20.76
			c-2.611-0.535-5.317-0.804-8.039-0.804c-8.741,0-17.638,2.747-25.415,7.795c-1.756-1.962-3.768-3.704-5.96-5.148
			c-4.977-3.278-11.102-5.011-17.714-5.011c-5.909,0-12.002,1.346-17.622,3.894c-11.161,5.06-19.39,11.988-24.462,20.593
			c-2.417,4.102-4.051,9.253-4.549,14.117c-4.991,1.941-9.484,5.11-12.666,8.997c-5.078,6.203-6.728,15.541-4.502,24.191
			c-12.32,9.567-19.749,26.626-17.557,41.243C7.76,131.419,15.01,141.497,25.849,147.02z"/>
		<path style="fill:#A8A8A8;" d="M25.471,146.546c6.466,3.29,13.882,3.336,19.844,3.374l0.403,0.001c2.37,0,5.48-0.115,8.709-0.84
			c3.048,7.322,9.542,13.427,17.938,16.579c4.121,1.546,8.863,2.363,13.713,2.363c3.571,0,6.953-0.441,10.056-1.31
			c0.41-0.115,0.914-0.214,1.462-0.343c0.019-0.004,0.037-0.009,0.056-0.013c0.021,5.837-0.074,11.025-0.288,15.983
			c-0.271,6.29-0.232,12.592-0.194,18.687c0.023,3.803,0.048,7.732-0.005,11.581c-0.253,0.455-0.505,0.686-0.7,0.803
			c-2.72,1.631-3.122,4.242-2.641,5.983c0.324,1.167,1.549,3.88,5.947,3.88c0.392,0,0.805-0.02,1.239-0.057
			c0.629,0.07,1.309,0.078,2.144,0.014c0.781-0.061,1.536-0.311,2.2-0.727c0.15-0.094,0.297-0.191,0.44-0.291
			c0.983-0.323,2.048-0.752,3.098-1.314c1.088,2.539,2.881,5.251,6.409,5.251c1.019,0,2.558-0.274,4.1-1.578
			c1.483-1.255,2.642-2.713,3.537-4.141c3.147,2.017,7.209,4.02,10.93,4.02c0.718,0,1.42-0.071,2.087-0.212
			c2.956-0.621,4.536-2.232,5.362-3.566c1.257,0.42,1.971,0.42,2.349,0.42c3.073,0,5.482-2.392,5.482-5.445
			c0-2.742-1.764-4.578-3.319-6.198c-1.151-1.199-2.438-2.538-3.56-4.46c-0.279-4.206-0.606-8.439-0.926-12.544
			c-0.888-11.487-1.806-23.343-1.679-35.063c2.846,0.517,5.495,0.605,6.963,0.605c0.912,0,1.773-0.031,2.563-0.093
			c9.344-0.738,17.049-3.204,23.556-7.537c6.622-4.41,11.932-10.649,14.948-17.567c1.265-2.896,1.891-6.011,1.901-9.479
			c5.335-2.747,10.272-6.433,14.156-10.602c8.995-9.651,12.709-22.101,10.461-35.055c-2.286-13.159-13.014-24.04-27.328-27.721
			c-2.744-0.706-5.282-1.175-7.673-1.412c-0.476-6.475-2.365-12.981-5.484-18.731c-5.786-10.664-16.321-18.037-29.665-20.76
			c-2.612-0.535-5.317-0.804-8.038-0.804c-8.741,0-17.639,2.748-25.416,7.795c-1.756-1.962-3.768-3.704-5.961-5.148
			C99.672,7.593,93.547,5.86,86.934,5.86c-5.908,0-12.002,1.346-17.621,3.894c-11.161,5.06-19.391,11.988-24.461,20.593
			c-2.417,4.102-4.052,9.253-4.55,14.117c-4.991,1.941-9.484,5.11-12.666,8.996c-5.078,6.204-6.728,15.542-4.501,24.192
			c-12.321,9.567-19.75,26.627-17.557,41.243C7.382,130.944,14.632,141.023,25.471,146.546z"/>
		<path style="fill:#9A9A9A;" d="M25.094,146.071c6.465,3.291,13.882,3.337,19.844,3.373l0.402,0.001c2.37,0,5.481-0.115,8.71-0.84
			c3.048,7.322,9.542,13.427,17.937,16.579c4.122,1.546,8.864,2.363,13.713,2.363c3.57,0,6.954-0.44,10.056-1.31
			c0.411-0.115,0.915-0.214,1.463-0.343c0.019-0.004,0.036-0.009,0.055-0.013c0.021,5.837-0.074,11.025-0.288,15.983
			c-0.271,6.29-0.232,12.592-0.195,18.687c0.025,3.802,0.05,7.732-0.004,11.581c-0.254,0.455-0.504,0.686-0.7,0.803
			c-2.72,1.631-3.122,4.243-2.64,5.983c0.322,1.167,1.548,3.88,5.946,3.88c0.392,0,0.806-0.019,1.24-0.056
			c0.629,0.069,1.309,0.077,2.145,0.013c0.781-0.061,1.536-0.311,2.199-0.727c0.149-0.094,0.298-0.191,0.441-0.291
			c0.982-0.323,2.048-0.752,3.098-1.314c1.088,2.539,2.88,5.251,6.408,5.251c1.019,0,2.558-0.273,4.1-1.577
			c1.484-1.256,2.643-2.714,3.537-4.142c3.147,2.017,7.208,4.02,10.929,4.02c0.72,0,1.421-0.072,2.088-0.213
			c2.957-0.621,4.536-2.232,5.363-3.566c1.256,0.42,1.971,0.42,2.348,0.42c3.073,0,5.482-2.392,5.482-5.445
			c0-2.74-1.764-4.578-3.319-6.198c-1.152-1.199-2.439-2.538-3.561-4.459c-0.278-4.207-0.607-8.44-0.925-12.544
			c-0.889-11.488-1.807-23.344-1.68-35.064c2.847,0.517,5.495,0.605,6.963,0.605c0.913,0,1.774-0.031,2.564-0.093
			c9.344-0.738,17.049-3.204,23.557-7.537c6.621-4.411,11.932-10.649,14.948-17.568c1.264-2.896,1.89-6.011,1.9-9.479
			c5.335-2.747,10.271-6.433,14.157-10.602c8.993-9.652,12.708-22.102,10.46-35.056c-2.286-13.16-13.013-24.04-27.327-27.72
			c-2.745-0.707-5.283-1.175-7.674-1.412c-0.475-6.475-2.365-12.98-5.484-18.731c-5.787-10.664-16.322-18.036-29.664-20.76
			c-2.613-0.534-5.317-0.804-8.04-0.804c-8.741,0-17.637,2.748-25.414,7.794c-1.757-1.961-3.768-3.703-5.963-5.148
			C99.295,7.118,93.17,5.385,86.557,5.385c-5.909,0-12.002,1.347-17.621,3.894c-11.161,5.06-19.392,11.989-24.462,20.593
			c-2.417,4.102-4.051,9.253-4.55,14.118c-4.99,1.94-9.483,5.11-12.667,8.997c-5.077,6.203-6.726,15.541-4.501,24.191
			c-12.32,9.567-19.749,26.627-17.557,41.243C7.005,130.47,14.255,140.548,25.094,146.071z"/>
		<path style="fill:#8B8B8B;" d="M24.716,145.597c6.466,3.29,13.882,3.336,19.844,3.374l0.402,0c2.371,0,5.482-0.115,8.71-0.84
			c3.048,7.323,9.542,13.427,17.938,16.579c4.121,1.546,8.863,2.363,13.713,2.363c3.57,0,6.953-0.44,10.056-1.309
			c0.41-0.115,0.912-0.221,1.462-0.343c0.019-0.004,0.037-0.009,0.056-0.012c0.021,5.837-0.074,11.025-0.288,15.983
			c-0.271,6.29-0.233,12.592-0.195,18.688c0.024,3.802,0.049,7.731-0.005,11.581c-0.253,0.455-0.504,0.686-0.699,0.803
			c-2.72,1.632-3.123,4.242-2.641,5.983c0.323,1.167,1.549,3.88,5.947,3.88c0.391,0,0.805-0.019,1.239-0.057
			c0.629,0.072,1.309,0.078,2.145,0.014c0.781-0.061,1.535-0.311,2.2-0.727c0.149-0.092,0.297-0.191,0.44-0.291
			c0.982-0.322,2.048-0.75,3.098-1.314c1.088,2.54,2.881,5.251,6.408,5.251c1.02,0,2.559-0.273,4.101-1.578
			c1.483-1.254,2.642-2.713,3.536-4.14c3.146,2.016,7.209,4.019,10.93,4.019c0.719,0,1.421-0.07,2.088-0.212
			c2.956-0.621,4.536-2.232,5.362-3.566c1.257,0.42,1.971,0.42,2.349,0.42c3.073,0,5.481-2.391,5.481-5.443
			c0-2.744-1.764-4.58-3.319-6.199c-1.151-1.199-2.438-2.539-3.561-4.461c-0.278-4.207-0.606-8.44-0.925-12.544
			c-0.889-11.488-1.807-23.344-1.68-35.064c2.847,0.517,5.496,0.605,6.964,0.605c0.912,0,1.773-0.031,2.563-0.093
			c9.344-0.738,17.049-3.204,23.556-7.537c6.622-4.411,11.932-10.649,14.948-17.567c1.264-2.897,1.889-6.012,1.9-9.48
			c5.335-2.747,10.273-6.433,14.157-10.602c8.994-9.652,12.709-22.102,10.46-35.056c-2.285-13.159-13.013-24.041-27.327-27.72
			c-2.744-0.707-5.283-1.176-7.673-1.413c-0.476-6.475-2.365-12.98-5.484-18.731c-5.787-10.664-16.322-18.037-29.665-20.761
			c-2.612-0.534-5.317-0.804-8.039-0.804c-8.741,0-17.638,2.748-25.415,7.795c-1.756-1.962-3.768-3.703-5.962-5.148
			c-4.975-3.278-11.1-5.011-17.713-5.011c-5.908,0-12.002,1.347-17.622,3.894c-11.16,5.06-19.39,11.988-24.461,20.593
			c-2.417,4.103-4.052,9.253-4.549,14.118c-4.991,1.941-9.484,5.11-12.667,8.997c-5.077,6.204-6.728,15.541-4.501,24.191
			c-12.32,9.567-19.75,26.627-17.557,41.243C6.627,129.997,13.877,140.074,24.716,145.597z"/>
		<path style="fill:#7D7D7D;" d="M24.338,145.123c6.466,3.29,13.882,3.336,19.844,3.373l0.402,0.002
			c2.371,0,5.481-0.116,8.711-0.841c3.047,7.323,9.541,13.428,17.938,16.579c4.121,1.546,8.863,2.364,13.712,2.364
			c3.571,0,6.954-0.44,10.057-1.31c0.411-0.115,0.912-0.222,1.462-0.344c0.019-0.004,0.038-0.008,0.056-0.012
			c0.021,5.837-0.074,11.025-0.288,15.983c-0.271,6.29-0.233,12.593-0.194,18.688c0.022,3.801,0.048,7.731-0.005,11.581
			c-0.254,0.454-0.505,0.687-0.7,0.804c-2.72,1.63-3.123,4.241-2.641,5.982c0.324,1.167,1.549,3.879,5.947,3.879
			c0.391,0,0.805-0.018,1.239-0.056c0.629,0.071,1.309,0.077,2.145,0.013c0.781-0.061,1.536-0.309,2.2-0.725
			c0.15-0.094,0.298-0.191,0.44-0.292c0.982-0.323,2.048-0.751,3.098-1.315c1.088,2.54,2.881,5.251,6.408,5.251
			c1.021,0,2.559-0.272,4.101-1.577c1.484-1.255,2.641-2.713,3.537-4.141c3.146,2.018,7.208,4.02,10.93,4.02
			c0.718,0,1.42-0.071,2.087-0.211c2.957-0.623,4.536-2.232,5.362-3.566c1.257,0.418,1.972,0.418,2.349,0.418
			c3.073,0,5.481-2.391,5.481-5.443c0-2.742-1.764-4.579-3.319-6.199c-1.151-1.199-2.438-2.539-3.561-4.46
			c-0.278-4.207-0.605-8.439-0.925-12.544c-0.889-11.487-1.806-23.343-1.68-35.063c2.847,0.517,5.496,0.605,6.965,0.605
			c0.912,0,1.772-0.031,2.563-0.093c9.343-0.738,17.048-3.203,23.555-7.537c6.622-4.41,11.932-10.649,14.948-17.567
			c1.265-2.897,1.89-6.01,1.9-9.48c5.335-2.747,10.273-6.433,14.157-10.602c8.995-9.652,12.71-22.101,10.46-35.055
			c-2.285-13.16-13.013-24.041-27.326-27.721c-2.745-0.707-5.283-1.175-7.674-1.412c-0.475-6.474-2.365-12.98-5.484-18.73
			c-5.786-10.664-16.322-18.037-29.665-20.761c-2.612-0.534-5.317-0.804-8.039-0.804c-8.74,0-17.638,2.748-25.415,7.795
			c-1.756-1.962-3.768-3.703-5.962-5.148c-4.975-3.278-11.1-5.011-17.713-5.011c-5.908,0-12.003,1.347-17.622,3.894
			c-11.159,5.06-19.39,11.989-24.46,20.593c-2.417,4.102-4.053,9.253-4.549,14.117c-4.991,1.94-9.485,5.111-12.668,8.997
			c-5.077,6.204-6.727,15.541-4.501,24.191C9.682,85.796,2.252,102.856,4.445,117.472C6.249,129.521,13.499,139.599,24.338,145.123z
			"/>
		<path style="fill:#6E6E6E;" d="M23.96,144.648c6.467,3.29,13.882,3.336,19.844,3.374l0.402,0.001c2.372,0,5.481-0.115,8.71-0.84
			c3.049,7.322,9.543,13.427,17.939,16.579c4.12,1.546,8.862,2.364,13.712,2.364c3.57,0,6.954-0.441,10.057-1.311
			c0.409-0.115,0.91-0.227,1.462-0.343c0.019-0.004,0.036-0.008,0.055-0.012c0.021,5.836-0.074,11.024-0.287,15.983
			c-0.271,6.29-0.234,12.593-0.195,18.688c0.022,3.801,0.049,7.731-0.005,11.581c-0.254,0.454-0.505,0.687-0.7,0.804
			c-2.72,1.63-3.122,4.242-2.64,5.982c0.323,1.167,1.549,3.88,5.947,3.88c0.39,0,0.805-0.019,1.239-0.057
			c0.629,0.071,1.308,0.077,2.145,0.013c0.78-0.06,1.536-0.309,2.2-0.725c0.149-0.094,0.296-0.191,0.44-0.292
			c0.981-0.323,2.048-0.751,3.097-1.315c1.088,2.54,2.882,5.252,6.408,5.252c1.021,0,2.56-0.273,4.102-1.578
			c1.482-1.255,2.64-2.713,3.535-4.141c3.146,2.018,7.21,4.02,10.931,4.02c0.719,0,1.42-0.071,2.087-0.211
			c2.956-0.623,4.537-2.232,5.363-3.566c1.257,0.418,1.97,0.418,2.348,0.418c3.073,0,5.482-2.391,5.482-5.443
			c0-2.742-1.765-4.579-3.319-6.199c-1.152-1.199-2.439-2.538-3.562-4.461c-0.278-4.206-0.605-8.44-0.925-12.544
			c-0.889-11.487-1.807-23.343-1.68-35.064c2.847,0.518,5.497,0.605,6.965,0.605c0.911,0,1.773-0.031,2.563-0.093
			c9.343-0.738,17.049-3.204,23.555-7.537c6.623-4.41,11.932-10.649,14.949-17.567c1.263-2.897,1.888-6.011,1.899-9.479
			c5.335-2.748,10.273-6.433,14.158-10.602c8.994-9.652,12.709-22.101,10.46-35.056c-2.286-13.16-13.013-24.041-27.328-27.72
			c-2.743-0.707-5.283-1.175-7.672-1.413c-0.477-6.474-2.365-12.979-5.485-18.731c-5.786-10.663-16.322-18.037-29.664-20.761
			c-2.612-0.533-5.319-0.804-8.039-0.804c-8.742,0-17.639,2.748-25.415,7.794c-1.757-1.961-3.769-3.703-5.962-5.148
			c-4.976-3.278-11.1-5.011-17.713-5.011c-5.909,0-12.003,1.347-17.622,3.894c-11.16,5.06-19.391,11.989-24.462,20.593
			c-2.417,4.103-4.052,9.253-4.548,14.118c-4.991,1.94-9.485,5.11-12.667,8.997c-5.077,6.203-6.729,15.54-4.501,24.191
			c-12.32,9.567-19.75,26.627-17.557,41.243C5.871,129.047,13.122,139.125,23.96,144.648z"/>
		<path style="fill:#606060;" d="M23.583,144.174c6.466,3.29,13.882,3.336,19.843,3.373l0.403,0.001c2.371,0,5.481-0.115,8.71-0.84
			c3.048,7.323,9.542,13.428,17.938,16.579c4.121,1.546,8.863,2.364,13.712,2.364c3.571,0,6.954-0.44,10.057-1.31
			c0.41-0.115,0.912-0.222,1.462-0.343c0.019-0.004,0.036-0.008,0.056-0.012c0.021,5.837-0.074,11.025-0.288,15.983
			c-0.271,6.29-0.233,12.593-0.195,18.688c0.023,3.802,0.049,7.731-0.005,11.581c-0.253,0.454-0.504,0.687-0.7,0.804
			c-2.719,1.63-3.122,4.242-2.64,5.983c0.323,1.167,1.549,3.881,5.947,3.881c0.391,0,0.805-0.02,1.239-0.058
			c0.629,0.071,1.309,0.077,2.145,0.013c0.781-0.061,1.536-0.309,2.2-0.725c0.149-0.094,0.297-0.191,0.44-0.292
			c0.982-0.323,2.048-0.751,3.098-1.315c1.087,2.54,2.881,5.252,6.408,5.252c1.02,0,2.559-0.273,4.101-1.578
			c1.483-1.255,2.641-2.713,3.536-4.141c3.146,2.018,7.209,4.02,10.93,4.02c0.719,0,1.421-0.07,2.088-0.211
			c2.956-0.623,4.536-2.232,5.362-3.566c1.257,0.418,1.971,0.418,2.349,0.418c3.073,0,5.481-2.391,5.481-5.443
			c0-2.742-1.764-4.579-3.319-6.199c-1.151-1.199-2.438-2.538-3.561-4.46c-0.278-4.207-0.606-8.44-0.925-12.544
			c-0.889-11.487-1.807-23.343-1.68-35.064c2.847,0.517,5.496,0.605,6.964,0.605c0.912,0,1.773-0.031,2.563-0.093
			c9.344-0.738,17.049-3.204,23.556-7.537c6.622-4.41,11.932-10.649,14.948-17.567c1.264-2.897,1.889-6.011,1.9-9.48
			c5.335-2.747,10.273-6.433,14.157-10.602c8.994-9.652,12.709-22.101,10.46-35.055c-2.285-13.16-13.014-24.041-27.327-27.721
			c-2.744-0.707-5.283-1.175-7.673-1.412c-0.476-6.475-2.365-12.98-5.484-18.731c-5.787-10.664-16.323-18.037-29.665-20.761
			c-2.612-0.534-5.318-0.804-8.039-0.804c-8.742,0-17.638,2.748-25.415,7.795c-1.756-1.962-3.768-3.703-5.962-5.148
			c-4.975-3.278-11.1-5.011-17.713-5.011c-5.909,0-12.003,1.346-17.622,3.894c-11.16,5.06-19.391,11.989-24.461,20.593
			c-2.417,4.102-4.052,9.253-4.549,14.117c-4.991,1.941-9.484,5.11-12.667,8.997c-5.077,6.204-6.728,15.541-4.501,24.191
			c-12.32,9.567-19.75,26.627-17.557,41.243C5.494,128.573,12.744,138.65,23.583,144.174z"/>
	</g>
	<path style="fill:#FFFFFF;" d="M23.583,144.174c6.466,3.29,13.882,3.336,19.843,3.373l0.403,0.001c2.371,0,5.481-0.115,8.71-0.84
		c3.048,7.323,9.542,13.428,17.938,16.579c4.121,1.546,8.863,2.364,13.712,2.364c3.571,0,6.954-0.44,10.057-1.31
		c0.41-0.115,0.912-0.222,1.462-0.343c0.019-0.004,0.036-0.008,0.056-0.012c0.021,5.837-0.074,11.025-0.288,15.983
		c-0.271,6.29-0.233,12.593-0.195,18.688c0.023,3.802,0.049,7.731-0.005,11.581c-0.253,0.454-0.504,0.687-0.7,0.804
		c-2.719,1.63-3.122,4.242-2.64,5.983c0.323,1.167,1.549,3.881,5.947,3.881c0.391,0,0.805-0.02,1.239-0.058
		c0.629,0.071,1.309,0.077,2.145,0.013c0.781-0.061,1.536-0.309,2.2-0.725c0.149-0.094,0.297-0.191,0.44-0.292
		c0.982-0.323,2.048-0.751,3.098-1.315c1.087,2.54,2.881,5.252,6.408,5.252c1.02,0,2.559-0.273,4.101-1.578
		c1.483-1.255,2.641-2.713,3.536-4.141c3.146,2.018,7.209,4.02,10.93,4.02c0.719,0,1.421-0.07,2.088-0.211
		c2.956-0.623,4.536-2.232,5.362-3.566c1.257,0.418,1.971,0.418,2.349,0.418c3.073,0,5.481-2.391,5.481-5.443
		c0-2.742-1.764-4.579-3.319-6.199c-1.151-1.199-2.438-2.538-3.561-4.46c-0.278-4.207-0.606-8.44-0.925-12.544
		c-0.889-11.487-1.807-23.343-1.68-35.064c2.847,0.517,5.496,0.605,6.964,0.605c0.912,0,1.773-0.031,2.563-0.093
		c9.344-0.738,17.049-3.204,23.556-7.537c6.622-4.41,11.932-10.649,14.948-17.567c1.264-2.897,1.889-6.011,1.9-9.48
		c5.335-2.747,10.273-6.433,14.157-10.602c8.994-9.652,12.709-22.101,10.46-35.055c-2.285-13.16-13.014-24.041-27.327-27.721
		c-2.744-0.707-5.283-1.175-7.673-1.412c-0.476-6.475-2.365-12.98-5.484-18.731c-5.787-10.664-16.323-18.037-29.665-20.761
		c-2.612-0.534-5.318-0.804-8.039-0.804c-8.742,0-17.638,2.748-25.415,7.795c-1.756-1.962-3.768-3.703-5.962-5.148
		c-4.975-3.278-11.1-5.011-17.713-5.011c-5.909,0-12.003,1.346-17.622,3.894c-11.16,5.06-19.391,11.989-24.461,20.593
		c-2.417,4.102-4.052,9.253-4.549,14.117c-4.991,1.941-9.484,5.11-12.667,8.997c-5.077,6.204-6.728,15.541-4.501,24.191
		c-12.32,9.567-19.75,26.627-17.557,41.243C5.494,128.573,12.744,138.65,23.583,144.174z"/>
	<g>
		<path style="fill:#BA792F;" d="M80.308,98.414c0,0,18.962,15.389,20.61,39.571c1.647,24.18-0.427,72.613-0.489,72.439
			c-0.063-0.17-0.61,3.126-3.359,4.774c-2.747,1.647,7.42,1.099,10.443-3.298c3.021-4.396,3.296,9.617,6.868,6.596
			c3.572-3.021,4.672-7.97,4.672-7.97s8.794,7.693,14.015,6.595c5.22-1.099,1.1-7.419,1.1-7.419s8.243,6.046,8.243,3.573
			c0-2.475-7.971-5.496-9.343-18.137c-1.373-12.64-1.373-60.18,0.55-70.621c1.924-10.44,10.167-25.555,11.816-28.029
			c1.647-2.473-1.925-19.233-3.848-21.158c-1.924-1.921-30.502-3.296-30.502-3.296S82.231,78.63,80.308,98.414z"/>
		<path style="fill:#9A542F;" d="M102.724,210.425c-0.063-0.17-0.612,3.126-3.359,4.774c-1.08,0.649-0.162,0.954,1.528,0.824
			c6.485-4.062,8.06-14.238,8.739-21.225c0.796-8.192,0.514-16.355,0.484-24.566c-0.054-14.646,2.565-31.703-4.013-45.353
			c-5.298-10.996-14.064-19.421-23.427-26.994c-0.023,0.176-0.058,0.349-0.073,0.529c0,0,18.959,15.389,20.608,39.571
			C104.86,162.165,102.785,210.599,102.724,210.425z"/>
		<path style="fill:#9A542F;" d="M127.787,100.436c-2.338,6.136-6.535,14.008-5.097,20.783c6.474-2.533,10.355-12.727,14.265-17.846
			c2.525-3.31,5.231-6.608,8.211-9.609c-0.059-5.322-2.504-16-4.082-18.207C136.03,83.48,131.134,91.646,127.787,100.436z"/>
		<path style="fill:#9A542F;" d="M108.075,72.431c-2.922,3.958-4.96,8.813-6.254,12.917c-2.287,7.25-4.574,17.293,0.161,24.07
			c0.456,0.652,0.026,1.266-0.563,1.468c0.865,1.497,1.855,2.891,3.075,3.95c5.477,4.749,8.582-5.784,9.533-9.782
			c2.044-8.584,2.178-17.373,2.182-26.15c0-0.593,0.398-0.913,0.849-0.997c0.005-1.819-0.019-3.64-0.107-5.453
			c-4.25-0.271-7.372-0.42-7.372-0.42S109.022,72.166,108.075,72.431z"/>
		<path style="fill:#5E2C00;" d="M207.547,76.11c-2.113-12.167-12.196-20.882-23.76-23.854c-3.736-0.962-7.475-1.571-11.223-1.419
			c0.286-7.352-1.636-14.927-4.987-21.107c-5.466-10.071-15.387-16.079-26.372-18.322c-11.514-2.351-23.581,1.354-32.75,8.355
			c-0.247,0.188-0.49,0.396-0.735,0.597c-1.916-3.073-4.514-5.759-7.629-7.811c-9.03-5.951-21.228-5.028-30.664-0.75
			c-9.001,4.081-17.215,10.034-22.285,18.639c-2.324,3.942-4.162,9.802-4.03,15.221c-5.356,1.404-10.398,4.579-13.611,8.502
			c-4.853,5.93-5.566,15.48-2.538,23.024c-12.493,7.895-20.546,24.826-18.477,38.62c1.56,10.407,7.918,19.268,17.297,24.047
			c5.335,2.715,11.838,2.81,17.672,2.846c4.193,0.024,8.538-0.349,12.3-2.186c1.373,8.044,7.937,15.048,16.428,18.235
			c6.24,2.341,14.326,2.726,20.756,0.924c1.888-0.529,5.41-0.981,7.606-2.408c0.125,7.639,0.108,15.236-0.223,22.915
			c-0.438,10.121-0.056,20.154-0.197,30.248c-0.013,0.807,1.239,0.125,1.325-0.369c1.767-10.126,1.584-20.878,2.098-31.139
			c0.529-10.503,0.437-20.952-0.161-31.447c-0.969-17.063-6.238-39.048-22.271-48.316c1.595-0.883,3.381-2.19,5.079-3.776
			c3.422,5.166,6.147,10.322,10.255,15.181c2.197,2.599,5.572,8.067,9.732,5.505c2.963-1.826,3.71-5.911,4.512-8.978
			c1.862-7.127,4.121-14.99,3.687-22.445c1.953,1.343,4.161,2.344,6.308,2.904c0.682,0.176,1.372,0.303,2.064,0.409
			c-0.325,1.025-0.717,2.044-0.91,2.935c-0.682,3.143-1.049,6.292-1.106,9.512c-0.076,4.159-0.74,11.126,2.953,14.018
			c1.871,1.466,4.259-1.451,5.124-2.652c3.711-5.153,7.643-10.136,11.443-15.23c0.131,0.178,0.264,0.356,0.403,0.521
			c0.754,0.892,1.614,1.637,2.544,2.258c-4.495,6.274-8.004,11.744-9.83,19.68c-2.184,9.484-2.922,19.05-3.415,28.747
			c-1.016,19.931,0.368,40.636,5.08,60.089c0.099,0.408,0.802-0.095,0.783-0.39c-1.045-18.318-3.272-36.407-2.855-54.813
			c0.031-1.429,0.092-2.857,0.145-4.288c3.632,2.26,10.352,2.615,13.811,2.344c7.649-0.604,14.834-2.467,21.249-6.739
			c5.65-3.763,10.479-9.249,13.191-15.471c1.23-2.817,1.605-5.735,1.47-8.783c-0.024-0.574-0.147-1.127-0.308-1.669
			c6.046-2.598,11.629-6.527,15.793-10.996C206.22,98.547,209.531,87.545,207.547,76.11z"/>
		<path style="fill:#80C455;" d="M130.485,106.343c-1.32,1.625-2.632,3.226-3.868,4.916c-2.418,3.302-3.596-7.364-3.561-6.824
			c-0.271-4.121-0.561-8.187-0.462-12.318c0.022-0.966,0.276-2.516,0.374-4.003c5.096,0.441,10.304-0.987,14.604-3.745
			c-2.01,3.52-1.049,8.285,1.187,11.613C136.024,99.455,133.267,102.91,130.485,106.343z"/>
		<path style="fill:#80C455;" d="M181.404,116.155c-0.638-1.245-1.445-2.44-2.132-3.641c0.386,2.345,0.509,4.708,0.384,7.063
			c0.349,2.262,0.356,4.594-0.47,7.438c-1.936,6.671-7.988,12.127-13.574,15.797c-9.355,6.144-22.359,6.091-32.582,2.457
			c-0.045-0.017-0.1-0.011-0.148-0.017c0.313-6.405,0.849-12.811,1.711-19.148c1.325-9.744,4.578-17.809,8.892-26.356
			c4.39,2.561,10.162,2.358,14.541-0.165c0.085-0.049,0.168-0.118,0.25-0.197c-5.688,0.891-12.384,0.239-15.531-3.395
			c-4.104-4.733-4.669-11.125-0.924-15.852c-5.513,3.37-11.305,5.121-17.801,4.488c-0.044-0.003-0.089-0.009-0.13-0.017
			c-1.481-0.081-2.947-0.347-4.368-0.856c-6.271-2.253-9.221-6.224-11.245-11.841c-1.5,4.871,1.074,9.222,4.939,12.18
			c-0.158,0.146-0.286,0.32-0.308,0.464c-0.823,5.566-1.288,11.1-2.481,16.623c-0.447,2.08-0.994,4.134-1.555,6.186
			c-0.463,1.696-2.092,9.526-6.387,5.32c-5.703-5.583-9.942-12.616-15.863-18.03c4.321-4.333,7.723-10.346,5.236-15.406
			c-0.615,5.738-3.238,11.748-7.305,15.042c-3.652,2.962-7.443,4.564-12.101,5.314c-2.95,0.474-5.799-0.07-8.632-0.753
			c3.73,4.111,11.207,3.137,16.074,0.777c14.477,12.652,19.688,32.588,20.157,51.022c0.034,1.354,0.055,2.702,0.082,4.049
			c-1.646,1.54-9.131,2.45-10.57,2.664c-6.113,0.915-12.855-0.237-18.462-2.704c-6.496-2.857-11.716-8.819-13.399-15.533
			c0.009-0.007,0.015-0.019,0.022-0.028c-1.027-2.256-1.675-4.648-1.789-6.995c-0.605,2.008-0.856,4.013-0.789,5.974
			c-7.867,1.618-16.074,1.925-23.904-0.139c-8.656-2.285-15.091-10.06-18.188-18.093c-5.322-13.803,1.497-30.502,13.189-39.687
			c1.154-1.33,2.445-2.546,3.922-3.579c1.5-1.048,3.195-2.152,4.997-3.062c-2.252,0.555-4.424,1.395-6.487,2.489
			c-2.11-5.884-1.831-12.591,0.923-18.547c2.565-5.553,7.668-8.459,13.339-9.516c0.432,3.16,1.67,6.032,4.008,8.124
			c-1.5-5.064-1.671-10.267-0.54-15.202c0.457-3.486,1.584-6.93,3.234-10.121c4.175-8.063,12.906-13.129,20.883-16.748
			c9.671-4.384,21.666-2.548,29.813,3.639c5.479,2.736,8.8,8.8,10.664,15.185c-0.017-3.84-0.991-7.578-2.772-10.93
			c3.167-2.459,6.804-4.301,10.536-5.72c9.314-3.537,20.002-2.631,29.021,1.256c8.189,3.529,14.404,10.571,17.988,18.595
			c2.318,5.193,2.95,10.225,2.656,15.268c-0.76,0.146-1.523,0.324-2.284,0.545c-1.769,0.521-4.53,1.002-6.678,2.043
			c3.516-0.309,6.971-1.237,10.545-1.139c0.699,0.019,1.386,0.055,2.067,0.101c0.002-0.019,0.006-0.038,0.008-0.055
			c4.523,0.063,8.976,1.468,13.172,3.048c9.354,3.524,15.738,10.984,18.579,20.444C209.039,93.597,196.717,109.048,181.404,116.155z
			"/>
		<path style="fill:#80C455;" d="M188.141,62.316c9.961,7.908,15.502,18.978,15.855,30.601c1.685-5.178,1.935-10.816,0.177-16.672
			c-2.841-9.459-9.225-16.918-18.581-20.444c-4.193-1.582-8.646-2.986-13.172-3.05c-0.002,0.019-0.006,0.036-0.006,0.057
			c-0.682-0.047-1.368-0.081-2.068-0.101c-2.63-0.074-5.197,0.411-7.77,0.794C171.52,53.372,180.515,56.263,188.141,62.316z"/>
		<path style="fill:#80C455;" d="M72.44,49.236c-7.278-1.52-18.384,5.432-20.34,11.862c-0.285,0.938-1.861,1.095-2.055,0
			C47.105,44.42,57.578,27.21,73.637,21.68c15.291-5.263,30.813,1.212,33.757,17.178c4.644-6.708,12.754-11.992,20.525-12.966
			c3.015-0.864,6.208-1.037,9.173,0.255c2.727,1.19,4.774,3.077,6.24,5.354c4.554,5.24,6.132,13.226,4.345,20.442
			c-0.466,1.876-1.122,3.689-1.93,5.418c4.565-2.135,9.413-3.387,14.313-3.73c2.047-0.862,4.477-1.307,6.089-1.781
			c0.762-0.222,1.523-0.401,2.284-0.545c0.295-5.045-0.337-10.079-2.655-15.27c-3.585-8.021-9.8-15.065-17.989-18.595
			c-9.02-3.888-19.709-4.793-29.021-1.256c-3.735,1.419-7.371,3.261-10.537,5.72c1.781,3.352,2.756,7.089,2.773,10.932
			c-1.864-6.387-5.188-12.449-10.663-15.188c-8.146-6.186-20.143-8.022-29.813-3.636c-7.977,3.617-16.709,8.683-20.884,16.748
			c-1.65,3.188-2.778,6.633-3.233,10.121c-1.131,4.934-0.959,10.138,0.541,15.2c-2.339-2.091-3.578-4.961-4.01-8.124
			c-5.671,1.059-10.772,3.963-13.34,9.516c-2.753,5.957-3.032,12.661-0.922,18.547c2.064-1.095,4.235-1.934,6.487-2.489
			c-1.801,0.908-3.496,2.014-4.997,3.063c-1.478,1.033-2.768,2.249-3.922,3.577c-11.692,9.187-18.513,25.881-13.189,39.688
			c1.783,4.621,4.675,9.15,8.454,12.606c-1.146-3.463-1.747-7.178-1.88-10.763c-0.491-13.364,4.73-25.245,13.906-34.416
			c1.707-2.166,3.792-4.022,6.28-5.407c0.891-0.498,1.689,0.313,1.564,1.203c-0.76,5.386,0.026,11.234,3.035,15.789
			C42.816,77.734,54.444,59.999,72.44,49.236z"/>
	</g>
</g>
</svg>
