<?xml version="1.0" encoding="utf-8"?>
<!-- Generator: Adobe Illustrator 27.5.0, SVG Export Plug-In . SVG Version: 6.00 Build 0)  -->
<svg version="1.1" xmlns="http://www.w3.org/2000/svg" xmlns:xlink="http://www.w3.org/1999/xlink" x="0px" y="0px"
	 viewBox="0 0 1122 1122" style="enable-background:new 0 0 1122 1122;" xml:space="preserve">
<g id="BG">
	<rect id="XMLID_849_" x="0.001" y="-10.102" style="fill:#FFFFFF;" width="1122" height="1122"/>
</g>
<g id="Object">
	<g id="XMLID_2692_">
		<g id="XMLID_3037_">
			<g id="XMLID_3038_">
				<g id="XMLID_3043_">
					<polygon id="XMLID_2388_" style="fill:#7F8080;" points="581.856,666.956 616.986,604.722 611.699,601.674 576.569,663.908 
											"/>
				</g>
				<g id="XMLID_3039_">
					<path id="XMLID_3040_" style="fill:#424243;" d="M581.914,668.615c-0.308,0.011-0.616-0.064-0.888-0.221l-5.286-3.048
						c-0.789-0.454-1.064-1.46-0.617-2.252l35.13-62.233c0.218-0.387,0.58-0.669,1.007-0.785c0.425-0.115,0.883-0.058,1.267,0.162
						l5.287,3.047c0.79,0.456,1.064,1.462,0.617,2.254L583.3,667.771c-0.217,0.387-0.58,0.669-1.007,0.785
						C582.169,668.592,582.042,668.61,581.914,668.615z M578.823,663.292l2.41,1.39l33.499-59.343l-2.411-1.39L578.823,663.292z"/>
				</g>
			</g>
		</g>
		<g id="XMLID_2693_">
			<g id="XMLID_3030_">
				<g id="XMLID_3035_">
					<path id="XMLID_2385_" style="fill:#595959;" d="M599.376,602.999c0,3.539,2.868,6.407,6.407,6.407h33.392
						c3.539,0,6.407-2.868,6.407-6.407l0,0c0-3.539-2.868-6.407-6.407-6.407h-33.392
						C602.245,596.592,599.376,599.46,599.376,602.999L599.376,602.999z"/>
				</g>
				<g id="XMLID_3031_">
					<path id="XMLID_3032_" style="fill:#424243;" d="M639.176,611.065h-33.392c-4.448,0-8.067-3.619-8.067-8.066
						c0-4.449,3.619-8.067,8.067-8.067h33.392c4.449,0,8.067,3.618,8.067,8.067C647.242,607.446,643.624,611.065,639.176,611.065z
						 M605.783,598.251c-2.617,0-4.747,2.13-4.747,4.748c0,2.617,2.13,4.747,4.747,4.747h33.392c2.618,0,4.747-2.13,4.747-4.747
						c0-2.618-2.129-4.748-4.747-4.748H605.783z"/>
				</g>
			</g>
			<g id="XMLID_3023_">
				<g id="XMLID_3028_">
					<path id="XMLID_2382_" style="fill:#D0534F;" d="M788.377,489.514c68.847,0,128.198,40.622,155.411,99.203
						c2.06,4.433-1.227,9.505-6.116,9.505h-0.004c-2.603,0-4.976-1.504-6.073-3.864c-25.082-53.984-79.772-91.42-143.218-91.42
						c-81.723,0-148.93,62.101-157.032,141.686c-0.351,3.443-3.219,6.078-6.68,6.078l0,0c-3.95,0-7.087-3.395-6.691-7.324
						C626.706,556.964,699.66,489.514,788.377,489.514z"/>
				</g>
				<g id="XMLID_3024_">
					<path id="XMLID_3025_" style="fill:#424243;" d="M624.665,652.362c-2.373,0-4.646-1.009-6.238-2.77
						c-1.572-1.737-2.338-4.063-2.104-6.38c4.284-42.399,24.079-81.606,55.74-110.4c31.88-28.991,73.187-44.958,116.313-44.958
						c33.605,0,66.187,9.649,94.223,27.902c27.315,17.784,48.994,42.771,62.693,72.262c1.201,2.583,0.998,5.567-0.54,7.979
						c-1.553,2.433-4.2,3.885-7.082,3.885c-3.245,0-6.219-1.893-7.582-4.823c-12.374-26.635-31.955-49.202-56.622-65.264
						c-25.318-16.483-54.742-25.197-85.09-25.197c-38.93,0-76.222,14.407-105.007,40.568c-28.589,25.98-46.478,61.361-50.374,99.627
						C632.556,649.108,628.974,652.362,624.665,652.362z M788.377,491.174c-42.298,0-82.812,15.66-114.079,44.095
						c-31.054,28.241-50.47,66.694-54.673,108.276c-0.142,1.407,0.307,2.764,1.265,3.822c0.964,1.065,2.339,1.677,3.775,1.677
						c2.6,0,4.762-1.972,5.029-4.587c3.978-39.08,22.249-75.215,51.443-101.746c29.398-26.717,67.483-41.431,107.24-41.431
						c30.994,0,61.044,8.899,86.901,25.735c25.191,16.401,45.186,39.446,57.822,66.646c0.82,1.763,2.614,2.903,4.569,2.903
						c1.744,0,3.346-0.88,4.286-2.352c0.94-1.472,1.061-3.22,0.329-4.795c-13.437-28.926-34.701-53.434-61.493-70.878
						C853.293,500.636,821.337,491.174,788.377,491.174z"/>
				</g>
			</g>
			<g id="XMLID_3015_">
				<g id="XMLID_3021_">
					<path id="XMLID_2379_" style="fill:#8D7558;" d="M293.753,382.021c0.364-1.523,1.893-2.464,3.417-2.1l45.16,10.78
						c0.232,0.055,0.444,0.145,0.646,0.25c0.227-0.002,0.457,0.013,0.689,0.069l45.16,10.78c1.523,0.364,2.464,1.893,2.1,3.417
						c-0.344,1.441-1.732,2.346-3.171,2.134l0.286,0.094c-8.891,1.022-20.415,49.432-20.415,49.432
						c-3.155,13.215-16.425,21.37-29.641,18.216l-12.635-3.015l-3.291-0.786l-12.636-3.016c-13.215-3.155-21.37-16.424-18.216-29.64
						c0,0,11.584-48.396,4.114-53.323l0.297,0.045C294.239,384.896,293.409,383.461,293.753,382.021z"/>
				</g>
				<g id="XMLID_3016_">
					<path id="XMLID_3017_" style="fill:#424243;" d="M343.748,477.988c-2.089,0-4.192-0.246-6.277-0.743l-28.562-6.818
						c-6.966-1.663-12.867-5.938-16.618-12.042c-3.75-6.101-4.899-13.299-3.236-20.265c6.082-25.417,8.393-48.754,5.046-50.962
						c-0.097-0.065-0.19-0.136-0.274-0.214c-1.807-1.122-2.741-3.279-2.227-5.436c0.312-1.311,1.117-2.424,2.267-3.13
						c1.147-0.706,2.502-0.924,3.815-0.61l45.161,10.78c0.217,0.052,0.435,0.121,0.655,0.21c0.234,0.021,0.46,0.056,0.679,0.11
						l45.159,10.779c1.313,0.313,2.424,1.118,3.131,2.268c0.706,1.149,0.923,2.505,0.609,3.817
						c-0.514,2.155-2.322,3.657-4.441,3.845c-0.11,0.03-0.225,0.053-0.342,0.067c-3.985,0.458-12.464,22.322-18.516,47.745
						c-1.662,6.969-5.939,12.87-12.041,16.62C353.46,476.638,348.644,477.988,343.748,477.988z M297.612,384.397
						c2.25,2.562,3.82,9.152,0.641,29.761c-1.954,12.657-4.863,24.869-4.893,24.991c-1.389,5.814-0.429,11.824,2.703,16.919
						c3.131,5.095,8.058,8.665,13.874,10.053l28.562,6.818c5.817,1.388,11.826,0.43,16.92-2.702
						c5.095-3.13,8.666-8.059,10.055-13.877c0.029-0.119,2.948-12.329,6.921-24.504c6.47-19.819,10.848-24.99,14.012-26.261
						c0.46-0.353,1.052-0.528,1.67-0.434c0.331,0.046,0.622-0.151,0.696-0.457c0.08-0.335-0.128-0.672-0.463-0.752l-45.158-10.779
						c-0.007-0.001-0.039-0.007-0.156-0.008c-0.384-0.017-0.719-0.083-1.039-0.249c-0.097-0.051-0.134-0.06-0.134-0.06
						l-45.167-10.783c-0.204-0.046-0.369,0.014-0.47,0.076c-0.101,0.062-0.23,0.178-0.28,0.386l0,0
						c-0.073,0.309,0.103,0.62,0.413,0.722C296.906,383.453,297.36,383.874,297.612,384.397z M293.753,382.021h0.011H293.753z"/>
				</g>
			</g>
			<g id="XMLID_2962_">
				<g id="XMLID_2982_">
					<g id="XMLID_3011_">
						<g id="XMLID_3012_">
							<g id="XMLID_3013_">
								
									<rect id="XMLID_2375_" x="723.11" y="570.091" transform="matrix(0.3649 -0.9311 0.9311 0.3649 -135.0719 1080.765)" style="fill:#424243;" width="3.051" height="138.591"/>
							</g>
						</g>
					</g>
					<g id="XMLID_3007_">
						<g id="XMLID_3008_">
							<g id="XMLID_3009_">
								
									<rect id="XMLID_2374_" x="683.551" y="715.178" transform="matrix(0.6094 -0.7929 0.7929 0.6094 -275.6141 873.9872)" style="fill:#424243;" width="131.235" height="3.051"/>
							</g>
						</g>
					</g>
					<g id="XMLID_3003_">
						<g id="XMLID_3004_">
							<g id="XMLID_3005_">
								
									<rect id="XMLID_2373_" x="794.152" y="664.351" transform="matrix(0.9951 -0.099 0.099 0.9951 -68.4008 82.4015)" style="fill:#424243;" width="3.051" height="131.449"/>
							</g>
						</g>
					</g>
					<g id="XMLID_2999_">
						<g id="XMLID_3000_">
							<g id="XMLID_3001_">
								
									<rect id="XMLID_2372_" x="848.119" y="624.507" transform="matrix(0.3878 -0.9217 0.9217 0.3878 -115.982 1205.652)" style="fill:#424243;" width="3.051" height="131.264"/>
							</g>
						</g>
					</g>
					<g id="XMLID_2995_">
						<g id="XMLID_2996_">
							<g id="XMLID_2997_">
								<polygon id="XMLID_2371_" style="fill:#424243;" points="785.827,669.956 902.352,589.263 900.61,586.759 784.084,667.451 
																	"/>
							</g>
						</g>
					</g>
					<g id="XMLID_2991_">
						<g id="XMLID_2992_">
							<g id="XMLID_2993_">
								
									<rect id="XMLID_2370_" x="751.573" y="601.541" transform="matrix(0.4576 -0.8891 0.8891 0.4576 -91.0081 1056.936)" style="fill:#424243;" width="138.581" height="3.051"/>
							</g>
						</g>
					</g>
					<g id="XMLID_2987_">
						<g id="XMLID_2988_">
							<g id="XMLID_2989_">
								
									<rect id="XMLID_2369_" x="771.504" y="527.608" transform="matrix(0.9727 -0.2322 0.2322 0.9727 -117.5181 195.8219)" style="fill:#424243;" width="3.052" height="138.964"/>
							</g>
						</g>
					</g>
					<g id="XMLID_2983_">
						<g id="XMLID_2984_">
							<g id="XMLID_2985_">
								
									<rect id="XMLID_2368_" x="671.747" y="703.489" transform="matrix(0.7888 -0.6146 0.6146 0.7888 -277.5979 602.0856)" style="fill:#424243;" width="131.266" height="3.051"/>
							</g>
						</g>
					</g>
				</g>
				<g id="XMLID_2971_">
					<g id="XMLID_2978_">
						<path id="XMLID_2979_" style="fill:#FFFFFF;" d="M630.513,660.804c0,87.186,70.678,157.864,157.864,157.864
							s157.864-70.678,157.864-157.864s-70.678-157.865-157.864-157.865S630.513,573.618,630.513,660.804z M649.819,660.804
							c0-76.523,62.034-138.558,138.558-138.558s138.558,62.034,138.558,138.558s-62.034,138.557-138.558,138.557
							S649.819,737.327,649.819,660.804z"/>
					</g>
					<g id="XMLID_2972_">
						<path id="XMLID_2973_" style="fill:#424243;" d="M788.377,820.327c-87.962,0-159.524-71.562-159.524-159.524
							c0-87.962,71.561-159.525,159.524-159.525c87.962,0,159.524,71.562,159.524,159.525
							C947.901,748.765,876.34,820.327,788.377,820.327z M788.377,504.599c-86.131,0-156.204,70.074-156.204,156.205
							s70.073,156.204,156.204,156.204s156.204-70.073,156.204-156.204S874.509,504.599,788.377,504.599z M788.377,801.021
							c-77.316,0-140.218-62.902-140.218-140.217c0-77.316,62.902-140.218,140.218-140.218s140.217,62.902,140.217,140.218
							C928.594,738.119,865.693,801.021,788.377,801.021z M788.377,523.906c-75.485,0-136.898,61.412-136.898,136.898
							c0,75.485,61.413,136.897,136.898,136.897c75.485,0,136.897-61.412,136.897-136.897
							C925.274,585.318,863.862,523.906,788.377,523.906z"/>
					</g>
				</g>
				<g id="XMLID_2966_">
					<g id="XMLID_2967_">
						<path id="XMLID_2968_" style="fill:#424243;" d="M649.819,660.804c0,76.524,62.034,138.557,138.558,138.557
							s138.558-62.034,138.558-138.557s-62.034-138.558-138.558-138.558S649.819,584.28,649.819,660.804z M657.142,660.804
							c0-72.479,58.756-131.235,131.235-131.235s131.234,58.756,131.234,131.235c0,72.479-58.755,131.234-131.234,131.234
							S657.142,733.282,657.142,660.804z"/>
					</g>
				</g>
				<g id="XMLID_2963_">
					<g id="XMLID_2964_">
						<path id="XMLID_2359_" style="fill:#424243;" d="M807.104,660.804c0-10.343-8.384-18.728-18.727-18.728
							c-10.342,0-18.727,8.384-18.727,18.728c0,10.342,8.385,18.727,18.727,18.727C798.72,679.53,807.104,671.146,807.104,660.804z"
							/>
					</g>
				</g>
			</g>
			<g id="XMLID_2951_">
				<g id="XMLID_2958_">
					<path id="XMLID_2959_" style="fill:#7F8080;" d="M540.402,675.45c0,18.932,15.346,34.279,34.278,34.279
						s34.279-15.347,34.279-34.279c0-18.932-15.347-34.278-34.279-34.278S540.402,656.518,540.402,675.45z M552.145,675.45
						c0-12.446,10.089-22.535,22.535-22.535s22.536,10.089,22.536,22.535s-10.09,22.536-22.536,22.536
						S552.145,687.896,552.145,675.45z"/>
				</g>
				<g id="XMLID_2952_">
					<path id="XMLID_2953_" style="fill:#424243;" d="M574.68,711.941c-20.122,0-36.492-16.37-36.492-36.492
						c0-20.122,16.37-36.492,36.492-36.492c20.122,0,36.491,16.37,36.491,36.492C611.172,695.571,594.802,711.941,574.68,711.941z
						 M574.68,643.385c-17.68,0-32.066,14.385-32.066,32.065c0,17.681,14.386,32.066,32.066,32.066
						c17.681,0,32.066-14.385,32.066-32.066C606.746,657.769,592.361,643.385,574.68,643.385z M574.68,700.198
						c-13.646,0-24.748-11.103-24.748-24.749c0-13.646,11.102-24.748,24.748-24.748c13.646,0,24.749,11.102,24.749,24.748
						C599.429,689.096,588.326,700.198,574.68,700.198z M574.68,655.128c-11.206,0-20.322,9.116-20.322,20.322
						s9.116,20.323,20.322,20.323c11.206,0,20.322-9.117,20.322-20.323S585.886,655.128,574.68,655.128z"/>
				</g>
			</g>
			<g id="XMLID_2943_">
				<g id="XMLID_2944_">
					<g id="XMLID_2949_">
						<polygon id="XMLID_2352_" style="fill:#7F8080;" points="542.989,733.518 580.319,672.579 575.144,669.344 537.814,730.283 
													"/>
					</g>
					<g id="XMLID_2945_">
						<path id="XMLID_2946_" style="fill:#424243;" d="M542.989,735.178c-0.309,0-0.614-0.087-0.88-0.253l-5.174-3.235
							c-0.773-0.482-1.012-1.497-0.536-2.274l37.329-60.939c0.232-0.378,0.604-0.647,1.036-0.749c0.429-0.1,0.884-0.026,1.26,0.208
							l5.174,3.234c0.773,0.483,1.012,1.498,0.537,2.274l-37.331,60.941c-0.232,0.378-0.604,0.647-1.035,0.749
							C543.244,735.164,543.116,735.178,542.989,735.178z M540.089,729.748l2.359,1.475l35.597-58.11l-2.36-1.474L540.089,729.748z"
							/>
					</g>
				</g>
			</g>
			<g id="XMLID_2890_">
				<g id="XMLID_2910_">
					<g id="XMLID_2939_">
						<g id="XMLID_2940_">
							<g id="XMLID_2941_">
								
									<rect id="XMLID_2349_" x="286.638" y="524.943" transform="matrix(0.9606 -0.2781 0.2781 0.9606 -153.8861 103.5758)" style="fill:#424243;" width="3.051" height="138.591"/>
							</g>
						</g>
					</g>
					<g id="XMLID_2935_">
						<g id="XMLID_2936_">
							<g id="XMLID_2937_">
								<rect id="XMLID_2348_" x="176.19" y="659.278" style="fill:#424243;" width="131.235" height="3.051"/>
							</g>
						</g>
					</g>
					<g id="XMLID_2931_">
						<g id="XMLID_2932_">
							<g id="XMLID_2933_">
								
									<rect id="XMLID_2347_" x="186.638" y="694.826" transform="matrix(0.8406 -0.5417 0.5417 0.8406 -336.9931 247.665)" style="fill:#424243;" width="131.249" height="3.052"/>
							</g>
						</g>
					</g>
					<g id="XMLID_2927_">
						<g id="XMLID_2928_">
							<g id="XMLID_2929_">
								
									<rect id="XMLID_2346_" x="322.57" y="658.651" transform="matrix(0.9672 -0.2539 0.2539 0.9672 -173.2975 106.0402)" style="fill:#424243;" width="3.051" height="131.265"/>
							</g>
						</g>
					</g>
					<g id="XMLID_2923_">
						<g id="XMLID_2924_">
							<g id="XMLID_2925_">
								
									<rect id="XMLID_2345_" x="365.436" y="612.174" transform="matrix(0.3029 -0.953 0.953 0.3029 -392.8899 824.2517)" style="fill:#424243;" width="3.052" height="137.014"/>
							</g>
						</g>
					</g>
					<g id="XMLID_2919_">
						<g id="XMLID_2920_">
							<g id="XMLID_2921_">
								
									<rect id="XMLID_2344_" x="306.307" y="646.88" transform="matrix(0.9839 -0.1789 0.1789 0.9839 -109.9567 77.6688)" style="fill:#424243;" width="138.581" height="3.051"/>
							</g>
						</g>
					</g>
					<g id="XMLID_2915_">
						<g id="XMLID_2916_">
							<g id="XMLID_2917_">
								
									<rect id="XMLID_2343_" x="283.595" y="608.687" transform="matrix(0.6368 -0.771 0.771 0.6368 -343.6503 490.846)" style="fill:#424243;" width="131.238" height="3.051"/>
							</g>
						</g>
					</g>
					<g id="XMLID_2911_">
						<g id="XMLID_2912_">
							<g id="XMLID_2913_">
								
									<rect id="XMLID_2342_" x="242.367" y="578.7" transform="matrix(0.2509 -0.968 0.968 0.2509 -441.0229 718.7661)" style="fill:#424243;" width="3.051" height="131.266"/>
							</g>
						</g>
					</g>
				</g>
				<g id="XMLID_2899_">
					<g id="XMLID_2906_">
						<path id="XMLID_2907_" style="fill:#FFFFFF;" d="M149.561,660.804c0,87.186,70.679,157.864,157.865,157.864
							s157.864-70.678,157.864-157.864s-70.678-157.865-157.864-157.865S149.561,573.618,149.561,660.804z M168.867,660.804
							c0-76.523,62.034-138.558,138.558-138.558s138.558,62.034,138.558,138.558s-62.034,138.557-138.558,138.557
							S168.867,737.327,168.867,660.804z"/>
					</g>
					<g id="XMLID_2900_">
						<path id="XMLID_2901_" style="fill:#424243;" d="M307.424,820.327c-87.961,0-159.524-71.562-159.524-159.524
							c0-87.962,71.562-159.525,159.524-159.525c87.962,0,159.525,71.562,159.525,159.525
							C466.949,748.765,395.387,820.327,307.424,820.327z M307.424,504.599c-86.132,0-156.204,70.074-156.204,156.205
							s70.073,156.204,156.204,156.204c86.132,0,156.205-70.073,156.205-156.204S393.557,504.599,307.424,504.599z M307.424,801.021
							c-77.315,0-140.217-62.902-140.217-140.217c0-77.316,62.902-140.218,140.217-140.218c77.317,0,140.219,62.902,140.219,140.218
							C447.643,738.119,384.741,801.021,307.424,801.021z M307.424,523.906c-75.485,0-136.897,61.412-136.897,136.898
							c0,75.485,61.412,136.897,136.897,136.897c75.487,0,136.899-61.412,136.899-136.897
							C444.324,585.318,382.911,523.906,307.424,523.906z"/>
					</g>
				</g>
				<g id="XMLID_2894_">
					<g id="XMLID_2895_">
						<path id="XMLID_2896_" style="fill:#424243;" d="M168.867,660.804c0,76.524,62.034,138.557,138.558,138.557
							s138.558-62.034,138.558-138.557s-62.034-138.558-138.558-138.558S168.867,584.28,168.867,660.804z M176.19,660.804
							c0-72.479,58.756-131.235,131.235-131.235c72.478,0,131.234,58.756,131.234,131.235c0,72.479-58.756,131.234-131.234,131.234
							C234.946,792.038,176.19,733.282,176.19,660.804z"/>
					</g>
				</g>
				<g id="XMLID_2891_">
					<g id="XMLID_2892_">
						<path id="XMLID_2333_" style="fill:#424243;" d="M326.152,660.804c0-10.343-8.384-18.728-18.727-18.728
							c-10.342,0-18.728,8.384-18.728,18.728c0,10.342,8.385,18.727,18.728,18.727C317.768,679.53,326.152,671.146,326.152,660.804z
							"/>
					</g>
				</g>
			</g>
			<g id="XMLID_2883_">
				<g id="XMLID_2888_">
					<polygon id="XMLID_2332_" style="fill:#D0534F;" points="582.38,604.935 586.198,594.778 380.532,441.416 371.239,447.272 
											"/>
				</g>
				<g id="XMLID_2884_">
					<path id="XMLID_2885_" style="fill:#424243;" d="M582.38,606.595c-0.353,0-0.702-0.113-0.993-0.33l-211.14-157.662
						c-0.438-0.328-0.687-0.849-0.666-1.397c0.021-0.546,0.311-1.047,0.774-1.339l9.292-5.855c0.581-0.365,1.328-0.337,1.876,0.075
						L587.19,593.448c0.594,0.442,0.823,1.222,0.561,1.915l-3.819,10.157c-0.184,0.489-0.586,0.861-1.086,1.008
						C582.693,606.573,582.537,606.595,582.38,606.595z M374.169,447.387l207.434,154.896l2.603-6.92L380.453,443.428
						L374.169,447.387z"/>
				</g>
			</g>
			<g id="XMLID_2875_">
				<g id="XMLID_2876_">
					<g id="XMLID_2881_">
						<path id="XMLID_2329_" style="fill:#D0534F;" d="M757.938,638.534l10.467-3.33c-0.4-1.258-10.083-31.185-34.77-65.038
							c-14.516-19.905-31.229-37.006-49.675-50.828c-23.115-17.321-49.008-29.5-76.962-36.203l-2.56,10.681
							c26.488,6.35,51.027,17.895,72.935,34.311c17.572,13.167,33.515,29.489,47.387,48.51
							C748.407,609.064,757.845,638.243,757.938,638.534z"/>
					</g>
					<g id="XMLID_2877_">
						<path id="XMLID_2878_" style="fill:#424243;" d="M757.939,640.194c-0.702,0-1.355-0.449-1.581-1.154
							c-0.093-0.29-9.543-29.34-32.939-61.424c-13.775-18.889-29.602-35.092-47.042-48.16c-21.726-16.28-46.06-27.728-72.327-34.024
							c-0.891-0.214-1.439-1.11-1.227-2.001l2.561-10.682c0.103-0.428,0.372-0.798,0.747-1.028c0.376-0.232,0.829-0.3,1.254-0.2
							c28.177,6.757,54.275,19.033,77.57,36.489c18.579,13.921,35.408,31.141,50.021,51.178
							c24.816,34.031,34.607,64.244,35.011,65.513c0.134,0.419,0.096,0.874-0.107,1.266c-0.202,0.39-0.551,0.686-0.971,0.82
							l-10.466,3.33C758.275,640.169,758.106,640.194,757.939,640.194z M606.437,492.596c26.095,6.48,50.286,17.983,71.931,34.202
							c17.703,13.266,33.763,29.705,47.733,48.861c20.613,28.267,30.561,54.27,32.881,60.801l7.313-2.326
							c-2.331-6.697-12.371-33.33-34.001-62.992c-14.419-19.769-31.015-36.753-49.329-50.477
							c-22.486-16.85-47.624-28.796-74.741-35.524L606.437,492.596z"/>
					</g>
				</g>
			</g>
			<g id="XMLID_2868_">
				<g id="XMLID_2873_">
					<path id="XMLID_2326_" style="fill:#595959;" d="M510.307,731.901c0,3.539,2.868,6.407,6.407,6.407h33.392
						c3.538,0,6.407-2.869,6.407-6.407l0,0c0-3.539-2.869-6.407-6.407-6.407h-33.392
						C513.175,725.494,510.307,728.362,510.307,731.901L510.307,731.901z"/>
				</g>
				<g id="XMLID_2869_">
					<path id="XMLID_2870_" style="fill:#424243;" d="M550.106,739.967h-33.393c-4.447,0-8.066-3.618-8.066-8.066
						c0-4.449,3.619-8.067,8.066-8.067h33.393c4.448,0,8.067,3.618,8.067,8.067C558.173,736.349,554.554,739.967,550.106,739.967z
						 M516.713,727.153c-2.617,0-4.747,2.13-4.747,4.747c0,2.617,2.13,4.747,4.747,4.747h33.393c2.618,0,4.747-2.129,4.747-4.747
						c0-2.618-2.129-4.747-4.747-4.747H516.713z"/>
				</g>
			</g>
			<g id="XMLID_2861_">
				<g id="XMLID_2866_">
					<path id="XMLID_2323_" style="fill:#D0534F;" d="M414.68,528.543c53.504,43.327,74.063,112.247,58.346,174.899
						c-1.189,4.741-6.936,6.614-10.735,3.538l-0.004-0.003c-2.022-1.638-2.921-4.299-2.287-6.824
						c14.48-57.738-4.462-121.249-53.77-161.176c-63.51-51.43-154.822-45.463-211.202,11.286c-2.44,2.456-6.327,2.698-9.016,0.52
						l0,0c-3.07-2.485-3.371-7.099-0.59-9.902C246.59,479.219,345.733,472.712,414.68,528.543z"/>
				</g>
				<g id="XMLID_2862_">
					<path id="XMLID_2863_" style="fill:#424243;" d="M466.517,710.143c-1.883,0-3.73-0.636-5.246-1.854
						c-0.009-0.008-0.019-0.014-0.028-0.021c-2.519-2.04-3.638-5.385-2.852-8.519c7.144-28.486,6.13-58.345-2.933-86.352
						c-9.302-28.744-26.686-54.031-50.272-73.131c-30.252-24.499-68.296-36.765-107.135-34.557
						c-38.568,2.201-74.736,18.439-101.845,45.723c-3.059,3.077-7.889,3.352-11.238,0.64c-1.843-1.493-2.975-3.708-3.105-6.078
						c-0.128-2.339,0.741-4.629,2.381-6.283c30.011-30.253,70.069-48.265,112.796-50.716c43.016-2.474,85.169,11.118,118.684,38.258
						c26.116,21.148,45.365,49.151,55.667,80.981c10.036,31.01,11.157,64.072,3.245,95.611c-0.694,2.764-2.728,4.955-5.442,5.861
						C468.315,710,467.412,710.143,466.517,710.143z M463.311,705.671c0.008,0.006,0.017,0.013,0.024,0.018
						c1.354,1.098,3.151,1.421,4.807,0.869c1.658-0.553,2.851-1.836,3.273-3.521c7.76-30.935,6.659-63.363-3.184-93.78
						c-10.104-31.217-28.982-58.682-54.598-79.424l0,0c-32.872-26.62-74.222-39.956-116.405-37.524
						c-41.907,2.404-81.195,20.069-110.629,49.741c-0.996,1.003-1.5,2.34-1.423,3.764c0.078,1.434,0.763,2.775,1.878,3.678
						c2.022,1.638,4.943,1.468,6.794-0.399c27.687-27.867,64.626-44.45,104.011-46.697c39.665-2.26,78.518,10.271,109.414,35.291
						c24.086,19.506,41.839,45.332,51.34,74.689c9.255,28.598,10.291,59.091,2.995,88.181
						C461.139,702.435,461.807,704.44,463.311,705.671z"/>
				</g>
			</g>
			<g id="XMLID_2854_">
				<g id="XMLID_2859_">
					
						<rect id="XMLID_2320_" x="491.008" y="522.182" transform="matrix(0.2213 -0.9752 0.9752 0.2213 -46.6999 996.8651)" style="fill:#D0534F;" width="219.683" height="10.985"/>
				</g>
				<g id="XMLID_2855_">
					<path id="XMLID_2856_" style="fill:#424243;" d="M581.898,637.667c-0.124,0-0.246-0.014-0.368-0.041l-10.711-2.432
						c-0.894-0.203-1.455-1.092-1.252-1.986l48.615-214.236c0.097-0.429,0.362-0.801,0.734-1.037
						c0.373-0.234,0.826-0.309,1.252-0.214l10.712,2.431c0.893,0.203,1.454,1.093,1.251,1.986l-48.614,214.236
						c-0.098,0.429-0.363,0.801-0.734,1.037C582.516,637.58,582.209,637.667,581.898,637.667z M573.172,632.326l7.475,1.696
						l47.88-210.999l-7.476-1.696L573.172,632.326z"/>
				</g>
			</g>
			<g id="XMLID_2847_">
				<g id="XMLID_2852_">
					<path id="XMLID_2317_" style="fill:#D0534F;" d="M796.619,658.961l-19.405-25.151l-187.275-10.787
						c0,0-59.636-9.047-66.31,46.023c-0.666,5.493,3.753,10.276,9.279,10.013l260.165-12.424
						C796.922,666.451,798.973,662.012,796.619,658.961z"/>
				</g>
				<g id="XMLID_2848_">
					<path id="XMLID_2849_" style="fill:#424243;" d="M532.479,681.282c-3.086,0-6.028-1.276-8.142-3.55
						c-2.244-2.414-3.303-5.677-2.907-8.952c1.947-16.07,8.478-28.429,19.41-36.738c19.87-15.099,47.106-11.545,49.323-11.222
						l187.178,10.781c0.639,0.038,1.233,0.35,1.624,0.858l19.405,25.15h0.001c1.594,2.067,1.904,4.824,0.809,7.193
						c-1.096,2.37-3.395,3.919-6.003,4.043l-260.165,12.424C532.835,681.278,532.657,681.282,532.479,681.282z M580.815,624.703
						c-9.589,0-25.186,1.647-37.319,10.881c-9.929,7.554-15.875,18.902-17.672,33.727c-0.24,1.979,0.399,3.949,1.754,5.407
						c1.347,1.448,3.272,2.231,5.223,2.13l260.165-12.424c0.97-0.045,1.791-0.599,2.197-1.48c0.407-0.879,0.297-1.864-0.297-2.632
						l-18.787-24.35l-186.268-10.729c-0.067-0.004-0.136-0.012-0.203-0.022C589.511,625.197,586.063,624.703,580.815,624.703z"/>
				</g>
			</g>
			<g id="XMLID_2839_">
				<g id="XMLID_2845_">
					<path id="XMLID_2314_" style="fill:#9A7B53;" d="M679.51,413.8c0.017-0.032,0.033-0.066,0.049-0.099
						c3.219-6.551,2.199-19.482-4.321-24.052c-6.761-4.739-17.269-0.456-23.968,2.254c-18.658,7.549-38.233,7.914-58.022,6.336
						c-6.3-0.503-13.24-1.668-19.093,1.529c-2.693,1.471-3.902,5.883-2.142,8.611c2.442,3.783,8.257,5.669,12.346,6.883
						c21.592,6.41,46.221,10.251,68.771,9.395C662.973,424.281,674.512,423.822,679.51,413.8z"/>
				</g>
				<g id="XMLID_2840_">
					<path id="XMLID_2841_" style="fill:#424243;" d="M646.81,426.986c-19.889,0-42.025-3.352-63.082-9.604
						c-5.484-1.628-10.926-3.7-13.575-7.804c-1.159-1.797-1.483-4.165-0.89-6.5c0.594-2.332,1.99-4.246,3.832-5.253
						c5.715-3.121,12.235-2.524,17.981-1.997c0.791,0.072,1.572,0.143,2.346,0.205c17.242,1.376,37.499,1.717,57.017-6.181
						c7.356-2.978,18.35-7.428,26.069-2.015c7.863,5.513,8.467,19.86,5.036,26.841l-0.053,0.111
						c-5.596,11.217-18.172,11.694-28.278,12.079C651.11,426.946,648.972,426.986,646.81,426.986z M584.05,399.827
						c-3.134,0-6.161,0.423-8.834,1.883c-0.744,0.406-1.381,1.349-1.662,2.458c-0.288,1.13-0.168,2.255,0.318,3.009
						c2.126,3.294,8.198,5.096,11.117,5.962c22.894,6.798,47.068,10.11,68.057,9.304c9.4-0.357,20.056-0.76,24.481-9.623
						c0.009-0.018,0.021-0.043,0.021-0.043c2.952-6.009,1.705-17.612-3.58-21.317c-5.747-4.029-15.401-0.126-21.787,2.46
						c-20.454,8.276-41.35,7.938-59.11,6.525c-0.79-0.064-1.59-0.137-2.397-0.211C588.469,400.033,586.233,399.827,584.05,399.827z
						 M679.511,413.801h0.011H679.511z"/>
				</g>
			</g>
			<g id="XMLID_2832_">
				<g id="XMLID_2837_">
					<polygon id="XMLID_2310_" style="fill:#D0534F;" points="300.82,662.644 311.533,665.075 398.547,388.103 387.835,385.672 
											"/>
				</g>
				<g id="XMLID_2833_">
					<path id="XMLID_2834_" style="fill:#424243;" d="M311.533,666.736c-0.122,0-0.245-0.013-0.368-0.041l-10.712-2.432
						c-0.451-0.103-0.841-0.39-1.071-0.792c-0.232-0.402-0.284-0.882-0.144-1.324l87.015-276.974
						c0.259-0.825,1.111-1.314,1.95-1.121l10.711,2.432c0.451,0.103,0.841,0.39,1.072,0.792c0.232,0.402,0.283,0.882,0.143,1.324
						l-87.014,276.973C312.895,666.278,312.243,666.736,311.533,666.736z M302.944,661.425l7.463,1.694l86.017-273.796l-7.463-1.694
						L302.944,661.425z"/>
				</g>
			</g>
			<g id="XMLID_2825_">
				<g id="XMLID_2830_">
					<path id="XMLID_2307_" style="fill:#6D6D6D;" d="M387.178,336.917c-2.346-10.026,2.337-17.956,3.288-19.429
						c4.625-8.799,16.529-17.712,35.387-26.498c13.796-6.428,26.143-10.363,26.662-10.528l2.212,6.981
						c-13.485,4.276-50.164,18.645-57.844,33.578l-0.112,0.217l-0.14,0.201c-0.041,0.06-4.107,6.182-2.323,13.808
						c1.544,6.593,6.918,12.554,15.96,17.735c10.55-10.952,23.376-17.86,37.637-20.164l55.081-5.52l0.729,7.286l-54.75,5.481
						c-16.115,2.632-29.698,11.501-40.377,26.361c-8.128,11.311-11.423,22.026-11.455,22.132l-7.012-2.107
						c0.143-0.477,3.602-11.812,12.375-24.095c0.926-1.296,1.88-2.549,2.855-3.768C395.236,352.503,389.122,345.223,387.178,336.917
						z"/>
				</g>
				<g id="XMLID_2826_">
					<path id="XMLID_2827_" style="fill:#424243;" d="M397.133,390.218c-0.158,0-0.319-0.022-0.478-0.07l-7.012-2.107
						c-0.876-0.263-1.375-1.187-1.113-2.064c0.146-0.485,3.657-12.042,12.615-24.584c0.565-0.791,1.146-1.575,1.757-2.37
						c-9.569-6.13-15.398-13.432-17.341-21.727l0,0c-2.466-10.538,2.362-18.907,3.471-20.644c4.82-9.105,16.972-18.244,36.12-27.165
						c13.819-6.438,26.334-10.438,26.86-10.604c0.422-0.134,0.875-0.095,1.267,0.108c0.391,0.203,0.685,0.553,0.818,0.973
						l2.211,6.98c0.276,0.874-0.206,1.807-1.08,2.083c-18.489,5.864-50.278,19.941-56.869,32.755l-0.113,0.22
						c-0.034,0.064-0.071,0.127-0.112,0.186l-0.14,0.2c-0.021,0.032-3.67,5.648-2.069,12.483
						c1.369,5.851,6.098,11.238,14.064,16.025c10.6-10.636,23.59-17.443,37.651-19.714l55.18-5.534
						c0.439-0.044,0.875,0.088,1.216,0.366c0.341,0.279,0.557,0.682,0.601,1.119l0.729,7.287c0.092,0.912-0.574,1.726-1.486,1.817
						l-54.75,5.48c-15.562,2.546-28.783,11.189-39.193,25.679c-7.899,10.991-11.184,21.543-11.216,21.649
						C398.501,389.759,397.844,390.218,397.133,390.218z M392.232,385.352l3.844,1.155c1.233-3.439,4.679-12.023,11.166-21.049
						c10.944-15.23,24.891-24.324,41.456-27.031l53.202-5.329l-0.399-3.983l-53.429,5.355c-13.85,2.24-26.201,8.86-36.607,19.664
						c-0.526,0.547-1.359,0.666-2.02,0.289c-9.465-5.423-15.101-11.747-16.751-18.796c-1.96-8.378,2.524-15.058,2.571-15.125
						l0.145-0.242c3.496-6.796,12.738-14.032,27.469-21.504c10.678-5.417,22.327-9.921,29.77-12.383l-1.207-3.81
						c-3.807,1.277-13.923,4.824-24.886,9.932c-18.52,8.628-30.166,17.297-34.618,25.766c-0.023,0.044-0.048,0.087-0.075,0.129
						c-0.898,1.387-5.26,8.783-3.067,18.148l0,0c1.835,7.84,7.693,14.781,17.412,20.628c0.409,0.247,0.694,0.658,0.778,1.129
						c0.084,0.472-0.039,0.956-0.337,1.33c-1.012,1.263-1.927,2.472-2.802,3.696C397,372.905,393.471,381.828,392.232,385.352z"/>
				</g>
			</g>
			<g id="XMLID_2808_">
				<g id="XMLID_2817_">
					<g id="XMLID_2818_">
						<g id="XMLID_2823_">
							<path id="XMLID_2304_" style="fill:#7F8080;" d="M452.347,341.567l48.24-4.829c1.828-0.183,3.163-1.814,2.979-3.642
								l-0.431-4.307c-0.184-1.829-1.814-3.163-3.643-2.98l-48.239,4.829c-1.829,0.183-3.163,1.814-2.98,3.642l0.431,4.307
								C448.887,340.416,450.519,341.749,452.347,341.567z"/>
						</g>
						<g id="XMLID_2819_">
							<path id="XMLID_2820_" style="fill:#424243;" d="M452.012,343.243c-2.528,0-4.701-1.923-4.959-4.491l-0.431-4.308
								c-0.274-2.737,1.729-5.185,4.466-5.459l48.239-4.829c1.33-0.133,2.623,0.259,3.654,1.103
								c1.032,0.843,1.673,2.038,1.805,3.364l0.431,4.307c0.134,1.324-0.259,2.622-1.102,3.654
								c-0.843,1.031-2.038,1.672-3.363,1.805l-48.241,4.829C452.344,343.235,452.177,343.243,452.012,343.243z M499.827,327.451
								c-0.056,0-0.112,0.003-0.169,0.009l-48.239,4.828c-0.916,0.092-1.586,0.911-1.495,1.826l0.431,4.307
								c0.092,0.915,0.907,1.596,1.826,1.493l0,0l48.241-4.828c0.443-0.045,0.842-0.259,1.125-0.603
								c0.282-0.345,0.413-0.779,0.368-1.222l-0.431-4.308c-0.044-0.443-0.259-0.842-0.603-1.125
								C500.579,327.582,500.21,327.451,499.827,327.451z"/>
						</g>
					</g>
				</g>
				<g id="XMLID_2809_">
					<g id="XMLID_2810_">
						<g id="XMLID_2815_">
							<path id="XMLID_2301_" style="fill:#7F8080;" d="M413.674,307.892c13.673-8.633,31.491-15.229,38.543-17.673
								c1.702-0.589,2.62-2.43,2.075-4.147l-1.309-4.133c-0.564-1.783-2.478-2.754-4.246-2.146
								c-7.448,2.564-26.205,9.489-41.045,18.885c-1.592,1.008-2.031,3.136-0.97,4.693l2.44,3.58
								C410.168,308.43,412.161,308.847,413.674,307.892z"/>
						</g>
						<g id="XMLID_2811_">
							<path id="XMLID_2812_" style="fill:#424243;" d="M411.899,310.069c-1.589,0-3.144-0.767-4.11-2.185l-2.439-3.579
								c-0.769-1.128-1.04-2.488-0.764-3.825c0.276-1.337,1.064-2.474,2.216-3.204c14.995-9.495,33.944-16.487,41.394-19.052
								c1.277-0.44,2.647-0.348,3.854,0.259c1.211,0.611,2.104,1.659,2.513,2.955l1.31,4.133c0.823,2.595-0.545,5.325-3.114,6.216
								c-6.979,2.418-24.67,8.966-38.199,17.507C413.731,309.819,412.81,310.069,411.899,310.069z M449.818,281.272
								c-0.181,0-0.364,0.03-0.541,0.091c-7.34,2.527-25.998,9.411-40.698,18.718c-0.386,0.244-0.65,0.625-0.742,1.073
								c-0.093,0.448-0.001,0.904,0.256,1.283l2.441,3.58c0.506,0.743,1.497,0.951,2.255,0.472l0,0
								c13.821-8.725,31.798-15.381,38.884-17.837c0.858-0.297,1.313-1.21,1.038-2.076l-1.309-4.135
								c-0.138-0.436-0.437-0.787-0.842-0.991C450.324,281.331,450.072,281.272,449.818,281.272z"/>
						</g>
					</g>
				</g>
			</g>
			<g id="XMLID_2694_">
				<g id="XMLID_2799_">
					<g id="XMLID_2805_">
						<g id="XMLID_2806_">
							<path id="XMLID_2298_" style="fill:#ADCB62;" d="M368.66,391.659c0,0,5.537-20.319,27.582-14.934
								C396.243,376.725,392.614,393.906,368.66,391.659z"/>
						</g>
					</g>
					<g id="XMLID_2800_">
						<g id="XMLID_2801_">
							<path id="XMLID_2802_" style="fill:#424243;" d="M368.251,392.551c-0.159-0.073-0.297-0.186-0.398-0.333
								c-0.165-0.238-0.216-0.538-0.14-0.816c0.058-0.213,6.052-21.177,28.763-15.628c0.509,0.127,0.836,0.636,0.727,1.155
								c-0.038,0.181-4.094,18.011-28.635,15.708C368.457,392.626,368.35,392.596,368.251,392.551z M395.008,377.449
								c-17.333-3.694-23.54,9.292-25.027,13.332C388.582,392.03,393.856,380.802,395.008,377.449z"/>
						</g>
					</g>
				</g>
				<g id="XMLID_2790_">
					<g id="XMLID_2796_">
						<g id="XMLID_2797_">
							<path id="XMLID_2295_" style="fill:#E8B03D;" d="M384.017,408.815c0.03,0.482,0.187,0.986,0.48,1.45
								c0.786,1.248,2.25,1.74,3.268,1.098c0.683-0.431,0.99-1.262,0.882-2.139c0.908,0.431,1.922,0.355,2.554-0.282
								c0.548-0.551,0.673-1.385,0.413-2.187c0.773-0.014,1.465-0.352,1.825-0.979c0.599-1.044,0.047-2.485-1.232-3.22
								c-0.395-0.226-0.812-0.358-1.219-0.403c0.347-2.643-0.58-5.521-2.738-7.667c-3.506-3.485-8.927-3.715-12.108-0.513
								c-3.182,3.201-2.919,8.62,0.586,12.105C378.779,408.117,381.486,409.04,384.017,408.815z"/>
						</g>
					</g>
					<g id="XMLID_2791_">
						<g id="XMLID_2792_">
							<path id="XMLID_2793_" style="fill:#424243;" d="M385.584,411.864c-0.581-0.266-1.114-0.721-1.502-1.336
								c-0.235-0.374-0.4-0.779-0.488-1.194c-2.632,0.098-5.238-0.946-7.212-2.907c-3.691-3.67-3.956-9.412-0.589-12.8
								c3.367-3.387,9.111-3.155,12.803,0.512c2.065,2.054,3.14,4.87,2.927,7.615c0.321,0.083,0.635,0.209,0.928,0.378
								c0.716,0.411,1.261,1.03,1.534,1.743c0.287,0.749,0.243,1.51-0.121,2.146c-0.34,0.594-0.936,1.004-1.653,1.158
								c0.107,0.809-0.126,1.571-0.661,2.11c-0.605,0.61-1.502,0.828-2.411,0.624c-0.089,0.79-0.485,1.471-1.112,1.866
								C387.301,412.237,386.396,412.236,385.584,411.864z M384.221,408.37c0.041,0.019,0.08,0.044,0.116,0.073
								c0.1,0.086,0.16,0.21,0.169,0.341c0.026,0.419,0.167,0.84,0.406,1.22c0.641,1.017,1.803,1.441,2.592,0.944
								c0.492-0.31,0.744-0.948,0.656-1.663c-0.021-0.178,0.055-0.353,0.2-0.458c0.145-0.105,0.348-0.129,0.497-0.045
								c0.74,0.392,1.532,0.283,1.997-0.184c0.398-0.399,0.507-1.032,0.294-1.69c-0.048-0.148-0.023-0.31,0.067-0.437
								c0.091-0.126,0.235-0.202,0.391-0.206c0.634-0.011,1.147-0.278,1.407-0.732c0.215-0.375,0.234-0.839,0.055-1.307
								c-0.192-0.503-0.585-0.944-1.106-1.242c-0.324-0.188-0.678-0.302-1.028-0.341c-0.132-0.013-0.25-0.08-0.332-0.185
								c-0.082-0.103-0.118-0.235-0.101-0.366c0.34-2.588-0.631-5.3-2.598-7.255c-3.31-3.291-8.429-3.52-11.415-0.516
								c-2.986,3.005-2.724,8.124,0.585,11.412c1.882,1.873,4.398,2.818,6.899,2.596
								C384.059,408.319,384.144,408.334,384.221,408.37z"/>
						</g>
					</g>
				</g>
				<g id="XMLID_2775_">
					<g id="XMLID_2780_">
						<g id="XMLID_2787_">
							<g id="XMLID_2788_">
								<path id="XMLID_2292_" style="fill:#D0534F;" d="M379.098,394.373c1.89-4.124,0.078-9-4.047-10.89
									c-2.006-0.919-2.469-0.345-3.279-2.155c-0.547-1.223-0.11-2.893-0.671-4.189c-0.74-1.711-2.294-3.115-3.966-3.881
									c-3.402-1.559-6.53-0.466-9.277,1.703c-1.709,1.349-1.448,1.777-3.858,1.628c-1.682-0.104-3.092-0.972-4.838-0.527
									c-2.392,0.608-4.415,2.297-5.443,4.541c-0.827,1.805-0.934,3.795-0.369,5.691c0.674,2.263,3.19,3.423,3.877,5.263
									c0.605,1.625-0.438,3.876,0.168,5.811c0.691,2.21,2.314,4.05,4.418,5.015c2.051,0.94,5.081-0.479,6.898,0.336
									c1.994,0.895,2.701,4.062,5.154,5.186c4.124,1.89,9,0.078,10.89-4.048c0.763-1.663,0.045-3.207,0.5-4.684
									C375.862,397.196,378.235,396.257,379.098,394.373z"/>
							</g>
						</g>
						<g id="XMLID_2781_">
							<g id="XMLID_2782_">
								<path id="XMLID_2783_" style="fill:#424243;" d="M363.456,408.795c-1.53-0.701-2.445-2.008-3.253-3.162
									c-0.614-0.878-1.194-1.731-1.895-2.021c-0.634-0.284-1.649-0.173-2.723-0.055c-1.348,0.148-2.875,0.315-4.182-0.284
									c-2.367-1.084-4.17-3.13-4.946-5.613c-0.367-1.173-0.235-2.384-0.119-3.451c0.096-0.887,0.187-1.723-0.031-2.31
									c-0.241-0.647-0.865-1.271-1.526-1.932c-0.907-0.906-1.936-1.934-2.37-3.393c-0.647-2.168-0.502-4.374,0.416-6.38
									c1.147-2.503,3.425-4.403,6.092-5.083c1.333-0.34,2.491-0.053,3.515,0.198c0.559,0.138,1.087,0.268,1.627,0.301
									c1.463,0.091,1.521,0.038,2.242-0.611c0.249-0.225,0.546-0.492,0.948-0.808c3.478-2.746,6.941-3.361,10.294-1.826
									c2,0.917,3.667,2.556,4.458,4.384c0.356,0.82,0.39,1.704,0.422,2.485c0.026,0.647,0.05,1.258,0.245,1.694
									c0.372,0.834,0.448,0.855,1.178,1.073c0.391,0.116,0.925,0.275,1.614,0.591c4.609,2.112,6.641,7.58,4.53,12.19l0,0
									c-0.486,1.06-1.303,1.811-2.093,2.538c-0.75,0.69-1.46,1.342-1.706,2.141c-0.151,0.49-0.129,1.036-0.103,1.668
									c0.038,0.934,0.081,1.992-0.443,3.137C373.534,408.874,368.065,410.907,363.456,408.795z M359.139,401.835
									c1.179,0.54,1.938,1.624,2.672,2.672c0.729,1.042,1.417,2.025,2.462,2.504c3.627,1.661,7.929,0.062,9.59-3.564
									c0.328-0.717,0.299-1.422,0.266-2.239c-0.03-0.744-0.062-1.514,0.189-2.326c0.402-1.307,1.385-2.211,2.252-3.008
									c0.677-0.622,1.317-1.21,1.637-1.91c1.661-3.626,0.062-7.929-3.564-9.589c-0.563-0.259-0.984-0.383-1.356-0.494
									c-1.038-0.31-1.705-0.576-2.411-2.153c-0.349-0.782-0.382-1.613-0.414-2.417c-0.027-0.669-0.051-1.301-0.26-1.784
									c-0.604-1.396-1.904-2.659-3.475-3.379c-2.665-1.22-5.368-0.702-8.262,1.582c-0.359,0.283-0.626,0.525-0.849,0.727
									c-1.051,0.947-1.568,1.242-3.676,1.111c-0.716-0.045-1.356-0.201-1.975-0.355c-0.915-0.225-1.704-0.42-2.561-0.202
									c-2.098,0.534-3.89,2.029-4.793,3.999c-0.717,1.567-0.828,3.297-0.32,5.003c0.292,0.983,1.062,1.752,1.877,2.565
									c0.781,0.78,1.588,1.588,1.978,2.635c0.381,1.021,0.26,2.132,0.143,3.207c-0.105,0.962-0.204,1.872,0.041,2.654
									c0.611,1.953,2.029,3.563,3.891,4.416c0.816,0.374,2.003,0.242,3.151,0.117c1.288-0.141,2.62-0.287,3.74,0.216
									C359.12,401.827,359.129,401.832,359.139,401.835z M379.099,394.373l0.01,0.005L379.099,394.373z"/>
							</g>
						</g>
					</g>
					<g id="XMLID_2776_">
						<g id="XMLID_2777_">
							<g id="XMLID_2778_">
								<path id="XMLID_2288_" style="fill:#FFFFFF;" d="M366.238,393.862c-1.758,1.539-4.845,0.889-6.894-1.452
									c-2.05-2.342-2.286-5.486-0.529-7.026c1.758-1.538,4.844-0.889,6.894,1.453
									C367.759,389.178,367.996,392.323,366.238,393.862z"/>
							</g>
						</g>
					</g>
				</g>
				<g id="XMLID_2766_">
					<g id="XMLID_2772_">
						<g id="XMLID_2773_">
							<path id="XMLID_2287_" style="fill:#ADCB62;" d="M274.691,395.149c0,0,5.538-20.32,27.583-14.934
								C302.274,380.215,298.646,397.397,274.691,395.149z"/>
						</g>
					</g>
					<g id="XMLID_2767_">
						<g id="XMLID_2768_">
							<path id="XMLID_2769_" style="fill:#424243;" d="M274.282,396.041c-0.158-0.073-0.296-0.186-0.398-0.333
								c-0.165-0.238-0.217-0.538-0.14-0.816c0.058-0.213,6.052-21.178,28.763-15.629c0.511,0.129,0.836,0.638,0.727,1.156
								c-0.038,0.18-4.094,18.01-28.635,15.708C274.488,396.115,274.381,396.087,274.282,396.041z M301.039,380.939
								c-17.332-3.694-23.539,9.292-25.027,13.333C294.614,395.52,299.886,384.291,301.039,380.939z"/>
						</g>
					</g>
				</g>
				<g id="XMLID_2757_">
					<g id="XMLID_2763_">
						<g id="XMLID_2764_">
							<path id="XMLID_2284_" style="fill:#ADCB62;" d="M342.541,412.384c0,0-17.873-11.142-6.381-30.71
								C336.159,381.673,351.574,390.084,342.541,412.384z"/>
						</g>
					</g>
					<g id="XMLID_2758_">
						<g id="XMLID_2759_">
							<path id="XMLID_2760_" style="fill:#424243;" d="M342.132,413.275c-0.037-0.017-0.075-0.036-0.111-0.059
								c-0.186-0.117-18.546-11.88-6.707-32.04c0.268-0.456,0.857-0.621,1.316-0.365c0.162,0.089,16.076,9.096,6.821,31.94
								c-0.109,0.268-0.331,0.475-0.606,0.564C342.608,413.393,342.354,413.377,342.132,413.275z M336.504,383.052
								c-8.55,15.582,2.128,25.24,5.574,27.816C348.706,393.214,339.434,385.091,336.504,383.052z"/>
						</g>
					</g>
				</g>
				<g id="XMLID_2748_">
					<g id="XMLID_2754_">
						<g id="XMLID_2755_">
							<path id="XMLID_2281_" style="fill:#ADCB62;" d="M281.65,357.493c0,0,25.398-2.209,28.502,25.087
								C310.152,382.581,289.116,385.645,281.65,357.493z"/>
						</g>
					</g>
					<g id="XMLID_2749_">
						<g id="XMLID_2750_">
							<path id="XMLID_2751_" style="fill:#424243;" d="M298.058,381.315c-6.371-2.918-13.596-9.391-17.357-23.57
								c-0.074-0.28-0.021-0.579,0.145-0.816s0.43-0.388,0.717-0.413c0.265-0.023,26.387-1.968,29.562,25.953
								c0.06,0.526-0.309,1.006-0.833,1.082C310.182,383.568,304.567,384.298,298.058,381.315z M282.927,358.433
								c6.536,22.691,22.06,23.465,26.125,23.26c-1.429-10.396-6.393-17.472-14.699-20.989
								C289.603,358.687,285.025,358.428,282.927,358.433z"/>
						</g>
					</g>
				</g>
				<g id="XMLID_2739_">
					<g id="XMLID_2745_">
						<g id="XMLID_2746_">
							<path id="XMLID_2278_" style="fill:#D0534F;" d="M316.957,359.699c0.205-0.495,0.294-1.072,0.23-1.677
								c-0.175-1.623-1.39-2.825-2.714-2.683c-0.889,0.095-1.599,0.772-1.919,1.696c-0.693-0.872-1.738-1.288-2.677-0.965
								c-0.812,0.281-1.343,1.05-1.476,1.974c-0.775-0.362-1.628-0.364-2.29,0.085c-1.104,0.745-1.258,2.447-0.344,3.801
								c0.282,0.416,0.633,0.751,1.015,0.994c-1.633,2.458-2.113,5.772-1.013,8.956c1.787,5.172,7.064,8.042,11.786,6.41
								c4.722-1.632,7.102-7.147,5.314-12.32C321.824,362.943,319.582,360.708,316.957,359.699z"/>
						</g>
					</g>
					<g id="XMLID_2740_">
						<g id="XMLID_2741_">
							<path id="XMLID_2742_" style="fill:#424243;" d="M310.745,378.824c-0.219-0.101-0.437-0.21-0.652-0.326
								c-2.441-1.328-4.306-3.564-5.251-6.298c-1.055-3.05-0.8-6.369,0.662-9.054c-0.202-0.203-0.388-0.427-0.55-0.667
								c-1.216-1.8-0.943-4.115,0.608-5.164c0.629-0.425,1.398-0.588,2.178-0.481c0.368-0.806,1.005-1.409,1.817-1.69
								c0.906-0.314,1.897-0.169,2.745,0.362c0.535-0.643,1.261-1.055,2.066-1.142c0.926-0.1,1.866,0.25,2.583,0.957
								c0.673,0.665,1.103,1.587,1.211,2.596c0.044,0.412,0.032,0.824-0.033,1.221c2.622,1.272,4.663,3.602,5.667,6.511
								c1.961,5.674-0.695,11.761-5.921,13.567C315.549,380.02,313.044,379.877,310.745,378.824z M307.97,358.926
								c-0.488-0.224-0.964-0.217-1.31,0.015c-0.643,0.434-0.679,1.552-0.08,2.44c0.197,0.29,0.448,0.538,0.727,0.714
								c0.223,0.142,0.379,0.366,0.434,0.625c0.054,0.258,0.004,0.527-0.143,0.747c-1.523,2.293-1.861,5.319-0.903,8.093
								c0.784,2.269,2.324,4.121,4.335,5.214c1.974,1.074,4.184,1.286,6.204,0.588c4.204-1.453,6.315-6.42,4.708-11.072
								c-0.918-2.656-2.867-4.727-5.337-5.676c-0.252-0.102-0.446-0.286-0.55-0.53c-0.104-0.243-0.105-0.518-0.003-0.763
								c0.15-0.36,0.205-0.773,0.159-1.195c-0.059-0.553-0.292-1.067-0.639-1.41c-0.174-0.171-0.533-0.451-0.995-0.401
								c-0.471,0.05-0.891,0.449-1.096,1.041c-0.118,0.339-0.409,0.586-0.762,0.646c-0.353,0.061-0.711-0.077-0.932-0.357
								c-0.454-0.57-1.077-0.824-1.588-0.647c-0.431,0.149-0.741,0.592-0.825,1.186c-0.044,0.307-0.232,0.576-0.504,0.724
								c-0.275,0.148-0.596,0.151-0.883,0.025L307.97,358.926z"/>
						</g>
					</g>
				</g>
				<g id="XMLID_2735_">
					<g id="XMLID_2736_">
						<g id="XMLID_2737_">
							<path id="XMLID_2275_" style="fill:#E8B03D;" d="M360.88,368.284c-0.884,1.931-3.167,2.778-5.098,1.894
								c-1.931-0.884-2.778-3.166-1.894-5.097c0.885-1.931,3.167-2.779,5.098-1.894C360.917,364.072,361.765,366.354,360.88,368.284
								z"/>
						</g>
					</g>
				</g>
				<g id="XMLID_2731_">
					<g id="XMLID_2732_">
						<g id="XMLID_2733_">
							<path id="XMLID_2274_" style="fill:#E49B9B;" d="M351.626,359.815c-0.603,1.317-2.16,1.895-3.476,1.292
								c-1.316-0.603-1.895-2.16-1.292-3.476c0.604-1.316,2.16-1.895,3.476-1.292C351.651,356.943,352.23,358.499,351.626,359.815z"
								/>
						</g>
					</g>
				</g>
				<g id="XMLID_2727_">
					<g id="XMLID_2728_">
						<g id="XMLID_2729_">
							<path id="XMLID_2273_" style="fill:#FFFFFF;" d="M376.586,411.044c-0.603,1.316-2.159,1.895-3.475,1.291
								c-1.318-0.602-1.895-2.159-1.293-3.475c0.603-1.317,2.16-1.895,3.476-1.292C376.611,408.171,377.19,409.727,376.586,411.044z
								"/>
						</g>
					</g>
				</g>
				<g id="XMLID_2723_">
					<g id="XMLID_2724_">
						<g id="XMLID_2725_">
							<path id="XMLID_2272_" style="fill:#E8B03D;" d="M332.371,399c-0.884,1.93-3.166,2.778-5.097,1.894
								c-1.931-0.885-2.778-3.167-1.894-5.098c0.884-1.931,3.166-2.778,5.097-1.894C332.408,394.786,333.256,397.069,332.371,399z"
								/>
						</g>
					</g>
				</g>
				<g id="XMLID_2709_">
					<g id="XMLID_2714_">
						<g id="XMLID_2720_">
							<g id="XMLID_2721_">
								<path id="XMLID_2271_" style="fill:#E8B03D;" d="M351.222,377.893c-1.032-1.945-4.017-2.74-5.945-3.256
									c-0.547-0.147-1.104-0.27-1.665-0.382c1.932-0.866,3.656-1.835,4.927-2.901c2.317-1.944,2.8-4.872-0.527-5.892
									c-2.104-0.645-4.779,0.903-6.507,1.901c-0.495,0.285-0.974,0.605-1.454,0.925c0.758-1.985,1.294-3.896,1.439-5.553
									c0.264-3.014-1.465-5.425-4.539-3.795c-1.945,1.032-2.74,4.018-3.256,5.946c-0.147,0.547-0.27,1.104-0.382,1.665
									c-0.865-1.933-1.835-3.657-2.901-4.928c-1.944-2.318-4.872-2.799-5.892,0.527c-0.645,2.105,0.903,4.779,1.901,6.507
									c0.285,0.495,0.605,0.975,0.925,1.455c-1.985-0.759-3.896-1.294-5.553-1.44c-3.014-0.264-5.425,1.466-3.794,4.54
									c1.031,1.944,4.017,2.74,5.945,3.256c0.547,0.146,1.104,0.27,1.665,0.382c-1.932,0.866-3.657,1.834-4.927,2.901
									c-2.318,1.945-2.799,4.873,0.528,5.893c2.105,0.645,4.779-0.904,6.507-1.902c0.494-0.285,0.974-0.604,1.454-0.924
									c-0.759,1.984-1.294,3.896-1.44,5.553c-0.263,3.014,1.466,5.425,4.54,3.794c1.945-1.032,2.74-4.017,3.256-5.946
									c0.146-0.546,0.27-1.104,0.382-1.664c0.866,1.932,1.835,3.656,2.901,4.927c1.945,2.318,4.873,2.8,5.893-0.527
									c0.645-2.105-0.904-4.779-1.902-6.507c-0.285-0.495-0.604-0.974-0.924-1.454c1.984,0.758,3.896,1.294,5.553,1.439
									C350.442,382.696,352.853,380.967,351.222,377.893z"/>
							</g>
						</g>
						<g id="XMLID_2715_">
							<g id="XMLID_2716_">
								<path id="XMLID_2717_" style="fill:#424243;" d="M329.225,392.93c-0.14-0.064-0.267-0.136-0.38-0.211
									c-1.159-0.767-1.773-2.45-1.604-4.39c0.109-1.242,0.437-2.688,0.978-4.314c-0.086,0.052-0.172,0.103-0.259,0.153
									c-1.838,1.061-4.593,2.652-6.896,1.946c-1.907-0.585-2.502-1.682-2.669-2.499c-0.277-1.362,0.478-2.986,1.97-4.237
									c0.956-0.802,2.211-1.592,3.742-2.358c-0.097-0.025-0.194-0.05-0.291-0.076c-2.048-0.549-5.122-1.372-6.253-3.5
									c-0.934-1.76-0.58-2.959-0.119-3.655c0.767-1.158,2.449-1.772,4.389-1.603c1.243,0.109,2.689,0.437,4.314,0.978
									c-0.052-0.086-0.103-0.172-0.152-0.258c-1.061-1.837-2.653-4.592-1.946-6.897c0.584-1.905,1.681-2.503,2.499-2.669
									c1.362-0.277,2.985,0.478,4.238,1.97c0.801,0.956,1.591,2.21,2.358,3.742c0.025-0.097,0.05-0.194,0.076-0.292
									c0.549-2.048,1.372-5.123,3.5-6.252c1.76-0.934,2.958-0.578,3.655-0.12c1.159,0.768,1.773,2.45,1.604,4.39
									c-0.11,1.242-0.438,2.689-0.979,4.315c0.086-0.052,0.172-0.103,0.259-0.154c1.834-1.059,4.591-2.652,6.896-1.945
									c1.9,0.582,2.503,1.681,2.668,2.499c0.277,1.363-0.478,2.986-1.97,4.238c-0.955,0.8-2.209,1.591-3.742,2.358
									c0.098,0.025,0.194,0.05,0.291,0.076c2.048,0.549,5.123,1.372,6.252,3.5c0.934,1.76,0.581,2.958,0.12,3.654
									c-0.768,1.16-2.449,1.774-4.39,1.604c-1.242-0.109-2.689-0.437-4.315-0.978c0.053,0.086,0.103,0.173,0.154,0.259
									c1.06,1.835,2.653,4.591,1.946,6.896c-0.584,1.905-1.681,2.503-2.499,2.67c-1.361,0.276-2.985-0.478-4.238-1.971
									c-0.802-0.955-1.592-2.21-2.359-3.742c-0.024,0.097-0.05,0.194-0.076,0.292c-0.548,2.048-1.372,5.123-3.499,6.252
									C331.026,393.381,329.946,393.259,329.225,392.93z M329.374,382.372c0.036,0.016,0.069,0.037,0.102,0.062
									c0.167,0.133,0.228,0.359,0.152,0.558c-0.805,2.106-1.278,3.93-1.408,5.42c-0.139,1.583,0.308,2.918,1.167,3.488
									c0.677,0.445,1.597,0.391,2.654-0.17c1.751-0.929,2.507-3.754,3.008-5.625c0.148-0.551,0.269-1.097,0.379-1.649
									c0.042-0.209,0.214-0.367,0.426-0.391c0.212-0.023,0.414,0.092,0.503,0.288c0.918,2.049,1.869,3.668,2.829,4.812
									c1.021,1.217,2.282,1.845,3.291,1.639c0.799-0.162,1.407-0.852,1.757-1.996c0.581-1.895-0.883-4.428-1.851-6.105
									c-0.287-0.497-0.601-0.969-0.914-1.44c-0.118-0.177-0.108-0.412,0.025-0.578c0.134-0.167,0.359-0.228,0.558-0.152
									c2.106,0.805,3.93,1.279,5.42,1.409c1.583,0.138,2.918-0.309,3.488-1.168c0.449-0.679,0.391-1.597-0.169-2.653l0,0
									c-0.929-1.751-3.756-2.509-5.625-3.009c-0.551-0.147-1.097-0.269-1.647-0.378c-0.21-0.042-0.368-0.214-0.392-0.426
									c-0.024-0.212,0.093-0.415,0.287-0.504c2.05-0.918,3.67-1.87,4.813-2.828c1.216-1.021,1.844-2.282,1.639-3.292
									c-0.161-0.798-0.849-1.406-1.995-1.756c-1.897-0.581-4.43,0.882-6.107,1.851c-0.497,0.286-0.968,0.6-1.439,0.914
									c-0.178,0.119-0.411,0.108-0.579-0.024c-0.167-0.134-0.228-0.359-0.152-0.559c0.805-2.106,1.279-3.93,1.409-5.42
									c0.138-1.582-0.309-2.918-1.168-3.487c-0.681-0.448-1.597-0.391-2.653,0.169c-1.751,0.929-2.508,3.755-3.009,5.624
									c-0.147,0.552-0.267,1.098-0.379,1.649c-0.042,0.21-0.214,0.367-0.426,0.391c-0.211,0.023-0.415-0.093-0.502-0.288
									c-0.919-2.049-1.87-3.669-2.829-4.811c-1.022-1.217-2.283-1.845-3.292-1.639c-0.799,0.162-1.406,0.851-1.756,1.995
									c-0.581,1.895,0.882,4.428,1.85,6.105c0.288,0.498,0.602,0.969,0.915,1.44c0.118,0.177,0.109,0.411-0.024,0.578
									c-0.134,0.168-0.359,0.228-0.558,0.152c-2.107-0.805-3.931-1.278-5.421-1.408c-1.582-0.139-2.918,0.308-3.487,1.167
									c-0.45,0.68-0.391,1.597,0.169,2.653c0.93,1.751,3.754,2.509,5.625,3.009c0.552,0.148,1.098,0.269,1.648,0.379
									c0.214,0.045,0.368,0.215,0.392,0.426c0.024,0.212-0.093,0.415-0.287,0.503c-2.049,0.918-3.669,1.869-4.813,2.829
									c-1.216,1.021-1.844,2.282-1.639,3.291c0.162,0.799,0.85,1.408,1.995,1.757c1.895,0.581,4.428-0.882,6.104-1.85
									c0.499-0.288,0.971-0.602,1.441-0.916C329.041,382.314,329.221,382.303,329.374,382.372z"/>
							</g>
						</g>
					</g>
					<g id="XMLID_2710_">
						<g id="XMLID_2711_">
							<g id="XMLID_2712_">
								<path id="XMLID_2268_" style="fill:#FFFFFF;" d="M331.077,373.934c0.894-1.95,3.2-2.808,5.151-1.914
									c1.951,0.894,2.808,3.2,1.915,5.151c-0.894,1.951-3.201,2.808-5.151,1.915C331.04,378.192,330.183,375.885,331.077,373.934z
									"/>
							</g>
						</g>
					</g>
				</g>
				<g id="XMLID_2695_">
					<g id="XMLID_2700_">
						<g id="XMLID_2706_">
							<g id="XMLID_2707_">
								<path id="XMLID_2267_" style="fill:#D0534F;" d="M319.864,391.512c2.724-0.961,5.067-2.682,5.334-4.931
									c0.346-2.934-3.861-5.625-8.717-4.878c0.53-2.839,0.211-5.729-1.603-7.084c-2.368-1.767-6.802,0.53-8.584,5.109
									c-2.194-1.878-4.855-3.048-6.937-2.154c-2.713,1.168-2.941,6.156,0.134,9.989c-2.724,0.961-5.067,2.681-5.334,4.93
									c-0.346,2.934,3.861,5.625,8.717,4.878c-0.529,2.839-0.211,5.729,1.603,7.085c2.368,1.767,6.802-0.531,8.584-5.11
									c2.194,1.878,4.855,3.048,6.937,2.154C322.711,400.333,322.939,395.344,319.864,391.512z"/>
							</g>
						</g>
						<g id="XMLID_2701_">
							<g id="XMLID_2702_">
								<path id="XMLID_2703_" style="fill:#424243;" d="M304.594,405.658c-0.247-0.113-0.481-0.252-0.702-0.416
									c-1.711-1.277-2.476-3.707-2.167-6.774c-2.753,0.12-5.364-0.733-7.032-2.342c-1.13-1.091-1.666-2.422-1.509-3.748
									c0.251-2.121,1.973-3.997,4.783-5.262c-1.479-2.326-2.047-5.015-1.487-7.262c0.38-1.523,1.264-2.654,2.49-3.181
									c1.963-0.841,4.45-0.289,6.949,1.512c1.274-2.443,3.319-4.28,5.545-4.919c1.508-0.433,2.929-0.233,4,0.567
									c1.711,1.279,2.475,3.708,2.165,6.773c2.753-0.118,5.367,0.734,7.033,2.342c1.129,1.091,1.665,2.422,1.509,3.749
									c-0.252,2.12-1.974,3.997-4.783,5.262c1.479,2.326,2.048,5.014,1.487,7.261c-0.38,1.524-1.264,2.654-2.49,3.181
									c-1.964,0.842-4.449,0.287-6.949-1.512c-1.274,2.443-3.319,4.28-5.544,4.919
									C306.694,406.153,305.55,406.097,304.594,405.658z M303.283,396.479c0.11,0.051,0.21,0.12,0.296,0.21
									c0.221,0.228,0.318,0.549,0.26,0.862c-0.533,2.86-0.075,5.148,1.226,6.119c0.727,0.542,1.646,0.438,2.286,0.253
									c1.967-0.565,3.85-2.501,4.796-4.933c0.116-0.296,0.367-0.519,0.676-0.595c0.309-0.078,0.635-0.001,0.877,0.206
									c2.209,1.893,4.42,2.64,5.911,1.999c0.833-0.358,1.201-1.206,1.363-1.854c0.495-1.985-0.241-4.583-1.874-6.619
									c-0.199-0.247-0.266-0.577-0.178-0.882c0.087-0.307,0.317-0.551,0.617-0.657c2.743-0.968,4.495-2.508,4.686-4.121
									c0.106-0.901-0.444-1.643-0.924-2.106c-1.473-1.422-4.09-2.084-6.669-1.687c-0.314,0.048-0.634-0.06-0.853-0.287
									c-0.222-0.228-0.318-0.549-0.26-0.862c0.534-2.859,0.076-5.147-1.226-6.119c-0.729-0.542-1.645-0.437-2.286-0.253
									c-1.966,0.565-3.849,2.501-4.796,4.933c-0.116,0.297-0.367,0.519-0.675,0.596c-0.309,0.077-0.635,0.001-0.877-0.207
									c-2.209-1.89-4.42-2.638-5.912-1.998c-0.834,0.357-1.2,1.205-1.362,1.853c-0.495,1.986,0.241,4.584,1.874,6.619
									c0.199,0.248,0.266,0.577,0.178,0.883c-0.087,0.307-0.316,0.551-0.617,0.656c-2.744,0.968-4.495,2.509-4.686,4.122
									c-0.106,0.9,0.443,1.642,0.923,2.106c1.472,1.42,4.091,2.082,6.669,1.686C302.918,396.372,303.111,396.401,303.283,396.479z
									"/>
							</g>
						</g>
					</g>
					<g id="XMLID_2696_">
						<g id="XMLID_2697_">
							<g id="XMLID_2698_">
								<path id="XMLID_2264_" style="fill:#FFFFFF;" d="M309.348,385.824c-2.908,0.872-2.661,7.32,1.815,6.782
									C316.565,391.956,312.361,383.206,309.348,385.824z"/>
							</g>
						</g>
					</g>
				</g>
			</g>
		</g>
	</g>
</g>
</svg>
