<?xml version="1.0" encoding="utf-8"?>
<!-- Generator: Adobe Illustrator 27.5.0, SVG Export Plug-In . SVG Version: 6.00 Build 0)  -->
<svg version="1.1" id="Layer_1" xmlns="http://www.w3.org/2000/svg" xmlns:xlink="http://www.w3.org/1999/xlink" x="0px" y="0px"
	 viewBox="0 0 308.256 267.66" style="enable-background:new 0 0 308.256 267.66;" xml:space="preserve">
<g>
	<g>
		<path style="fill:#FFFFFF;" d="M300.294,199.731l-0.013-0.37c-0.016-0.585-0.074-1.169-0.173-1.746
			c-0.221-1.29-0.477-2.549-0.724-3.748l-0.137-0.667c-0.703-3.461-1.24-6.998-1.81-10.742c-0.209-1.375-0.418-2.751-0.635-4.12
			c-1.326-8.394-1.972-15.747-1.975-22.48c0-0.351-0.015-0.701-0.045-1.051c-0.82-9.55-1.136-17.449-0.998-24.859
			c0.205-10.948,0.238-22.029,0.271-32.744l0.023-7.076c0.017-4.458,0.214-8.975,0.423-13.757c0.235-5.374,0.478-10.932,0.45-16.512
			c-0.004-0.764-0.079-1.527-0.224-2.278c-1.064-5.519-3.221-10.321-6.409-14.27c-0.986-1.222-2.196-2.244-3.565-3.012
			c-7.36-4.131-15.612-4.926-21.648-5.508c-13.306-1.269-27.306,0.853-40.038,3.081c-1.129-2.777-2.606-5.284-4.454-7.571
			c-0.985-1.22-2.194-2.24-3.561-3.009c-7.376-4.141-15.627-4.929-21.648-5.504c-14.793-1.419-30.454,1.367-44.27,3.822
			c-2.625,0.467-5.208,0.927-7.73,1.347c-1.347,0.224-33.174,5.617-49.219,16.248c-0.831,0.551-1.593,1.2-2.268,1.933l-0.368,0.4
			c-4.768,5.171-7.832,9.326-7.016,19.55c0.159,2.004,1.148,7.344,6.223,33.61c2.755,14.257,5.878,30.415,6.592,34.965
			c0.551,3.528,0.186,7.209-0.345,9.069c-6.632,8.533-19.726,12.694-32.406,16.723c-1.74,0.553-3.465,1.101-5.158,1.655
			c-10.502,3.433-23.39,9.136-29.886,22.885c-5.711,12.085-6.726,27.725-2.715,41.843c2.837,9.977,12.857,13.257,18.24,15.02
			c0.687,0.225,1.326,0.428,1.867,0.635c5.13,1.961,10.843,3.199,17.442,3.776c6.952,1.443,14.011,1.91,20.267,2.325l1.503,0.099
			c5.135,0.344,10.492,0.359,16.23,0.04c4.066,3.414,9.113,5.063,12.417,6.142c0.684,0.224,1.322,0.425,1.837,0.622
			c5.118,1.962,10.833,3.201,17.445,3.779c6.989,1.452,14.077,1.918,20.359,2.329l1.412,0.093c2.778,0.186,5.557,0.272,8.326,0.272
			c14.602,0,28.935-2.372,41.376-4.81c37.883-7.435,66.121-18.008,88.846-33.261c2.417-1.615,4.021-3.742,5.065-5.641
			c1.215-1.715,2.032-3.535,2.438-5.431c0.019-0.088,0.037-0.175,0.054-0.264c0.635-3.272,0.755-6.937,0.358-10.901
			C300.315,200.351,300.305,200.041,300.294,199.731z"/>
		<path style="fill:#F1F1F1;" d="M298.957,198.393l-0.013-0.37c-0.016-0.585-0.074-1.169-0.173-1.746
			c-0.221-1.29-0.477-2.549-0.724-3.748l-0.137-0.667c-0.703-3.461-1.24-6.998-1.81-10.742c-0.209-1.375-0.418-2.751-0.635-4.12
			c-1.326-8.394-1.972-15.747-1.975-22.48c0-0.351-0.015-0.701-0.045-1.051c-0.82-9.55-1.137-17.449-0.998-24.859
			c0.204-10.948,0.238-22.029,0.271-32.744l0.023-7.076c0.017-4.458,0.214-8.975,0.423-13.757c0.235-5.374,0.478-10.932,0.45-16.512
			c-0.004-0.764-0.079-1.527-0.224-2.278c-1.064-5.519-3.221-10.321-6.409-14.27c-0.986-1.222-2.196-2.244-3.565-3.012
			c-7.36-4.131-15.612-4.926-21.648-5.508c-13.306-1.269-27.307,0.853-40.038,3.081c-1.129-2.777-2.607-5.284-4.454-7.571
			c-0.985-1.22-2.194-2.24-3.561-3.009c-7.376-4.141-15.627-4.929-21.648-5.504c-14.793-1.419-30.454,1.367-44.271,3.822
			c-2.625,0.467-5.208,0.927-7.73,1.347c-1.347,0.225-33.174,5.617-49.219,16.248c-0.831,0.551-1.593,1.2-2.268,1.933l-0.368,0.4
			c-4.768,5.171-7.832,9.327-7.016,19.55c0.159,2.004,1.148,7.344,6.223,33.61c2.755,14.257,5.878,30.415,6.591,34.965
			c0.551,3.528,0.187,7.208-0.345,9.069c-6.632,8.533-19.726,12.694-32.406,16.723c-1.74,0.553-3.465,1.101-5.158,1.655
			c-10.502,3.433-23.39,9.136-29.887,22.885c-5.711,12.085-6.726,27.725-2.715,41.843c2.837,9.977,12.857,13.257,18.24,15.02
			c0.687,0.225,1.326,0.428,1.867,0.635c5.13,1.961,10.843,3.199,17.442,3.776c6.952,1.443,14.011,1.91,20.267,2.325l1.503,0.099
			c5.135,0.344,10.492,0.359,16.23,0.04c4.066,3.414,9.113,5.063,12.417,6.142c0.684,0.224,1.322,0.425,1.837,0.622
			c5.118,1.962,10.833,3.201,17.445,3.779c6.989,1.452,14.077,1.918,20.359,2.33l1.412,0.093c2.778,0.187,5.557,0.272,8.326,0.272
			c14.602,0,28.935-2.372,41.376-4.81c37.883-7.435,66.121-18.008,88.846-33.261c2.417-1.615,4.021-3.742,5.065-5.641
			c1.215-1.715,2.032-3.535,2.438-5.431c0.019-0.088,0.037-0.175,0.054-0.264c0.635-3.272,0.755-6.937,0.358-10.901
			C298.978,199.013,298.968,198.703,298.957,198.393z"/>
		<path style="fill:#E2E2E2;" d="M297.62,197.056l-0.013-0.37c-0.016-0.585-0.074-1.169-0.173-1.746
			c-0.221-1.29-0.477-2.549-0.724-3.748l-0.137-0.667c-0.703-3.461-1.24-6.998-1.81-10.742c-0.209-1.375-0.418-2.751-0.635-4.12
			c-1.326-8.394-1.972-15.747-1.975-22.48c0-0.351-0.015-0.701-0.045-1.051c-0.82-9.55-1.137-17.449-0.998-24.859
			c0.204-10.948,0.238-22.029,0.271-32.744l0.023-7.076c0.017-4.458,0.214-8.975,0.423-13.757c0.235-5.374,0.478-10.932,0.45-16.512
			c-0.004-0.764-0.079-1.527-0.224-2.278c-1.064-5.519-3.221-10.321-6.409-14.27c-0.986-1.222-2.196-2.244-3.565-3.012
			c-7.36-4.131-15.612-4.926-21.648-5.508c-13.306-1.269-27.307,0.853-40.038,3.081c-1.129-2.777-2.607-5.283-4.455-7.571
			c-0.985-1.22-2.194-2.24-3.561-3.009c-7.376-4.142-15.627-4.929-21.648-5.504c-14.793-1.419-30.454,1.367-44.271,3.822
			c-2.625,0.467-5.208,0.927-7.73,1.347c-1.347,0.225-33.174,5.617-49.219,16.248c-0.831,0.551-1.593,1.2-2.268,1.933l-0.368,0.4
			c-4.768,5.171-7.832,9.326-7.016,19.55c0.159,2.004,1.148,7.344,6.223,33.61c2.755,14.257,5.878,30.415,6.592,34.965
			c0.551,3.528,0.187,7.209-0.345,9.069c-6.632,8.533-19.726,12.694-32.406,16.723c-1.74,0.553-3.465,1.101-5.158,1.655
			c-10.502,3.433-23.39,9.136-29.887,22.885c-5.711,12.085-6.727,27.725-2.715,41.843c2.837,9.977,12.857,13.257,18.24,15.02
			c0.687,0.225,1.326,0.428,1.867,0.635c5.13,1.961,10.843,3.199,17.442,3.776c6.953,1.443,14.011,1.91,20.267,2.325l1.503,0.099
			c5.135,0.344,10.492,0.359,16.23,0.04c4.066,3.414,9.113,5.063,12.417,6.142c0.684,0.224,1.322,0.425,1.837,0.622
			c5.118,1.962,10.833,3.201,17.445,3.779c6.989,1.452,14.077,1.918,20.359,2.33l1.412,0.093c2.778,0.186,5.557,0.272,8.326,0.272
			c14.603,0,28.935-2.372,41.376-4.81c37.883-7.435,66.121-18.008,88.846-33.261c2.417-1.615,4.021-3.742,5.065-5.641
			c1.215-1.715,2.032-3.535,2.438-5.431c0.019-0.088,0.037-0.175,0.054-0.263c0.634-3.272,0.755-6.937,0.358-10.901
			C297.641,197.676,297.631,197.366,297.62,197.056z"/>
		<path style="fill:#D4D4D4;" d="M296.282,195.719l-0.013-0.37c-0.016-0.585-0.074-1.169-0.173-1.746
			c-0.221-1.29-0.477-2.549-0.724-3.748l-0.137-0.667c-0.703-3.461-1.24-6.998-1.81-10.742c-0.209-1.375-0.418-2.751-0.635-4.12
			c-1.326-8.394-1.972-15.747-1.975-22.48c0-0.351-0.015-0.701-0.045-1.051c-0.82-9.55-1.137-17.449-0.998-24.859
			c0.205-10.948,0.238-22.029,0.271-32.744l0.023-7.076c0.017-4.458,0.214-8.975,0.423-13.757c0.235-5.374,0.478-10.932,0.45-16.512
			c-0.004-0.764-0.079-1.527-0.224-2.278c-1.064-5.519-3.221-10.321-6.409-14.27c-0.986-1.222-2.196-2.244-3.565-3.012
			c-7.36-4.131-15.612-4.926-21.648-5.508c-13.306-1.269-27.306,0.853-40.038,3.081c-1.129-2.777-2.606-5.283-4.454-7.571
			c-0.985-1.22-2.194-2.241-3.561-3.009c-7.376-4.141-15.627-4.929-21.648-5.504c-14.793-1.419-30.454,1.367-44.271,3.822
			c-2.625,0.467-5.208,0.927-7.73,1.347c-1.347,0.225-33.174,5.618-49.219,16.248c-0.831,0.551-1.593,1.199-2.268,1.933l-0.368,0.4
			c-4.768,5.171-7.832,9.326-7.016,19.55c0.159,2.004,1.148,7.344,6.223,33.61c2.755,14.257,5.878,30.415,6.592,34.965
			c0.551,3.528,0.187,7.208-0.345,9.069c-6.632,8.533-19.727,12.694-32.406,16.723c-1.74,0.553-3.465,1.101-5.158,1.655
			c-10.503,3.433-23.39,9.136-29.887,22.885c-5.711,12.085-6.727,27.725-2.715,41.843c2.838,9.977,12.857,13.257,18.24,15.02
			c0.687,0.225,1.326,0.428,1.867,0.635c5.13,1.961,10.843,3.199,17.442,3.776c6.952,1.443,14.011,1.91,20.267,2.325l1.503,0.099
			c5.135,0.344,10.492,0.359,16.23,0.04c4.066,3.414,9.113,5.063,12.417,6.142c0.684,0.224,1.322,0.425,1.837,0.622
			c5.118,1.962,10.833,3.201,17.445,3.779c6.989,1.452,14.077,1.918,20.359,2.33l1.412,0.093c2.778,0.186,5.557,0.272,8.326,0.272
			c14.603,0,28.935-2.372,41.376-4.81c37.883-7.435,66.121-18.008,88.846-33.261c2.417-1.615,4.021-3.742,5.065-5.641
			c1.215-1.715,2.032-3.535,2.438-5.431c0.019-0.088,0.037-0.175,0.054-0.264c0.634-3.272,0.755-6.937,0.358-10.901
			C296.303,196.339,296.293,196.029,296.282,195.719z"/>
		<path style="fill:#C5C5C5;" d="M294.945,194.382l-0.013-0.37c-0.016-0.585-0.074-1.169-0.173-1.746
			c-0.221-1.289-0.477-2.548-0.724-3.748l-0.137-0.667c-0.703-3.461-1.24-6.998-1.81-10.742c-0.209-1.375-0.418-2.751-0.635-4.12
			c-1.326-8.394-1.972-15.747-1.975-22.48c0-0.351-0.015-0.701-0.045-1.051c-0.82-9.55-1.137-17.449-0.998-24.859
			c0.205-10.948,0.239-22.029,0.271-32.744l0.023-7.076c0.017-4.458,0.214-8.975,0.423-13.757c0.235-5.374,0.478-10.932,0.45-16.512
			c-0.004-0.764-0.079-1.527-0.224-2.278c-1.064-5.519-3.221-10.321-6.409-14.27c-0.986-1.222-2.196-2.244-3.565-3.012
			c-7.36-4.131-15.612-4.926-21.648-5.508c-13.306-1.269-27.306,0.853-40.038,3.081c-1.129-2.777-2.607-5.283-4.455-7.571
			c-0.985-1.22-2.194-2.24-3.561-3.009c-7.376-4.141-15.627-4.929-21.648-5.504c-14.793-1.42-30.454,1.367-44.271,3.822
			c-2.625,0.467-5.208,0.927-7.73,1.347c-1.347,0.225-33.174,5.617-49.219,16.248c-0.831,0.551-1.593,1.2-2.268,1.933l-0.368,0.4
			c-4.768,5.171-7.832,9.326-7.016,19.55c0.159,2.004,1.148,7.344,6.223,33.61c2.755,14.257,5.878,30.415,6.592,34.965
			c0.551,3.528,0.186,7.208-0.345,9.069c-6.632,8.533-19.726,12.694-32.406,16.723c-1.74,0.553-3.465,1.101-5.158,1.655
			c-10.502,3.433-23.39,9.136-29.886,22.885c-5.711,12.085-6.726,27.725-2.715,41.843c2.837,9.977,12.857,13.257,18.24,15.02
			c0.687,0.225,1.326,0.428,1.867,0.634c5.13,1.961,10.843,3.199,17.442,3.776c6.952,1.443,14.011,1.91,20.267,2.325l1.503,0.099
			c5.135,0.344,10.492,0.359,16.23,0.04c4.066,3.414,9.113,5.063,12.417,6.142c0.684,0.224,1.322,0.425,1.837,0.622
			c5.118,1.962,10.833,3.201,17.445,3.779c6.989,1.452,14.077,1.918,20.359,2.33l1.412,0.093c2.778,0.187,5.557,0.272,8.326,0.272
			c14.603,0,28.935-2.372,41.376-4.81c37.883-7.435,66.121-18.008,88.846-33.261c2.417-1.615,4.021-3.742,5.065-5.641
			c1.215-1.715,2.032-3.535,2.438-5.431c0.019-0.088,0.037-0.175,0.054-0.263c0.635-3.272,0.755-6.937,0.358-10.901
			C294.966,195.001,294.956,194.691,294.945,194.382z"/>
		<path style="fill:#B7B7B7;" d="M293.608,193.044l-0.012-0.37c-0.016-0.585-0.074-1.169-0.174-1.746
			c-0.221-1.29-0.477-2.549-0.724-3.748l-0.137-0.667c-0.703-3.461-1.24-6.998-1.81-10.742c-0.209-1.375-0.418-2.751-0.635-4.12
			c-1.326-8.394-1.972-15.747-1.975-22.48c0-0.351-0.015-0.701-0.045-1.051c-0.82-9.55-1.136-17.449-0.998-24.859
			c0.205-10.948,0.238-22.029,0.271-32.744l0.023-7.076c0.017-4.458,0.214-8.975,0.423-13.757c0.235-5.374,0.478-10.932,0.45-16.512
			c-0.004-0.764-0.079-1.527-0.224-2.278c-1.064-5.519-3.221-10.321-6.409-14.27c-0.986-1.222-2.196-2.244-3.565-3.012
			c-7.36-4.131-15.612-4.926-21.648-5.508c-13.306-1.269-27.307,0.853-40.038,3.081c-1.129-2.777-2.606-5.283-4.454-7.571
			c-0.985-1.22-2.194-2.24-3.561-3.009c-7.376-4.141-15.627-4.929-21.648-5.504c-14.793-1.419-30.454,1.366-44.27,3.822
			c-2.625,0.467-5.208,0.927-7.73,1.347c-1.347,0.224-33.174,5.617-49.219,16.248c-0.831,0.551-1.593,1.2-2.268,1.933l-0.368,0.4
			c-4.768,5.171-7.832,9.326-7.016,19.55c0.159,2.004,1.148,7.344,6.223,33.61c2.755,14.257,5.878,30.415,6.592,34.965
			c0.551,3.528,0.186,7.209-0.345,9.069c-6.632,8.533-19.726,12.694-32.406,16.723c-1.74,0.553-3.465,1.101-5.158,1.655
			c-10.502,3.433-23.39,9.136-29.886,22.885c-5.711,12.085-6.727,27.725-2.715,41.843c2.837,9.977,12.857,13.257,18.24,15.02
			c0.687,0.225,1.326,0.428,1.867,0.635c5.13,1.961,10.843,3.199,17.442,3.776c6.952,1.443,14.011,1.91,20.267,2.325l1.503,0.099
			c5.135,0.344,10.492,0.359,16.23,0.04c4.066,3.414,9.113,5.063,12.417,6.142c0.684,0.223,1.322,0.425,1.837,0.621
			c5.118,1.962,10.833,3.201,17.445,3.779c6.989,1.452,14.077,1.918,20.359,2.329l1.412,0.093c2.778,0.186,5.557,0.272,8.326,0.272
			c14.603,0,28.935-2.372,41.376-4.81c37.883-7.435,66.12-18.008,88.846-33.261c2.417-1.615,4.021-3.742,5.065-5.641
			c1.215-1.715,2.032-3.535,2.438-5.431c0.019-0.088,0.037-0.175,0.054-0.264c0.635-3.272,0.755-6.937,0.358-10.901
			C293.629,193.664,293.619,193.354,293.608,193.044z"/>
		<path style="fill:#A8A8A8;" d="M292.27,191.707l-0.012-0.37c-0.016-0.585-0.074-1.169-0.173-1.746
			c-0.221-1.29-0.477-2.549-0.724-3.748l-0.137-0.667c-0.703-3.461-1.24-6.998-1.81-10.742c-0.209-1.375-0.418-2.751-0.635-4.12
			c-1.326-8.394-1.972-15.747-1.975-22.48c0-0.351-0.015-0.701-0.045-1.051c-0.82-9.55-1.136-17.449-0.998-24.859
			c0.205-10.948,0.238-22.029,0.271-32.744l0.023-7.076c0.017-4.458,0.214-8.975,0.423-13.757c0.235-5.374,0.478-10.932,0.45-16.512
			c-0.004-0.764-0.079-1.527-0.224-2.278c-1.064-5.519-3.221-10.321-6.409-14.27c-0.986-1.222-2.196-2.244-3.565-3.012
			c-7.36-4.131-15.612-4.926-21.648-5.508c-13.306-1.269-27.307,0.853-40.038,3.081c-1.129-2.777-2.606-5.284-4.454-7.571
			c-0.985-1.22-2.194-2.24-3.561-3.009c-7.376-4.141-15.627-4.929-21.648-5.504c-14.793-1.419-30.454,1.367-44.271,3.822
			c-2.625,0.467-5.208,0.927-7.73,1.347c-1.347,0.225-33.174,5.617-49.219,16.248c-0.831,0.551-1.593,1.2-2.268,1.933l-0.368,0.4
			c-4.768,5.171-7.832,9.326-7.016,19.55c0.159,2.004,1.148,7.344,6.223,33.61c2.755,14.257,5.878,30.415,6.591,34.965
			c0.551,3.528,0.187,7.208-0.345,9.069c-6.632,8.533-19.726,12.694-32.406,16.723c-1.74,0.553-3.465,1.101-5.158,1.655
			c-10.502,3.433-23.39,9.136-29.887,22.885c-5.711,12.085-6.726,27.725-2.715,41.843c2.838,9.977,12.857,13.257,18.24,15.02
			c0.687,0.225,1.326,0.428,1.867,0.635c5.13,1.961,10.843,3.199,17.442,3.776c6.952,1.443,14.011,1.91,20.267,2.325l1.503,0.099
			c5.135,0.344,10.492,0.359,16.23,0.04c4.066,3.414,9.113,5.063,12.417,6.142c0.684,0.224,1.322,0.425,1.837,0.622
			c5.118,1.962,10.833,3.201,17.445,3.779c6.989,1.452,14.077,1.918,20.359,2.329l1.412,0.093c2.778,0.186,5.557,0.272,8.326,0.272
			c14.602,0,28.935-2.372,41.376-4.81c37.883-7.435,66.121-18.008,88.846-33.261c2.417-1.615,4.021-3.742,5.065-5.641
			c1.215-1.715,2.032-3.535,2.438-5.431c0.019-0.088,0.037-0.175,0.054-0.264c0.635-3.272,0.755-6.937,0.358-10.901
			C292.291,192.327,292.281,192.017,292.27,191.707z"/>
		<path style="fill:#9A9A9A;" d="M290.933,190.37l-0.013-0.37c-0.016-0.585-0.074-1.169-0.173-1.746
			c-0.221-1.29-0.477-2.548-0.724-3.748l-0.137-0.667c-0.703-3.461-1.24-6.998-1.81-10.742c-0.209-1.375-0.418-2.751-0.635-4.12
			c-1.326-8.394-1.972-15.747-1.975-22.48c0-0.351-0.015-0.701-0.045-1.051c-0.82-9.55-1.136-17.449-0.998-24.859
			c0.204-10.948,0.238-22.029,0.271-32.744l0.023-7.076c0.017-4.458,0.214-8.975,0.423-13.757c0.235-5.374,0.478-10.932,0.45-16.512
			c-0.004-0.765-0.079-1.527-0.224-2.278c-1.064-5.519-3.221-10.321-6.409-14.27c-0.986-1.222-2.196-2.244-3.565-3.012
			c-7.36-4.131-15.612-4.926-21.648-5.508c-13.306-1.269-27.307,0.853-40.038,3.081c-1.129-2.777-2.606-5.284-4.454-7.571
			c-0.985-1.22-2.194-2.24-3.561-3.009c-7.376-4.141-15.627-4.929-21.648-5.504c-14.793-1.419-30.454,1.367-44.271,3.822
			c-2.625,0.467-5.208,0.927-7.73,1.347c-1.347,0.225-33.174,5.617-49.219,16.248c-0.831,0.551-1.593,1.2-2.268,1.933l-0.368,0.4
			c-4.768,5.171-7.832,9.326-7.016,19.55c0.159,2.004,1.148,7.344,6.223,33.61c2.755,14.257,5.878,30.415,6.591,34.965
			c0.551,3.528,0.187,7.209-0.345,9.069c-6.632,8.533-19.726,12.694-32.406,16.723c-1.74,0.553-3.465,1.101-5.158,1.655
			c-10.502,3.433-23.39,9.136-29.887,22.885c-5.711,12.085-6.726,27.725-2.715,41.843c2.837,9.977,12.857,13.257,18.24,15.02
			c0.687,0.225,1.326,0.428,1.867,0.635c5.13,1.961,10.843,3.199,17.442,3.776c6.952,1.443,14.011,1.91,20.267,2.325l1.503,0.099
			c5.135,0.344,10.492,0.359,16.23,0.04c4.066,3.414,9.113,5.063,12.417,6.142c0.684,0.224,1.322,0.425,1.837,0.622
			c5.118,1.962,10.833,3.201,17.445,3.779c6.989,1.452,14.077,1.918,20.359,2.329l1.412,0.093c2.778,0.187,5.557,0.272,8.326,0.272
			c14.603,0,28.935-2.372,41.376-4.81c37.883-7.435,66.121-18.008,88.846-33.261c2.417-1.615,4.021-3.742,5.065-5.641
			c1.215-1.715,2.032-3.535,2.438-5.431c0.019-0.088,0.037-0.175,0.054-0.263c0.635-3.272,0.755-6.937,0.358-10.901
			C290.954,190.989,290.944,190.68,290.933,190.37z"/>
		<path style="fill:#8B8B8B;" d="M289.596,189.032l-0.013-0.37c-0.016-0.585-0.074-1.169-0.173-1.746
			c-0.221-1.29-0.477-2.548-0.724-3.748l-0.137-0.667c-0.703-3.461-1.24-6.998-1.81-10.742c-0.209-1.375-0.418-2.751-0.635-4.12
			c-1.326-8.394-1.972-15.747-1.975-22.48c0-0.351-0.015-0.701-0.045-1.051c-0.82-9.55-1.137-17.449-0.998-24.859
			c0.204-10.948,0.238-22.029,0.271-32.744l0.023-7.076c0.017-4.458,0.214-8.975,0.423-13.757c0.235-5.374,0.478-10.933,0.45-16.512
			c-0.004-0.764-0.079-1.527-0.224-2.278c-1.064-5.519-3.221-10.321-6.409-14.271c-0.986-1.222-2.196-2.244-3.565-3.012
			c-7.36-4.131-15.612-4.926-21.648-5.508c-13.306-1.269-27.306,0.853-40.038,3.081c-1.129-2.777-2.606-5.283-4.454-7.571
			c-0.985-1.22-2.194-2.241-3.561-3.009c-7.376-4.142-15.627-4.929-21.648-5.504c-14.793-1.419-30.454,1.367-44.271,3.822
			c-2.625,0.467-5.208,0.927-7.73,1.347c-1.347,0.225-33.174,5.618-49.219,16.248c-0.831,0.551-1.593,1.199-2.268,1.933l-0.368,0.4
			c-4.768,5.171-7.832,9.326-7.016,19.55c0.159,2.004,1.148,7.344,6.223,33.61c2.755,14.257,5.878,30.415,6.592,34.965
			c0.551,3.528,0.187,7.208-0.345,9.069c-6.632,8.533-19.726,12.694-32.406,16.723c-1.74,0.553-3.465,1.101-5.158,1.655
			c-10.502,3.433-23.39,9.136-29.886,22.885c-5.711,12.085-6.727,27.725-2.715,41.843c2.837,9.977,12.857,13.257,18.24,15.02
			c0.687,0.225,1.326,0.428,1.867,0.635c5.13,1.961,10.843,3.199,17.442,3.776c6.952,1.443,14.011,1.91,20.267,2.325l1.503,0.099
			c5.135,0.344,10.492,0.359,16.23,0.04c4.066,3.414,9.113,5.063,12.417,6.142c0.684,0.224,1.322,0.425,1.837,0.622
			c5.118,1.962,10.833,3.201,17.445,3.779c6.989,1.452,14.077,1.918,20.359,2.33l1.412,0.093c2.778,0.186,5.557,0.272,8.326,0.272
			c14.603,0,28.935-2.372,41.376-4.81c37.883-7.435,66.121-18.008,88.846-33.261c2.417-1.615,4.021-3.742,5.065-5.641
			c1.215-1.715,2.032-3.535,2.438-5.431c0.019-0.088,0.037-0.175,0.054-0.264c0.635-3.272,0.755-6.937,0.358-10.901
			C289.617,189.652,289.607,189.342,289.596,189.032z"/>
		<path style="fill:#7D7D7D;" d="M288.259,187.695l-0.013-0.37c-0.016-0.585-0.074-1.169-0.174-1.746
			c-0.221-1.289-0.477-2.548-0.724-3.748l-0.137-0.667c-0.703-3.461-1.24-6.998-1.81-10.742c-0.209-1.375-0.418-2.751-0.635-4.12
			c-1.326-8.394-1.972-15.747-1.975-22.48c0-0.351-0.015-0.701-0.045-1.051c-0.82-9.55-1.137-17.449-0.998-24.859
			c0.205-10.948,0.238-22.029,0.271-32.744l0.023-7.076c0.017-4.458,0.214-8.975,0.423-13.757c0.235-5.374,0.478-10.932,0.45-16.512
			c-0.004-0.764-0.079-1.527-0.224-2.278c-1.064-5.519-3.221-10.321-6.409-14.27c-0.986-1.222-2.196-2.244-3.565-3.012
			c-7.36-4.131-15.612-4.926-21.648-5.508c-13.306-1.269-27.306,0.853-40.038,3.081c-1.129-2.777-2.607-5.283-4.454-7.571
			c-0.985-1.22-2.194-2.24-3.561-3.009c-7.376-4.141-15.627-4.929-21.648-5.504c-14.793-1.419-30.454,1.366-44.271,3.822
			c-2.625,0.467-5.208,0.927-7.73,1.347c-1.347,0.224-33.174,5.618-49.219,16.248c-0.831,0.551-1.593,1.199-2.268,1.933l-0.368,0.4
			c-4.768,5.171-7.832,9.326-7.016,19.55c0.159,2.004,1.148,7.344,6.223,33.61c2.755,14.257,5.878,30.415,6.592,34.965
			c0.551,3.528,0.187,7.209-0.345,9.069c-6.632,8.533-19.726,12.694-32.406,16.723c-1.74,0.553-3.465,1.101-5.158,1.655
			c-10.502,3.433-23.39,9.136-29.886,22.885c-5.711,12.085-6.727,27.725-2.715,41.843c2.837,9.977,12.857,13.257,18.24,15.02
			c0.687,0.225,1.326,0.428,1.867,0.634c5.13,1.961,10.843,3.199,17.442,3.776c6.952,1.443,14.011,1.91,20.267,2.325l1.503,0.099
			c5.135,0.344,10.492,0.359,16.23,0.04c4.066,3.414,9.113,5.063,12.417,6.142c0.684,0.224,1.321,0.425,1.837,0.622
			c5.118,1.962,10.833,3.201,17.445,3.779c6.989,1.452,14.077,1.918,20.359,2.33l1.412,0.093c2.778,0.187,5.557,0.272,8.327,0.272
			c14.602,0,28.935-2.372,41.376-4.81c37.883-7.435,66.121-18.008,88.846-33.261c2.417-1.615,4.021-3.742,5.065-5.641
			c1.215-1.715,2.032-3.535,2.438-5.431c0.019-0.088,0.037-0.175,0.054-0.264c0.634-3.272,0.755-6.937,0.358-10.901
			C288.279,188.315,288.27,188.005,288.259,187.695z"/>
		<path style="fill:#6E6E6E;" d="M286.921,186.358l-0.013-0.37c-0.016-0.585-0.074-1.169-0.173-1.746
			c-0.221-1.29-0.477-2.549-0.724-3.748l-0.137-0.667c-0.703-3.461-1.24-6.998-1.81-10.742c-0.209-1.375-0.418-2.751-0.635-4.12
			c-1.326-8.394-1.972-15.747-1.975-22.48c0-0.351-0.015-0.701-0.045-1.051c-0.82-9.55-1.136-17.449-0.998-24.859
			c0.205-10.948,0.238-22.029,0.271-32.744l0.023-7.076c0.017-4.458,0.214-8.975,0.423-13.757c0.235-5.374,0.478-10.932,0.45-16.512
			c-0.004-0.764-0.079-1.527-0.224-2.278c-1.064-5.519-3.221-10.321-6.409-14.27c-0.986-1.222-2.196-2.244-3.565-3.012
			c-7.36-4.131-15.612-4.926-21.648-5.508c-13.306-1.269-27.306,0.853-40.038,3.081c-1.129-2.777-2.607-5.283-4.455-7.571
			c-0.985-1.22-2.194-2.241-3.561-3.009c-7.376-4.141-15.627-4.929-21.648-5.504c-14.793-1.419-30.454,1.366-44.27,3.822
			c-2.625,0.467-5.208,0.927-7.73,1.347c-1.347,0.224-33.174,5.617-49.219,16.248c-0.831,0.551-1.593,1.2-2.268,1.933l-0.368,0.4
			c-4.768,5.171-7.832,9.326-7.016,19.55c0.159,2.004,1.148,7.344,6.223,33.61c2.755,14.257,5.878,30.415,6.592,34.965
			c0.551,3.528,0.186,7.208-0.345,9.069c-6.632,8.533-19.726,12.694-32.406,16.723c-1.74,0.553-3.465,1.101-5.158,1.655
			c-10.502,3.433-23.39,9.136-29.887,22.885c-5.711,12.085-6.727,27.725-2.715,41.843c2.838,9.977,12.857,13.257,18.24,15.02
			c0.687,0.225,1.326,0.428,1.867,0.634c5.13,1.961,10.843,3.199,17.442,3.776c6.952,1.443,14.011,1.91,20.267,2.325l1.503,0.099
			c5.135,0.344,10.492,0.359,16.23,0.04c4.066,3.414,9.113,5.063,12.417,6.142c0.684,0.224,1.322,0.425,1.837,0.622
			c5.118,1.962,10.833,3.201,17.445,3.779c6.989,1.452,14.077,1.918,20.359,2.33l1.412,0.093c2.778,0.186,5.557,0.272,8.326,0.272
			c14.603,0,28.935-2.372,41.376-4.81c37.883-7.435,66.121-18.008,88.846-33.261c2.417-1.615,4.021-3.742,5.065-5.641
			c1.215-1.715,2.032-3.535,2.438-5.431c0.019-0.088,0.037-0.175,0.054-0.263c0.635-3.272,0.755-6.937,0.358-10.901
			C286.942,186.977,286.932,186.667,286.921,186.358z"/>
		<path style="fill:#606060;" d="M285.584,185.02l-0.013-0.37c-0.016-0.585-0.074-1.169-0.173-1.746
			c-0.221-1.29-0.477-2.549-0.724-3.748l-0.137-0.667c-0.703-3.461-1.24-6.998-1.81-10.742c-0.209-1.375-0.418-2.751-0.635-4.12
			c-1.326-8.394-1.972-15.747-1.975-22.48c0-0.351-0.015-0.701-0.045-1.051c-0.82-9.55-1.136-17.449-0.998-24.859
			c0.205-10.948,0.238-22.029,0.271-32.744l0.023-7.076c0.017-4.458,0.214-8.975,0.423-13.757c0.235-5.374,0.478-10.932,0.45-16.512
			c-0.004-0.764-0.079-1.527-0.224-2.278c-1.064-5.519-3.221-10.321-6.409-14.27c-0.986-1.222-2.196-2.244-3.565-3.012
			c-7.36-4.131-15.612-4.926-21.648-5.508c-13.306-1.269-27.307,0.853-40.038,3.081c-1.129-2.777-2.606-5.284-4.454-7.571
			c-0.985-1.22-2.194-2.24-3.561-3.009c-7.376-4.141-15.627-4.929-21.648-5.504c-14.793-1.42-30.454,1.366-44.271,3.822
			c-2.625,0.467-5.208,0.927-7.73,1.347c-1.347,0.225-33.174,5.617-49.219,16.248c-0.831,0.551-1.593,1.2-2.268,1.933l-0.368,0.4
			c-4.768,5.171-7.832,9.327-7.016,19.55c0.159,2.004,1.148,7.344,6.223,33.61c2.755,14.257,5.878,30.415,6.591,34.965
			c0.551,3.528,0.187,7.209-0.345,9.069c-6.632,8.533-19.726,12.694-32.406,16.723c-1.741,0.553-3.465,1.101-5.158,1.655
			c-10.502,3.433-23.39,9.136-29.887,22.885c-5.711,12.085-6.726,27.725-2.715,41.843c2.837,9.977,12.857,13.257,18.24,15.02
			c0.687,0.225,1.326,0.428,1.867,0.635c5.13,1.961,10.843,3.199,17.442,3.776c6.952,1.443,14.011,1.91,20.267,2.325l1.503,0.099
			c5.135,0.344,10.492,0.359,16.23,0.04c4.066,3.414,9.113,5.063,12.417,6.142c0.684,0.224,1.322,0.425,1.837,0.622
			c5.118,1.962,10.833,3.201,17.445,3.779c6.989,1.452,14.077,1.918,20.359,2.329l1.412,0.093c2.778,0.186,5.557,0.272,8.326,0.272
			c14.603,0,28.935-2.372,41.376-4.81c37.883-7.435,66.12-18.008,88.846-33.261c2.417-1.615,4.021-3.742,5.065-5.641
			c1.215-1.715,2.032-3.535,2.438-5.431c0.019-0.088,0.037-0.175,0.054-0.264c0.635-3.272,0.755-6.937,0.358-10.901
			C285.605,185.64,285.595,185.33,285.584,185.02z"/>
	</g>
	<path style="fill:#FFFFFF;" d="M285.584,185.02l-0.013-0.37c-0.016-0.585-0.074-1.169-0.173-1.746
		c-0.221-1.29-0.477-2.549-0.724-3.748l-0.137-0.667c-0.703-3.461-1.24-6.998-1.81-10.742c-0.209-1.375-0.418-2.751-0.635-4.12
		c-1.326-8.394-1.972-15.747-1.975-22.48c0-0.351-0.015-0.701-0.045-1.051c-0.82-9.55-1.136-17.449-0.998-24.859
		c0.205-10.948,0.238-22.029,0.271-32.744l0.023-7.076c0.017-4.458,0.214-8.975,0.423-13.757c0.235-5.374,0.478-10.932,0.45-16.512
		c-0.004-0.764-0.079-1.527-0.224-2.278c-1.064-5.519-3.221-10.321-6.409-14.27c-0.986-1.222-2.196-2.244-3.565-3.012
		c-7.36-4.131-15.612-4.926-21.648-5.508c-13.306-1.269-27.307,0.853-40.038,3.081c-1.129-2.777-2.606-5.284-4.454-7.571
		c-0.985-1.22-2.194-2.24-3.561-3.009c-7.376-4.141-15.627-4.929-21.648-5.504c-14.793-1.42-30.454,1.366-44.271,3.822
		c-2.625,0.467-5.208,0.927-7.73,1.347c-1.347,0.225-33.174,5.617-49.219,16.248c-0.831,0.551-1.593,1.2-2.268,1.933l-0.368,0.4
		c-4.768,5.171-7.832,9.327-7.016,19.55c0.159,2.004,1.148,7.344,6.223,33.61c2.755,14.257,5.878,30.415,6.591,34.965
		c0.551,3.528,0.187,7.209-0.345,9.069c-6.632,8.533-19.726,12.694-32.406,16.723c-1.741,0.553-3.465,1.101-5.158,1.655
		c-10.502,3.433-23.39,9.136-29.887,22.885c-5.711,12.085-6.726,27.725-2.715,41.843c2.837,9.977,12.857,13.257,18.24,15.02
		c0.687,0.225,1.326,0.428,1.867,0.635c5.13,1.961,10.843,3.199,17.442,3.776c6.952,1.443,14.011,1.91,20.267,2.325l1.503,0.099
		c5.135,0.344,10.492,0.359,16.23,0.04c4.066,3.414,9.113,5.063,12.417,6.142c0.684,0.224,1.322,0.425,1.837,0.622
		c5.118,1.962,10.833,3.201,17.445,3.779c6.989,1.452,14.077,1.918,20.359,2.329l1.412,0.093c2.778,0.186,5.557,0.272,8.326,0.272
		c14.603,0,28.935-2.372,41.376-4.81c37.883-7.435,66.12-18.008,88.846-33.261c2.417-1.615,4.021-3.742,5.065-5.641
		c1.215-1.715,2.032-3.535,2.438-5.431c0.019-0.088,0.037-0.175,0.054-0.264c0.635-3.272,0.755-6.937,0.358-10.901
		C285.605,185.64,285.595,185.33,285.584,185.02z"/>
	<g>
		<g>
			<path style="fill:#56281F;" d="M203.563,173.639c0.003-0.551-0.024-1.104-0.038-1.654c-0.245-1.403-0.533-2.77-0.791-4.047
				c-1.035-5.093-1.73-10.251-2.541-15.392c-1.292-8.148-2.128-16.253-2.13-24.403c-0.744-8.694-1.203-17.385-1.042-26.146
				c0.248-13.213,0.243-26.416,0.293-39.631c0.044-9.93,0.923-20.129,0.877-30.166c-0.627-3.233-1.785-6.24-3.894-8.85
				c-4.988-2.801-11.166-3.444-16.779-3.98c-15.733-1.507-33.37,2.487-48.794,5.058c-3.971,0.662-31.653,5.898-44.427,14.361
				c-3.603,3.916-4.627,4.792-4.162,10.614c0.263,3.328,11.18,57.923,12.705,67.644c0.869,5.561,0.424,12.565-1.628,16.958
				c-9.764,14.179-28.573,18.878-44.645,24.133c-9.161,2.995-18.172,7.141-22.558,16.424c-4.711,9.968-5.004,22.621-2.002,33.187
				c1.278,4.493,8.828,6.041,12.638,7.498c4.668,1.785,9.729,2.67,14.836,3.069c6.826,1.497,14.053,1.891,20.791,2.345
				c15.362,1.028,31.469-1.393,46.497-4.341c29.271-5.746,59.367-14.635,84.356-31.412c0.558-0.37,1.097-1.177,1.419-1.963
				c0.446-0.501,0.793-1.035,0.873-1.436l0.008-0.017C203.89,179.088,203.876,176.389,203.563,173.639z"/>
			<path style="fill:#A02929;" d="M138.987,25.948c11.607-1.547,46.528-9.413,54.791,3.672
				c-0.111,6.403-23.383,12.767-27.643,14.141c-8.472,2.727-18.04,4.113-26.796,5.689c-11.505,2.067-23.492,2.91-35.15,2.608
				c-4.139-0.109-8.352-0.311-12.464-0.79c-2.561-0.297-8.273-2.867-9.495-5.796C87.585,32.373,130.424,27.09,138.987,25.948z"/>
			<path style="fill:#A02929;" d="M152.264,33.838c-19.954,2.314-42.007,7.26-60.034,17.473c3.951,0.439,7.986,0.643,11.96,0.748
				c11.658,0.301,23.645-0.541,35.15-2.608c8.755-1.576,18.324-2.962,26.796-5.689c3.107-1.004,16.334-4.661,23.302-9.054
				C181.7,31.652,155.769,33.432,152.264,33.838z"/>
			<path style="fill:#E6343D;" d="M23.64,187.955c0.224-1.531,1.256-7.545,1.591-9.062c2.897-12.937,15.32-15.966,25.903-18.655
				c1.744-0.441,8.471-2.869,10.144-3.42c13.937-6.204,26.124-11.288,33.618-24.802c1.459-4.559,0.904-9.99,0.217-14.483
				c-1.326-8.693-2.197-17.364-3.992-25.982c-2.583-12.396-4.528-25.484-7.764-38.02c3.85,1.398,9.903,1.41,12.409,1.486
				c8.805,0.285,17.334,0.499,26.132-0.297c16.634-1.495,34.976-4.184,50.605-10.301c5.451-2.129,18.311-5.214,22.654-11.554
				c0.03,0.114,0.068,0.209,0.093,0.323c-2.225,23.756-1.436,47.611-1.911,71.49c-0.397,20.117,1.92,40.661,5.633,60.591
				c-0.033,2.01,0.154,4.028,0.385,6.047c-8.282,6.441-20.527,10.357-29.547,14.067c-16.17,6.655-33.648,10.583-50.675,14.345
				c-10.25,2.264-20.708,3.351-31.19,3.65c-5.99,0.548-28.668,0.995-36.611-1.308c-1.591-0.242-3.185-0.527-4.764-0.899
				c-1.934-0.299-3.837-0.698-5.678-1.353c-5.992-2.127-13.583-4.284-17.555-9.757C23.436,189.346,23.538,188.639,23.64,187.955z"/>
			<path style="fill:#F4AD87;" d="M40.259,171.17c11.722-9.482,28.2-11.464,41.64-17.644c7.057-3.242,14.819-7.464,18.203-14.888
				c4.404-9.66,1.958-21.496,0.237-31.531c-2.981-17.321-5.407-35.067-9.449-52.281c-2.529-0.166-5.376-0.513-7.533-1.294
				c3.236,12.536,5.181,25.623,7.764,38.02c1.796,8.618,2.667,17.288,3.992,25.982c0.687,4.493,1.242,9.923-0.217,14.483
				c-7.494,13.514-19.682,18.598-33.618,24.802c-1.673,0.551-8.399,2.979-10.144,3.42c-10.583,2.689-23.007,5.718-25.903,18.655
				c-0.336,1.517-1.367,7.531-1.591,9.062c-0.102,0.684-0.204,1.391-0.303,2.108c1.568,2.16,3.706,3.788,6.08,5.115
				C29.65,186.139,32.211,177.678,40.259,171.17z"/>
			<path style="fill:#C93035;" d="M198.974,165.27c-3.713-19.93-6.031-40.474-5.633-60.591c0.475-23.879-0.314-47.734,1.911-71.49
				c-0.025-0.114-0.063-0.209-0.093-0.323c-4.343,6.339-17.204,9.425-22.654,11.554c-14.855,5.815-32.148,8.518-48.107,10.056
				c0.408,0.05,0.827,0.1,1.224,0.14c6.889,0.731,13.62,0.698,20.481-0.259c3.266-0.451,7.297-0.992,10.429,0.439
				c7.718,3.505,8.387,12.733,9.167,20.164c1.462,13.918,3.026,27.786,3.952,41.753c0.922,13.965,0.682,28.234,2.329,42.121
				c1.105,9.301,0.64,15.083-7.548,20.468c-10.657,7.009-22.029,13.201-33.946,17.872c13.349-3.086,26.732-6.608,39.325-11.791
				c9.02-3.71,21.264-7.626,29.547-14.067C199.128,169.298,198.94,167.281,198.974,165.27z"/>
			<path style="fill:#E6343D;" d="M200.011,182.162c-24.447,15.859-53.072,23.815-81.315,29.732
				c-14.885,3.121-29.972,5.957-45.163,5.471c-4.127-0.133-14.23-0.797-18.586-1.082c-8.116-0.532-22.405-2.511-28.501-8.791
				c-3.497-3.6-3.909-8.756-3.517-13.749c2.576,4.161,9.215,6.449,13.31,7.956c0.923,0.344,1.902,0.636,2.88,0.921
				c3.921,0.821,7.859,1.607,11.823,2.06c0.121,0.012,0.24,0.031,0.36,0.035c0.007,0.005,0.012,0.007,0.016,0.012
				c0.215,0.028,0.43,0.069,0.648,0.088c4.772,0.463,9.033,1.173,13.807,1.545c4.845,0.38,10.187,0.071,15.015,0.475
				c12.391-0.081,24.765-1.434,36.92-3.823c17.389-3.413,34.807-8.231,51.352-14.568c9.47-3.624,21.947-8.043,30.573-14.744
				C199.963,176.537,200.249,179.368,200.011,182.162z"/>
			<path style="fill:#F4AD87;" d="M29.444,198.918c-2.653-1.313-5.153-2.977-6.516-5.177c-0.392,4.994,0.02,10.149,3.517,13.749
				c1.15,1.184,2.593,2.219,4.228,3.114C30.075,206.705,29.598,202.779,29.444,198.918z"/>
			<path style="fill:#C93035;" d="M199.633,173.698c-8.626,6.7-21.103,11.119-30.573,14.744
				c-16.241,6.223-33.322,10.972-50.392,14.371c8.484-0.489,16.932-1.628,24.974-3.698c3.234-0.833,6.878-1.944,9.642,0.456
				c0.829,0.724,1.279,1.854,1.569,3.126c15.848-4.993,31.187-11.471,45.158-20.535
				C200.249,179.368,199.963,176.537,199.633,173.698z"/>
		</g>
		<g>
			<path style="fill:#56281F;" d="M273.264,186.645c0.008-0.551-0.022-1.102-0.038-1.652c-0.241-1.405-0.532-2.77-0.792-4.047
				c-1.035-5.098-1.726-10.248-2.541-15.392c-1.288-8.15-2.123-16.253-2.127-24.403c-0.745-8.694-1.204-17.388-1.041-26.146
				c0.247-13.213,0.242-26.418,0.292-39.636c0.038-9.928,0.923-20.127,0.873-30.162c-0.623-3.23-1.783-6.239-3.892-8.853
				c-4.987-2.798-11.162-3.442-16.777-3.983c-15.739-1.502-33.371,2.492-48.798,5.065c-3.971,0.66-31.649,5.896-44.427,14.357
				c-3.6,3.919-4.624,4.792-4.158,10.616c0.266,3.323,11.181,57.921,12.7,67.642c0.872,5.565,0.425,12.562-1.621,16.963
				c-9.765,14.176-28.578,18.873-44.646,24.133c-9.163,2.993-18.172,7.137-22.558,16.417c-4.711,9.973-5.003,22.626-2.004,33.192
				c1.276,4.495,8.829,6.043,12.642,7.495c4.663,1.787,9.729,2.67,14.833,3.069c6.83,1.5,14.053,1.894,20.79,2.342
				c15.363,1.03,31.473-1.391,46.498-4.336c29.27-5.744,59.368-14.634,84.362-31.41c0.558-0.373,1.088-1.18,1.414-1.97
				c0.446-0.499,0.797-1.03,0.877-1.431l0.003-0.016C273.595,192.094,273.579,189.396,273.264,186.645z"/>
			<path style="fill:#A02929;" d="M208.694,38.96c11.604-1.55,46.521-9.42,54.787,3.669c-0.108,6.401-23.385,12.767-27.643,14.141
				c-8.473,2.725-18.038,4.113-26.793,5.684c-11.505,2.067-23.493,2.91-35.15,2.609c-4.141-0.105-8.357-0.304-12.463-0.786
				c-2.563-0.296-8.273-2.865-9.5-5.793C157.288,45.38,200.127,40.099,208.694,38.96z"/>
			<path style="fill:#A02929;" d="M221.965,46.849c-19.957,2.307-42.006,7.258-60.032,17.468c3.949,0.442,7.991,0.643,11.962,0.745
				c11.657,0.301,23.645-0.541,35.15-2.609c8.755-1.571,18.319-2.959,26.793-5.684c3.11-1.001,16.336-4.664,23.304-9.057
				C251.406,44.656,225.47,46.438,221.965,46.849z"/>
			<path style="fill:#E6343D;" d="M93.344,200.962c0.228-1.529,1.252-7.545,1.589-9.057c2.898-12.94,15.32-15.971,25.903-18.657
				c1.748-0.446,8.473-2.872,10.148-3.42c13.936-6.204,26.124-11.29,33.618-24.807c1.457-4.559,0.904-9.99,0.219-14.483
				c-1.325-8.687-2.203-17.359-3.997-25.979c-2.583-12.396-4.527-25.478-7.765-38.022c3.856,1.403,9.906,1.415,12.408,1.495
				c8.811,0.278,17.338,0.489,26.132-0.299c16.636-1.5,34.978-4.187,50.611-10.301c5.449-2.136,18.31-5.222,22.649-11.556
				c0.029,0.107,0.069,0.209,0.096,0.323c-2.229,23.753-1.44,47.61-1.913,71.489c-0.398,20.115,1.922,40.659,5.631,60.593
				c-0.028,2.006,0.159,4.028,0.389,6.045c-8.281,6.437-20.525,10.358-29.546,14.072c-16.171,6.65-33.652,10.578-50.678,14.34
				c-10.25,2.264-20.707,3.349-31.19,3.646c-5.988,0.55-28.67,0.994-36.609-1.305c-1.594-0.24-3.187-0.522-4.763-0.897
				c-1.933-0.301-3.841-0.703-5.683-1.355c-5.988-2.129-13.58-4.282-17.551-9.759C93.14,202.352,93.242,201.647,93.344,200.962z"/>
			<path style="fill:#F4AD87;" d="M109.963,184.179c11.721-9.484,28.198-11.464,41.639-17.644
				c7.061-3.244,14.818-7.469,18.201-14.886c4.405-9.662,1.96-21.5,0.237-31.533c-2.979-17.321-5.407-35.067-9.445-52.281
				c-2.53-0.171-5.373-0.515-7.536-1.299c3.237,12.544,5.181,25.626,7.765,38.022c1.794,8.62,2.673,17.293,3.997,25.979
				c0.686,4.493,1.239,9.923-0.219,14.483c-7.494,13.517-19.683,18.603-33.618,24.807c-1.674,0.548-8.399,2.974-10.148,3.42
				c-10.583,2.687-23.005,5.717-25.903,18.657c-0.337,1.512-1.361,7.529-1.589,9.057c-0.102,0.686-0.204,1.391-0.301,2.105
				c1.566,2.16,3.706,3.795,6.081,5.122C99.349,199.151,101.914,190.687,109.963,184.179z"/>
			<path style="fill:#C93035;" d="M268.673,178.281c-3.708-19.934-6.029-40.478-5.631-60.593
				c0.472-23.879-0.316-47.736,1.913-71.489c-0.027-0.114-0.067-0.216-0.096-0.323c-4.34,6.334-17.2,9.42-22.649,11.556
				c-14.859,5.808-32.148,8.511-48.11,10.051c0.411,0.047,0.829,0.1,1.221,0.145c6.894,0.727,13.621,0.691,20.484-0.263
				c3.263-0.453,7.296-0.992,10.43,0.437c7.716,3.508,8.384,12.736,9.166,20.169c1.467,13.916,3.026,27.783,3.951,41.748
				c0.924,13.97,0.686,28.236,2.331,42.123c1.106,9.304,0.644,15.083-7.545,20.471c-10.66,7.009-22.031,13.203-33.951,17.867
				c13.352-3.081,26.737-6.603,39.331-11.782c9.02-3.714,21.264-7.635,29.546-14.072
				C268.832,182.309,268.645,180.287,268.673,178.281z"/>
			<path style="fill:#E6343D;" d="M269.713,195.168c-24.446,15.859-53.072,23.817-81.312,29.734
				c-14.888,3.121-29.971,5.955-45.165,5.468c-4.125-0.128-14.227-0.798-18.584-1.078c-8.119-0.534-22.409-2.518-28.502-8.791
				c-3.497-3.607-3.908-8.758-3.515-13.754c2.574,4.165,9.211,6.449,13.305,7.958c0.928,0.342,1.901,0.636,2.884,0.916
				c3.92,0.826,7.855,1.614,11.819,2.065c0.12,0.005,0.24,0.026,0.36,0.033c0.004,0.005,0.011,0.007,0.017,0.016
				c0.215,0.021,0.434,0.062,0.65,0.088c4.771,0.463,9.033,1.17,13.807,1.54c4.843,0.382,10.184,0.073,15.014,0.479
				c12.391-0.083,24.765-1.438,36.918-3.824c17.393-3.418,34.807-8.236,51.357-14.571c9.464-3.626,21.939-8.043,30.568-14.744
				C269.665,189.545,269.954,192.377,269.713,195.168z"/>
			<path style="fill:#F4AD87;" d="M99.148,211.929c-2.653-1.315-5.153-2.979-6.513-5.181c-0.393,4.996,0.018,10.146,3.515,13.754
				c1.149,1.182,2.593,2.212,4.229,3.109C99.782,219.709,99.299,215.783,99.148,211.929z"/>
			<path style="fill:#C93035;" d="M269.336,186.707c-8.63,6.7-21.104,11.117-30.568,14.744
				c-16.246,6.216-33.325,10.968-50.396,14.371c8.482-0.491,16.929-1.626,24.978-3.7c3.233-0.833,6.874-1.941,9.635,0.458
				c0.831,0.719,1.284,1.849,1.574,3.126c15.847-4.996,31.184-11.471,45.155-20.537
				C269.954,192.377,269.665,189.545,269.336,186.707z"/>
		</g>
	</g>
</g>
</svg>
