<?xml version="1.0" encoding="utf-8"?>
<!-- Generator: Adobe Illustrator 27.5.0, SVG Export Plug-In . SVG Version: 6.00 Build 0)  -->
<svg version="1.1" id="Layer_1" xmlns="http://www.w3.org/2000/svg" xmlns:xlink="http://www.w3.org/1999/xlink" x="0px" y="0px"
	 viewBox="0 0 253.524 238.003" style="enable-background:new 0 0 253.524 238.003;" xml:space="preserve">
<g>
	<g>
		<g>
			<path style="fill:#E7ECEF;" d="M144.106,17.028c-1.671-1.023-3.932-0.529-5.436,0.529c-1.395,0.981-1.691,2.762-1.11,4.27
				c0.746,1.945,3.068,2.504,4.866,1.75c0.847-0.355,2.253-1.229,2.692-2.074C145.965,19.88,145.734,18.025,144.106,17.028z"/>
			<path style="fill:#E7ECEF;" d="M140.076,26.081c-0.832-0.51-1.957-0.264-2.707,0.263c-0.695,0.489-0.841,1.376-0.553,2.127
				c0.372,0.969,1.528,1.246,2.424,0.871c0.422-0.177,1.121-0.612,1.341-1.033C141.002,27.501,140.887,26.577,140.076,26.081z"/>
			<path style="fill:#E7ECEF;" d="M134.895,27.421c0.775-1.264,0.944-2.883-0.13-3.883c-0.422-0.393-1.086-0.486-1.776-0.377
				c-0.016-1.164-0.186-2.213-0.512-2.916c-1.436-3.103-5.866-3.55-8.562-2.102c-0.287,0.154-0.733,0.555-1.194,1.072
				c-1.378-1.702-3.289-2.982-5.6-3.436c-2.899-0.567-5.774,0.746-7.829,2.758c-0.398-0.996-1.154-1.816-2.388-2.225
				c-1.286-0.427-2.597-0.162-3.702,0.502c-1.082-1.655-3.101-2.596-5.31-1.839c-0.914,0.314-1.825,0.903-2.603,1.657
				c-1.052-5.322-7.957-8.907-13.7-8.48c-4.325,0.322-8.038,3.049-9.99,6.922c-1.348,2.673-2.028,6.879-0.576,9.69
				c-0.782,0.421-1.448,1.153-1.923,1.845c-0.174,0.254-0.348,0.563-0.5,0.895c-3.305-0.488-6.857,1.982-7.746,5.256
				c-1.117,4.118,1.313,6.736,4.692,7.201c-0.273,0.66-0.481,1.349-0.62,2.037c-0.727,3.594,0.764,6.991,4.197,8.376
				c5.514,2.224,11.151-3.226,11.025-8.543c1.014,0.19,2.077-0.024,2.928-0.808c1.047-0.965,1.146-2.385,0.676-3.635
				c2.074,0.207,4.451-0.557,5.789-1.949c0.272-0.285,0.51-0.604,0.733-0.935c1.355,1.925,3.545,3.224,6.127,3.05
				c2.707-0.182,5.415-1.424,7.348-3.375c3.701,10.026,21.136,7.104,26.174-0.932c1.553,0.375,3.537-0.25,4.648-1.488
				C135.942,30.231,135.795,28.647,134.895,27.421z"/>
		</g>
		<g style="opacity:0.3;">
			<path style="fill:#DBE8EF;" d="M144.106,17.028c-1.671-1.023-3.932-0.529-5.436,0.529c-1.395,0.981-1.691,2.762-1.11,4.27
				c0.746,1.945,3.068,2.504,4.866,1.75c0.847-0.355,2.253-1.229,2.692-2.074C145.965,19.88,145.734,18.025,144.106,17.028z
				 M143.289,21.431c-0.359,0.48-0.861,0.885-1.418,1.106c-1.518,0.602-3.818-0.444-3.88-2.235c-0.067-1.986,2.362-3.615,4.21-2.854
				c0.821,0.339,1.504,0.862,1.741,1.751c0.081,0.303,0.062,0.611-0.015,0.907C143.902,20.63,143.659,21.076,143.289,21.431z"/>
			<path style="fill:#DBE8EF;" d="M140.076,26.081c-0.832-0.51-1.957-0.264-2.707,0.263c-0.695,0.489-0.841,1.376-0.553,2.127
				c0.372,0.969,1.528,1.246,2.424,0.871c0.422-0.177,1.121-0.612,1.341-1.033C141.002,27.501,140.887,26.577,140.076,26.081z
				 M139.387,28.317c-0.016,0.02-0.023,0.044-0.04,0.063c-0.467,0.479-1.222,0.311-1.657-0.125c-0.593-0.595-0.12-1.559,0.506-1.893
				c0.635-0.339,1.494,0.013,1.675,0.709C139.982,27.503,139.764,28.042,139.387,28.317z"/>
			<path style="fill:#DBE8EF;" d="M134.895,27.421c0.775-1.264,0.944-2.883-0.13-3.883c-0.422-0.393-1.086-0.486-1.776-0.377
				c-0.016-1.164-0.186-2.213-0.512-2.916c-1.436-3.103-5.866-3.55-8.562-2.102c-0.287,0.154-0.733,0.555-1.194,1.072
				c-1.378-1.702-3.289-2.982-5.6-3.436c-2.899-0.567-5.774,0.746-7.829,2.758c-0.398-0.996-1.154-1.816-2.388-2.225
				c-1.286-0.427-2.597-0.162-3.702,0.502c-1.082-1.655-3.101-2.596-5.31-1.839c-0.914,0.314-1.825,0.903-2.603,1.657
				c-1.052-5.322-7.957-8.907-13.7-8.48c-4.325,0.322-8.038,3.049-9.99,6.922c-1.348,2.673-2.028,6.879-0.576,9.69
				c-0.782,0.421-1.448,1.153-1.923,1.845c-0.174,0.254-0.348,0.563-0.5,0.895c-3.305-0.488-6.857,1.982-7.746,5.256
				c-1.117,4.118,1.313,6.736,4.692,7.201c-0.273,0.66-0.481,1.349-0.62,2.037c-0.727,3.594,0.764,6.991,4.197,8.376
				c5.514,2.224,11.151-3.226,11.025-8.543c1.014,0.19,2.077-0.024,2.928-0.808c1.047-0.965,1.146-2.385,0.676-3.635
				c2.074,0.207,4.451-0.557,5.789-1.949c0.272-0.285,0.51-0.604,0.733-0.935c1.355,1.925,3.545,3.224,6.127,3.05
				c2.707-0.182,5.415-1.424,7.348-3.375c3.701,10.026,21.136,7.104,26.174-0.932c1.553,0.375,3.537-0.25,4.648-1.488
				C135.942,30.231,135.795,28.647,134.895,27.421z M127.682,26.858c0.028,0.82-0.202,1.648-0.695,2.338
				c0.704,0.598,1.124,1.42,0.909,2.496c-0.573,2.873-5.13,3.915-6.788,1.957c-2.247,3.12-6.909,4.568-10.428,3.074
				c-2.35-0.998-5.251-4.023-5.698-6.983c-0.45,0.401-0.995,0.715-1.664,0.894c-1.001,0.266-2.089,0.305-3.046,0.051
				c-1.334,2.068-4.289,3.264-6.677,3.193c-2.72-0.08-4.396-1.888-4.998-4.114c0.366,1.355,0.253,2.767-0.618,3.833
				c-1.638,2.007-3.974,2.675-6.269,2.379c0.088,0.35,0.12,0.698,0.075,1.033c-0.194,1.435-1.623,2.598-3.051,2.864
				c0.855,3.477-0.924,7.985-4.44,9.255c-3.511,1.268-7.197-0.811-8.093-4.387c-0.57-2.273,0.307-4.338,1.797-6.004
				c-0.328,0.018-0.659,0.007-0.992-0.043c-2.692-0.4-4.651-2.379-4.515-5.16c0.128-2.613,3.922-4.832,6.525-4.174
				c0.982-1.006,2.306-1.666,3.509-1.586c0.26-0.625,0.68-1.25,1.205-1.828c-1.037-1.992-1.489-4.374-1.13-6.09
				c1.137-5.426,6.569-7.656,11.7-6.848c3.793,0.598,7.197,2.939,7.932,6.566c1.143-0.83,2.549-1.24,3.732-0.782
				c0.912,0.353,1.525,1.003,1.888,1.786c3.06-1.937,8.014-1.287,8.718,3.1c1.732-2.891,7.367-4.234,9.511-1.506
				c0.094-0.134,0.188-0.268,0.306-0.384c1.932-1.917,4.555-1.962,6.523-0.39c0.168-0.322,0.338-0.617,0.379-0.666
				c0.396-0.483,0.936-0.861,1.499-1.127c1.997-0.939,5.012-0.225,5.882,1.963C131.627,23.981,130.273,26.548,127.682,26.858z"/>
		</g>
	</g>
	<g>
		<g>
			<rect x="62.075" y="47.83" style="fill:#FCCF97;" width="23.797" height="24.333"/>
			<rect x="62.075" y="47.83" style="fill:#AE834A;" width="23.797" height="4.417"/>
			<rect x="62.075" y="60.911" style="fill:#F8B59F;" width="23.797" height="5"/>
			<g>
				<g>
					<g>
						<rect x="70.47" y="59.421" style="fill:#FABA6B;" width="4.674" height="1.672"/>
						<rect x="62.71" y="57.414" style="fill:#FABA6B;" width="4.675" height="1.671"/>
					</g>
				</g>
				<g>
					<g>
						<rect x="65.419" y="55.38" style="fill:#FABA6B;" width="4.676" height="1.671"/>
						<rect x="62.71" y="53.372" style="fill:#FABA6B;" width="4.675" height="1.672"/>
						<rect x="67.757" y="53.372" style="fill:#FABA6B;" width="4.675" height="1.672"/>
					</g>
				</g>
			</g>
			<g>
				<g>
					<g>
						<rect x="80.566" y="57.232" style="fill:#FABA6B;" width="4.676" height="1.671"/>
						<rect x="72.807" y="55.226" style="fill:#FABA6B;" width="4.675" height="1.67"/>
					</g>
				</g>
				<g>
					<g>
						<rect x="75.517" y="53.19" style="fill:#FABA6B;" width="4.674" height="1.672"/>
					</g>
				</g>
			</g>
			<rect x="60.14" y="46.663" style="fill:#F48E58;" width="27.666" height="4.834"/>
		</g>
		<g>
			<path style="fill:#50AC57;" d="M77.62,155.243c0-3.475-2.796-6.283-6.255-6.322c0.93-1.203,1.505-2.703,1.505-4.342
				c0-3.949-3.196-7.145-7.142-7.145c-1.443,0-2.773,0.436-3.898,1.166c0.335-0.766,0.527-1.604,0.527-2.49
				c0-3.441-2.785-6.229-6.227-6.229c-1.724,0-3.285,0.703-4.41,1.834c-0.793-1.799-2.584-3.057-4.67-3.057
				c-1.393,0-2.654,0.561-3.576,1.467c-1.261-1.748-3.301-2.896-5.613-2.896c-3.797,0-6.869,3.052-6.927,6.837
				c-0.738-0.482-1.618-0.768-2.563-0.768c-2.591,0-4.692,2.1-4.692,4.695c0,0.713,0.173,1.381,0.454,1.986
				c-0.583-0.176-1.191-0.301-1.833-0.301c-3.494,0-6.324,2.832-6.324,6.328c0,1.209,0.355,2.328,0.942,3.285
				c-2.523,0.992-4.313,3.43-4.313,6.307c0,2.18,1.047,4.102,2.645,5.344c-2.067,1.752-3.408,4.332-3.408,7.262
				c0,5.268,4.266,9.539,9.543,9.539c0.5,0,0.984-0.072,1.463-0.148c0.772,2.621,3.167,4.539,6.036,4.539
				c1.563,0,2.971-0.586,4.075-1.518c1.156,1.471,2.937,2.438,4.959,2.438c1.354,0,2.604-0.432,3.631-1.156
				c1.227,1.652,3.176,2.738,5.394,2.738c2.16,0,4.061-1.031,5.294-2.611c0.804,0.385,1.694,0.615,2.646,0.615
				c2.955,0,5.419-2.07,6.04-4.828c0.684,0.336,1.445,0.543,2.253,0.543c2.82,0,5.107-2.287,5.107-5.102
				c0-0.584-0.122-1.135-0.299-1.66c0.26,0.031,0.515,0.08,0.782,0.08c3.62,0,6.557-2.938,6.557-6.557
				c0-1.561-0.563-2.975-1.474-4.098C76.069,160.036,77.62,157.823,77.62,155.243z"/>
			<path style="fill:#BD812B;" d="M34.593,209.556c0,0,3.629-2.879,4.242-8.723c0.61-5.844,0-15.244,0-15.244
				s-0.768-6.604-3.216-8.383c0,0-1.993-1.268-0.92-1.902c1.07-0.637,4.593,1.521,5.97,4.568c0,0-0.307-4.953-2.142-7.873
				c0,0-0.46-0.889,1.227-0.639c1.681,0.258,3.672,6.482,4.59,14.102c0,0,1.072-7.494,3.674-9.523c0,0,1.838-1.529,2.295,0
				c0,0-2.602,2.662-2.755,9.145c-0.153,6.473-0.946,20.26,2.5,22.74c3.441,2.473,5.46,2.453,5.46,2.453s-2.679,0.678-5.507,0.168
				c0,0,2.368,1.313,3.44,1.691c1.071,0.387-2.959,0.744-7.016-0.717c0,0-1.623,1.104-4.341,1.609c0,0,1.024-0.918,1.25-1.938
				c0,0-4.104,2.277-9.923,1.979l3.574-2.16c0,0-2.974,0.754-5.003,0.338C31.995,211.247,33.45,210.444,34.593,209.556z"/>
			<g style="opacity:0.4;">
				<path style="fill:#BD812B;" d="M38.528,178.032c2.445,3.061,4.364,13.168,4.286,19.291c0,0,0.078-12.859-2.145-17.684
					c-0.01-0.02-0.016-0.031-0.023-0.049c0.014,0.172,0.023,0.281,0.023,0.281c-1.377-3.047-4.899-5.205-5.97-4.568
					c-0.221,0.127-0.29,0.287-0.296,0.459C35.38,175.755,36.982,176.101,38.528,178.032z"/>
				<path style="fill:#BD812B;" d="M41.054,174.206c1.609,3.979,2.908,13.701,3.063,17.836c0,0,0.354-4.277,0.234-6.639
					c-0.002,0.027-0.006,0.059-0.006,0.059c-0.918-7.619-2.909-13.844-4.59-14.102c-0.232-0.031-0.414-0.045-0.574-0.041
					C39.755,171.776,40.413,172.616,41.054,174.206z"/>
				<path style="fill:#BD812B;" d="M50.012,210.444c2.828,0.51,5.507-0.168,5.507-0.168s-2.02,0.02-5.46-2.453
					c-3.446-2.48-2.653-16.268-2.5-22.74c0.153-6.482,2.755-9.145,2.755-9.145c-0.078-0.264-0.205-0.406-0.348-0.514
					c-1.191,1.232-3.632,4.404-4.092,10.031c-0.61,7.504-0.304,20.438,3.598,23.039c0,0,1.224,0.996,2.525,1.381
					c0,0-3.289-0.229-3.979-0.611c-0.689-0.385,1.993,2.066,3.828,2.68c0,0-4.748-0.156-6.66-2.836c0,0-3.699,2.867-11.764,3.961
					c5.819,0.299,9.923-1.979,9.923-1.979c-0.226,1.02-1.25,1.938-1.25,1.938c2.718-0.506,4.341-1.609,4.341-1.609
					c4.057,1.461,8.087,1.104,7.016,0.717C52.38,211.757,50.012,210.444,50.012,210.444z"/>
			</g>
			<path style="opacity:0.4;fill:#BD812B;" d="M37.553,179.487c0,0,1.716,2.908,1.944,8.42c0.231,5.51-0.133,15.641-1.378,17.912
				c-1.533,2.803-3.75,4.592-3.75,4.592s4.823-1.377,5.511-6.582C40.568,198.622,41.436,184.692,37.553,179.487z"/>
			<path style="fill:#A2BE4A;" d="M71.72,155.919c0-2.9-2.33-5.246-5.216-5.273c0.774-1.01,1.259-2.258,1.259-3.627
				c0-3.295-2.672-5.961-5.965-5.961c-1.203,0-2.318,0.363-3.254,0.971c0.278-0.639,0.439-1.336,0.439-2.08
				c0-2.871-2.328-5.193-5.197-5.193c-1.438,0-2.742,0.582-3.684,1.527c-0.659-1.5-2.152-2.555-3.898-2.555
				c-1.162,0-2.213,0.469-2.983,1.227c-1.051-1.461-2.753-2.416-4.684-2.416c-3.174,0-5.736,2.551-5.787,5.707
				c-0.614-0.4-1.344-0.641-2.132-0.641c-2.167,0-3.919,1.754-3.919,3.918c0,0.598,0.146,1.152,0.379,1.66
				c-0.488-0.15-0.992-0.252-1.527-0.252c-2.922,0-5.281,2.361-5.281,5.283c0,1.008,0.297,1.939,0.785,2.742
				c-2.106,0.828-3.6,2.861-3.6,5.262c0,1.818,0.875,3.42,2.209,4.461c-1.726,1.457-2.843,3.615-2.843,6.059
				c0,4.396,3.561,7.963,7.96,7.963c0.422,0,0.821-0.057,1.225-0.119c0.644,2.182,2.643,3.785,5.039,3.785
				c1.302,0,2.477-0.49,3.399-1.268c0.965,1.229,2.451,2.035,4.141,2.035c1.13,0,2.17-0.361,3.027-0.967
				c1.026,1.379,2.656,2.287,4.507,2.287c1.801,0,3.389-0.863,4.415-2.18c0.671,0.322,1.417,0.514,2.209,0.514
				c2.467,0,4.521-1.725,5.047-4.031c0.566,0.281,1.198,0.455,1.877,0.455c2.352,0,4.265-1.91,4.265-4.258
				c0-0.49-0.103-0.947-0.253-1.385c0.22,0.027,0.433,0.068,0.655,0.068c3.021,0,5.472-2.455,5.472-5.479
				c0-1.299-0.474-2.477-1.228-3.42C70.429,159.921,71.72,158.077,71.72,155.919z"/>
			<path style="fill:#7BC254;" d="M71.414,155.204c0-2.9-2.331-5.246-5.214-5.277c0.772-1.006,1.253-2.256,1.253-3.625
				c0-3.297-2.669-5.963-5.962-5.963c-1.203,0-2.318,0.365-3.256,0.977c0.279-0.641,0.441-1.342,0.441-2.084
				c0-2.869-2.32-5.193-5.198-5.193c-1.438,0-2.739,0.586-3.683,1.529c-0.656-1.5-2.148-2.553-3.897-2.553
				c-1.162,0-2.215,0.467-2.984,1.227c-1.047-1.461-2.751-2.416-4.685-2.416c-3.169,0-5.734,2.545-5.785,5.701
				c-0.611-0.4-1.347-0.633-2.132-0.633c-2.167,0-3.919,1.748-3.919,3.914c0,0.598,0.145,1.15,0.377,1.658
				c-0.486-0.148-0.99-0.254-1.524-0.254c-2.921,0-5.283,2.365-5.283,5.289c0,1.006,0.294,1.936,0.787,2.736
				c-2.104,0.83-3.6,2.865-3.6,5.266c0,1.816,0.874,3.422,2.207,4.461c-1.723,1.457-2.846,3.613-2.846,6.061
				c0,4.395,3.563,7.963,7.966,7.963c0.418,0,0.817-0.059,1.224-0.123c0.644,2.188,2.641,3.785,5.037,3.785
				c1.305,0,2.477-0.49,3.399-1.266c0.964,1.225,2.45,2.035,4.14,2.035c1.131,0,2.176-0.361,3.027-0.967
				c1.027,1.377,2.656,2.289,4.506,2.289c1.801,0,3.391-0.865,4.416-2.18c0.671,0.318,1.416,0.512,2.212,0.512
				c2.466,0,4.52-1.729,5.042-4.031c0.568,0.279,1.2,0.455,1.879,0.455c2.352,0,4.265-1.908,4.265-4.26
				c0-0.488-0.101-0.945-0.253-1.387c0.217,0.031,0.43,0.07,0.652,0.07c3.025,0,5.475-2.455,5.475-5.477
				c0-1.301-0.475-2.479-1.228-3.422C70.122,159.206,71.414,157.36,71.414,155.204z"/>
		</g>
		<g>
			<path style="fill:#50AC57;" d="M224.17,172.122c0-2.271-1.829-4.109-4.09-4.135c0.607-0.787,0.983-1.768,0.983-2.84
				c0-2.584-2.091-4.674-4.671-4.674c-0.943,0-1.814,0.285-2.55,0.764c0.22-0.5,0.345-1.049,0.345-1.629
				c0-2.25-1.822-4.072-4.072-4.072c-1.127,0-2.149,0.459-2.885,1.197c-0.518-1.176-1.689-1.998-3.055-1.998
				c-0.91,0-1.735,0.367-2.338,0.959c-0.825-1.143-2.16-1.893-3.672-1.893c-2.483,0-4.493,1.996-4.531,4.471
				c-0.482-0.316-1.059-0.502-1.676-0.502c-1.694,0-3.068,1.373-3.068,3.07c0,0.467,0.113,0.904,0.297,1.301
				c-0.381-0.115-0.779-0.197-1.199-0.197c-2.285,0-4.137,1.852-4.137,4.139c0,0.791,0.232,1.521,0.617,2.148
				c-1.65,0.648-2.822,2.244-2.822,4.125c0,1.426,0.686,2.684,1.731,3.494c-1.352,1.146-2.23,2.834-2.23,4.75
				c0,3.445,2.79,6.24,6.241,6.24c0.328,0,0.645-0.047,0.957-0.098c0.505,1.715,2.072,2.969,3.949,2.969
				c1.021,0,1.942-0.383,2.664-0.992c0.757,0.961,1.922,1.594,3.244,1.594c0.885,0,1.703-0.281,2.375-0.756
				c0.802,1.08,2.076,1.791,3.527,1.791c1.414,0,2.656-0.676,3.463-1.709c0.525,0.252,1.109,0.404,1.73,0.404
				c1.934,0,3.545-1.355,3.951-3.16c0.447,0.221,0.945,0.357,1.473,0.357c1.846,0,3.341-1.496,3.341-3.338
				c0-0.383-0.079-0.742-0.196-1.086c0.171,0.02,0.338,0.053,0.513,0.053c2.368,0,4.288-1.922,4.288-4.289
				c0-1.02-0.369-1.945-0.964-2.68C223.156,175.257,224.17,173.809,224.17,172.122z"/>
			<path style="fill:#BD812B;" d="M196.029,207.645c0,0,2.373-1.883,2.773-5.705c0.4-3.822,0-9.971,0-9.971
				s-0.501-4.318-2.103-5.482c0,0-1.304-0.828-0.602-1.244c0.7-0.416,3.004,0.996,3.904,2.988c0,0-0.2-3.24-1.401-5.148
				c0,0-0.3-0.582,0.803-0.418c1.1,0.168,2.402,4.238,3.002,9.223c0,0,0.702-4.902,2.404-6.229c0,0,1.201-1.002,1.501,0
				c0,0-1.702,1.74-1.802,5.98c-0.102,4.234-0.619,13.252,1.635,14.873c2.25,1.617,3.57,1.604,3.57,1.604s-1.752,0.443-3.602,0.111
				c0,0,1.549,0.859,2.251,1.105c0.7,0.254-1.936,0.488-4.589-0.469c0,0-1.062,0.723-2.84,1.053c0,0,0.67-0.6,0.818-1.268
				c0,0-2.684,1.49-6.49,1.295l2.338-1.412c0,0-1.945,0.492-3.272,0.221C194.329,208.753,195.281,208.227,196.029,207.645z"/>
			<g style="opacity:0.4;">
				<path style="fill:#BD812B;" d="M198.602,187.028c1.6,2.002,2.855,8.611,2.804,12.617c0,0,0.052-8.41-1.402-11.566
					c-0.007-0.014-0.01-0.02-0.015-0.031c0.008,0.111,0.015,0.184,0.015,0.184c-0.9-1.992-3.204-3.404-3.904-2.988
					c-0.145,0.082-0.19,0.188-0.194,0.301C196.544,185.538,197.591,185.765,198.602,187.028z"/>
				<path style="fill:#BD812B;" d="M200.254,184.524c1.053,2.604,1.902,8.963,2.003,11.666c0,0,0.231-2.797,0.154-4.342
					c-0.001,0.018-0.005,0.039-0.005,0.039c-0.6-4.984-1.902-9.055-3.002-9.223c-0.151-0.021-0.27-0.029-0.375-0.027
					C199.404,182.936,199.835,183.485,200.254,184.524z"/>
				<path style="fill:#BD812B;" d="M206.113,208.227c1.85,0.332,3.602-0.111,3.602-0.111s-1.32,0.014-3.57-1.604
					c-2.254-1.621-1.736-10.639-1.635-14.873c0.1-4.24,1.802-5.98,1.802-5.98c-0.052-0.174-0.135-0.268-0.228-0.336
					c-0.779,0.805-2.376,2.881-2.676,6.561c-0.401,4.908-0.199,13.367,2.352,15.068c0,0,0.801,0.65,1.652,0.902
					c0,0-2.151-0.148-2.602-0.398c-0.451-0.252,1.303,1.352,2.504,1.752c0,0-3.106-0.102-4.357-1.854c0,0-2.418,1.873-7.693,2.59
					c3.807,0.195,6.49-1.295,6.49-1.295c-0.149,0.668-0.818,1.268-0.818,1.268c1.778-0.33,2.84-1.053,2.84-1.053
					c2.653,0.957,5.289,0.723,4.589,0.469C207.662,209.087,206.113,208.227,206.113,208.227z"/>
			</g>
			<path style="opacity:0.4;fill:#BD812B;" d="M197.965,187.979c0,0,1.122,1.902,1.271,5.508c0.151,3.603-0.087,10.228-0.9,11.715
				c-1.004,1.834-2.454,3.004-2.454,3.004s3.155-0.902,3.604-4.307C199.936,200.495,200.504,191.384,197.965,187.979z"/>
			<path style="fill:#A2BE4A;" d="M220.313,172.565c0-1.898-1.525-3.432-3.412-3.451c0.507-0.658,0.823-1.475,0.823-2.371
				c0-2.156-1.747-3.898-3.901-3.898c-0.787,0-1.516,0.238-2.128,0.635c0.183-0.418,0.287-0.875,0.287-1.361
				c0-1.877-1.523-3.396-3.399-3.396c-0.94,0-1.793,0.381-2.408,1c-0.432-0.982-1.408-1.672-2.551-1.672
				c-0.76,0-1.447,0.307-1.951,0.803c-0.686-0.955-1.8-1.58-3.063-1.58c-2.076,0-3.752,1.668-3.785,3.732
				c-0.402-0.262-0.879-0.418-1.395-0.418c-1.417,0-2.563,1.146-2.563,2.563c0,0.391,0.095,0.754,0.248,1.084
				c-0.32-0.098-0.65-0.164-1-0.164c-1.91,0-3.453,1.545-3.453,3.455c0,0.66,0.193,1.27,0.512,1.793
				c-1.376,0.543-2.354,1.873-2.354,3.441c0,1.189,0.572,2.238,1.445,2.918c-1.129,0.953-1.859,2.365-1.859,3.963
				c0,2.877,2.328,5.209,5.206,5.209c0.275,0,0.537-0.037,0.801-0.078c0.421,1.428,1.729,2.477,3.296,2.477
				c0.852,0,1.619-0.322,2.223-0.83c0.631,0.805,1.604,1.332,2.709,1.332c0.738,0,1.418-0.236,1.98-0.633
				c0.671,0.902,1.737,1.496,2.948,1.496c1.178,0,2.216-0.565,2.887-1.426c0.439,0.211,0.927,0.336,1.445,0.336
				c1.613,0,2.957-1.129,3.301-2.637c0.371,0.184,0.783,0.297,1.228,0.297c1.538,0,2.79-1.25,2.79-2.783
				c0-0.322-0.068-0.621-0.166-0.906c0.144,0.018,0.283,0.043,0.428,0.043c1.977,0,3.58-1.605,3.58-3.582
				c0-0.85-0.311-1.619-0.803-2.236C219.466,175.183,220.313,173.976,220.313,172.565z"/>
			<path style="fill:#7BC254;" d="M220.111,172.097c0-1.896-1.524-3.432-3.41-3.451c0.506-0.658,0.82-1.475,0.82-2.371
				c0-2.156-1.746-3.9-3.899-3.9c-0.787,0-1.517,0.24-2.13,0.639c0.184-0.418,0.289-0.877,0.289-1.361
				c0-1.879-1.518-3.398-3.4-3.398c-0.939,0-1.791,0.385-2.408,1c-0.43-0.98-1.405-1.67-2.549-1.67
				c-0.761,0-1.449,0.307-1.953,0.803c-0.684-0.955-1.799-1.58-3.064-1.58c-2.072,0-3.751,1.664-3.784,3.73
				c-0.399-0.264-0.881-0.416-1.393-0.416c-1.418,0-2.564,1.145-2.564,2.561c0,0.391,0.095,0.754,0.246,1.086
				c-0.317-0.098-0.647-0.166-0.996-0.166c-1.91,0-3.455,1.547-3.455,3.457c0,0.66,0.191,1.268,0.516,1.791
				c-1.377,0.543-2.355,1.873-2.355,3.443c0,1.188,0.572,2.238,1.443,2.918c-1.127,0.953-1.861,2.363-1.861,3.965
				c0,2.873,2.33,5.207,5.211,5.207c0.273,0,0.534-0.039,0.801-0.08c0.42,1.43,1.726,2.477,3.292,2.477
				c0.854,0,1.621-0.322,2.225-0.828c0.629,0.801,1.601,1.33,2.707,1.33c0.739,0,1.423-0.236,1.98-0.631
				c0.671,0.9,1.736,1.496,2.947,1.496c1.178,0,2.217-0.566,2.888-1.426c0.438,0.209,0.927,0.336,1.446,0.336
				c1.613,0,2.957-1.131,3.298-2.637c0.372,0.182,0.785,0.297,1.23,0.297c1.538,0,2.789-1.248,2.789-2.785
				c0-0.32-0.066-0.619-0.166-0.908c0.143,0.02,0.281,0.045,0.428,0.045c1.978,0,3.58-1.604,3.58-3.58
				c0-0.852-0.311-1.623-0.803-2.238C219.268,174.714,220.111,173.507,220.111,172.097z"/>
		</g>
		<g>
			<path style="fill:#50AC57;" d="M237.418,183.403c0-1.719-1.383-3.109-3.095-3.129c0.46-0.596,0.744-1.338,0.744-2.148
				c0-1.955-1.581-3.537-3.534-3.537c-0.714,0-1.373,0.217-1.93,0.578c0.166-0.379,0.262-0.795,0.262-1.232
				c0-1.703-1.379-3.082-3.082-3.082c-0.853,0-1.625,0.348-2.182,0.906c-0.393-0.891-1.279-1.512-2.312-1.512
				c-0.689,0-1.313,0.277-1.77,0.725c-0.623-0.863-1.633-1.432-2.777-1.432c-1.879,0-3.399,1.512-3.428,3.383
				c-0.365-0.238-0.801-0.379-1.269-0.379c-1.282,0-2.322,1.039-2.322,2.324c0,0.352,0.086,0.684,0.226,0.982
				c-0.289-0.086-0.59-0.148-0.908-0.148c-1.729,0-3.129,1.4-3.129,3.131c0,0.6,0.176,1.152,0.467,1.625
				c-1.25,0.492-2.136,1.699-2.136,3.123c0,1.078,0.519,2.029,1.31,2.643c-1.023,0.867-1.688,2.145-1.688,3.596
				c0,2.606,2.111,4.721,4.723,4.721c0.248,0,0.487-0.035,0.724-0.074c0.382,1.297,1.567,2.246,2.988,2.246
				c0.773,0,1.47-0.289,2.017-0.75c0.572,0.727,1.453,1.205,2.454,1.205c0.67,0,1.288-0.213,1.796-0.572
				c0.607,0.818,1.572,1.355,2.67,1.355c1.07,0,2.01-0.51,2.621-1.293c0.396,0.191,0.838,0.307,1.309,0.307
				c1.463,0,2.682-1.027,2.989-2.391c0.339,0.166,0.716,0.27,1.114,0.27c1.396,0,2.528-1.133,2.528-2.525
				c0-0.289-0.061-0.563-0.148-0.822c0.129,0.016,0.255,0.039,0.388,0.039c1.791,0,3.244-1.453,3.244-3.244
				c0-0.771-0.278-1.471-0.729-2.027C236.65,185.774,237.418,184.681,237.418,183.403z"/>
			<path style="fill:#BD812B;" d="M216.125,210.282c0,0,1.796-1.426,2.1-4.316c0.303-2.893,0-7.545,0-7.545
				s-0.379-3.268-1.592-4.148c0,0-0.986-0.627-0.455-0.941c0.529-0.314,2.273,0.754,2.955,2.26c0,0-0.152-2.449-1.06-3.894
				c0,0-0.227-0.441,0.607-0.316c0.832,0.127,1.816,3.207,2.271,6.979c0,0,0.531-3.709,1.818-4.713c0,0,0.91-0.758,1.137,0
				c0,0-1.289,1.316-1.364,4.525c-0.076,3.203-0.469,10.027,1.237,11.254c1.702,1.225,2.701,1.213,2.701,1.213
				s-1.325,0.336-2.725,0.084c0,0,1.172,0.65,1.703,0.838c0.529,0.191-1.465,0.367-3.473-0.355c0,0-0.803,0.547-2.148,0.795
				c0,0,0.508-0.453,0.619-0.957c0,0-2.031,1.127-4.91,0.979l1.769-1.068c0,0-1.472,0.373-2.477,0.168
				C214.839,211.12,215.559,210.722,216.125,210.282z"/>
			<g style="opacity:0.4;">
				<path style="fill:#BD812B;" d="M218.072,194.681c1.211,1.516,2.16,6.518,2.121,9.547c0,0,0.039-6.363-1.061-8.75
					c-0.005-0.01-0.007-0.016-0.011-0.025c0.006,0.086,0.011,0.139,0.011,0.139c-0.681-1.506-2.425-2.574-2.955-2.26
					c-0.109,0.063-0.144,0.143-0.146,0.227C216.516,193.554,217.308,193.726,218.072,194.681z"/>
				<path style="fill:#BD812B;" d="M219.322,192.788c0.797,1.969,1.439,6.781,1.516,8.826c0,0,0.176-2.117,0.116-3.285
					c-0.001,0.014-0.003,0.029-0.003,0.029c-0.455-3.771-1.439-6.852-2.271-6.979c-0.115-0.016-0.205-0.021-0.284-0.021
					C218.68,191.585,219.005,192.001,219.322,192.788z"/>
				<path style="fill:#BD812B;" d="M223.756,210.722c1.399,0.252,2.725-0.084,2.725-0.084s-0.999,0.012-2.701-1.213
					c-1.706-1.227-1.313-8.051-1.237-11.254c0.075-3.209,1.364-4.525,1.364-4.525c-0.039-0.131-0.103-0.201-0.174-0.254
					c-0.589,0.609-1.797,2.18-2.024,4.963c-0.303,3.715-0.151,10.115,1.779,11.402c0,0,0.605,0.492,1.25,0.684
					c0,0-1.628-0.113-1.969-0.303c-0.341-0.189,0.986,1.023,1.895,1.326c0,0-2.35-0.078-3.297-1.402c0,0-1.83,1.418-5.82,1.959
					c2.879,0.148,4.91-0.979,4.91-0.979c-0.111,0.504-0.619,0.957-0.619,0.957c1.346-0.248,2.148-0.795,2.148-0.795
					c2.008,0.723,4.002,0.547,3.473,0.355C224.928,211.372,223.756,210.722,223.756,210.722z"/>
			</g>
			<path style="opacity:0.4;fill:#BD812B;" d="M217.59,195.401c0,0,0.85,1.439,0.963,4.168c0.113,2.727-0.066,7.74-0.682,8.863
				c-0.76,1.387-1.857,2.273-1.857,2.273s2.389-0.684,2.728-3.258C219.082,204.87,219.512,197.977,217.59,195.401z"/>
			<path style="fill:#A2BE4A;" d="M234.499,183.737c0-1.436-1.153-2.596-2.581-2.609c0.383-0.5,0.623-1.117,0.623-1.795
				c0-1.631-1.322-2.949-2.953-2.949c-0.595,0-1.146,0.18-1.609,0.48c0.138-0.316,0.217-0.662,0.217-1.031
				c0-1.42-1.152-2.568-2.572-2.568c-0.711,0-1.356,0.287-1.822,0.756c-0.326-0.744-1.064-1.266-1.93-1.266
				c-0.574,0-1.095,0.232-1.476,0.607c-0.52-0.723-1.362-1.195-2.317-1.195c-1.571,0-2.839,1.262-2.864,2.824
				c-0.304-0.199-0.665-0.316-1.056-0.316c-1.072,0-1.939,0.867-1.939,1.939c0,0.295,0.072,0.57,0.188,0.82
				c-0.241-0.074-0.49-0.125-0.756-0.125c-1.445,0-2.613,1.168-2.613,2.615c0,0.498,0.146,0.959,0.389,1.355
				c-1.042,0.41-1.781,1.418-1.781,2.605c0,0.898,0.434,1.691,1.093,2.207c-0.854,0.721-1.407,1.789-1.407,2.998
				c0,2.176,1.763,3.941,3.939,3.941c0.209,0,0.407-0.027,0.606-0.059c0.318,1.08,1.308,1.873,2.493,1.873
				c0.645,0,1.227-0.242,1.683-0.627c0.478,0.607,1.214,1.008,2.05,1.008c0.559,0,1.073-0.18,1.498-0.48
				c0.508,0.684,1.313,1.133,2.23,1.133c0.891,0,1.676-0.428,2.185-1.078c0.331,0.158,0.701,0.254,1.093,0.254
				c1.221,0,2.238-0.854,2.498-1.994c0.28,0.137,0.593,0.225,0.929,0.225c1.163,0,2.11-0.947,2.11-2.107
				c0-0.242-0.051-0.469-0.125-0.686c0.108,0.014,0.214,0.033,0.324,0.033c1.494,0,2.708-1.215,2.708-2.711
				c0-0.643-0.235-1.225-0.607-1.691C233.859,185.718,234.499,184.806,234.499,183.737z"/>
			<path style="fill:#7BC254;" d="M234.348,183.384c0-1.436-1.154-2.596-2.58-2.611c0.382-0.498,0.62-1.115,0.62-1.793
				c0-1.633-1.321-2.951-2.95-2.951c-0.596,0-1.148,0.18-1.611,0.482c0.138-0.316,0.218-0.664,0.218-1.031
				c0-1.42-1.148-2.57-2.572-2.57c-0.712,0-1.355,0.291-1.823,0.756c-0.324-0.74-1.063-1.262-1.928-1.262
				c-0.576,0-1.097,0.231-1.478,0.606c-0.519-0.723-1.361-1.195-2.319-1.195c-1.567,0-2.837,1.26-2.862,2.822
				c-0.303-0.199-0.667-0.314-1.056-0.314c-1.073,0-1.939,0.865-1.939,1.938c0,0.297,0.07,0.57,0.186,0.822
				c-0.24-0.074-0.49-0.127-0.754-0.127c-1.445,0-2.615,1.172-2.615,2.617c0,0.498,0.146,0.959,0.391,1.354
				c-1.042,0.412-1.781,1.418-1.781,2.607c0,0.898,0.432,1.693,1.092,2.207c-0.854,0.721-1.408,1.787-1.408,3
				c0,2.174,1.764,3.939,3.941,3.939c0.207,0,0.405-0.029,0.606-0.061c0.318,1.082,1.306,1.873,2.492,1.873
				c0.646,0,1.226-0.242,1.683-0.625c0.477,0.605,1.213,1.006,2.049,1.006c0.56,0,1.076-0.178,1.498-0.477
				c0.508,0.68,1.314,1.133,2.23,1.133c0.891,0,1.678-0.43,2.186-1.08c0.332,0.158,0.7,0.254,1.094,0.254
				c1.221,0,2.237-0.855,2.495-1.996c0.282,0.139,0.595,0.227,0.93,0.227c1.165,0,2.111-0.945,2.111-2.109
				c0-0.242-0.05-0.467-0.126-0.686c0.107,0.016,0.213,0.033,0.323,0.033c1.497,0,2.709-1.213,2.709-2.709
				c0-0.643-0.234-1.227-0.607-1.693C233.709,185.364,234.348,184.45,234.348,183.384z"/>
		</g>
		<ellipse style="fill:#9BB830;" cx="126.762" cy="216.604" rx="116.404" ry="13.279"/>
		<ellipse style="opacity:0.6;fill:#BCD531;" cx="126.762" cy="213.911" rx="92.793" ry="10.586"/>
		<ellipse style="fill:#BCD531;" cx="126.166" cy="211.503" rx="70.647" ry="2.953"/>
		<g>
			<path style="fill:#579F46;" d="M206.344,218.61c-0.037,0.027-0.07,0.061-0.104,0.094c0.252-0.266,0.512-0.523,0.785-0.768
				c0.372-0.332,0.861-0.469,1.252-0.732c-0.059,0.039-0.316-0.006-0.393-0.004c-0.135,0.006-0.27,0.02-0.404,0.037
				c-0.267,0.039-0.532,0.104-0.785,0.199c-0.645,0.246-1.164,0.576-1.531,1.166c0.104-0.164,0.107-0.572,0.191-0.834
				c0.137-0.428,0.332-0.82,0.545-1.215c0.007-0.012,0.01-0.018,0.017-0.029c-0.285,0.104-0.554,0.25-0.778,0.441
				c-0.145,0.191-0.266,0.404-0.374,0.619c-0.155,0.309-0.044,0.775-0.216,0.273c-0.111-0.322-0.484-0.717-0.908-0.947
				c-0.34-0.051-0.683-0.041-0.994,0.078c0.624,0.172,0.856,0.52,1.149,1.104c0.231,0.461-0.225-0.006-0.48-0.119
				c-0.537-0.238-1.554-0.025-2.034,0.367c0.064-0.01,0.127-0.014,0.191-0.02c0.021-0.002,0.041-0.004,0.061-0.004
				c0.938-0.055,1.869,0.355,2.597,0.986c0.482,0.418,0.786,0.91,1.017,1.445h0.565c0.185-0.957,1.045-1.848,1.83-2.322
				c0.482-0.291,0.99-0.494,1.514-0.619C208.191,217.569,206.998,218.11,206.344,218.61z"/>
			<path style="fill:#9BB830;" d="M206.852,219.114c-0.029,0.023-0.055,0.049-0.08,0.074c0.193-0.205,0.393-0.4,0.601-0.588
				c0.284-0.254,0.658-0.357,0.956-0.559c-0.045,0.029-0.242-0.006-0.299-0.002c-0.105,0.004-0.207,0.012-0.311,0.027
				c-0.204,0.031-0.406,0.08-0.6,0.152c-0.492,0.188-0.889,0.441-1.17,0.893c0.08-0.129,0.084-0.439,0.146-0.639
				c0.104-0.328,0.254-0.627,0.416-0.93c0.006-0.008,0.01-0.012,0.016-0.021c-0.219,0.078-0.426,0.191-0.596,0.338
				c-0.112,0.146-0.203,0.309-0.286,0.473c-0.119,0.234-0.033,0.594-0.165,0.209c-0.084-0.246-0.37-0.549-0.693-0.725
				c-0.26-0.039-0.521-0.029-0.76,0.061c0.477,0.131,0.654,0.396,0.877,0.842c0.176,0.354-0.172-0.004-0.367-0.092
				c-0.411-0.182-1.194-0.018-1.559,0.285c0.497-0.1,1.107,0.125,1.471,0.404c0.443,0.342,0.602,0.885,0.688,1.432h1.23
				c0.142-0.73,0.798-1.412,1.397-1.773c0.368-0.223,0.756-0.379,1.156-0.473C208.263,218.319,207.35,218.733,206.852,219.114z"/>
		</g>
		<g>
			<path style="fill:#579F46;" d="M68.54,220.722c-0.037,0.029-0.069,0.063-0.104,0.094c0.252-0.266,0.512-0.523,0.785-0.766
				c0.373-0.332,0.862-0.471,1.252-0.732c-0.059,0.039-0.315-0.006-0.392-0.004c-0.136,0.006-0.271,0.02-0.405,0.037
				c-0.268,0.039-0.531,0.104-0.785,0.199c-0.645,0.246-1.164,0.576-1.531,1.166c0.104-0.166,0.108-0.574,0.191-0.834
				c0.137-0.428,0.332-0.82,0.546-1.217c0.007-0.012,0.01-0.018,0.017-0.027c-0.285,0.102-0.555,0.248-0.778,0.439
				c-0.146,0.193-0.267,0.404-0.374,0.621c-0.156,0.307-0.044,0.775-0.217,0.273c-0.111-0.322-0.484-0.719-0.907-0.947
				c-0.341-0.051-0.683-0.041-0.995,0.076c0.625,0.172,0.856,0.521,1.149,1.104c0.231,0.461-0.225-0.004-0.479-0.119
				c-0.537-0.236-1.555-0.025-2.035,0.367c0.064-0.01,0.128-0.012,0.192-0.018c0.021-0.002,0.04-0.006,0.06-0.006
				c0.939-0.055,1.869,0.355,2.598,0.986c0.482,0.42,0.785,0.91,1.016,1.447h0.565c0.185-0.957,1.044-1.85,1.829-2.324
				c0.482-0.289,0.99-0.494,1.514-0.619C70.389,219.681,69.195,220.224,68.54,220.722z"/>
			<path style="fill:#9BB830;" d="M69.048,221.228c-0.028,0.023-0.054,0.047-0.079,0.072c0.192-0.203,0.392-0.4,0.601-0.586
				c0.283-0.254,0.658-0.359,0.955-0.559c-0.044,0.029-0.241-0.006-0.299-0.004c-0.104,0.004-0.207,0.014-0.311,0.029
				c-0.203,0.029-0.406,0.078-0.6,0.152c-0.491,0.186-0.889,0.439-1.169,0.891c0.079-0.127,0.083-0.439,0.146-0.637
				c0.106-0.328,0.255-0.627,0.417-0.93c0.006-0.008,0.009-0.014,0.015-0.021c-0.219,0.078-0.425,0.189-0.596,0.336
				c-0.111,0.148-0.203,0.309-0.285,0.473c-0.119,0.236-0.033,0.594-0.166,0.209c-0.084-0.246-0.369-0.549-0.693-0.723
				c-0.26-0.039-0.521-0.029-0.76,0.059c0.477,0.131,0.654,0.398,0.878,0.844c0.176,0.352-0.172-0.006-0.367-0.092
				c-0.411-0.182-1.194-0.018-1.56,0.285c0.498-0.1,1.107,0.125,1.471,0.402c0.443,0.344,0.602,0.887,0.689,1.434h1.23
				c0.141-0.732,0.797-1.412,1.396-1.773c0.369-0.225,0.757-0.379,1.156-0.475C70.46,220.433,69.548,220.845,69.048,221.228z"/>
		</g>
		<g>
			<path style="fill:#358330;" d="M63.931,189.114c-0.695-1.117-1.859-1.822-3.32-1.422c-0.469,0.125-1.012,0.5-1.472,0.971
				c-0.531-0.682-1.265-1.09-2.258-0.965c-1.651,0.207-1.892,2.371-1.573,4.15c-1.248-1.166-2.468-0.6-2.529,0.672
				c-0.287-0.119-0.615-0.107-0.778,0.232c-0.042,0.084-0.052,0.176-0.048,0.262c-1.278-0.443-2.765-0.34-3.564,0.777
				c-0.904,1.266-0.879,2.564-0.317,3.75c-0.431-0.213-1.018-0.355-1.285,0.135c-0.097,0.176-0.011,0.35,0.142,0.508
				c-1.225,0.023-2.431,0.525-3.108,1.572c-0.163,0.248-0.3,0.588-0.411,0.973c-0.124-0.127-0.27-0.227-0.461-0.215
				c-0.327,0.014-0.506,0.395-0.473,0.68c0.008,0.08,0.028,0.162,0.051,0.246c-0.341-0.105-0.682-0.145-0.951-0.066
				c-0.499,0.145-0.695,0.656-0.681,1.129c0.004,0.176,0.052,0.352,0.108,0.521c-1.005,0.092-1.99,0.396-2.84,0.936
				c-1.104,0.697-0.945,1.709-0.332,2.531c-0.393,0.061-0.737,0.236-0.92,0.559c-0.422,0.734,0.236,2.025,0.806,2.412
				c1.037,0.707,2.019,0.861,3.016,0.688c-0.038,0.229,0.035,0.439,0.331,0.535c0.426,0.143,0.977-0.188,1.387-0.412
				c0.145,0.1,0.305,0.197,0.492,0.283c0.745,0.34,1.959-0.102,2.929-0.814c-0.007,0.121,0.019,0.238,0.095,0.324
				c0.274,0.32,0.849-0.156,1.084-0.355c0.923,0.971,3.043,0.293,3.941-0.174c-0.022,0.137-0.007,0.266,0.087,0.359
				c0.321,0.334,0.906-0.199,1.217-0.504c0.14,0.186,0.335,0.32,0.579,0.355c0.671,0.098,1.447-0.111,2.195-0.469
				c0.322,0.277,0.697,0.494,1.133,0.619c0.137,0.063,0.278,0.121,0.431,0.172c1.291,0.445,3.323-0.045,4.776-1.031
				c0.043,0.047,0.082,0.098,0.121,0.143c1.296,1.518,2.861,0.529,3.959-0.549c0.024,0.223,0.086,0.428,0.229,0.574
				c0.087,0.092,0.186,0.143,0.288,0.178L63.931,189.114z"/>
			<path style="opacity:0.3;fill:#678E27;" d="M65.615,205.573c-0.209,0.168-0.441,0.281-0.7,0.273
				c-0.569-0.016-0.758-0.4-0.802-0.873c-0.48,0.646-1.115,1.102-1.864,1.08c-0.94-0.027-1.591-0.641-1.869-1.414
				c-0.061,0.055-0.12,0.113-0.181,0.162c-0.452,0.395-1.282,1.029-1.896,0.586c-0.617-0.447-0.535-1.184-0.154-1.891
				c-0.229,0.008-0.457-0.008-0.68-0.08c-0.4-0.006-0.79-0.146-1.126-0.396c-0.332-0.242-0.607-0.549-0.829-0.889
				c-0.016,0.68-0.203,1.357-0.568,1.955c-0.669,1.092-2.087,2.236-3.441,1.564c-0.338,0.715-0.936,1.43-1.253,1.686
				c-0.438,0.352-1.185,0.422-1.417-0.189c-0.01-0.027-0.013-0.063-0.021-0.09c-0.18,0.225-0.367,0.42-0.527,0.551
				c-0.824,0.666-2.309,1.311-3.27,0.521c-0.098-0.078-0.176-0.174-0.248-0.277c-0.037,0.049-0.076,0.094-0.113,0.137
				c-0.399,0.436-1.024,1.057-1.668,1.064c-0.533,0.01-0.866-0.344-0.832-0.813c-0.246,0.131-0.507,0.242-0.775,0.324
				c-0.717,0.348-1.479,0.484-2.146,0.172c-0.695-0.33-1.16-0.916-1.037-1.707c0.056-0.352,0.26-0.607,0.524-0.775
				c-0.261-0.367-0.389-0.809-0.243-1.301c0.252-0.844,1.283-1.26,2.092-1.074c0.352,0.082,0.686,0.227,0.979,0.422
				c0.033-0.074,0.07-0.146,0.117-0.217c0.163-0.238,0.418-0.434,0.691-0.531c-0.053-0.443,0.082-0.895,0.48-1.213
				c0.297-0.24,0.625-0.326,0.948-0.32c-0.011-0.615,0.19-1.273,0.503-1.791c0.354-0.584,0.963-1.047,1.652-1.137
				c0.379-0.049,0.805-0.053,1.156,0.123c0.008,0.006,0.016,0.012,0.022,0.016c0.217-0.326,0.556-0.539,0.941-0.629
				c0.157-0.039,0.328-0.041,0.494-0.033c-0.3-1.461,0.272-3.148,1.753-3.684c0.701-0.25,1.408-0.227,2.008-0.004
				c-0.176-0.482-0.152-1.029,0.314-1.318c0.402-0.25,0.83-0.16,1.218,0.053c0.034-0.01,0.068-0.025,0.103-0.033
				c-0.027-0.291,0.013-0.582,0.147-0.846c0.388-0.75,1.114-0.672,1.69-0.277c-0.231-0.938-0.144-1.992,0.281-2.76
				c0.436-0.787,1.199-1.377,2.131-1.1c0.676,0.201,0.949,0.744,1.074,1.35c0.547-0.408,1.23-0.676,1.908-0.52
				c0.826,0.191,1.246,0.779,1.346,1.461c0.623-0.127,1.298,0.047,1.649,0.609l-0.244-2.387c-0.695-1.117-1.859-1.822-3.32-1.422
				c-0.469,0.125-1.012,0.5-1.472,0.971c-0.531-0.682-1.265-1.09-2.258-0.965c-1.651,0.207-1.892,2.371-1.573,4.15
				c-1.248-1.166-2.468-0.6-2.529,0.672c-0.287-0.119-0.615-0.107-0.778,0.232c-0.042,0.084-0.052,0.176-0.048,0.262
				c-1.278-0.443-2.765-0.34-3.564,0.777c-0.904,1.266-0.879,2.564-0.317,3.75c-0.431-0.213-1.018-0.355-1.285,0.135
				c-0.097,0.176-0.011,0.35,0.142,0.508c-1.225,0.023-2.431,0.525-3.108,1.572c-0.163,0.248-0.3,0.588-0.411,0.973
				c-0.124-0.127-0.27-0.227-0.461-0.215c-0.327,0.014-0.506,0.395-0.473,0.68c0.008,0.08,0.028,0.162,0.051,0.246
				c-0.341-0.105-0.682-0.145-0.951-0.066c-0.499,0.145-0.695,0.656-0.681,1.129c0.004,0.176,0.052,0.352,0.108,0.521
				c-1.005,0.092-1.99,0.396-2.84,0.936c-1.104,0.697-0.945,1.709-0.332,2.531c-0.393,0.061-0.737,0.236-0.92,0.559
				c-0.422,0.734,0.236,2.025,0.806,2.412c1.037,0.707,2.019,0.861,3.016,0.688c-0.038,0.229,0.035,0.439,0.331,0.535
				c0.426,0.143,0.977-0.188,1.387-0.412c0.145,0.1,0.305,0.197,0.492,0.283c0.745,0.34,1.959-0.102,2.929-0.814
				c-0.007,0.121,0.019,0.238,0.095,0.324c0.274,0.32,0.849-0.156,1.084-0.355c0.923,0.971,3.043,0.293,3.941-0.174
				c-0.022,0.137-0.007,0.266,0.087,0.359c0.321,0.334,0.906-0.199,1.217-0.504c0.14,0.186,0.335,0.32,0.579,0.355
				c0.671,0.098,1.447-0.111,2.195-0.469c0.322,0.277,0.697,0.494,1.133,0.619c0.137,0.063,0.278,0.121,0.431,0.172
				c1.291,0.445,3.323-0.045,4.776-1.031c0.043,0.047,0.082,0.098,0.121,0.143c1.296,1.518,2.861,0.529,3.959-0.549
				c0.024,0.223,0.086,0.428,0.229,0.574c0.087,0.092,0.186,0.143,0.288,0.178L65.615,205.573z M55.088,208.681l-0.039,0.004
				c-0.431,0.045-0.499-0.621-0.068-0.666l0.039-0.004C55.451,207.97,55.519,208.636,55.088,208.681z M55.905,206.341
				c-0.216,0.188-0.485,0.316-0.77,0.225c-0.21-0.074-0.365-0.305-0.368-0.523c-0.01-0.625,0.503-0.998,1.074-1.096
				c0.189-0.031,0.303,0.082,0.338,0.225C56.554,205.44,56.222,206.067,55.905,206.341z M58.869,209.046
				c-0.347,0.209-1.02,0.301-1.088-0.258c-0.039-0.313,0.156-0.547,0.414-0.668c0.236-0.209,0.563-0.313,0.863-0.139
				C59.57,208.278,59.25,208.817,58.869,209.046z"/>
			<path style="opacity:0.5;fill:#358330;" d="M46.374,200.263c-0.026,0.014-0.056,0.027-0.084,0.041
				c-0.249-0.012-0.515,0.076-0.697,0.217c-0.618,0.471-0.813,1.615,0.106,1.857c0.879,0.232,1.652-0.705,1.651-1.504
				C47.349,200.311,46.853,200.065,46.374,200.263z"/>
			<path style="opacity:0.5;fill:#358330;" d="M46.374,202.358c-0.103,0.037-0.187,0.105-0.261,0.184
				c-0.403,0.25-0.727,0.916-0.15,1.018c0.466,0.08,0.877-0.445,0.918-0.854C46.913,202.409,46.623,202.27,46.374,202.358z"/>
			<path style="opacity:0.5;fill:#358330;" d="M43.269,204.503c-0.493-0.162-1.085,0.168-1.438,0.479
				c-0.164,0.141-0.28,0.318-0.378,0.506c-0.291,0.359-0.452,0.834-0.335,1.205c0.15,0.473,0.725,0.59,1.153,0.518
				c0.704-0.119,1.296-0.648,1.519-1.322C43.966,205.351,43.86,204.698,43.269,204.503z"/>
			<path style="opacity:0.5;fill:#358330;" d="M40.298,205.409c-0.27-0.385-0.756,0.221-0.639,0.514
				c0.004,0.008,0.008,0.018,0.011,0.027c0.011,0.023,0.026,0.037,0.038,0.059c0.002,0,0.002,0,0.002,0
				c0.09,0.135,0.234,0.156,0.395,0.07C40.345,205.952,40.462,205.64,40.298,205.409z"/>
			<path style="opacity:0.5;fill:#358330;" d="M51.49,197.425c-0.807-0.436-1.658,0.258-2.131,0.859
				c-0.25,0.322-0.52,0.773-0.415,1.197c0.003,0.006,0.007,0.01,0.009,0.016c-0.05,0.416,0.143,0.768,0.739,0.848
				c0.769,0.104,1.552-0.531,1.938-1.139C51.949,198.704,52.125,197.77,51.49,197.425z"/>
			<path style="opacity:0.5;fill:#358330;" d="M48.453,200.64c-0.01,0-0.017,0.002-0.025,0.002c-0.288,0.02-0.548,0.277-0.609,0.557
				c-0.003,0.014-0.006,0.027-0.01,0.043c-0.04,0.193-0.004,0.434,0.217,0.496c0.291,0.086,0.537-0.172,0.666-0.395
				c0.088-0.15,0.103-0.297,0.078-0.467C48.746,200.731,48.593,200.63,48.453,200.64z"/>
			<path style="opacity:0.5;fill:#358330;" d="M56.208,197.186c-0.303-0.496-1.101-0.01-1.272,0.465
				c-0.102,0.092-0.193,0.201-0.266,0.338c-0.085,0.17-0.088,0.357-0.003,0.523c0.138,0.266,0.531,0.15,0.727,0.049
				C55.823,198.345,56.541,197.741,56.208,197.186z"/>
			<path style="opacity:0.5;fill:#358330;" d="M53.609,194.233c-0.304,0.031-0.555,0.279-0.627,0.572
				c-0.062,0.238,0.046,0.568,0.348,0.537c0.305-0.031,0.556-0.279,0.63-0.572C54.016,194.534,53.91,194.204,53.609,194.233z"/>
			<path style="opacity:0.5;fill:#358330;" d="M60.637,190.71c-0.252-0.393-0.605-0.492-0.979-0.428
				c-0.135-0.023-0.283-0.01-0.434,0.057c-0.215,0.094-0.402,0.215-0.578,0.354c0.096-0.279,0.117-0.568-0.039-0.805
				c-0.676-1.027-1.922,0.535-1.973,1.254c-0.002,0.021,0.006,0.043,0.006,0.064c-0.056,0.258-0.042,0.521,0.188,0.67
				c0.227,0.145,0.481,0.133,0.719,0.043c-0.216,0.334-0.393,0.717-0.402,1.078c-0.012,0.654,0.404,1.102,1.07,1.068
				c0.212-0.01,0.419-0.068,0.618-0.148c0.249-0.025,0.509-0.111,0.753-0.273C60.358,193.122,61.231,191.634,60.637,190.71z"/>
			<path style="opacity:0.5;fill:#358330;" d="M56.66,193.073c-0.389-0.145-0.465,0.768-0.007,0.418
				c0.081-0.064,0.116-0.135,0.146-0.232C56.832,193.159,56.76,193.063,56.66,193.073z"/>
			<path style="opacity:0.5;fill:#358330;" d="M61.134,193.093c-0.26,0.029-0.459,0.564-0.135,0.531
				C61.259,193.595,61.458,193.061,61.134,193.093z"/>
		</g>
		<g>
			<path style="fill:#358330;" d="M189.714,193.825c0.543-0.873,1.453-1.424,2.595-1.111c0.367,0.098,0.791,0.391,1.15,0.76
				c0.414-0.533,0.988-0.854,1.764-0.756c1.29,0.162,1.479,1.854,1.229,3.244c0.976-0.912,1.93-0.469,1.977,0.525
				c0.225-0.094,0.481-0.084,0.609,0.182c0.032,0.066,0.04,0.137,0.037,0.205c0.998-0.348,2.16-0.268,2.785,0.607
				c0.706,0.988,0.688,2.004,0.248,2.93c0.336-0.166,0.795-0.277,1.004,0.104c0.076,0.139,0.009,0.273-0.11,0.398
				c0.956,0.018,1.9,0.41,2.429,1.229c0.127,0.193,0.234,0.459,0.32,0.76c0.098-0.1,0.211-0.178,0.361-0.168
				c0.256,0.01,0.395,0.309,0.369,0.531c-0.007,0.063-0.022,0.127-0.039,0.191c0.266-0.082,0.531-0.111,0.742-0.051
				c0.391,0.111,0.543,0.512,0.532,0.881c-0.003,0.139-0.04,0.275-0.085,0.408c0.785,0.072,1.555,0.311,2.219,0.731
				c0.863,0.545,0.738,1.336,0.26,1.978c0.307,0.047,0.576,0.184,0.719,0.438c0.33,0.572-0.184,1.582-0.629,1.885
				c-0.811,0.551-1.578,0.672-2.358,0.535c0.03,0.18-0.027,0.344-0.257,0.42c-0.334,0.111-0.764-0.148-1.084-0.322
				c-0.113,0.078-0.238,0.154-0.385,0.221c-0.582,0.266-1.53-0.08-2.288-0.637c0.005,0.094-0.015,0.186-0.074,0.254
				c-0.214,0.25-0.663-0.121-0.847-0.277c-0.721,0.758-2.378,0.229-3.08-0.137c0.018,0.107,0.006,0.207-0.069,0.281
				c-0.25,0.262-0.707-0.156-0.95-0.395c-0.108,0.145-0.261,0.252-0.452,0.279c-0.524,0.074-1.131-0.088-1.715-0.367
				c-0.253,0.217-0.546,0.387-0.887,0.484c-0.105,0.049-0.217,0.094-0.336,0.133c-1.009,0.348-2.596-0.033-3.732-0.805
				c-0.033,0.035-0.064,0.076-0.094,0.111c-1.013,1.186-2.236,0.414-3.093-0.43c-0.02,0.174-0.066,0.334-0.18,0.449
				c-0.066,0.072-0.145,0.111-0.225,0.139L189.714,193.825z"/>
			<path style="opacity:0.3;fill:#678E27;" d="M188.094,209.663c0.08-0.027,0.158-0.066,0.225-0.139
				c0.113-0.115,0.16-0.275,0.18-0.449c0.857,0.844,2.08,1.615,3.093,0.43c0.03-0.035,0.061-0.076,0.094-0.111
				c1.137,0.771,2.724,1.152,3.732,0.805c0.119-0.039,0.231-0.084,0.336-0.133c0.341-0.098,0.634-0.268,0.887-0.484
				c0.584,0.279,1.19,0.441,1.715,0.367c0.191-0.027,0.344-0.135,0.452-0.279c0.243,0.238,0.699,0.656,0.95,0.395
				c0.075-0.074,0.086-0.174,0.069-0.281c0.702,0.365,2.359,0.895,3.08,0.137c0.184,0.156,0.633,0.527,0.847,0.277
				c0.06-0.068,0.079-0.16,0.074-0.254c0.758,0.557,1.706,0.902,2.288,0.637c0.146-0.066,0.271-0.143,0.385-0.221
				c0.32,0.174,0.75,0.434,1.084,0.322c0.231-0.076,0.287-0.24,0.257-0.42c0.78,0.137,1.547,0.016,2.358-0.535
				c0.445-0.303,0.959-1.313,0.629-1.885c-0.143-0.254-0.412-0.391-0.719-0.438c0.479-0.643,0.604-1.434-0.26-1.978
				c-0.664-0.42-1.434-0.658-2.219-0.731c0.045-0.133,0.082-0.269,0.085-0.408c0.011-0.369-0.142-0.77-0.532-0.881
				c-0.211-0.061-0.477-0.031-0.742,0.051c0.017-0.064,0.032-0.129,0.039-0.191c0.025-0.223-0.113-0.521-0.369-0.531
				c-0.15-0.01-0.264,0.068-0.361,0.168c-0.086-0.301-0.193-0.566-0.32-0.76c-0.529-0.818-1.473-1.211-2.429-1.229
				c0.119-0.125,0.187-0.26,0.11-0.398c-0.209-0.381-0.668-0.27-1.004-0.104c0.439-0.926,0.458-1.941-0.248-2.93
				c-0.625-0.875-1.787-0.955-2.785-0.607c0.003-0.068-0.005-0.139-0.037-0.205c-0.128-0.266-0.385-0.275-0.609-0.182
				c-0.047-0.994-1.001-1.438-1.977-0.525c0.25-1.391,0.062-3.082-1.229-3.244c-0.775-0.098-1.35,0.223-1.764,0.756
				c-0.359-0.369-0.783-0.662-1.15-0.76c-1.142-0.313-2.051,0.238-2.595,1.111l-0.19,1.865c0.273-0.439,0.801-0.576,1.289-0.477
				c0.076-0.531,0.405-0.992,1.051-1.141c0.529-0.123,1.063,0.086,1.491,0.404c0.098-0.473,0.311-0.896,0.839-1.053
				c0.728-0.217,1.324,0.244,1.665,0.857c0.333,0.6,0.4,1.424,0.22,2.156c0.45-0.307,1.018-0.369,1.32,0.217
				c0.105,0.207,0.137,0.436,0.115,0.662c0.027,0.006,0.055,0.018,0.08,0.025c0.304-0.166,0.638-0.236,0.952-0.041
				c0.364,0.227,0.384,0.652,0.245,1.029c0.469-0.172,1.021-0.191,1.57,0.004c1.156,0.418,1.604,1.736,1.369,2.879
				c0.129-0.008,0.263-0.004,0.386,0.025c0.302,0.07,0.566,0.236,0.735,0.492c0.006-0.004,0.012-0.008,0.018-0.014
				c0.275-0.137,0.607-0.135,0.903-0.096c0.539,0.07,1.016,0.432,1.292,0.889c0.244,0.404,0.401,0.918,0.393,1.398
				c0.253-0.004,0.509,0.063,0.74,0.25c0.313,0.25,0.417,0.604,0.376,0.949c0.214,0.076,0.413,0.229,0.54,0.414
				c0.037,0.055,0.066,0.111,0.092,0.17c0.229-0.152,0.49-0.266,0.764-0.33c0.633-0.145,1.438,0.18,1.635,0.84
				c0.114,0.385,0.015,0.729-0.189,1.016c0.207,0.131,0.366,0.332,0.41,0.605c0.096,0.619-0.268,1.078-0.811,1.336
				c-0.522,0.242-1.117,0.137-1.678-0.135c-0.209-0.064-0.414-0.15-0.606-0.254c0.027,0.365-0.234,0.643-0.65,0.635
				c-0.502-0.006-0.99-0.49-1.303-0.832c-0.029-0.033-0.061-0.068-0.089-0.105c-0.056,0.08-0.118,0.154-0.193,0.217
				c-0.751,0.615-1.911,0.113-2.556-0.408c-0.125-0.101-0.272-0.256-0.411-0.432c-0.007,0.023-0.01,0.049-0.017,0.072
				c-0.183,0.477-0.766,0.422-1.107,0.146c-0.248-0.199-0.715-0.758-0.98-1.316c-1.057,0.525-2.165-0.369-2.688-1.223
				c-0.285-0.467-0.433-0.996-0.444-1.527c-0.173,0.266-0.389,0.506-0.648,0.695c-0.264,0.193-0.567,0.305-0.881,0.309
				c-0.174,0.057-0.352,0.068-0.53,0.063c0.298,0.553,0.362,1.127-0.121,1.479c-0.48,0.346-1.128-0.15-1.482-0.459
				c-0.048-0.039-0.094-0.084-0.142-0.127c-0.217,0.605-0.726,1.084-1.46,1.105c-0.586,0.016-1.082-0.34-1.457-0.844
				c-0.034,0.369-0.182,0.67-0.627,0.682c-0.202,0.006-0.383-0.082-0.547-0.213L188.094,209.663z M196.678,208.595l0.029,0.002
				c0.338,0.035,0.284,0.555-0.053,0.52l-0.031-0.002C196.287,209.079,196.341,208.558,196.678,208.595z M195.771,206.372
				c0.027-0.111,0.115-0.201,0.264-0.176c0.447,0.076,0.847,0.367,0.84,0.855c-0.002,0.172-0.123,0.352-0.288,0.41
				c-0.222,0.07-0.433-0.029-0.601-0.176C195.738,207.071,195.479,206.581,195.771,206.372z M193.521,208.567
				c0.235-0.135,0.49-0.055,0.676,0.107c0.201,0.096,0.354,0.279,0.322,0.523c-0.053,0.436-0.578,0.365-0.85,0.201
				C193.372,209.222,193.121,208.8,193.521,208.567z"/>
			<path style="opacity:0.5;fill:#358330;" d="M203.434,202.536c0.021,0.01,0.043,0.021,0.065,0.031
				c0.194-0.008,0.402,0.061,0.545,0.17c0.482,0.367,0.636,1.264-0.083,1.453c-0.688,0.182-1.292-0.553-1.291-1.176
				C202.671,202.575,203.059,202.382,203.434,202.536z"/>
			<path style="opacity:0.5;fill:#358330;" d="M203.434,204.175c0.08,0.029,0.146,0.082,0.203,0.143
				c0.315,0.195,0.568,0.717,0.117,0.795c-0.363,0.063-0.684-0.348-0.717-0.666C203.012,204.214,203.238,204.104,203.434,204.175z"
				/>
			<path style="opacity:0.5;fill:#358330;" d="M205.859,205.851c0.385-0.127,0.848,0.131,1.123,0.373
				c0.128,0.109,0.219,0.248,0.295,0.395c0.228,0.281,0.354,0.652,0.262,0.941c-0.117,0.369-0.566,0.461-0.9,0.406
				c-0.551-0.094-1.013-0.508-1.186-1.035C205.314,206.513,205.397,206.003,205.859,205.851z"/>
			<path style="opacity:0.5;fill:#358330;" d="M208.181,206.558c0.21-0.301,0.591,0.174,0.499,0.4
				c-0.004,0.008-0.007,0.014-0.009,0.021c-0.009,0.02-0.02,0.029-0.03,0.047c-0.001,0-0.001,0-0.002,0
				c-0.068,0.105-0.182,0.121-0.307,0.055C208.145,206.981,208.053,206.737,208.181,206.558z"/>
			<path style="opacity:0.5;fill:#358330;" d="M199.436,200.319c0.63-0.34,1.296,0.201,1.666,0.672
				c0.195,0.25,0.404,0.604,0.323,0.934c-0.001,0.006-0.004,0.01-0.006,0.014c0.039,0.324-0.111,0.6-0.578,0.662
				c-0.6,0.08-1.211-0.414-1.514-0.891C199.076,201.319,198.939,200.589,199.436,200.319z"/>
			<path style="opacity:0.5;fill:#358330;" d="M201.809,202.831c0.008,0,0.014,0.002,0.02,0.002
				c0.226,0.016,0.429,0.217,0.477,0.434c0.002,0.012,0.005,0.021,0.008,0.035c0.031,0.15,0.002,0.338-0.17,0.387
				c-0.228,0.066-0.419-0.135-0.52-0.309c-0.069-0.117-0.08-0.232-0.061-0.363C201.58,202.903,201.699,202.823,201.809,202.831z"/>
			<path style="opacity:0.5;fill:#358330;" d="M195.748,200.134c0.237-0.389,0.86-0.01,0.994,0.363
				c0.08,0.07,0.152,0.156,0.208,0.262c0.067,0.135,0.069,0.279,0.003,0.41c-0.107,0.207-0.416,0.117-0.568,0.039
				C196.049,201.038,195.488,200.565,195.748,200.134z"/>
			<path style="opacity:0.5;fill:#358330;" d="M197.779,197.825c0.238,0.025,0.434,0.219,0.49,0.447
				c0.049,0.186-0.035,0.443-0.271,0.42c-0.238-0.023-0.434-0.219-0.492-0.447C197.461,198.059,197.545,197.802,197.779,197.825z"/>
			<path style="opacity:0.5;fill:#358330;" d="M192.288,195.071c0.196-0.307,0.474-0.383,0.765-0.334
				c0.105-0.018,0.222-0.006,0.34,0.045c0.168,0.072,0.314,0.168,0.451,0.275c-0.074-0.217-0.092-0.443,0.031-0.627
				c0.527-0.805,1.502,0.418,1.541,0.979c0.002,0.018-0.004,0.033-0.004,0.051c0.043,0.201,0.031,0.408-0.146,0.523
				c-0.178,0.113-0.377,0.104-0.563,0.033c0.168,0.262,0.308,0.561,0.314,0.842c0.009,0.512-0.316,0.861-0.836,0.836
				c-0.166-0.008-0.328-0.055-0.483-0.117c-0.194-0.02-0.397-0.086-0.589-0.213C192.506,196.958,191.824,195.794,192.288,195.071z"
				/>
			<path style="opacity:0.5;fill:#358330;" d="M195.395,196.919c0.304-0.113,0.363,0.6,0.006,0.326
				c-0.063-0.051-0.091-0.105-0.114-0.182C195.262,196.985,195.317,196.911,195.395,196.919z"/>
			<path style="opacity:0.5;fill:#358330;" d="M191.899,196.934c0.203,0.021,0.359,0.439,0.105,0.414
				C191.803,197.325,191.646,196.909,191.899,196.934z"/>
		</g>
		<g>
			<g>
				<rect x="59.775" y="95.497" style="fill:#FCCF97;" width="134.501" height="116.164"/>
				<g>
					<rect x="59.775" y="92.14" style="fill:#FCCF97;" width="134.501" height="9.334"/>
					<polygon style="fill:#FCCF97;" points="59.775,132.829 59.775,175.247 93.897,175.247 93.897,211.661 160.152,211.661 
						160.152,175.247 194.275,175.247 194.275,132.829 					"/>
				</g>
				<polygon style="fill:#AB2328;" points="195.382,134.153 186.895,134.153 67.154,134.153 58.667,134.153 49.934,172.448 
					67.154,172.448 186.895,172.448 204.115,172.448 				"/>
				<g>
					<polygon style="fill:#901A1E;" points="50.341,170.663 203.707,170.663 203.48,169.663 50.57,169.663 					"/>
					<polygon style="fill:#901A1E;" points="51.39,166.065 202.659,166.065 202.432,165.065 51.618,165.065 					"/>
					<polygon style="fill:#901A1E;" points="52.439,161.468 201.61,161.468 201.382,160.468 52.667,160.468 					"/>
					<polygon style="fill:#901A1E;" points="54.535,152.27 199.514,152.27 199.285,151.27 54.763,151.27 					"/>
					<polygon style="fill:#901A1E;" points="53.487,156.868 200.563,156.868 200.334,155.868 53.714,155.868 					"/>
					<polygon style="fill:#901A1E;" points="55.583,147.673 198.465,147.673 198.236,146.673 55.812,146.673 					"/>
					<polygon style="fill:#901A1E;" points="56.632,143.075 197.416,143.075 197.188,142.075 56.861,142.075 					"/>
					<polygon style="fill:#901A1E;" points="196.14,137.476 57.91,137.476 57.681,138.476 196.367,138.476 					"/>
				</g>
				<g>
					<polygon style="fill:#AB2328;" points="195.382,61.587 186.895,61.587 67.154,61.587 58.667,61.587 49.934,99.884 
						67.154,99.884 186.895,99.884 204.115,99.884 					"/>
					<g>
						<polygon style="fill:#901A1E;" points="50.341,98.099 203.707,98.099 203.48,97.099 50.57,97.099 						"/>
						<polygon style="fill:#901A1E;" points="51.39,93.499 202.659,93.499 202.432,92.499 51.618,92.499 						"/>
						<polygon style="fill:#901A1E;" points="52.439,88.901 201.61,88.901 201.382,87.901 52.667,87.901 						"/>
						<polygon style="fill:#901A1E;" points="54.535,79.706 199.514,79.706 199.285,78.706 54.763,78.706 						"/>
						<polygon style="fill:#901A1E;" points="53.487,84.304 200.563,84.304 200.334,83.304 53.714,83.304 						"/>
						<polygon style="fill:#901A1E;" points="55.583,75.106 198.465,75.106 198.236,74.106 55.812,74.106 						"/>
						<polygon style="fill:#901A1E;" points="56.632,70.509 197.416,70.509 197.188,69.509 56.861,69.509 						"/>
						<polygon style="fill:#901A1E;" points="196.14,64.911 57.91,64.911 57.681,65.911 196.367,65.911 						"/>
					</g>
				</g>
				<g>
					<g>
						<g>
							<rect x="84.214" y="105.918" style="fill:#714C1C;" width="17.118" height="21.681"/>
							<rect x="85.273" y="107.303" style="fill:#311E00;" width="15" height="18.783"/>
							<rect x="85.709" y="107.741" style="fill:#6ACFF6;" width="14.129" height="17.906"/>
							<rect x="92.489" y="106.94" style="fill:#714C1C;" width="0.568" height="19.508"/>
							<rect x="84.992" y="116.411" style="fill:#714C1C;" width="15.563" height="0.567"/>
						</g>
						<rect x="83.677" y="126.451" style="fill:#FCECE1;" width="18.105" height="2.296"/>
					</g>
					<g>
						<g>
							<rect x="152.804" y="105.918" style="fill:#714C1C;" width="17.118" height="21.681"/>
							<rect x="153.861" y="107.303" style="fill:#311E00;" width="15.001" height="18.783"/>
							<rect x="154.298" y="107.741" style="fill:#6ACFF6;" width="14.128" height="17.906"/>
							<rect x="161.078" y="106.94" style="fill:#714C1C;" width="0.568" height="19.508"/>
							<rect x="153.58" y="116.411" style="fill:#714C1C;" width="15.564" height="0.567"/>
						</g>
						<rect x="152.266" y="126.451" style="fill:#FCECE1;" width="18.106" height="2.296"/>
					</g>
				</g>
				<g>
					<path style="fill:#8B1619;" d="M90.104,172.448h73.841l-36.92-36.758C127.025,135.69,98.127,164.741,90.104,172.448z"/>
				</g>
				<g>
					<path style="fill:#FEE9BB;" d="M127.914,140.2l-0.889-0.936l-0.89,0.936L96.23,171.712h3.612v39.949h5.07v-24.197
						c0-6.629,5.372-12,12-12h20.75c6.628,0,12,5.371,12,12v24.197h4.542v-39.949h3.613L127.914,140.2z"/>
					<path style="fill:#CB8C63;" d="M137.663,175.464h-20.75c-6.628,0-12,5.371-12,12v24.197h44.75v-24.197
						C149.663,180.835,144.291,175.464,137.663,175.464z"/>
					<path style="fill:#FCCF97;" d="M136.794,178.497h-19.012c-6.072,0-10.995,4.922-10.995,10.994v22.17h41v-22.17
						C147.788,183.419,142.865,178.497,136.794,178.497z"/>
				</g>
				<g>
					<polygon style="opacity:0.4;fill:#DAA780;" points="154.205,176.645 154.205,171.712 157.818,171.712 127.914,140.2 
						127.025,139.265 126.136,140.2 96.23,171.712 99.842,171.712 99.842,176.211 127.016,148.202 					"/>
				</g>
				<g>
					<g>
						<rect x="115.244" y="179.882" style="fill:#413946;" width="23.561" height="31.621"/>
						<rect x="116.475" y="181.007" style="fill:#BA8B7F;" width="21.082" height="30.496"/>
						<g>
							<g>
								<rect x="120.443" y="183.839" style="fill:#714C1C;" width="13.568" height="7.387"/>
								<polygon style="fill:#53370C;" points="134.012,191.226 120.443,191.226 121.004,190.636 133.625,184.167 134.012,183.839 
																	"/>
								<rect x="120.844" y="184.198" style="fill:#BA8B7F;" width="12.764" height="6.59"/>
							</g>
						</g>
						<g>
							<g>
								<rect x="120.443" y="193.243" style="fill:#714C1C;" width="13.568" height="7.383"/>
								<polygon style="fill:#53370C;" points="134.012,200.626 120.443,200.626 121.004,200.036 133.625,193.567 134.012,193.243 
																	"/>
								<rect x="120.844" y="193.601" style="fill:#BA8B7F;" width="12.764" height="6.588"/>
							</g>
						</g>
						<g>
							<g>
								<rect x="120.443" y="202.643" style="fill:#714C1C;" width="13.568" height="7.385"/>
								<polygon style="fill:#53370C;" points="134.012,210.028 120.443,210.028 121.004,209.436 133.625,202.972 134.012,202.643 
																	"/>
								<rect x="120.844" y="203.001" style="fill:#BA8B7F;" width="12.764" height="6.59"/>
							</g>
						</g>
						<g>
							<path style="fill:#3C2500;" d="M118.966,197.349c0,0.531-0.429,0.959-0.959,0.959c-0.529,0-0.957-0.428-0.957-0.959
								c0-0.529,0.428-0.959,0.957-0.959C118.537,196.39,118.966,196.819,118.966,197.349z"/>
							<path style="fill:#7F5725;" d="M118.428,197.349c0,0.229-0.189,0.418-0.42,0.418c-0.228,0-0.416-0.189-0.416-0.418
								c0-0.227,0.188-0.414,0.416-0.414C118.238,196.934,118.428,197.122,118.428,197.349z"/>
						</g>
					</g>
				</g>
				<g>
					<g>
						<g>
							<rect x="117.146" y="127.767" style="fill:#FABA6B;" width="4.675" height="1.672"/>
							<rect x="122.193" y="127.767" style="fill:#FABA6B;" width="4.675" height="1.672"/>
							<rect x="124.531" y="125.76" style="fill:#FABA6B;" width="4.674" height="1.671"/>
						</g>
						<g>
							<rect x="127.48" y="127.767" style="fill:#FABA6B;" width="4.674" height="1.672"/>
							<rect x="137.201" y="127.767" style="fill:#FABA6B;" width="4.676" height="1.672"/>
							<rect x="134.864" y="125.76" style="fill:#FABA6B;" width="4.675" height="1.671"/>
						</g>
					</g>
					<g>
						<g>
							<rect x="116.771" y="123.726" style="fill:#FABA6B;" width="4.675" height="1.671"/>
							<rect x="121.818" y="123.726" style="fill:#FABA6B;" width="4.675" height="1.671"/>
							<rect x="119.109" y="121.718" style="fill:#FABA6B;" width="4.674" height="1.672"/>
						</g>
						<g>
							<rect x="132.152" y="123.726" style="fill:#FABA6B;" width="4.674" height="1.671"/>
							<rect x="129.442" y="121.718" style="fill:#FABA6B;" width="4.675" height="1.672"/>
							<rect x="134.489" y="121.718" style="fill:#FABA6B;" width="4.675" height="1.672"/>
						</g>
					</g>
				</g>
				<g>
					<g>
						<g>
							<rect x="176.881" y="118.884" style="fill:#FABA6B;" width="4.674" height="1.67"/>
							<rect x="184.265" y="116.876" style="fill:#FABA6B;" width="4.675" height="1.671"/>
						</g>
						<g>
							<rect x="187.214" y="118.884" style="fill:#FABA6B;" width="4.675" height="1.67"/>
						</g>
					</g>
					<g>
						<g>
							<rect x="171.83" y="114.842" style="fill:#FABA6B;" width="4.676" height="1.671"/>
							<rect x="178.843" y="112.835" style="fill:#FABA6B;" width="4.675" height="1.67"/>
						</g>
						<g>
							<rect x="189.176" y="112.835" style="fill:#FABA6B;" width="4.676" height="1.67"/>
						</g>
					</g>
				</g>
				<g>
					<g>
						<g>
							<rect x="68.802" y="111.967" style="fill:#FABA6B;" width="4.675" height="1.671"/>
							<rect x="61.042" y="109.96" style="fill:#FABA6B;" width="4.676" height="1.67"/>
						</g>
					</g>
					<g>
						<g>
							<rect x="63.752" y="107.925" style="fill:#FABA6B;" width="4.675" height="1.672"/>
							<rect x="61.042" y="105.918" style="fill:#FABA6B;" width="4.676" height="1.671"/>
							<rect x="66.089" y="105.918" style="fill:#FABA6B;" width="4.676" height="1.671"/>
						</g>
					</g>
				</g>
				<g>
					<g>
						<g>
							<rect x="188.303" y="208.526" style="fill:#FABA6B;" width="4.675" height="1.67"/>
							<rect x="180.543" y="206.518" style="fill:#FABA6B;" width="4.676" height="1.67"/>
						</g>
					</g>
					<g>
						<g>
							<rect x="183.253" y="204.483" style="fill:#FABA6B;" width="4.675" height="1.672"/>
							<rect x="180.543" y="202.477" style="fill:#FABA6B;" width="4.676" height="1.67"/>
							<rect x="185.59" y="202.477" style="fill:#FABA6B;" width="4.676" height="1.67"/>
						</g>
					</g>
				</g>
				<g>
					<g>
						<g>
							<rect x="68.442" y="209.032" style="fill:#FABA6B;" width="4.28" height="1.529"/>
							<rect x="61.338" y="207.194" style="fill:#FABA6B;" width="4.28" height="1.529"/>
						</g>
					</g>
					<g>
						<g>
							<rect x="63.819" y="205.331" style="fill:#FABA6B;" width="4.28" height="1.531"/>
							<rect x="61.338" y="203.495" style="fill:#FABA6B;" width="4.28" height="1.527"/>
							<rect x="65.959" y="203.495" style="fill:#FABA6B;" width="4.28" height="1.527"/>
						</g>
					</g>
				</g>
				<g>
					<g>
						<g>
							<rect x="70.009" y="180.497" style="fill:#714C1C;" width="17.117" height="21.68"/>
							<rect x="71.068" y="181.882" style="fill:#311E00;" width="15" height="18.783"/>
							<rect x="71.503" y="182.319" style="fill:#6ACFF6;" width="14.129" height="17.906"/>
							<rect x="78.283" y="181.518" style="fill:#714C1C;" width="0.568" height="19.508"/>
							<rect x="70.787" y="190.989" style="fill:#714C1C;" width="15.563" height="0.568"/>
						</g>
						<rect x="69.471" y="201.03" style="fill:#FCECE1;" width="18.106" height="2.295"/>
					</g>
					<g>
						<g>
							<rect x="167.01" y="180.497" style="fill:#714C1C;" width="17.117" height="21.68"/>
							<rect x="168.068" y="181.882" style="fill:#311E00;" width="15" height="18.783"/>
							<rect x="168.504" y="182.319" style="fill:#6ACFF6;" width="14.128" height="17.906"/>
							<rect x="175.283" y="181.518" style="fill:#714C1C;" width="0.568" height="19.508"/>
							<rect x="167.787" y="190.989" style="fill:#714C1C;" width="15.563" height="0.568"/>
						</g>
						<rect x="166.472" y="201.03" style="fill:#FCECE1;" width="18.107" height="2.295"/>
					</g>
				</g>
				<g>
					<path style="fill:#BB291E;" d="M157.819,175.247c-0.708,0-1.413-0.279-1.939-0.832l-28.855-30.408l-28.857,30.408
						c-1.017,1.07-2.709,1.113-3.776,0.098c-1.07-1.016-1.114-2.705-0.1-3.775l30.796-32.447c1.009-1.064,2.863-1.064,3.872,0
						l30.796,32.447c1.014,1.07,0.97,2.76-0.1,3.775C159.141,175.003,158.48,175.247,157.819,175.247z"/>
					<path style="fill:#823020;" d="M94.701,171.001l29.586-31.166c0,0,1.24-1.416,2.101-0.869c0,0,0.807,0.705,0.055,1.576
						l-30.502,31.275c0,0-0.918,0.979-1.24,0.869C94.374,172.575,93.839,172.251,94.701,171.001z"/>
					<g>
						<path style="fill:#823020;" d="M159.094,174.802l-32.162-33.609l-32.54,33.32c1.067,1.016,2.76,0.973,3.776-0.098
							l28.857-30.408l28.855,30.408c0.525,0.553,1.23,0.832,1.939,0.832c0.46,0,0.917-0.127,1.327-0.363L159.094,174.802z"/>
					</g>
				</g>
			</g>
			<g>
				<path style="fill:#579F46;" d="M169.654,209.977c-0.037,0.027-0.07,0.063-0.104,0.094c0.252-0.266,0.512-0.524,0.785-0.766
					c0.373-0.332,0.863-0.471,1.252-0.732c-0.059,0.039-0.317-0.006-0.393-0.004c-0.135,0.006-0.27,0.018-0.404,0.037
					c-0.268,0.039-0.531,0.104-0.785,0.199c-0.645,0.244-1.165,0.576-1.531,1.166c0.104-0.166,0.107-0.574,0.191-0.834
					c0.137-0.428,0.332-0.822,0.545-1.217c0.008-0.012,0.011-0.018,0.018-0.027c-0.285,0.102-0.555,0.248-0.779,0.439
					c-0.145,0.193-0.266,0.404-0.374,0.619c-0.155,0.309-0.043,0.777-0.216,0.273c-0.111-0.322-0.484-0.717-0.907-0.945
					c-0.341-0.053-0.683-0.041-0.995,0.076c0.625,0.172,0.856,0.52,1.148,1.104c0.233,0.461-0.224-0.006-0.479-0.119
					c-0.536-0.236-1.554-0.025-2.035,0.367c0.065-0.01,0.128-0.012,0.193-0.02c0.02,0,0.04-0.004,0.06-0.004
					c0.938-0.055,1.869,0.355,2.598,0.986c0.482,0.42,0.785,0.91,1.016,1.447h0.565c0.185-0.957,1.044-1.85,1.829-2.324
					c0.483-0.289,0.99-0.494,1.514-0.619C171.503,208.936,170.309,209.479,169.654,209.977z"/>
				<path style="fill:#BBD652;" d="M170.162,210.483c-0.029,0.021-0.054,0.047-0.079,0.072c0.192-0.203,0.392-0.4,0.601-0.586
					c0.283-0.254,0.658-0.359,0.955-0.561c-0.044,0.031-0.241-0.004-0.299-0.002c-0.104,0.004-0.208,0.014-0.311,0.029
					c-0.203,0.029-0.406,0.078-0.6,0.152c-0.491,0.186-0.889,0.439-1.169,0.891c0.079-0.127,0.083-0.439,0.146-0.639
					c0.105-0.328,0.255-0.627,0.417-0.928c0.006-0.01,0.009-0.014,0.015-0.021c-0.219,0.078-0.425,0.189-0.596,0.336
					c-0.111,0.148-0.203,0.309-0.286,0.473c-0.118,0.236-0.033,0.594-0.165,0.209c-0.084-0.246-0.369-0.549-0.692-0.723
					c-0.261-0.039-0.523-0.029-0.761,0.059c0.477,0.131,0.654,0.398,0.878,0.844c0.176,0.352-0.172-0.006-0.367-0.092
					c-0.412-0.184-1.194-0.018-1.56,0.285c0.498-0.1,1.107,0.125,1.471,0.402c0.443,0.344,0.603,0.887,0.689,1.434h1.23
					c0.141-0.732,0.797-1.412,1.396-1.773c0.369-0.225,0.757-0.379,1.156-0.475C171.574,209.688,170.662,210.101,170.162,210.483z"
					/>
			</g>
			<g>
				<path style="fill:#579F46;" d="M188.216,210.333c-0.031,0.023-0.058,0.051-0.085,0.078c0.21-0.221,0.427-0.438,0.654-0.639
					c0.311-0.277,0.72-0.393,1.045-0.611c-0.049,0.033-0.264-0.004-0.328-0.004c-0.112,0.006-0.225,0.016-0.336,0.031
					c-0.224,0.033-0.444,0.086-0.656,0.166c-0.537,0.205-0.971,0.48-1.277,0.973c0.087-0.137,0.091-0.479,0.16-0.695
					c0.114-0.357,0.277-0.685,0.455-1.014c0.006-0.01,0.008-0.016,0.014-0.023c-0.236,0.084-0.462,0.207-0.648,0.365
					c-0.122,0.162-0.223,0.338-0.313,0.518c-0.13,0.258-0.036,0.648-0.18,0.229c-0.094-0.27-0.404-0.598-0.758-0.789
					c-0.283-0.043-0.569-0.035-0.83,0.064c0.521,0.143,0.714,0.434,0.958,0.92c0.194,0.385-0.187-0.004-0.4-0.1
					c-0.447-0.197-1.295-0.021-1.697,0.307c0.055-0.008,0.107-0.01,0.161-0.016c0.017-0.002,0.032-0.004,0.05-0.004
					c0.782-0.045,1.559,0.297,2.166,0.822c0.402,0.35,0.654,0.76,0.848,1.207h0.471c0.154-0.799,0.871-1.543,1.525-1.938
					c0.404-0.242,0.826-0.412,1.264-0.518C189.759,209.464,188.764,209.917,188.216,210.333z"/>
				<path style="fill:#BBD652;" d="M188.641,210.755c-0.023,0.018-0.045,0.039-0.066,0.061c0.16-0.17,0.326-0.334,0.501-0.49
					c0.236-0.211,0.549-0.299,0.797-0.467c-0.036,0.025-0.201-0.004-0.249,0c-0.086,0.002-0.173,0.01-0.259,0.023
					c-0.171,0.025-0.339,0.065-0.501,0.127c-0.409,0.154-0.74,0.367-0.975,0.742c0.066-0.105,0.068-0.365,0.122-0.531
					c0.087-0.273,0.212-0.523,0.347-0.775c0.006-0.008,0.008-0.01,0.012-0.018c-0.182,0.064-0.354,0.158-0.496,0.281
					c-0.094,0.123-0.17,0.256-0.238,0.395c-0.1,0.195-0.027,0.494-0.138,0.174c-0.07-0.205-0.309-0.457-0.577-0.604
					c-0.218-0.033-0.436-0.025-0.635,0.049c0.398,0.109,0.545,0.332,0.732,0.703c0.146,0.293-0.144-0.004-0.307-0.076
					c-0.344-0.152-0.996-0.014-1.301,0.238c0.415-0.084,0.924,0.104,1.227,0.336c0.37,0.285,0.503,0.738,0.574,1.195h1.027
					c0.117-0.611,0.664-1.178,1.165-1.48c0.308-0.186,0.631-0.314,0.964-0.395C189.818,210.091,189.057,210.436,188.641,210.755z"/>
			</g>
			<g>
				<path style="fill:#579F46;" d="M90.572,210.333c-0.031,0.023-0.059,0.051-0.086,0.078c0.21-0.221,0.426-0.438,0.654-0.639
					c0.311-0.277,0.719-0.393,1.045-0.611c-0.049,0.033-0.265-0.004-0.328-0.004c-0.113,0.006-0.226,0.016-0.337,0.031
					c-0.224,0.033-0.444,0.086-0.655,0.166c-0.537,0.205-0.971,0.48-1.277,0.973c0.086-0.137,0.09-0.479,0.16-0.695
					c0.113-0.357,0.277-0.685,0.455-1.014c0.006-0.01,0.008-0.016,0.014-0.023c-0.237,0.084-0.463,0.207-0.649,0.365
					c-0.122,0.162-0.222,0.338-0.313,0.518c-0.13,0.258-0.036,0.648-0.18,0.229c-0.093-0.27-0.403-0.598-0.757-0.789
					c-0.283-0.043-0.57-0.035-0.83,0.064c0.521,0.143,0.715,0.434,0.959,0.92c0.192,0.385-0.188-0.004-0.4-0.1
					c-0.448-0.197-1.296-0.021-1.697,0.307c0.054-0.008,0.107-0.01,0.16-0.016c0.018-0.002,0.033-0.004,0.051-0.004
					c0.781-0.045,1.559,0.297,2.166,0.822c0.402,0.35,0.654,0.76,0.847,1.207h0.472c0.154-0.799,0.871-1.543,1.525-1.938
					c0.403-0.242,0.826-0.412,1.263-0.518C92.113,209.464,91.118,209.917,90.572,210.333z"/>
				<path style="fill:#BBD652;" d="M90.996,210.755c-0.024,0.018-0.045,0.039-0.066,0.061c0.16-0.17,0.326-0.334,0.5-0.49
					c0.236-0.211,0.549-0.299,0.797-0.467c-0.036,0.025-0.201-0.004-0.249,0c-0.086,0.002-0.173,0.01-0.259,0.023
					c-0.17,0.025-0.339,0.065-0.5,0.127c-0.41,0.154-0.741,0.367-0.975,0.742c0.066-0.105,0.068-0.365,0.121-0.531
					c0.088-0.273,0.213-0.523,0.348-0.775c0.005-0.008,0.008-0.01,0.012-0.018c-0.182,0.064-0.354,0.158-0.496,0.281
					c-0.094,0.123-0.17,0.256-0.238,0.395c-0.1,0.195-0.028,0.494-0.139,0.174c-0.07-0.205-0.309-0.457-0.577-0.604
					c-0.218-0.033-0.436-0.025-0.634,0.049c0.396,0.109,0.545,0.332,0.731,0.703c0.147,0.293-0.144-0.004-0.306-0.076
					c-0.344-0.152-0.997-0.014-1.301,0.238c0.414-0.084,0.924,0.104,1.227,0.336c0.369,0.285,0.502,0.738,0.574,1.195h1.026
					c0.118-0.611,0.665-1.178,1.165-1.48c0.308-0.186,0.631-0.314,0.965-0.395C92.172,210.091,91.412,210.436,90.996,210.755z"/>
			</g>
			<g>
				<path style="fill:#579F46;" d="M66.156,210.333c-0.031,0.023-0.059,0.051-0.086,0.078c0.211-0.221,0.427-0.438,0.654-0.639
					c0.311-0.277,0.72-0.393,1.045-0.611c-0.049,0.033-0.264-0.004-0.328-0.004c-0.112,0.006-0.225,0.016-0.336,0.031
					c-0.224,0.033-0.444,0.086-0.656,0.166c-0.537,0.205-0.971,0.48-1.277,0.973c0.087-0.137,0.091-0.479,0.16-0.695
					c0.114-0.357,0.277-0.685,0.455-1.014c0.006-0.01,0.008-0.016,0.014-0.023c-0.236,0.084-0.462,0.207-0.648,0.365
					c-0.122,0.162-0.223,0.338-0.313,0.518c-0.13,0.258-0.036,0.648-0.18,0.229c-0.094-0.27-0.404-0.598-0.758-0.789
					c-0.283-0.043-0.569-0.035-0.829,0.064c0.521,0.143,0.714,0.434,0.958,0.92c0.193,0.385-0.188-0.004-0.4-0.1
					c-0.447-0.197-1.295-0.021-1.697,0.307c0.055-0.008,0.107-0.01,0.161-0.016c0.017-0.002,0.032-0.004,0.05-0.004
					c0.782-0.045,1.559,0.297,2.166,0.822c0.402,0.35,0.654,0.76,0.848,1.207h0.471c0.154-0.799,0.871-1.543,1.525-1.938
					c0.404-0.242,0.826-0.412,1.264-0.518C67.698,209.464,66.703,209.917,66.156,210.333z"/>
				<path style="fill:#BBD652;" d="M66.58,210.755c-0.023,0.018-0.045,0.039-0.066,0.061c0.16-0.17,0.326-0.334,0.501-0.49
					c0.236-0.211,0.549-0.299,0.797-0.467c-0.036,0.025-0.201-0.004-0.249,0c-0.086,0.002-0.173,0.01-0.259,0.023
					c-0.171,0.025-0.339,0.065-0.501,0.127c-0.409,0.154-0.74,0.367-0.975,0.742c0.066-0.105,0.068-0.365,0.122-0.531
					c0.087-0.273,0.212-0.523,0.347-0.775c0.006-0.008,0.008-0.01,0.012-0.018c-0.182,0.064-0.354,0.158-0.496,0.281
					c-0.094,0.123-0.17,0.256-0.238,0.395c-0.1,0.195-0.027,0.494-0.138,0.174c-0.07-0.205-0.309-0.457-0.577-0.604
					c-0.218-0.033-0.436-0.025-0.635,0.049c0.397,0.109,0.545,0.332,0.732,0.703c0.146,0.293-0.143-0.004-0.307-0.076
					c-0.344-0.152-0.996-0.014-1.301,0.238c0.415-0.084,0.924,0.104,1.227,0.336c0.37,0.285,0.503,0.738,0.574,1.195h1.027
					c0.117-0.611,0.664-1.178,1.165-1.48c0.308-0.186,0.631-0.314,0.964-0.395C67.757,210.091,66.996,210.436,66.58,210.755z"/>
			</g>
		</g>
		<polygon style="opacity:0.7;fill:#823020;" points="60.14,63.411 52.439,97.599 52.439,98.099 62.71,65.911 194.969,63.411 		"/>
		<rect x="113.357" y="210.005" style="fill:#F59962;" width="27.334" height="1.68"/>
		<rect x="113.357" y="210.005" style="fill:#FEE9BB;" width="27.334" height="1.111"/>
		<polygon style="opacity:0.7;fill:#823020;" points="60.219,134.927 52.518,169.114 52.518,169.614 62.791,137.427 124.531,135.69 
					"/>
	</g>
</g>
</svg>
