<?xml version="1.0" encoding="utf-8"?>
<!-- Generator: Adobe Illustrator 27.5.0, SVG Export Plug-In . SVG Version: 6.00 Build 0)  -->
<svg version="1.1" id="Capa_2_00000174583160797886262930000000574717726575293078_"
	 xmlns="http://www.w3.org/2000/svg" xmlns:xlink="http://www.w3.org/1999/xlink" x="0px" y="0px" viewBox="0 0 2122 2122"
	 style="enable-background:new 0 0 2122 2122;" xml:space="preserve">
<path style="fill:#FFE732;" d="M1839.135,905.432c-2.94-14.85-9.622-29.108-19.864-42.383
	c-22.311-28.923-59.576-48.933-113.927-61.171c-48.719-10.972-99.545-17.116-155.413-18.782
	c-86.86,2.429-174.558,14.36-256.397,26.894l-61.042,10.134l-1.075-9.571c-12.324-140.044-31.354-301.388-101.588-443.897
	c-24.628-49.973-52.808-81.518-86.151-96.436c-4.724-2.112-9.523-3.898-14.261-5.306h-0.356c-4.734,1.405-9.53,3.191-14.261,5.306
	c-33.34,14.918-61.52,46.463-86.151,96.436c-70.119,142.28-89.203,303.342-101.532,443.235
	c-65.727-10.063-143.088-20.899-219.169-25.191l-0.509,0.219l-0.134,0.541c16.383,73.094,45.954,143.106,90.402,214.031l0.494,0.292
	l0.524-0.239c23.578-29.941,58.672-46.972,96.606-46.972c0.809,0,1.625,0.01,2.436,0.024c19.252,0.37,37.603,5.047,54.543,13.903
	l0.4,0.061c22.149-3.915,43.101-5.817,64.056-5.817h0.175c8.487,0,17.213,0.321,25.932,0.952l0.636-0.422l-0.248-0.721
	c-38.641-25.352-82.733-41.88-127.51-47.796c-3.14-0.414-5.929-2.026-7.854-4.538c-1.925-2.512-2.757-5.625-2.341-8.763
	c0.414-3.135,2.024-5.924,4.538-7.851c2.509-1.925,5.635-2.77,8.76-2.341c65.242,8.633,126.287,36.797,176.535,81.444
	c3.969,3.528,5.104,9.32,2.76,14.086c-2.341,4.762-7.623,7.401-12.838,6.411c-24.034-4.55-46.428-6.765-68.47-6.767
	c-11.798,0.003-23.342,0.631-35.289,1.917l-0.524,0.419l0.153,0.648c20.173,19.644,33.087,45.786,36.363,73.606l0.341,0.484
	c13.401,6.687,27.637,12.585,42.316,17.532c35.754,12,73.708,18.361,112.807,18.904c39.254,0.631,77.496-4.656,113.607-15.632
	c15.803-4.794,30.991-10.622,45.145-17.325l0.353-0.507c2.658-29.786,16.126-57.568,37.932-78.227l0.158-0.665l-0.545-0.409
	c-7.289-0.492-14.663-0.743-21.915-0.745c-22.044,0.003-44.439,2.217-68.47,6.767c-5.198,0.994-10.497-1.646-12.838-6.411
	c-2.343-4.765-1.208-10.558,2.76-14.086c50.248-44.648,111.294-72.811,176.536-81.444c3.167-0.419,6.253,0.419,8.762,2.344
	c2.512,1.924,4.122,4.714,4.536,7.851c0.858,6.475-3.715,12.441-10.192,13.298c-44.777,5.915-88.872,22.444-127.513,47.796
	l-0.249,0.721l0.633,0.422c8.719-0.631,17.445-0.952,25.937-0.952h0.19c17.562,0,34.919,1.318,53.065,4.027l0.363-0.053
	c15.966-7.698,33.121-11.776,50.984-12.119c32.86-0.568,63.965,11.569,87.634,34.348c23.668,22.78,37.052,53.411,37.681,86.256
	c0.631,32.843-11.566,63.966-34.346,87.634c-22.779,23.669-53.41,37.052-86.255,37.681c-0.804,0.014-1.608,0.024-2.409,0.024
	c-45.335,0-86.658-24.623-108.266-64.691l-0.648-0.319l-0.514,0.506c-1.988,11.147-4.485,22.083-7.437,32.56
	c-0.6,2.161-1.221,4.395-1.895,6.541c-0.617,2.151-1.291,4.304-1.966,6.45c-3.042,9.26-6.105,17.516-9.352,25.23
	c-0.453,1.031-0.903,2.078-1.355,3.126c-0.412,0.957-0.823,1.915-1.24,2.865c-0.74,1.747-1.598,3.62-2.702,5.898
	c-1.54,3.24-3.233,6.657-5.476,11.072l-0.969,1.788c-0.762,1.408-1.513,2.796-2.297,4.188c-2.725,4.943-5.763,10.015-9.284,15.5
	c-2.395,3.588-4.921,7.233-7.508,10.826c-1.649,2.222-3.518,4.738-5.413,7.077l-0.987,1.232c-0.984,1.23-1.966,2.461-2.967,3.647
	c-0.409,0.526-0.816,0.991-1.277,1.52c-31.734,37.106-71.381,57.459-111.822,57.459c-0.575,0-1.152-0.005-1.73-0.012
	c-13.92-0.224-27.749-2.821-41.101-7.717l-0.777,0.314l0.239,0.804c24.239,14.741,49.206,28.465,74.209,40.794
	c62.275,30.704,126.073,53.737,189.622,68.453c30.068,6.967,61.727,12.117,94.095,15.308c11.208,1.104,22.614,2.01,33.644,2.884
	c5.016,0.397,10.032,0.794,15.047,1.211c4.097,0.341,8.193,0.711,12.29,1.082l1.523,0.139c1.601,0.156,6.726,0.636,10.38,0.979
	l18.095,1.703l0.058,0.002l0.485-0.231l0.11-0.58c-23.542-74.365-53.937-146.645-80.609-207.617
	c120.682-41.869,258.969-97.199,370.411-189.978c42.819-35.652,66.884-70.434,73.576-106.339
	C1843.822,935.729,1843.278,919.99,1839.135,905.432z"/>
<path style="fill:#FFE732;" d="M973.27,1286.452c-4.592-4.56-9.096-9.508-13.389-14.704c-11.978-14.49-22.609-31.357-31.615-50.176
	c-0.685-1.31-1.359-2.76-2.017-4.333c-1.481-3.126-3.023-6.655-4.853-11.121c-0.721-1.688-1.413-3.505-2.022-5.108l-0.061-0.161
	c-2.368-5.988-4.402-11.995-6.08-17.081c-1.016-3.047-1.932-6.217-2.838-9.349l-0.046-0.161c-3.21-11.06-5.936-22.719-8.105-34.655
	c-0.092-0.502-0.492-0.906-0.981-0.999c-0.509-0.117-1.036,0.117-1.313,0.575c-12.047,19.757-29.357,35.652-50.056,45.966
	l-0.678,0.923l0.366,1.089c37.951,36.819,79.028,70.867,122.085,101.196l0.726,0.234l0.952-0.443
	C973.764,1287.651,973.73,1286.908,973.27,1286.452z"/>
<g>
	<path style="fill:#FBD21C;" d="M1521.73,1690.359c-3.033-72.906-17.542-149.517-44.358-234.211l-0.536-0.434l-18.095-1.703
		c-3.652-0.341-8.775-0.823-10.38-0.979l-1.527-0.139c-4.1-0.37-8.198-0.741-12.3-1.082c-5.016-0.417-10.034-0.816-15.05-1.213
		c-11.025-0.875-22.426-1.778-33.622-2.882c-32.314-3.187-63.917-8.327-93.934-15.279c-63.457-14.697-127.164-37.696-189.354-68.361
		c-24.969-12.309-49.905-26.017-74.221-40.791c-19.856-7.284-38.536-19.525-55.6-36.456
		c-42.991-30.285-83.993-64.27-121.868-101.018l-0.711-0.11c-17.593,8.765-37.388,13.182-57.118,12.814
		c-67.8-1.299-121.9-57.516-120.601-125.315c0.516-27.013,9.603-52.485,26.275-73.657l0.039-0.716
		c-44.382-70.821-73.905-140.716-90.251-213.678l-0.575-0.487c-75.876-4.278-142.913-1.727-204.945,7.805l-6.575,1.04
		c-1.242,0.202-2.482,0.407-3.722,0.616l-24.375,4.509c-0.721,0.144-1.437,0.292-2.151,0.441c-0.56,0.112-1.121,0.227-1.676,0.343
		l-11.359,2.461c-54.35,12.239-91.615,32.249-113.926,61.171c-10.243,13.279-16.931,27.547-19.859,42.358
		c-0.767,2.692-1.422,5.479-1.951,8.287c-0.227,1.216-0.434,2.444-0.614,3.678c-0.088,0.592-0.171,1.186-0.246,1.786
		c-0.081,0.641-0.156,1.284-0.227,1.932c-1.06,9.932-0.582,20.405,1.418,31.123c1.99,10.675,5.615,21.452,10.772,32.029l0.653,1.323
		c0.658,1.32,1.337,2.628,2.039,3.929c0.465,0.87,0.94,1.732,1.425,2.594c0.485,0.858,0.974,1.713,1.474,2.567
		c1.23,2.093,2.541,4.217,3.895,6.31c0.538,0.833,1.086,1.659,1.639,2.484l0.836,1.23c1.118,1.642,2.268,3.264,3.439,4.87
		c2.56,3.505,5.347,7.075,8.287,10.602c0.639,0.765,1.282,1.53,1.932,2.287l0.977,1.135c0.653,0.755,1.311,1.503,1.973,2.248
		c2.25,2.536,4.643,5.121,7.218,7.795c0.943,0.974,1.888,1.944,2.863,2.926c1.668,1.681,3.352,3.338,5.05,4.969
		c2.212,2.124,4.517,4.278,6.855,6.399c0.575,0.526,1.154,1.045,1.732,1.564c0.884,0.789,1.769,1.576,2.658,2.356l0.426,0.378
		c2.419,2.117,4.919,4.248,7.433,6.341c6.385,5.315,13.008,10.633,19.688,15.807c10.402,8.061,21.281,16.039,32.336,23.708
		c5.306,3.683,10.755,7.364,16.192,10.945c4.626,3.048,9.462,6.161,14.37,9.255c1.608,1.016,3.218,2.022,4.833,3.026
		c1.847,1.143,3.693,2.28,5.547,3.412c4.524,2.76,9.225,5.574,13.971,8.356c2.577,1.511,5.159,3.009,7.753,4.492
		c4.502,2.582,9.169,5.206,13.874,7.798c2.288,1.26,4.578,2.514,6.872,3.756c1.839,0.994,3.678,1.986,5.522,2.967l2.424,1.289
		c2.329,1.235,4.658,2.46,6.999,3.676c2.495,1.298,4.996,2.589,7.503,3.868c2.733,1.394,5.473,2.779,8.238,4.161
		c3.976,1.988,7.971,3.956,11.971,5.897l0.244,0.117c2.594,1.26,5.191,2.509,7.795,3.747l0.319,0.154
		c51.425,24.475,109.895,47.851,183.958,73.547c-57.038,130.363-118.346,282.706-124.967,441.828
		c-2.319,55.664,7.31,96.853,29.435,125.917c2.034,2.668,4.141,5.215,6.265,7.569c1.52,1.688,3.089,3.325,4.658,4.865
		c0.631,0.621,1.267,1.23,1.907,1.824c0.639,0.597,1.282,1.181,1.927,1.754c1.127,1.003,2.27,1.963,3.422,2.899
		c0.731,0.592,1.466,1.174,2.205,1.737c0.762,0.582,1.53,1.152,2.305,1.705l1.155,0.816c0.777,0.541,1.554,1.065,2.338,1.577
		c0.787,0.509,1.573,1.006,2.363,1.488c0.595,0.363,1.194,0.716,1.793,1.067c0.599,0.346,1.196,0.687,1.801,1.016
		c1.206,0.663,2.419,1.296,3.598,1.876c1.788,1.072,3.605,2.08,5.401,3.001c1.837,0.943,3.749,1.842,5.683,2.675
		c0.863,0.371,1.735,0.731,2.619,1.082c2.217,0.875,4.505,1.683,6.799,2.4c0.466,0.146,0.933,0.287,1.403,0.428l1.23,0.353
		l0.319,0.003c25.016-6.214,51.279-19.164,80.292-39.593c119.839-84.365,194.757-180.662,295.371-317.937l35.118-46.823
		l23.557,38.019l0.521,0.295l0.409-0.144c79.964,119.145,170.719,241.093,292.166,326.589c1.632,1.15,3.281,2.295,4.943,3.427
		c0.558,0.383,1.118,0.76,1.676,1.135c1.118,0.755,2.244,1.506,3.379,2.254l2.134,1.393c1.427,0.925,2.87,1.844,4.319,2.755
		c0.726,0.454,1.454,0.909,2.185,1.357c0.585,0.361,1.172,0.721,1.759,1.077c1.767,1.072,3.542,2.129,5.338,3.17
		c1.196,0.692,2.399,1.379,3.605,2.053l1.818,1.011c1.215,0.67,2.436,1.33,3.661,1.983c1.839,0.977,3.693,1.932,5.554,2.865
		c1.245,0.624,2.492,1.233,3.746,1.834c3.198,1.53,6.395,2.972,9.501,4.283c0.636,0.268,1.279,0.536,1.922,0.799
		c1.281,0.526,2.57,1.04,3.864,1.542c2.592,1.004,5.218,1.954,7.803,2.826c3.308,1.113,6.635,2.124,9.888,3.003
		c1.328,0.361,2.66,0.701,3.99,1.026c0.489,0.119,0.977,0.234,1.466,0.346l0.383,0.088l1.067,0.241l0.005,0.002l0.137,0.015
		l0.609-0.487l-0.473-0.745l-1.094-0.249l-0.329-0.076c7.413-2.282,14.426-5.396,20.845-9.252
		c13.579-6.699,25.618-16.865,35.783-30.217C1514.419,1787.212,1524.049,1746.023,1521.73,1690.359z M469.821,1170.477
		L469.821,1170.477L469.821,1170.477z"/>
</g>
<path style="fill:#F3AA0C;" d="M1293.45,801.452l-0.334-3.669c-0.526-5.803-1.062-11.603-1.617-17.435
	c-0.446-4.677-0.901-9.352-1.369-14.064c-0.319-3.22-0.643-6.438-0.974-9.656l-0.5-4.828c-1.393-13.354-2.843-26.331-4.31-38.572
	c-0.984-8.219-2-16.312-3.021-24.066c-0.29-2.212-0.584-4.421-0.884-6.628l-2.921-20.711l-7.885-48.461
	c-0.088-0.509-0.18-1.013-0.273-1.518l-3.959-20.933c-0.122-0.638-0.249-1.274-0.375-1.903l-1.408-6.982l-10.061-44.672
	c-0.568-2.292-1.143-4.582-1.722-6.872l-4.507-17.123l-7.812-27.091l-10.955-33.552l-10.232-27.696
	c-0.278-0.709-0.555-1.42-0.836-2.127l-3.963-9.871l-11.693-27.033c-0.431-0.948-0.867-1.898-1.306-2.846l-1.691-3.639
	c-2.005-4.281-4.083-8.605-6.173-12.85c-18.392-37.318-38.533-64.034-61.576-81.676c-0.543-0.412-1.084-0.824-1.632-1.233
	c-7.347-5.449-15.067-10-22.943-13.527c-13.937-6.231-27.99-9.415-41.776-9.462c-0.461-0.003-0.919,0.003-1.377,0.005
	c-0.911,0.009-1.824,0.034-2.684,0.07l-4.008-0.075l-5.434,0.173l-6.39,0.611c-0.468,0.058-0.93,0.122-1.398,0.192l-1.493,0.224
	c-0.543,0.09-1.084,0.181-1.623,0.278l-1.271,0.234c-0.953,0.18-1.912,0.38-2.916,0.602c-2.334,0.519-4.716,1.138-7.106,1.846
	l-0.427,0.602l0.446,0.587c4.687,1.393,9.432,3.162,14.104,5.252c33.067,14.794,61.047,46.146,85.542,95.846
	c70.139,142.317,89.152,303.525,101.469,443.471l1.15,10.241l0.243,0.427l0.375,0.127l0.102-0.007l61.69-10.241l0.519-0.672
	L1293.45,801.452z"/>
<path style="fill:#F3AA0C;" d="M1036.739,1450.623l-0.504-0.295l-0.526,0.248l-35.669,47.561
	c-100.545,137.181-175.403,233.403-295.086,317.661c-28.886,20.336-55.016,33.225-79.88,39.403l-0.472,0.597l0.458,0.609
	l8.124,1.947c1.021,0.202,2.051,0.392,3.091,0.565l7.325,1.001l0.053,0.007l3.045,0.278c2.984,0.238,6.085,0.392,9.154,0.358
	c1.722,0,3.479-0.039,5.228-0.114c9.783-0.426,19.987-2.063,30.336-4.865c2.434-0.658,4.933-1.396,7.428-2.195
	c0.823-0.266,1.644-0.534,2.461-0.809c3.839-1.294,7.763-2.765,11.666-4.368c0.644-0.263,1.282-0.531,1.925-0.799
	c3.104-1.311,6.3-2.753,9.501-4.283c1.25-0.602,2.5-1.211,3.744-1.834c1.535-0.77,3.064-1.557,4.584-2.355l1.61-0.853
	c1.011-0.541,2.02-1.084,3.02-1.639c0.826-0.453,1.649-0.916,2.468-1.379c0.77-0.431,1.535-0.87,2.299-1.308
	c1.006-0.582,2.01-1.167,3.008-1.759c0.641-0.38,1.282-0.762,1.917-1.147c6.94-4.176,14.163-8.899,21.464-14.039
	c1.52-1.07,3.035-2.146,4.541-3.225l0.592-0.422c1.422-1.023,2.838-2.046,4.251-3.077l0.858-0.624
	c1.396-1.021,2.784-2.041,4.17-3.069l0.724-0.538c1.42-1.057,2.84-2.117,4.248-3.184l0.185-0.139
	c1.435-1.084,2.863-2.176,4.287-3.267l0.663-0.507c1.379-1.06,2.753-2.126,4.122-3.193l0.777-0.604
	c1.372-1.077,2.741-2.153,4.105-3.237l0.67-0.534c1.396-1.108,2.784-2.217,4.165-3.332l0.137-0.11
	c1.393-1.125,2.782-2.255,4.168-3.391l0.697-0.57c1.327-1.094,2.653-2.19,3.978-3.289l0.814-0.677
	c1.308-1.094,2.619-2.19,3.924-3.293l0.731-0.624c2.758-2.334,5.498-4.69,8.224-7.064l0.641-0.558
	c1.296-1.127,2.587-2.263,3.876-3.403l0.809-0.716c1.274-1.131,2.543-2.261,3.812-3.399l0.716-0.646
	c1.306-1.171,2.609-2.348,4.01-3.622c1.335-1.218,2.665-2.441,3.993-3.666l0.621-0.57c1.254-1.162,2.511-2.331,3.761-3.5
	l0.848-0.794c1.238-1.162,2.475-2.326,3.708-3.496l0.624-0.594c1.269-1.208,2.536-2.417,3.798-3.633l0.168-0.163
	c1.291-1.24,2.575-2.487,3.864-3.739l0.653-0.636c1.213-1.186,2.426-2.378,3.637-3.572l0.814-0.804
	c1.206-1.194,2.409-2.39,3.61-3.591l0.66-0.665c1.252-1.252,2.499-2.51,3.813-3.837c1.252-1.271,2.5-2.543,3.747-3.82l0.691-0.714
	c1.189-1.22,2.373-2.441,3.552-3.666l0.763-0.792c1.184-1.23,2.36-2.461,3.537-3.698l0.641-0.675
	c2.484-2.616,4.96-5.249,7.418-7.895l0.631-0.674c1.166-1.26,2.331-2.521,3.495-3.786l0.706-0.772
	c1.174-1.279,2.344-2.563,3.513-3.847l0.536-0.595c1.162-1.274,2.316-2.555,3.564-3.941l0.2-0.226c1.184-1.316,2.363-2.638,3.574-4
	l0.58-0.653c1.135-1.277,2.263-2.555,3.42-3.871l0.706-0.801c1.14-1.304,2.28-2.604,3.454-3.954l4.139-4.785
	c1.14-1.325,2.28-2.655,3.479-4.063l0.65-0.76c1.113-1.306,2.222-2.616,3.33-3.929l0.619-0.733c1.145-1.354,2.285-2.714,3.428-4.08
	l0.397-0.475c1.179-1.413,2.356-2.828,3.622-4.36c1.153-1.391,2.3-2.784,3.479-4.222l0.558-0.68c1.077-1.316,2.151-2.633,3.279-4.02
	l0.689-0.848c1.101-1.357,2.202-2.719,3.301-4.083l0.534-0.66c1.067-1.333,2.139-2.665,3.198-3.995l0.114-0.141l0.105-0.132
	c1.13-1.417,2.258-2.835,3.403-4.282l0.497-0.629c1.077-1.362,2.151-2.729,3.232-4.1l4.404-5.642
	c1.467-1.888,2.933-3.786,4.392-5.681l6.682-8.736c1.053-1.382,2.1-2.767,3.194-4.214l0.402-0.536
	c1.099-1.454,2.19-2.909,3.359-4.472c1.13-1.511,2.26-3.023,3.4-4.56l4.032-5.44c1.087-1.469,2.168-2.938,3.301-4.483l3.52-4.821
	l0.08-0.117l0.107-0.134l3.208-4.416l0.09-0.129l10.779-15.018l0.134-0.19c1.045-1.469,2.087-2.938,3.128-4.411l4.007-5.681
	l0.09-0.127l37.854-54.711l0.017-0.679L1036.739,1450.623z"/>
<path style="fill:#F3AA0C;" d="M1905.201,923.113c-0.073-0.86-0.159-1.715-0.253-2.565v-0.002c-0.229-2.013-0.521-4.025-0.867-5.981
	c-0.132-0.743-0.275-1.481-0.422-2.219l-0.117-0.553c-0.148-0.706-0.299-1.406-0.465-2.102l-0.149-0.634
	c-0.268-1.104-0.555-2.2-0.858-3.281l-0.09-0.319c-2.938-14.857-9.623-29.125-19.866-42.407
	c-22.311-28.923-59.578-48.933-113.929-61.171c-1.201-0.27-2.402-0.538-3.603-0.801l-10.502-2.224l-29.778-5.443
	c-1.206-0.194-2.409-0.387-3.612-0.575l-14.115-2.08l-37.06-4.251l-37.264-2.636l-37.981-1.154
	c-3.164-0.036-6.328-0.061-9.493-0.068l-0.507-0.003l-34.343,0.453l-0.604,0.624l0.607,0.624
	c55.754,1.664,106.502,7.798,155.142,18.753c54.054,12.17,91.086,32.032,113.211,60.714c10.129,13.128,16.733,27.22,19.647,41.939
	c4.098,14.378,4.633,29.934,1.593,46.236c-6.636,35.608-30.563,70.151-73.147,105.608
	c-111.483,92.818-249.931,148.121-370.659,189.98l-0.368,0.338v0.502c26.729,61.07,57.23,133.552,80.836,208.109
	c26.782,84.589,41.274,161.094,44.3,233.89c2.307,55.361-7.238,96.285-29.182,125.108c-10.046,13.196-21.936,23.24-35.386,29.876
	c-7.011,4.212-14.692,7.51-22.828,9.81l-0.453,0.609l0.473,0.594c1.235,0.309,2.473,0.599,3.71,0.877l0.227,0.049l1.83,0.392
	c0.599,0.124,1.198,0.243,1.856,0.373l0.229,0.044l0.003-0.003l0.024,0.005c0.714,0.139,1.43,0.27,2.149,0.397l0.026,0.004
	l1.803,0.307c0.624,0.1,1.249,0.197,1.968,0.304l3.569,0.48l0.219,0.027l1.673,0.188c0.453,0.051,0.908,0.097,1.396,0.144
	l8.787,0.526c0.538,0.015,1.077,0.025,1.647,0.032l1.995,0.003l0.344-0.003c0.572-0.005,1.142-0.014,1.749-0.027l2.292-0.078
	c0.582-0.025,1.169-0.056,1.781-0.093l0.431-0.027c0.572-0.037,1.147-0.076,1.813-0.127c0.545-0.044,1.089-0.09,1.629-0.139
	c0.543-0.048,1.082-0.102,1.62-0.161c1.072-0.114,2.132-0.241,3.187-0.38c2.08-0.277,4.161-0.611,6.185-0.996l1.138-0.221
	c0.75-0.151,1.498-0.309,2.239-0.475c1.111-0.248,2.21-0.509,3.296-0.789c0.724-0.188,1.445-0.38,2.154-0.582l1.067-0.305
	c7.907-2.311,15.396-5.571,22.212-9.664c6.531-3.223,12.76-7.276,18.516-12.049c0.843-0.701,1.681-1.42,2.512-2.158l1.104-0.991
	c1.474-1.348,2.936-2.763,4.343-4.202c3.245-3.325,6.378-6.965,9.309-10.816c19.981-26.248,29.72-62.144,29.773-109.737
	l-0.005-2.044c-0.005-1.361-0.02-2.719-0.041-4.073c-0.051-3.279-0.151-6.662-0.292-10.063c-0.076-1.822-0.161-3.644-0.251-5.464
	l-0.989-16.309l-1.927-22.11c-1.181-11.542-2.65-23.296-4.37-34.935c-0.524-3.554-1.072-7.103-1.642-10.648
	c-0.38-2.363-0.77-4.724-1.171-7.084c-0.4-2.358-0.811-4.716-1.23-7.074c-0.422-2.355-0.85-4.709-1.289-7.062
	c-0.863-4.604-1.788-9.345-2.753-14.095c-0.239-1.174-0.48-2.346-0.723-3.518c-0.941-4.521-1.959-9.247-3.028-14.046l-0.792-3.505
	c-1.065-4.67-2.163-9.335-3.294-13.993c-0.565-2.331-1.142-4.658-1.725-6.984c-1.71-6.836-3.549-13.864-5.461-20.891l-0.95-3.474
	c-24.37-88.375-59.262-172.677-93.372-250.635c25.489-8.843,48.375-17.128,69.947-25.323l1.471-0.56
	c1.571-0.597,3.138-1.196,4.709-1.798l1.425-0.548c15.223-5.857,29.985-11.757,43.875-17.537l3.018-1.257
	c7.376-3.087,14.785-6.256,22.015-9.418l0.745-0.329c4.509-1.976,9.001-3.973,13.483-5.998l2.254-1.018
	c1.53-0.694,3.062-1.388,4.587-2.09c2.139-0.979,4.273-1.966,6.404-2.955c7.873-3.659,15.732-7.415,23.496-11.23
	c1.437-0.707,2.877-1.421,4.309-2.131l2.446-1.218c1.654-0.826,3.306-1.656,4.957-2.492c2.824-1.43,5.647-2.872,8.458-4.329
	c6.017-3.108,12.051-6.302,17.937-9.493c3.138-1.7,6.265-3.42,9.383-5.152c4.714-2.624,9.318-5.235,13.688-7.762l2.792-1.62
	c1.383-0.806,2.769-1.617,4.151-2.434l2.65-1.566c1.545-0.919,3.087-1.842,4.626-2.77c0.974-0.587,1.954-1.177,2.926-1.769
	c1.133-0.687,2.263-1.381,3.394-2.073l2.134-1.311c1.145-0.711,2.29-1.42,3.432-2.134c5.218-3.254,10.499-6.628,15.698-10.031
	l3.583-2.361c1.05-0.697,2.1-1.394,3.148-2.095c3.145-2.105,6.275-4.234,9.391-6.382c1.243-0.853,2.483-1.715,3.715-2.577
	c6.431-4.485,12.874-9.13,19.154-13.808c3.157-2.353,6.3-4.728,9.423-7.132c2.085-1.605,4.161-3.218,6.226-4.848
	c5.177-4.073,10.346-8.256,15.359-12.429c2.607-2.171,5.184-4.37,7.654-6.539c1.528-1.337,3.048-2.694,4.568-4.073l1.51-1.381
	c1.006-0.924,2.012-1.859,3.011-2.799c2.575-2.426,5.067-4.852,7.433-7.238c0.952-0.962,1.897-1.929,2.84-2.904
	c1.501-1.559,2.984-3.133,4.448-4.728c0.848-0.926,1.691-1.859,2.528-2.797c1.04-1.169,2.068-2.346,3.092-3.537
	c0.762-0.891,1.518-1.785,2.266-2.687c18.494-22.273,30.01-45.035,34.226-67.656
	C1905.453,942.219,1905.994,932.428,1905.201,923.113z"/>
<path style="fill:#FEF7BE;" d="M1136.758,466.631c-1.099-3.325-2.2-6.692-3.308-10.09c-13.971-42.77-29.805-91.245-66.884-119.215
	c-9.155-6.909-32.516-21.73-51.691-10.234c-15.16,9.089-16.974,29.912-13.919,44.982c4.066,20.049,9.554,40.28,14.862,59.849
	c3.99,14.699,8.112,29.898,11.6,44.899c4.95,21.299,8.321,38.94,10.607,55.516l0.351,2.531c3.829,27.8,7.788,56.546,15.418,84.061
	c0.775,2.792,1.552,5.725,2.356,8.755c5.491,20.711,12.324,46.489,27.415,60.708c9.766,9.201,20.67,13.939,31.651,13.939
	c4.378,0,8.767-0.753,13.099-2.276c18.775-6.604,33.54-26.455,36.743-49.4C1173.467,590.395,1150.936,509.493,1136.758,466.631z"/>
<path style="fill:#FEF7BE;" d="M1157.564,740.916c-17.496-13.744-42.901-10.692-56.646,6.797
	c-13.744,17.491-10.695,42.901,6.797,56.643c7.179,5.642,15.854,8.628,24.843,8.628c1.622,0,3.252-0.097,4.887-0.292
	c10.699-1.284,20.255-6.658,26.913-15.13C1178.103,780.073,1175.055,754.66,1157.564,740.916z"/>
<path style="fill:#FEF7BE;" d="M1678.485,870.002c-1.267-15.271-13.179-30.134-29.644-36.979
	c-43.135-17.944-107.598-16.899-142.178-14.677c-6.84,0.439-13.82,0.706-20.57,0.967c-16.468,0.634-33.498,1.289-50.012,4.463
	c-30.76,5.902-49.481,17.944-55.642,35.783c-3.574,10.349-2.738,20.224,2.355,27.808c5.427,8.083,15.394,13.099,27.337,13.761
	c15.678,0.872,31.774,0.721,47.335,0.567c11.676-0.109,23.756-0.229,35.566,0.095c16.76,0.451,30.507,1.366,43.262,2.884
	l1.895,0.227c20.173,2.402,40.989,4.884,61.678,4.884c1.264,0,2.528-0.01,3.793-0.029c2.215-0.034,4.538-0.041,6.938-0.051
	c16.465-0.058,36.96-0.132,50.484-8.607C1673.332,893.425,1679.51,882.382,1678.485,870.002z"/>
<path style="fill:#FEF7BE;" d="M1751.807,858.911c-10.368-13.654-29.915-16.332-43.576-5.964
	c-6.616,5.023-10.88,12.324-12.007,20.553c-1.125,8.231,1.02,16.406,6.044,23.025c6.109,8.046,15.406,12.282,24.806,12.282
	c6.553,0,13.16-2.061,18.77-6.319c6.616-5.023,10.879-12.324,12.007-20.553C1758.977,873.705,1756.83,865.527,1751.807,858.911z"/>
<path style="fill:#EC6EA6;" d="M1478.814,1073.176c-1.298-67.681-56.77-121.849-124.171-121.849c-0.804,0-1.61,0.007-2.416,0.022
	c-18.044,0.348-35.372,4.465-51.501,12.241l-1.824,0.882l2.003,0.297c17.228,2.57,35.176,6.385,56.489,12.005
	c6.317,1.661,10.1,8.156,8.436,14.475c-0.806,3.06-2.755,5.625-5.491,7.218c-2.735,1.591-5.927,2.027-8.986,1.218
	c-31.757-8.361-56.95-12.833-81.69-14.502l-0.273-0.02l-0.198,0.188c-22.024,20.87-35.632,48.933-38.317,79.021l-0.097,1.086
	l0.987-0.468c1.188-0.563,2.372-1.13,3.547-1.705c3.442-1.678,7.403-1.466,10.614,0.57c3.197,2.029,5.074,5.52,5.021,9.342
	c-0.022,0.762-0.036,1.535-0.051,2.309c-0.026,1.466-0.053,2.94-0.134,4.407l-0.007,0.246c-0.061,2.132-0.122,4.263-0.241,6.351
	c-0.058,1.771-0.176,3.539-0.292,5.313l-0.013,0.217c-0.73,11.164-1.951,22.414-3.634,33.427l-1.108,6.657l-0.375,2.124l0.105,0.193
	c21.827,40.475,63.564,65.347,109.362,65.344c0.806,0,1.622-0.01,2.434-0.024c33.177-0.636,64.119-14.153,87.13-38.063
	C1467.13,1137.792,1479.45,1106.353,1478.814,1073.176z"/>
<polygon style="fill:#FFFFFF;" points="1406.171,1109.897 1405.669,1109.473 1370.083,1104.302 1354.171,1072.058 1353.05,1072.058 
	1337.136,1104.302 1301.55,1109.473 1301.048,1109.897 1301.204,1110.535 1326.955,1135.637 1320.877,1171.081 1321.126,1171.69 
	1321.781,1171.739 1353.61,1155.003 1385.437,1171.739 1385.727,1171.809 1386.093,1171.69 1386.341,1171.081 1380.263,1135.637 
	1406.015,1110.535 "/>
<polygon style="fill:#FFFFFF;" points="1431.93,1058.139 1431.428,1057.714 1414.475,1055.249 1406.894,1039.89 1405.774,1039.89 
	1398.195,1055.249 1381.243,1057.714 1380.741,1058.139 1380.897,1058.777 1393.162,1070.733 1390.268,1087.617 1390.517,1088.226 
	1391.172,1088.275 1406.334,1080.301 1421.496,1088.275 1421.786,1088.345 1422.151,1088.226 1422.4,1087.617 1419.505,1070.733 
	1431.774,1058.777 "/>
<polygon style="fill:#FFFFFF;" points="1355.991,1033.724 1355.489,1033.3 1346.22,1031.953 1342.076,1023.554 1340.955,1023.554 
	1336.811,1031.953 1327.542,1033.3 1327.04,1033.724 1327.196,1034.362 1333.903,1040.901 1332.319,1050.134 1332.568,1050.742 
	1333.223,1050.791 1341.515,1046.431 1349.808,1050.791 1350.098,1050.862 1350.463,1050.742 1350.712,1050.134 1349.128,1040.901 
	1355.834,1034.362 "/>
<path style="fill:#EC6EA6;" d="M918.785,1060.881c-3.308-28.102-16.354-54.509-36.729-74.351l-0.211-0.204l-0.29,0.029
	c-20.736,2.239-41.805,6.351-68.317,13.332c-6.322,1.676-12.814-2.119-14.478-8.438c-1.666-6.319,2.12-12.813,8.436-14.475
	c16.996-4.483,31.459-7.728,45.515-10.215l1.802-0.319l-1.622-0.848c-17.115-8.945-35.652-13.671-55.098-14.044
	c-39.294-0.69-75.722,16.533-100.046,47.425c-16.843,21.387-26.02,47.116-26.543,74.402c-0.636,33.177,11.685,64.617,34.694,88.524
	c23.011,23.91,53.953,37.427,87.13,38.063c0.792,0.014,1.583,0.022,2.378,0.022c19.179,0,38.256-4.466,55.32-12.968
	c21.016-10.468,38.589-26.606,50.823-46.667l0.122-0.202l-0.419-2.331c-0.616-3.586-1.174-7.189-1.661-10.721
	c-0.565-3.766-1.018-7.718-1.42-11.22c-0.241-1.693-0.424-3.462-0.55-5.289c-0.246-2.09-0.431-4.18-0.617-6.327
	c-0.918-11.827-1.291-24.029-1.108-36.268c0.056-3.793,2.031-7.211,5.286-9.14c3.279-1.947,7.253-2.039,10.639-0.251
	c2.002,1.057,4.027,2.092,6.068,3.111l1.033,0.516L918.785,1060.881z"/>
<g>
	<polygon style="fill:#FFFFFF;" points="848.973,1109.897 848.471,1109.473 812.885,1104.302 796.971,1072.058 795.85,1072.058 
		779.935,1104.302 744.349,1109.473 743.847,1109.897 744.004,1110.535 769.755,1135.637 763.677,1171.081 763.925,1171.69 
		764.581,1171.739 796.41,1155.003 828.24,1171.739 828.529,1171.809 828.895,1171.69 829.143,1171.081 823.065,1135.637 
		848.817,1110.535 	"/>
	<polygon style="fill:#FFFFFF;" points="759.504,1088.226 759.753,1087.617 756.858,1070.733 769.124,1058.777 769.28,1058.139 
		768.778,1057.714 751.826,1055.249 744.247,1039.89 743.687,1039.541 743.127,1039.89 735.545,1055.249 718.593,1057.714 
		718.091,1058.139 718.247,1058.777 730.515,1070.733 727.619,1087.617 727.867,1088.226 728.232,1088.345 728.522,1088.275 
		743.687,1080.301 758.849,1088.275 	"/>
	<polygon style="fill:#FFFFFF;" points="800.893,1040.901 799.309,1050.134 799.557,1050.742 799.923,1050.862 800.213,1050.791 
		808.505,1046.431 816.795,1050.791 817.45,1050.742 817.699,1050.134 816.118,1040.901 822.824,1034.362 822.98,1033.724 
		822.479,1033.3 813.209,1031.953 809.066,1023.554 808.505,1023.205 807.945,1023.554 803.799,1031.953 794.53,1033.3 
		794.028,1033.724 794.184,1034.362 	"/>
</g>
<path style="fill:#5B1849;" d="M1365.686,981.634c-1.761-3.021-4.592-5.177-7.975-6.068c-21.357-5.63-39.349-9.452-56.621-12.029
	c-18.209-2.719-35.627-4.041-53.25-4.041h-0.19c-7.741,0-15.678,0.265-23.625,0.789c38-24.509,81.162-40.502,124.982-46.29
	c7.157-0.948,12.212-7.542,11.264-14.699c-0.458-3.469-2.239-6.551-5.016-8.68c-2.772-2.124-6.204-3.035-9.683-2.589
	c-65.491,8.667-126.765,36.935-177.201,81.751c-4.387,3.898-5.642,10.3-3.052,15.566c2.589,5.265,8.402,8.188,14.192,7.089
	c23.951-4.538,46.273-6.745,68.236-6.748c7.225,0.003,14.57,0.251,21.832,0.74c24.657,1.664,49.778,6.127,81.456,14.468
	c1.111,0.292,2.239,0.439,3.359,0.439c2.287,0,4.543-0.607,6.573-1.788c3.021-1.761,5.177-4.594,6.071-7.978
	C1367.927,988.185,1367.447,984.657,1365.686,981.634z"/>
<path style="fill:#EC642D;" d="M1183.939,1273.539c-26.107-28.551-61.449-46.144-99.515-49.54
	c-47.057-4.312-92.955,13.235-125.956,48.114l-0.027,0.826c4.322,5.235,8.867,10.229,13.513,14.843
	c17.111,16.989,35.942,29.328,55.968,36.672c13.483,4.948,27.449,7.569,41.51,7.795c0.585,0.007,1.164,0.012,1.749,0.012
	c40.811,0,80.797-20.509,112.772-57.898L1183.939,1273.539z"/>
<path style="fill:#5B1849;" d="M1246.592,1062.803c-3.571-2.271-7.995-2.501-11.829-0.638c-1.172,0.575-2.351,1.138-3.535,1.7
	c-14.097,6.675-29.228,12.483-44.969,17.257l-0.443,0.592c-0.368,47.474-50.801,86.098-112.426,86.098
	c-61.992,0-112.426-38.843-112.426-86.585c0-0.911,0-1.822,0.061-2.731l-0.422-0.636c-14.624-4.926-28.809-10.804-42.158-17.464
	c-2.031-1.013-4.046-2.044-6.041-3.096c-3.769-1.993-8.202-1.893-11.856,0.278c-3.632,2.153-5.837,5.966-5.897,10.195
	c-0.185,12.277,0.19,24.519,1.113,36.39c0.185,2.165,0.37,4.265,0.619,6.339c0.124,1.829,0.312,3.627,0.556,5.332
	c0.399,3.496,0.853,7.459,1.42,11.24c0.487,3.537,1.048,7.155,1.669,10.758l0.378,2.107c2.178,11.988,4.921,23.71,8.149,34.838
	l0.046,0.161c0.896,3.106,1.825,6.317,2.86,9.42c1.681,5.094,3.72,11.12,6.115,17.172l0.056,0.146
	c0.651,1.715,1.326,3.488,2.047,5.172c1.841,4.495,3.394,8.051,4.874,11.167c0.663,1.59,1.354,3.079,2.049,4.409
	c9.055,18.916,19.768,35.914,31.844,50.516l0.458,0.227l0.475-0.195c32.743-34.599,78.317-51.966,124.938-47.729
	c37.756,3.367,72.808,20.819,98.707,49.14l0.479,0.176l0.499-0.242c0.422-0.484,0.846-0.969,1.252-1.496
	c0.992-1.176,1.983-2.412,2.972-3.651l0.984-1.23c1.907-2.356,3.786-4.884,5.449-7.123c2.599-3.613,5.135-7.27,7.542-10.88
	c3.542-5.518,6.595-10.614,9.33-15.574c0.784-1.396,1.54-2.789,2.304-4.204l0.977-1.801c2.259-4.438,3.954-7.866,5.496-11.11
	c1.111-2.295,1.978-4.185,2.726-5.944c0.412-0.948,0.826-1.908,1.24-2.868c0.448-1.045,0.899-2.087,1.352-3.125
	c3.267-7.754,6.339-16.041,9.393-25.34c0.682-2.163,1.362-4.329,1.973-6.475c0.677-2.151,1.301-4.394,1.917-6.618
	c2.948-10.461,5.454-21.435,7.45-32.624l1.449-8.587c1.688-11.06,2.914-22.343,3.644-33.542l0.014-0.219
	c0.119-1.786,0.237-3.569,0.295-5.337c0.119-2.085,0.18-4.229,0.241-6.37l0.007-0.231c0.08-1.464,0.107-2.953,0.134-4.436
	c0.015-0.77,0.03-1.54,0.051-2.309C1252.254,1068.959,1250.159,1065.066,1246.592,1062.803z"/>
<path style="fill:#FFFFFF;" d="M1186.812,1081.22l-0.553-0.097c-35.995,10.938-74.144,16.175-113.228,15.579
	c-38.972-0.541-76.797-6.88-112.431-18.841l-0.543,0.073l-0.275,0.475c-0.065,0.938-0.065,1.878-0.065,2.819
	c0,48.431,50.994,87.832,113.673,87.832c62.307,0,113.301-39.179,113.673-87.335L1186.812,1081.22z"/>
<path style="fill:#5B1849;" d="M996.22,969.778c-50.434-44.816-111.71-73.084-177.198-81.751c-3.479-0.448-6.911,0.458-9.686,2.589
	c-2.777,2.129-4.558,5.211-5.016,8.677c-0.458,3.469,0.46,6.909,2.589,9.683c2.127,2.777,5.211,4.558,8.677,5.018
	c43.817,5.788,86.979,21.781,124.979,46.29c-7.949-0.524-15.883-0.789-23.623-0.789h-0.175c-21.026,0-42.053,1.91-64.275,5.837
	c-14.091,2.492-28.585,5.744-45.613,10.234c-3.383,0.892-6.214,3.047-7.975,6.068c-1.762,3.023-2.242,6.551-1.352,9.932
	c0.894,3.383,3.05,6.217,6.071,7.978c2.029,1.181,4.285,1.788,6.572,1.788c1.121,0,2.249-0.146,3.36-0.439
	c26.458-6.967,47.469-11.067,68.131-13.296c11.905-1.284,23.403-1.91,35.157-1.912c21.961,0.003,44.283,2.21,68.236,6.748
	c5.798,1.099,11.602-1.824,14.192-7.089C1001.862,980.078,1000.607,973.676,996.22,969.778z"/>
</svg>
