<?xml version="1.0" encoding="utf-8"?>
<!-- Generator: Adobe Illustrator 27.5.0, SVG Export Plug-In . SVG Version: 6.00 Build 0)  -->
<svg version="1.1" id="Capa_1" xmlns="http://www.w3.org/2000/svg" xmlns:xlink="http://www.w3.org/1999/xlink" x="0px" y="0px"
	 viewBox="0 0 2122 2122" style="enable-background:new 0 0 2122 2122;" xml:space="preserve">
<g>
	<path style="fill:#80BB28;" d="M1899.908,1914.832c-35.844-141.857-101.813-276.024-192.245-391.072
		c-25.733-32.707-53.498-64.003-85.106-91.08c-10.498-8.992-21.367-17.436-32.546-25.388
		c61.678-12.603,119.789-45.279,155.47-96.744c41.595-59.99,46.964-146.302,3.888-205.237
		c-12.981-17.763-29.629-32.476-47.704-45.121c25.968-35.424,43.201-76.775,46.272-120.445
		c5.123-72.818-34.341-149.766-101.476-178.438c-25.335-10.821-53.167-14.665-80.711-15.257c-0.605-0.013-1.208-0.002-1.813-0.012
		c16.476-56.286,15.892-117.71-8.581-170.621c-30.646-66.255-102.333-114.618-174.972-107.347
		c-27.413,2.745-53.646,12.806-78.058,25.574c-56.942,29.781-104.328,74.091-142.344,126.084
		c-2.604-14.87-6.096-29.582-10.704-44.031c-22.178-69.55-71.266-132.604-138.735-160.477
		c-67.469-27.876-152.945-14.753-201.364,39.878c-5.167,5.829-9.821,12.053-14.116,18.527c-0.738-1.311-1.519-2.6-2.269-3.905
		c-1.902-3.31-3.854-6.594-5.831-9.866c-1.316-2.179-2.624-4.361-3.974-6.523c-2.137-3.423-4.345-6.809-6.567-10.189
		c-1.282-1.95-2.535-3.914-3.845-5.849c-2.711-4.003-5.514-7.958-8.348-11.896c-0.901-1.253-1.761-2.529-2.675-3.775
		c-3.783-5.158-7.676-10.259-11.676-15.3c-1.018-1.284-2.095-2.535-3.128-3.812c-3.027-3.739-6.082-7.463-9.232-11.135
		c-1.554-1.811-3.169-3.589-4.753-5.384c-2.732-3.095-5.48-6.181-8.303-9.226c-1.787-1.927-3.619-3.829-5.442-5.735
		c-2.743-2.867-5.515-5.718-8.342-8.539c-1.928-1.924-3.881-3.834-5.849-5.735c-2.862-2.767-5.772-5.506-8.719-8.224
		c-2.008-1.853-4.019-3.704-6.066-5.533c-3.086-2.758-6.24-5.477-9.415-8.182c-2.004-1.708-3.987-3.427-6.027-5.113
		c-3.539-2.926-7.171-5.797-10.82-8.658c-1.774-1.391-3.505-2.807-5.305-4.183c-5.496-4.2-11.092-8.339-16.834-12.392
		c-110.409-77.966-241.673-120.606-372.747-153.59c0.161,2.913,0.326,5.858,0.514,8.776
		c8.918,146.039,48.856,290.117,116.379,419.941c7.561,14.52,15.491,28.871,23.892,42.931
		c-54.531,44.239-84.283,120.6-63.517,187.595c8.156,26.314,23.247,50.015,40.626,71.391c18.946,23.302,40.623,43.882,64.27,61.996
		c-12.473,2.723-24.811,6.091-36.942,10.253c-69.05,23.688-131.018,74.141-157.415,142.202
		c-26.397,68.061-11.415,153.23,44.258,200.448c18.944,16.069,41.513,27.289,64.93,35.725
		c-14.228,34.82-20.879,72.351-16.942,109.744c7.647,72.599,59.917,141.493,131.018,158.026c26.833,6.241,54.911,5.174,82.136,0.96
		c3.631-0.562,7.247-1.182,10.849-1.852c3.74,36.13,15.013,71.135,34.966,101.496c40.09,61.006,118.134,98.255,188.901,80.338
		c26.706-6.762,51.169-20.584,73.427-36.816c20.319-14.816,38.764-31.711,55.612-50.088c3.662,8.692,7.689,17.246,12.118,25.635
		c34.977,66.246,97.004,121.213,172.295,137.471c75.289,16.258,162.467-11.993,203.858-75.596
		c12.173-18.71,20.137-39.607,25.584-61.072c45.063,49.187,100.355,90.514,167.563,121.185
		c122.956,56.139,259.849,73.69,394.767,81.795C1901.343,1920.525,1900.636,1917.665,1899.908,1914.832z"/>
	<path style="fill:#E94691;" d="M1749.369,1105.311c-12.981-17.763-29.629-32.476-47.704-45.121
		c25.968-35.424,43.201-76.775,46.272-120.445c5.123-72.818-34.341-149.766-101.476-178.438
		c-25.335-10.821-53.167-14.665-80.711-15.257c-0.605-0.013-1.208-0.002-1.813-0.012c16.476-56.286,15.892-117.71-8.581-170.621
		c-30.646-66.255-102.333-114.618-174.972-107.347c-27.413,2.745-53.646,12.806-78.058,25.574
		c-56.942,29.781-104.328,74.091-142.344,126.084c-2.604-14.87-6.096-29.582-10.704-44.031
		c-22.178-69.55-71.266-132.604-138.735-160.477c-67.469-27.876-152.945-14.753-201.364,39.878
		c-5.167,5.829-9.821,12.053-14.116,18.527c-0.738-1.311-1.519-2.6-2.269-3.905c0.755,1.315,1.489,2.64,2.233,3.961
		c-10.878,16.41-19.194,34.581-25.834,53.17c-12.723,35.611-19.585,72.677-21.607,110.192c-8.074-5.392-16.309-10.517-24.686-15.371
		c-30.514-17.682-62.992-31.591-97.286-39.851c-70.969-17.093-150.338-7.805-209.152,35.438c-2.305,1.695-4.556,3.465-6.78,5.269
		c-54.531,44.239-84.283,120.6-63.517,187.595c8.156,26.314,23.247,50.015,40.626,71.391c18.946,23.302,40.623,43.882,64.27,61.996
		c-12.473,2.723-24.811,6.091-36.942,10.253c-69.05,23.688-131.018,74.141-157.415,142.202
		c-26.397,68.061-11.415,153.23,44.258,200.448c18.944,16.069,41.513,27.289,64.93,35.725
		c-14.228,34.82-20.879,72.351-16.942,109.744c7.647,72.599,59.917,141.493,131.018,158.026c26.833,6.241,54.911,5.174,82.136,0.96
		c3.631-0.562,7.247-1.182,10.849-1.852c3.74,36.13,15.013,71.135,34.966,101.496c40.09,61.006,118.134,98.255,188.901,80.338
		c26.706-6.762,51.169-20.584,73.427-36.816c20.319-14.816,38.764-31.711,55.612-50.088c3.662,8.692,7.689,17.246,12.118,25.635
		c34.977,66.246,97.004,121.213,172.295,137.471c75.289,16.258,162.467-11.993,203.858-75.596
		c12.173-18.71,20.137-39.607,25.584-61.072c1.541-6.074,2.913-12.186,4.082-18.316c0.524-2.75,0.983-5.503,1.442-8.256
		c49.854,13.542,103.174,13.404,150.889-5.634c7.229-2.884,14.265-6.271,21.089-10.062c57.184-31.771,98.488-93.758,95.476-158.904
		c-1.272-27.52-9.913-54.256-21.352-79.318c-4.7-10.294-9.88-20.31-15.472-30.062c4.731-0.726,9.445-1.576,14.143-2.536
		c61.678-12.603,119.789-45.279,155.47-96.744C1787.077,1250.558,1792.445,1164.247,1749.369,1105.311z"/>
	<path style="fill:#4C4193;" d="M1749.369,1105.311c-12.981-17.763-29.629-32.476-47.704-45.121
		c-4.559-3.189-9.185-6.281-13.894-9.218c-98.341-61.323-221.649-72.07-335.951-52.921c-54.361,9.109-107.2,24.474-159.069,43.114
		c-1.079,0.71-2.181,1.385-3.257,2.099c-3.716,2.464-7.648,4.564-11.729,6.283c-9.422-20.362-22.61-38.609-38.679-53.87
		c-1.544-1.466-3.107-2.91-4.703-4.32c35.292-42.86,73.116-83.379,115.506-119.23c88.028-74.449,198.83-127.992,314.045-126.09
		c16.476-56.286,15.892-117.71-8.581-170.621c-30.646-66.255-102.333-114.618-174.972-107.347
		c-27.413,2.745-53.646,12.806-78.058,25.574c-56.942,29.781-104.328,74.091-142.344,126.084
		c-30.547,41.778-55.056,88.505-73.503,136.731c-19.356,50.604-32.754,103.004-42.905,156.216
		c-0.124,12.153-0.497,24.25-1.04,36.299c-8.096-1.139-16.356-1.767-24.766-1.767c-15.07,0-29.694,1.9-43.656,5.458
		c1.197-11.602,2.246-23.218,3.087-34.85c-13.557-28.812-25.042-52.859-28.169-58.409
		c-35.707-63.389-81.493-121.121-135.242-170.165c-20.714-18.9-42.821-36.588-66.201-52.2c-8.074-5.392-16.309-10.517-24.686-15.371
		c-30.514-17.682-62.992-31.591-97.286-39.851c-70.969-17.093-150.338-7.805-209.152,35.438c-2.305,1.695-4.556,3.465-6.78,5.269
		c-54.531,44.239-84.283,120.6-63.517,187.595c8.156,26.314,23.247,50.015,40.626,71.391c18.946,23.302,40.623,43.882,64.27,61.996
		c58.522-12.777,120.206-10.514,179.484-0.164c71.678,12.512,141.303,36.633,205.464,70.933c3.775,2.018,15.264,9.085,30.529,18.651
		c-6.059,10.099-11.114,20.863-15.074,32.144c-2.883,8.212-5.17,16.698-6.82,25.415c-0.924,4.884-1.688,9.823-2.201,14.841
		c-7.631-0.586-13.188-0.95-15.652-0.99c-72.743-1.167-145.693,9.221-215.159,30.867c-69.695,21.72-137.132,55.591-187.71,108.232
		c-24.528,25.528-44.633,55.914-58.03,88.699c-14.228,34.82-20.879,72.351-16.942,109.744
		c7.647,72.599,59.917,141.493,131.018,158.026c26.833,6.241,54.911,5.174,82.136,0.96c3.631-0.562,7.247-1.182,10.849-1.852
		c-3.775-36.467,0.124-74.081,10.573-109.232c20.801-69.973,65.196-131.001,117.167-182.263
		c45.915-45.289,98.339-83.932,155.043-114.649c10.384,24.207,26.046,45.598,45.521,62.775
		c17.842,15.737,38.882,27.915,62.036,35.435c-13.625,13.133-26.929,26.597-39.879,40.394
		c-16.521,55.58-26.06,113.028-28.093,170.661c-2.3,65.251,5.279,131.855,30.537,191.809c3.662,8.692,7.689,17.246,12.118,25.635
		c34.977,66.246,97.004,121.213,172.295,137.471c75.289,16.258,162.467-11.993,203.858-75.596
		c12.173-18.71,20.137-39.607,25.584-61.072c1.541-6.074,2.913-12.186,4.082-18.316c0.524-2.75,0.983-5.503,1.442-8.256
		c-20.988-5.701-41.376-13.776-60.451-23.968c-64.387-34.402-115.279-90.126-155.087-151.317
		c-39.678-60.991-69.461-128.387-88.07-198.724c-0.784-2.963-2.374-10.624-4.455-21.186c28.655-3.14,55.238-13.142,78.078-28.339
		c18.775-12.492,35.009-28.485,47.785-47.052c12.933-18.797,22.318-40.217,27.177-63.313
		c51.401,12.844,101.836,28.804,150.25,50.363c95.53,42.541,183.723,109.439,235.402,199.555c4.731-0.726,9.445-1.576,14.143-2.536
		c61.678-12.603,119.789-45.279,155.47-96.744C1787.077,1250.558,1792.445,1164.247,1749.369,1105.311z"/>
	<path style="fill:#A1C51A;" d="M713.149,607.074C631.502,486.629,530.337,380.5,422.787,282.498
		c-48.145-43.869-98.931-86.858-153.376-122.844c8.918,146.039,48.856,290.117,116.379,419.941
		c7.561,14.52,15.491,28.871,23.892,42.931c2.224-1.805,4.475-3.575,6.78-5.269c58.814-43.242,138.183-52.531,209.152-35.438
		c34.295,8.26,66.772,22.169,97.286,39.851C719.682,616.782,716.433,611.916,713.149,607.074z"/>
	<path style="fill:#71B62C;" d="M337.642,292.64c-3.744-15.62-3.725-36.933-15.871-48.29c-2.158-2.017-5.842-1.764-7.359,0.948
		c-9.106,16.273,0.996,39.427,6.874,55.724c7.07,19.603,14.865,39.415,28.451,55.469c2.407,2.843,6.531-0.261,5.839-3.398
		C351.052,332.579,342.548,313.108,337.642,292.64z"/>
	<path style="fill:#71B62C;" d="M360.479,393.807c1.218,17.715,10.904,36,20.66,50.521c3.25,4.833,9.888,1.664,9.033-3.807
		c-2.721-17.374-8.042-37.116-19.223-51.05C367.656,385.364,360.131,388.735,360.479,393.807z"/>
	<path style="fill:#A1C51A;" d="M1707.663,1523.76c-25.733-32.707-53.498-64.003-85.106-91.08
		c-10.498-8.992-21.367-17.436-32.546-25.388c-4.698,0.96-9.412,1.81-14.143,2.536c5.592,9.752,10.772,19.768,15.472,30.062
		c11.439,25.062,20.08,51.798,21.352,79.318c3.012,65.146-38.292,127.133-95.476,158.904
		c66.577,52.369,137.064,99.984,209.196,144.455c55.446,34.173,113.323,67,173.496,92.264
		C1864.064,1772.975,1798.095,1638.808,1707.663,1523.76z"/>
	<path style="fill:#71B62C;" d="M1806.845,1793.549c6.896,14.853,11.033,40.036,26.18,47.942c2.03,1.06,5.379,0.738,6.412-1.681
		c6.802-15.91-6.068-35.564-13.937-49.542c-10.75-19.101-23.111-39.802-40.528-53.547c-2.341-1.846-7.347-0.241-5.837,3.399
		C1786.813,1758.645,1798.394,1775.342,1806.845,1793.549z"/>
	<path style="fill:#71B62C;" d="M1756.628,1707.106c4.519,3.861,11.874,0.26,10.254-5.968
		c-4.458-17.145-17.551-33.162-29.795-45.571c-3.316-3.362-9.954,0.034-8.258,4.809
		C1734.638,1676.755,1743.181,1695.613,1756.628,1707.106z"/>
	<path style="fill:#D91A79;" d="M1017.767,947.207c8.41,0,16.67,0.628,24.766,1.767c0.543-12.049,0.916-24.145,1.04-36.299
		c1.219-119.327-18.274-242.6-70.225-348.857c-12.005-24.55-28.105-47.583-42.685-70.686c-0.565-0.894-1.907-0.236-1.554,0.757
		c34.679,97.727,47.366,201.729,50.514,304.986c0.014,0.523,0.029,1.047,0.046,1.569c0.046,1.589,0.09,3.177,0.132,4.763
		c0.976,37.549,0.103,75.145-2.603,112.608c-0.841,11.632-1.889,23.248-3.087,34.85
		C988.073,949.107,1002.697,947.207,1017.767,947.207z"/>
	<path style="fill:#D91A79;" d="M901.258,1255.644c-83.698,91.482-153.984,198.831-189.897,318.088
		c-9.615,31.927-13.844,64.621-18.159,97.395c-0.485,3.674,4.599,5.074,6.09,1.681c7.469-16.992,16.892-33.333,24.763-49.788
		c14.192-29.671,29.661-58.731,46.339-87.079c33.354-56.699,71.547-110.556,114.051-160.76c12.614-14.899,25.61-29.474,38.97-43.708
		c12.95-13.797,26.255-27.261,39.879-40.394C940.139,1283.559,919.1,1271.382,901.258,1255.644z"/>
	<path style="fill:#D91A79;" d="M802.472,1033.891c-129.69-10.672-264.738,0.472-386.253,49.498
		c-30.923,12.475-59.072,29.63-87.34,46.77c-3.169,1.922-1.079,6.763,2.502,5.803c17.927-4.804,36.57-7.676,54.331-11.832
		c32.027-7.493,64.372-13.608,96.923-18.334c65.098-9.454,131.003-13.357,196.764-11.61c38.911,1.035,77.771,4.046,116.373,9.057
		c12.258,1.59,24.782,0.063,36.068-4.977c5.375-2.4,9.555-5.024,12.803-7.78c1.65-8.716,3.937-17.203,6.82-25.415
		C844.713,1049.377,821.564,1035.462,802.472,1033.891z"/>
	<path style="fill:#D91A79;" d="M1177.766,1049.548c4.081-1.718,8.013-3.819,11.729-6.283c1.077-0.714,2.178-1.389,3.257-2.099
		c31.44-20.684,63.889-39.833,97.22-57.306c58.261-30.543,119.145-56.08,181.749-76.278c31.301-10.1,63.036-18.862,95.086-26.248
		c17.773-4.095,35.776-9.732,53.985-13.318c3.637-0.716,3.379-5.983-0.312-6.312c-32.928-2.931-65.756-5.929-99.011-3.503
		c-130.684,9.534-256.828,59.035-368.548,125.761c-4.893,2.922-9.616,7.001-13.835,11.716
		C1155.156,1010.939,1168.344,1029.186,1177.766,1049.548z"/>
	<path style="fill:#D91A79;" d="M1412.473,1537.25c29.764,15.033,61.22,24.891,92.741,34.852c3.535,1.115,5.798-3.646,2.716-5.705
		c-15.43-10.314-29.878-22.444-44.711-33.06c-26.743-19.145-52.663-39.442-77.673-60.801
		c-50.02-42.726-96.394-89.715-138.426-140.319c-24.87-29.944-48.219-61.152-69.895-93.484c-3.939-5.875-8.726-11.111-14.184-15.51
		c-12.776,18.567-29.01,34.561-47.785,47.052c1.577,3.309,3.378,6.402,5.399,9.13
		C1198.113,1383.971,1295.509,1478.183,1412.473,1537.25z"/>
	<path style="fill:#FECA37;" d="M1177.766,1049.548c-9.422-20.362-22.61-38.609-38.679-53.87c-1.544-1.466-3.107-2.91-4.703-4.32
		c-25.234-22.294-56.888-37.465-91.851-42.384c-8.096-1.139-16.356-1.767-24.766-1.767c-15.07,0-29.694,1.9-43.656,5.458
		c-45.551,11.608-83.997,40.962-107.573,80.262c-6.059,10.099-11.114,20.863-15.074,32.144c-2.883,8.212-5.17,16.698-6.82,25.415
		c-0.924,4.884-1.688,9.823-2.201,14.841c-0.609,5.959-0.924,12.006-0.924,18.126c0,24.651,5.078,48.111,14.218,69.416
		c10.384,24.207,26.046,45.598,45.521,62.775c17.842,15.737,38.882,27.915,62.036,35.435c17.159,5.573,35.456,8.622,54.474,8.622
		c6.562,0,13.032-0.388,19.409-1.087c28.655-3.14,55.238-13.142,78.078-28.339c18.775-12.492,35.009-28.485,47.785-47.052
		c12.933-18.797,22.318-40.217,27.177-63.313c2.475-11.765,3.797-23.956,3.797-36.457
		C1194.013,1097.052,1188.168,1072.03,1177.766,1049.548z"/>
	<path style="fill:#7B78B8;" d="M1157.938,725.066c22.65-15.227,37.169-46.287,54.243-67.418
		c18.57-22.981,38.721-44.964,61.362-64.012c50.161-42.197,109.232-64.575,174.745-66.088c6.171-0.144,7.844-9.547,1.494-11.045
		c-62.582-14.775-127.072,11.452-176.631,49.206c-26.543,20.219-49.963,44.083-71.254,69.717
		c-18.682,22.495-48.748,52.056-55.722,80.597C1144.615,722.403,1151.876,729.141,1157.938,725.066z"/>
	<path style="fill:#7B78B8;" d="M1526.141,686.723c25.26-11.727,25.228-53.895,8.117-71.8c-4.292-4.49-11.81,0.153-10.253,5.968
		c2.821,10.523,5.642,21.018,4.655,32.024c-0.945,10.509-5.671,19.428-8.151,29.476
		C1519.659,685.841,1523.165,688.104,1526.141,686.723z"/>
	<path style="fill:#7B78B8;" d="M597.407,650.628c13.506,5.374,27.876,3.859,42.083,7.116c16.244,3.725,31.645,10.392,46.39,18.024
		c25.447,13.172,49.393,29.664,72.183,46.972c22.767,17.294,44.104,36.31,64.514,56.309c19.064,18.682,36.114,42,58.304,56.979
		c4.065,2.746,10.448-1.873,8.633-6.638c-10.197-26.787-33.756-49.625-53.68-69.569c-22.575-22.594-47.123-43.264-72.731-62.329
		c-26.251-19.547-53.932-38.19-84.148-51.035c-23.705-10.078-58.967-23.262-83.379-9.842
		C589.261,640.084,591.67,648.345,597.407,650.628z"/>
	<path style="fill:#7B78B8;" d="M509.178,654.247c6.204-2.039,3.53-10.382-2.629-9.528
		c-64.119,8.906-123.254,69.447-120.874,136.156c0.117,3.262,4.719,3.936,5.691,0.77
		C410.121,720.52,447.078,674.659,509.178,654.247z"/>
	<path style="fill:#7B78B8;" d="M468.404,1304.349c38.797-47.842,87.22-72.505,140.246-100.734
		c7.566-4.029,1.873-13.82-5.384-12.769c-65.462,9.486-126.329,62.838-163.722,114.609
		c-32.185,44.558-79.114,132.589-29.588,180.285c3.013,2.901,8.618,0.036,7.262-4.227
		C397.464,1419.448,429.561,1352.251,468.404,1304.349z"/>
	<path style="fill:#7B78B8;" d="M524.599,1539.255c-16.684-0.105-33.479-4.789-47.062-14.938
		c-6.609-4.936-13.557,5.391-8.465,10.972c14.889,16.327,37.462,21.9,57.635,11.744
		C530.51,1545.116,528.564,1539.279,524.599,1539.255z"/>
	<path style="fill:#7B78B8;" d="M1135.991,1773.739c-16.185-3.186-32.027-7.968-47.265-14.287
		c-32.594-13.518-61.456-34.166-85.291-60.132c-23.581-25.69-40.429-56.672-50.18-90.126c-9.715-33.33-4.48-67.125-11.998-100.076
		c-1.208-5.293-9.328-6.47-11.834-1.547c-15.857,31.136-7.15,75.359,1.776,107.703c9.632,34.899,26.658,67.649,49.306,95.866
		c23.562,29.361,55.084,52.987,89.169,68.821c24.19,11.237,77.142,35.579,101.622,17.184c3.659-2.747,5.184-7.905,1.484-11.505
		C1162.298,1775.437,1150.015,1776.5,1135.991,1773.739z"/>
	<path style="fill:#7B78B8;" d="M1282.471,1731.861c-6.538,4.826-10.694,12.509-16.258,18.39
		c-6.1,6.448-13.186,11.837-20.979,16.066c-7.573,4.11-0.921,14.682,6.621,11.328c9.308-4.138,17.583-9.737,24.599-17.152
		c6.136-6.487,13.096-15.259,12.94-24.658C1289.341,1732.651,1285.404,1729.696,1282.471,1731.861z"/>
	<path style="fill:#7B78B8;" d="M1681.798,1117.806c-26.904-21.734-61.561-32.933-94.09-43.196
		c-78.358-24.721-162.37-38.925-244.606-32.36c-8.974,0.717-8.994,13.257,0,13.971c69.827,5.542,138.923,13.174,206.684,31.752
		c32.278,8.852,66.068,18.56,95.654,34.494c14.765,7.954,29.223,18.397,38.887,32.353c7.824,11.298,9.51,24.784,19.518,34.29
		c3.069,2.916,8.896,2.739,10.972-1.413C1727.335,1162.629,1700.309,1132.763,1681.798,1117.806z"/>
	<path style="fill:#7B78B8;" d="M1677.603,1276.719c-21.425,23.712-44.168,42.974-69.819,61.885
		c-4.512,3.325-2.071,12.387,4.2,9.966c30.794-11.89,57.442-37.946,71.106-67.617
		C1684.633,1277.601,1680.463,1273.557,1677.603,1276.719z"/>
	<path style="fill:#ED84B4;" d="M1008.693,484.058c15.925,10.4,30.521,22.767,43.645,36.521
		c26.078,27.332,40.779,58.66,59.033,91.008c3.439,6.1,11.564,1.671,10.587-4.465c-5.764-36.197-29.101-70.952-53.289-97.607
		c-21.976-24.217-58.246-58.753-91.936-63.325c-7.089-0.962-14.95,7.664-7.956,13.668
		C980.581,469.999,995.626,475.522,1008.693,484.058z"/>
	<path style="fill:#ED84B4;" d="M838.54,486.642c11.817-0.273,20.431-10.519,30.041-16.382
		c12.127-7.396,25.788-12.931,39.384-16.965c7.652-2.27,6.645-15.525-1.971-14.56c-16.241,1.823-30.733,6.153-44.999,14.271
		c-11.03,6.278-26.467,15.023-26.886,29.206C834.038,484.567,836.193,486.696,838.54,486.642z"/>
	<path style="fill:#ED84B4;" d="M372.445,1024.469c17.389-6.604,30.378-21.306,47.766-28.981
		c20.879-9.218,42.926-12.22,65.449-14.653c4.828-0.521,6.853-8.026,1.247-9.203c-36.794-7.719-104.821,7.788-120.226,47.075
		C365.422,1021.913,369.261,1025.679,372.445,1024.469z"/>
	<path style="fill:#ED84B4;" d="M296.477,1106.698c7.026-5.747,12.224-13.35,18.234-20.107c6.355-7.15,13.086-13.813,20.818-19.471
		c5.973-4.37,0.77-14.031-5.931-10.151c-16.704,9.666-37.167,25.225-39.956,45.751
		C289.088,1106.797,293.142,1109.424,296.477,1106.698z"/>
	<path style="fill:#ED84B4;" d="M1317.733,1632.059c-30.526-15.934-60.473-33.074-85.971-56.526
		c-12.409-11.416-23.683-23.971-33.678-37.552c-8.19-11.13-14.305-23.36-25.503-31.639c-2.979-2.202-7.437,0.765-7.308,4.192
		c1.159,30.446,34.273,62.185,55.474,81.359c26.602,24.061,57.559,42.392,92.719,50.285
		C1319.34,1643.499,1323.538,1635.089,1317.733,1632.059z"/>
	<path style="fill:#ED84B4;" d="M1464.483,1639.501c-11.369,2.273-22.178,5.576-33.776,6.758
		c-10.665,1.084-21.213-0.253-31.864,0.443c-5.215,0.341-8.763,8.385-2.967,10.955c22.455,9.956,53.995,4.565,72.998-10.609
		C1472.716,1643.98,1468.429,1638.712,1464.483,1639.501z"/>
	<path style="fill:#ED84B4;" d="M1696.711,929.74c1.201,4.975,8.538,4.758,9.859,0c5.698-20.555,2.565-50.762-10.68-68.005
		c-2.801-3.647-9.181-2.85-9.206,2.495c-0.049,10.548,2.875,21.113,4.687,31.474C1693.352,907.015,1694.017,918.574,1696.711,929.74
		z"/>
	<path style="fill:#ED84B4;" d="M1374.193,824.13c-5.281,2.523-1.547,10.906,3.939,9.342
		c39.564-11.286,80.029-20.945,121.055-24.918c39.167-3.791,77.639-0.514,116.779,1.218c6.879,0.305,8.122-10.104,1.608-11.88
		C1539.459,776.581,1446.461,789.592,1374.193,824.13z"/>
	<path style="fill:#F9D8A2;" d="M883.848,1097.762c0,61.975,50.239,112.216,112.214,112.216s112.217-50.241,112.217-112.216
		c0-61.976-50.241-112.217-112.217-112.217S883.848,1035.787,883.848,1097.762z"/>
</g>
</svg>
