<?xml version="1.0" encoding="utf-8"?>
<!-- Generator: Adobe Illustrator 27.5.0, SVG Export Plug-In . SVG Version: 6.00 Build 0)  -->
<svg version="1.1" xmlns="http://www.w3.org/2000/svg" xmlns:xlink="http://www.w3.org/1999/xlink" x="0px" y="0px"
	 viewBox="0 0 600 600" style="enable-background:new 0 0 600 600;" xml:space="preserve">
<g id="background">
	<rect style="fill:#FFDF78;" width="600" height="600"/>
</g>
<g id="objects">
	<g>
		<ellipse style="fill:#EAC663;" cx="299.998" cy="536.225" rx="135.998" ry="14.208"/>
		<g>
			<path style="fill:#44413F;" d="M299.998,505.648L299.998,505.648c-18,0-25.765-4.43-29.309-11.767l-6.691-13.851h72
				l-6.691,13.851C325.763,501.218,316.998,505.648,299.998,505.648z"/>
			<path style="fill:#575553;" d="M356.998,455.571l-3.309,9.701c-2.752,8.068-9.247,14.363-17.459,16.652
				c-11.618,3.238-25.02,4.857-38.112,4.857c-12.091,0-23.918-1.382-33.828-4.147c-8.323-2.322-14.981-8.564-17.771-16.742
				l-3.521-10.322H356.998z"/>
			<path style="fill:#44413F;" d="M356.998,455.571l-3.31,9.7c-2.75,8.07-9.25,14.36-17.46,16.65c-11.62,3.24-25.02,4.86-38.11,4.86
				c-12.09,0-23.92-1.38-33.83-4.15c-5.34-1.49-9.99-4.59-13.38-8.78c0.77,0.29,1.57,0.55,2.38,0.78
				c9.91,2.77,21.74,4.15,33.83,4.15c13.09,0,26.49-1.62,38.11-4.86c8.21-2.29,14.71-8.58,17.46-16.65l0.58-1.7H356.998z"/>
			<path style="fill:#575553;" d="M367.998,440.271c0,19.677-30.445,25.3-68,25.3s-68-5.622-68-25.3
				c0-13.973,30.445-19.677,68-19.677S367.998,426.298,367.998,440.271z"/>
			<path style="fill:#575553;" d="M371.038,417.26c0,19.677-31.806,25.3-71.04,25.3s-71.04-5.622-71.04-25.3
				c0-13.973,31.806-19.677,71.04-19.677S371.038,403.287,371.038,417.26z"/>
			<path style="fill:#575553;" d="M371.998,395.163c0,20.593-32.235,26.476-72,26.476s-72-5.884-72-26.476
				c0-14.622,32.235-20.593,72-20.593S371.998,380.541,371.998,395.163z"/>
			<path style="fill:#FDC10D;" d="M435.998,184.581c0.22,30.93-9.89,59.48-27.07,82.44c-21.04,28.1-32.93,61.99-32.93,97.1v1.49
				c0,28.96-51.697,37.96-76,37.96c-24.303,0-76-5-76-37.96l0,0c0-35.77-11.98-70.35-33.29-99.08
				c-16.78-22.62-26.71-50.63-26.71-80.96c0-75.44,61.43-136.54,136.99-136C375.018,50.101,435.468,110.551,435.998,184.581z"/>
			<path style="fill:#E59C0C;" d="M435.998,184.581c0.22,30.93-9.89,59.48-27.07,82.44c-21.04,28.1-32.93,61.99-32.93,97.1v1.49
				c0,28.96-51.7,37.96-76,37.96s-76-5-76-37.96c0-11.78-1.3-23.44-3.82-34.8c15.53,12.67,51.03,36.49,87.82,25.76
				c48-14,31-51,65-98c50.61-69.97,35.42-195.85-109.86-203.94c12.02-3.39,24.72-5.15,37.85-5.06
				C375.018,50.101,435.468,110.551,435.998,184.581z"/>
			<path style="fill:#FFDF78;" d="M228.172,216.571c-11.802-32.784-13.211-78.274,44.524-112l-18-25c0,0-100.522,42.079-60.123,151
				L228.172,216.571z"/>
			<path style="fill:#FFDF78;" d="M203.751,251.571c4.169,8.32,9.121,16.983,14.945,26l33-19c0,0-8.231-9.774-16.08-25
				L203.751,251.571z"/>
			<path style="fill:#44413F;" d="M371.998,395.161c0,20.6-32.24,26.48-72,26.48c-34.03,0-62.55-4.31-70.07-18.47
				c12.52,7.8,35.63,10.4,62.07,10.4c39.76,0,72-5.88,72-26.48c0-1.08-0.18-2.11-0.52-3.1
				C368.918,386.941,371.998,390.641,371.998,395.161z"/>
			<path style="fill:#44413F;" d="M371.998,415.741c0,20.6-32.24,26.48-72,26.48c-34.03,0-62.55-4.31-70.07-18.47
				c12.52,7.8,35.63,10.4,62.07,10.4c39.76,0,72-5.88,72-26.48c0-1.08-0.18-2.11-0.52-3.1
				C368.918,407.521,371.998,411.221,371.998,415.741z"/>
			<path style="fill:#44413F;" d="M368.998,439.091c0,20.6-30.878,26.48-68.959,26.48c-32.593,0-59.908-4.31-67.111-18.47
				c11.991,7.8,34.125,10.4,59.449,10.4c38.081,0,68.959-5.88,68.959-26.48c0-1.08-0.172-2.11-0.498-3.1
				C366.048,430.871,368.998,434.571,368.998,439.091z"/>
			<path style="fill:none;stroke:#161721;stroke-width:7;stroke-linecap:round;stroke-linejoin:round;stroke-miterlimit:10;" d="
				M334.918,482.271l-5.61,11.61c-3.55,7.34-12.31,11.77-29.31,11.77c-18,0-25.76-4.43-29.31-11.77l-5.29-10.96"/>
			<path style="fill:none;stroke:#161721;stroke-width:7;stroke-linecap:round;stroke-linejoin:round;stroke-miterlimit:10;" d="
				M243.428,456.821l3.09,9.07c2.79,8.18,9.45,14.42,17.77,16.74c0.37,0.1,0.74,0.2,1.11,0.29c9.68,2.58,21.08,3.86,32.72,3.86
				c12.6,0,25.49-1.5,36.8-4.51c0.44-0.11,0.88-0.23,1.31-0.35c8.21-2.29,14.71-8.58,17.46-16.65l2.88-8.45"/>
			<path style="fill:none;stroke:#161721;stroke-width:7;stroke-linecap:round;stroke-linejoin:round;stroke-miterlimit:10;" d="
				M362.938,431.521c3.26,2.45,5.06,5.36,5.06,8.75c0,7.32-4.21,12.69-11.43,16.55c-12.19,6.53-32.98,8.75-56.57,8.75
				s-44.38-2.22-56.57-8.75c-7.22-3.86-11.43-9.23-11.43-16.55c0-3.39,1.8-6.3,5.06-8.75"/>
			<path style="fill:none;stroke:#161721;stroke-width:7;stroke-linecap:round;stroke-linejoin:round;stroke-miterlimit:10;" d="
				M234.228,408.511c-3.4,2.46-5.27,5.36-5.27,8.75c0,5.97,2.93,10.65,8.1,14.26c11.88,8.31,35.61,11.04,62.94,11.04
				c27.33,0,51.06-2.73,62.94-11.04c5.17-3.61,8.1-8.29,8.1-14.26c0-3.39-1.87-6.29-5.27-8.75"/>
			<path style="fill:none;stroke:#161721;stroke-width:7;stroke-linecap:round;stroke-linejoin:round;stroke-miterlimit:10;" d="
				M365.728,385.351c4.03,2.7,6.27,5.96,6.27,9.81c0,5.41-2.23,9.81-6.23,13.35c-8.73,7.72-25.92,11.37-46.92,12.61
				c-0.01,0-0.03,0-0.04,0c-6,0.36-12.3,0.52-18.81,0.52c-6.51,0-12.81-0.16-18.81-0.52c-0.01,0-0.03,0-0.04,0
				c-21-1.24-38.19-4.89-46.92-12.61c-4-3.54-6.23-7.94-6.23-13.35c0-3.49,1.84-6.49,5.18-9.03"/>
			<path style="fill:none;stroke:#161721;stroke-width:7;stroke-linecap:round;stroke-linejoin:round;stroke-miterlimit:10;" d="
				M435.998,184.581c0.22,30.93-9.89,59.48-27.07,82.44c-21.04,28.1-32.93,61.99-32.93,97.1v1.49c0,28.96-51.697,37.96-76,37.96
				c-24.303,0-76-5-76-37.96l0,0c0-35.77-11.98-70.35-33.29-99.08c-16.78-22.62-26.71-50.63-26.71-80.96
				c0-75.44,61.43-136.54,136.99-136C375.018,50.101,435.468,110.551,435.998,184.581z"/>
		</g>
	</g>
</g>
</svg>
