<?xml version="1.0" encoding="UTF-8"?>
<svg xmlns="http://www.w3.org/2000/svg" xmlns:xlink="http://www.w3.org/1999/xlink" width="2835" height="2835" viewBox="0 0 2835 2835">
<path fill-rule="evenodd" fill="rgb(100%, 100%, 100%)" fill-opacity="1" d="M 0 0.351562 L 2834.648438 0.351562 L 2834.648438 2835 L 0 2835 L 0 0.351562 "/>
<path fill-rule="nonzero" fill="rgb(23.143005%, 49.021912%, 82.8125%)" fill-opacity="1" d="M 1174.480469 1515.410156 C 1289.429688 1420.871094 1383.558594 1165.621094 1290.660156 946.390625 C 1185.859375 699.101562 943.695312 565.460938 749.894531 647.851562 C 556.035156 730.238281 483.90625 997.53125 588.710938 1244.878906 C 681.777344 1464.398438 929.070312 1574.859375 1078.109375 1556.578125 C 1080.699219 1556.28125 1083.121094 1556.75 1085.359375 1558.050781 C 1087.609375 1559.351562 1089.25 1561.179688 1090.261719 1563.601562 C 1091.558594 1566.550781 1091.558594 1569.5 1090.378906 1572.5 C 1089.140625 1575.511719 1087.078125 1577.578125 1084.128906 1578.871094 L 1083.058594 1579.28125 C 1080.121094 1580.578125 1078.050781 1582.710938 1076.871094 1585.660156 C 1075.628906 1588.660156 1075.691406 1591.609375 1076.929688 1594.558594 L 1086.191406 1616.5 C 1087.488281 1619.449219 1089.609375 1621.511719 1092.558594 1622.691406 C 1095.511719 1623.929688 1098.519531 1623.871094 1101.460938 1622.628906 L 1125.230469 1612.488281 C 1132.960938 1654.191406 1145.988281 1694.820312 1162.390625 1733.808594 C 1189.160156 1797.800781 1224.488281 1857.777344 1261.289062 1916.34375 C 1298.210938 1975.203125 1336.960938 2033.003906 1370.289062 2094.046875 C 1403.25 2154.378906 1431.738281 2218.25 1445.539062 2285.957031 C 1452.441406 2319.753906 1455.269531 2354.015625 1455.148438 2388.460938 C 1454.980469 2423.90625 1453.03125 2459.351562 1454.089844 2494.796875 C 1454.390625 2503.347656 1454.800781 2511.902344 1455.511719 2520.453125 C 1456.039062 2527.53125 1463.46875 2532.601562 1470.191406 2531.71875 C 1477.511719 2530.714844 1481.988281 2524.050781 1481.460938 2516.976562 C 1475.921875 2447.554688 1486.230469 2377.847656 1476.089844 2308.660156 C 1465.828125 2239.011719 1440.230469 2172.542969 1408.320312 2110.203125 C 1376.011719 2047.039062 1337.429688 1987.355469 1299.269531 1927.667969 C 1262.769531 1870.460938 1227.089844 1812.480469 1198.480469 1750.789062 C 1176.488281 1703.308594 1158.851562 1653.539062 1149.890625 1602.050781 L 1205.851562 1578.21875 C 1208.800781 1576.988281 1210.871094 1574.859375 1212.050781 1571.910156 C 1213.289062 1568.910156 1213.230469 1565.960938 1211.988281 1563.011719 L 1202.671875 1541.070312 C 1201.429688 1538.121094 1199.308594 1536.050781 1196.359375 1534.820312 C 1193.351562 1533.628906 1190.398438 1533.628906 1187.449219 1534.929688 L 1186.390625 1535.351562 C 1183.441406 1536.640625 1180.5 1536.640625 1177.550781 1535.46875 C 1174.539062 1534.230469 1172.421875 1532.160156 1171.171875 1529.210938 L 1171.058594 1528.980469 C 1170.058594 1526.558594 1169.878906 1524.140625 1170.53125 1521.601562 C 1171.171875 1519.128906 1172.480469 1517.058594 1174.480469 1515.410156 "/>
<path fill-rule="nonzero" fill="rgb(100%, 100%, 100%)" fill-opacity="1" d="M 629.878906 1131.820312 C 626.574219 1123.449219 623.742188 1114.898438 621.324219 1106.160156 L 622.445312 1110.171875 C 617.785156 1093.25 614.898438 1075.96875 613.777344 1058.390625 C 613.421875 1053.5 613.246094 1048.539062 613.246094 1043.589844 C 613.070312 1041.46875 612.359375 1039.519531 611.121094 1037.808594 C 610.175781 1035.921875 608.878906 1034.390625 607.171875 1033.210938 C 605.578125 1031.96875 603.808594 1031.140625 601.804688 1030.789062 C 599.859375 1030.078125 597.851562 1029.96875 595.847656 1030.320312 C 591.839844 1031.03125 587.828125 1032.910156 585.464844 1036.390625 L 583.578125 1039.871094 C 582.515625 1042.351562 582.226562 1045.011719 582.574219 1047.71875 C 582.636719 1060.039062 583.578125 1072.371094 585.464844 1084.578125 C 587.53125 1098.078125 590.597656 1111.300781 594.550781 1124.328125 C 596.554688 1130.941406 598.796875 1137.480469 601.328125 1143.910156 C 602.511719 1146.800781 604.398438 1149.101562 607.050781 1150.808594 C 609.644531 1152.519531 612.539062 1153.351562 615.605469 1153.230469 C 617.726562 1153.410156 619.734375 1153.050781 621.621094 1152.109375 C 625.214844 1150.398438 628.519531 1147.570312 629.9375 1143.671875 C 631.410156 1139.71875 631.410156 1135.769531 629.816406 1131.820312 L 629.878906 1131.820312 "/>
<path fill-rule="nonzero" fill="rgb(100%, 100%, 100%)" fill-opacity="1" d="M 615.253906 969.628906 L 615.253906 972.761719 C 615.253906 951.761719 617.316406 930.878906 621.5625 910.300781 C 622.742188 904.519531 624.039062 898.800781 625.570312 893.140625 L 624.570312 896.96875 C 630.230469 875.378906 637.957031 854.570312 647.804688 834.511719 C 650.578125 828.851562 653.46875 823.308594 656.597656 817.761719 L 654.589844 821.238281 C 665.792969 801.25 678.890625 782.609375 693.808594 765.210938 C 698.054688 760.378906 702.359375 755.601562 706.839844 751 L 704.070312 753.890625 C 719.40625 737.96875 736.273438 723.75 754.558594 711.25 C 759.742188 707.710938 765.054688 704.351562 770.476562 701.160156 L 766.882812 703.230469 C 774.726562 698.628906 782.6875 694.320312 790.945312 690.371094 C 794.777344 688.660156 797.550781 685.828125 799.203125 681.941406 C 800.617188 678.398438 800.796875 673.558594 799.144531 670.078125 C 797.371094 666.480469 794.542969 663.179688 790.648438 661.769531 C 786.933594 660.410156 782.570312 660.109375 778.855469 661.890625 C 755.972656 672.859375 734.621094 686.300781 714.804688 702.171875 C 695.105469 718.089844 677.351562 735.960938 661.488281 755.71875 C 645.742188 775.53125 632.175781 796.710938 620.855469 819.300781 C 609.53125 841.941406 600.800781 865.46875 594.605469 889.949219 C 588.472656 913.371094 585.175781 937.140625 584.582031 961.261719 C 584.464844 965.378906 584.464844 969.570312 584.523438 973.699219 C 584.699219 975.820312 585.410156 977.769531 586.644531 979.480469 C 587.59375 981.371094 588.890625 982.898438 590.597656 984.078125 C 593.546875 986.320312 598.144531 987.679688 601.859375 987.03125 C 605.871094 986.261719 609.886719 984.378906 612.242188 980.898438 L 614.1875 977.46875 C 615.253906 974.941406 615.605469 972.339844 615.253906 969.628906 "/>
<path fill-rule="nonzero" fill="rgb(100%, 40.771484%, 0%)" fill-opacity="1" d="M 1474.261719 1248.238281 C 1607.789062 1182.601562 1757.769531 955.660156 1717.429688 721.039062 C 1671.898438 456.230469 1466.769531 270.570312 1259.230469 306.359375 C 1051.738281 342.171875 920.402344 585.800781 965.875 850.609375 C 1006.269531 1085.640625 1221.78125 1249.828125 1371.050781 1266.289062 C 1373.640625 1266.589844 1375.890625 1267.589844 1377.769531 1269.351562 C 1379.660156 1271.128906 1380.839844 1273.308594 1381.308594 1275.898438 C 1381.839844 1279.03125 1381.191406 1281.921875 1379.371094 1284.570312 C 1377.480469 1287.171875 1375 1288.761719 1371.820312 1289.351562 L 1370.699219 1289.53125 C 1367.511719 1290.058594 1365.039062 1291.648438 1363.210938 1294.308594 C 1361.320312 1296.898438 1360.671875 1299.789062 1361.199219 1302.96875 L 1365.269531 1326.449219 C 1365.800781 1329.570312 1367.398438 1332.109375 1369.988281 1333.941406 C 1372.640625 1335.820312 1375.53125 1336.480469 1378.660156 1335.941406 L 1404.199219 1331.519531 C 1402.191406 1373.800781 1405.671875 1416.390625 1412.628906 1458.140625 C 1424.070312 1526.5 1444.78125 1593.03125 1467.128906 1658.488281 C 1489.648438 1724.25 1514.128906 1789.359375 1532.648438 1856.421875 C 1550.929688 1922.769531 1564.078125 1991.480469 1562.019531 2060.542969 C 1561.019531 2094.988281 1555.949219 2128.960938 1547.921875 2162.519531 C 1539.671875 2196.960938 1529.640625 2231.046875 1522.628906 2265.785156 C 1520.910156 2274.164062 1519.378906 2282.59375 1518.078125 2291.089844 C 1517.019531 2298.046875 1523.101562 2304.710938 1529.820312 2305.417969 C 1537.191406 2306.128906 1543.089844 2300.640625 1544.148438 2293.621094 C 1554.589844 2224.800781 1580.601562 2159.328125 1586.558594 2089.621094 C 1592.511719 2019.496094 1582.78125 1948.898438 1565.96875 1880.898438 C 1548.988281 1811.949219 1524.980469 1745.070312 1501.511719 1678.191406 C 1479.039062 1614.140625 1457.570312 1549.5 1443.890625 1482.96875 C 1433.328125 1431.601562 1427.550781 1379.179688 1430.5 1326.980469 L 1490.421875 1316.660156 C 1493.550781 1316.058594 1496.089844 1314.53125 1497.910156 1311.878906 C 1499.800781 1309.230469 1500.449219 1306.339844 1499.921875 1303.210938 L 1495.851562 1279.738281 C 1495.320312 1276.550781 1493.71875 1274.078125 1491.128906 1272.191406 C 1488.480469 1270.359375 1485.589844 1269.710938 1482.460938 1270.238281 L 1481.339844 1270.421875 C 1478.148438 1270.949219 1475.269531 1270.300781 1472.671875 1268.46875 C 1470.019531 1266.589844 1468.429688 1264.109375 1467.898438 1260.921875 L 1467.839844 1260.691406 C 1467.421875 1258.148438 1467.839844 1255.730469 1469.011719 1253.429688 C 1470.191406 1251.078125 1471.960938 1249.359375 1474.261719 1248.238281 "/>
<path fill-rule="nonzero" fill="rgb(100%, 100%, 100%)" fill-opacity="1" d="M 1031.808594 750 C 1030.511719 741.03125 1029.691406 732.070312 1029.339844 723.050781 L 1029.511719 727.230469 C 1028.859375 709.660156 1029.980469 692.199219 1032.929688 674.800781 C 1033.761719 669.960938 1034.699219 665.128906 1035.820312 660.289062 C 1036.109375 658.171875 1035.878906 656.160156 1035.050781 654.160156 C 1034.640625 652.089844 1033.699219 650.328125 1032.28125 648.789062 C 1029.449219 645.730469 1026.03125 643.949219 1021.898438 643.359375 C 1017.890625 643.128906 1013.53125 644.128906 1010.460938 646.898438 L 1007.75 649.851562 C 1006.21875 652.089844 1005.269531 654.570312 1005.03125 657.289062 C 1002.261719 669.320312 1000.371094 681.519531 999.371094 693.851562 C 998.371094 707.421875 998.25 721.039062 999.195312 734.660156 C 999.609375 741.558594 1000.320312 748.398438 1001.320312 755.25 C 1002.148438 759.371094 1004.269531 762.679688 1007.691406 765.160156 C 1011.171875 767.570312 1014.941406 768.511719 1019.128906 767.929688 C 1023.019531 767.039062 1026.921875 765.039062 1029.160156 761.558594 C 1031.511719 758.078125 1032.339844 754.191406 1031.75 750 L 1031.808594 750 "/>
<path fill-rule="nonzero" fill="rgb(100%, 100%, 100%)" fill-opacity="1" d="M 1054.628906 588.691406 C 1054.691406 588.460938 1054.75 588.160156 1054.808594 587.871094 L 1053.871094 591.820312 C 1058.699219 571.300781 1065.488281 551.480469 1074.328125 532.371094 C 1076.808594 527.058594 1079.410156 521.808594 1082.121094 516.621094 L 1080.289062 520.101562 C 1090.730469 500.398438 1103.058594 481.890625 1117.210938 464.660156 C 1121.21875 459.769531 1125.289062 455.050781 1129.601562 450.390625 L 1126.878906 453.28125 C 1142.398438 436.410156 1159.378906 421.261719 1177.898438 407.808594 C 1183.089844 404.039062 1188.398438 400.378906 1193.820312 396.898438 L 1190.398438 399.078125 C 1209.039062 387.109375 1228.679688 377.140625 1249.320312 369.179688 C 1255.21875 366.941406 1261.171875 364.871094 1267.191406 362.988281 L 1263.238281 364.21875 C 1271.910156 361.511719 1280.699219 359.148438 1289.550781 357.210938 C 1293.730469 356.378906 1297.039062 354.320312 1299.570312 350.898438 C 1301.75 347.769531 1302.988281 343.109375 1302.171875 339.339844 C 1301.339844 335.378906 1299.328125 331.550781 1295.851562 329.308594 C 1292.378906 327.070312 1288.300781 325.828125 1284.289062 326.71875 C 1259.519531 332.078125 1235.640625 340.28125 1212.761719 351.25 C 1189.929688 362.21875 1168.578125 375.550781 1148.589844 391.179688 C 1128.710938 406.800781 1110.730469 424.320312 1094.511719 443.730469 C 1078.339844 463.128906 1064.429688 484.070312 1052.808594 506.480469 C 1041.480469 527.890625 1032.820312 550.238281 1026.738281 573.589844 C 1025.679688 577.601562 1024.730469 581.671875 1023.851562 585.679688 C 1023.550781 587.808594 1023.789062 589.808594 1024.621094 591.820312 C 1025.03125 593.878906 1025.96875 595.648438 1027.390625 597.179688 C 1029.808594 600.019531 1033.929688 602.378906 1037.710938 602.609375 C 1041.78125 602.851562 1046.078125 601.851562 1049.210938 599.070312 L 1051.859375 596.121094 C 1053.460938 593.878906 1054.339844 591.410156 1054.628906 588.691406 "/>
<path fill-rule="nonzero" fill="rgb(76.951599%, 9.790039%, 7.054138%)" fill-opacity="1" d="M 1483.351562 1473.238281 C 1620.761719 1416.390625 1785.191406 1199.640625 1760.128906 962.910156 C 1731.941406 695.679688 1539.199219 497.101562 1329.769531 519.328125 C 1120.398438 541.570312 973.539062 776.179688 1001.789062 1043.351562 C 1026.859375 1280.558594 1231.28125 1458.378906 1379.191406 1484.511719 C 1381.71875 1484.921875 1383.910156 1486.101562 1385.679688 1487.988281 C 1387.449219 1489.871094 1388.449219 1492.121094 1388.738281 1494.710938 C 1389.101562 1497.890625 1388.269531 1500.789062 1386.210938 1503.261719 C 1384.199219 1505.800781 1381.609375 1507.21875 1378.429688 1507.511719 L 1377.300781 1507.628906 C 1374.121094 1507.980469 1371.519531 1509.398438 1369.460938 1511.929688 C 1367.460938 1514.410156 1366.628906 1517.238281 1366.980469 1520.429688 L 1369.460938 1544.128906 C 1369.808594 1547.320312 1371.230469 1549.921875 1373.699219 1551.921875 C 1376.179688 1553.988281 1379.070312 1554.808594 1382.261719 1554.460938 L 1407.96875 1551.738281 C 1403.25 1593.789062 1403.898438 1636.550781 1408.210938 1678.660156 C 1415.230469 1747.609375 1431.5 1815.308594 1449.609375 1882.078125 C 1467.839844 1949.195312 1488.058594 2015.78125 1502.160156 2083.898438 C 1516.078125 2151.25 1524.75 2220.671875 1518.261719 2289.496094 C 1515.019531 2323.820312 1507.761719 2357.441406 1497.558594 2390.347656 C 1487.121094 2424.203125 1474.910156 2457.523438 1465.648438 2491.734375 C 1463.351562 2499.988281 1461.351562 2508.304688 1459.519531 2516.679688 C 1457.980469 2523.578125 1463.589844 2530.65625 1470.25 2531.71875 C 1477.558594 2532.957031 1483.820312 2527.886719 1485.289062 2520.925781 C 1500.210938 2452.921875 1530.410156 2389.285156 1540.851562 2320.046875 C 1551.351562 2250.453125 1546.21875 2179.445312 1533.828125 2110.4375 C 1521.328125 2040.609375 1501.800781 1972.253906 1482.691406 1904.015625 C 1464.410156 1838.667969 1447.191406 1772.789062 1437.820312 1705.441406 C 1430.558594 1653.539062 1428.199219 1600.808594 1434.628906 1548.910156 L 1495.078125 1542.480469 C 1498.269531 1542.128906 1500.859375 1540.710938 1502.871094 1538.238281 C 1504.871094 1535.699219 1505.699219 1532.871094 1505.398438 1529.679688 L 1502.871094 1506.03125 C 1502.570312 1502.789062 1501.160156 1500.199219 1498.621094 1498.191406 C 1496.140625 1496.191406 1493.308594 1495.300781 1490.128906 1495.660156 L 1488.949219 1495.769531 C 1485.761719 1496.128906 1482.929688 1495.300781 1480.460938 1493.238281 C 1477.980469 1491.230469 1476.5 1488.640625 1476.210938 1485.449219 L 1476.210938 1485.21875 C 1475.921875 1482.621094 1476.449219 1480.261719 1477.800781 1478.019531 C 1479.101562 1475.78125 1480.929688 1474.191406 1483.351562 1473.238281 "/>
<path fill-rule="nonzero" fill="rgb(100%, 100%, 100%)" fill-opacity="1" d="M 1074.039062 947.21875 C 1073.328125 938.199219 1073.148438 929.230469 1073.390625 920.210938 L 1073.269531 924.339844 C 1073.738281 906.761719 1075.988281 889.421875 1080.058594 872.261719 C 1081.179688 867.480469 1082.46875 862.710938 1083.890625 857.980469 C 1084.300781 855.859375 1084.179688 853.800781 1083.480469 851.789062 C 1083.179688 849.730469 1082.351562 847.898438 1081.058594 846.25 C 1078.460938 843.070312 1075.160156 841 1071.148438 840.179688 C 1067.078125 839.699219 1062.710938 840.351562 1059.410156 842.949219 L 1056.578125 845.71875 C 1054.871094 847.839844 1053.808594 850.199219 1053.339844 852.910156 C 1049.800781 864.769531 1047.140625 876.800781 1045.378906 889.070312 C 1043.429688 902.511719 1042.488281 916.078125 1042.539062 929.699219 C 1042.539062 936.660156 1042.78125 943.558594 1043.25 950.460938 C 1043.839844 954.648438 1045.730469 958.070312 1049.03125 960.730469 C 1052.339844 963.378906 1056.050781 964.558594 1060.300781 964.210938 C 1064.25 963.621094 1068.199219 961.851562 1070.679688 958.539062 C 1073.210938 955.179688 1074.328125 951.410156 1074.039062 947.160156 L 1074.039062 947.21875 "/>
<path fill-rule="nonzero" fill="rgb(100%, 100%, 100%)" fill-opacity="1" d="M 1107.300781 787.738281 C 1107.359375 787.511719 1107.421875 787.210938 1107.539062 786.980469 L 1106.359375 790.808594 C 1112.488281 770.640625 1120.570312 751.351562 1130.601562 732.828125 C 1133.429688 727.699219 1136.320312 722.628906 1139.449219 717.621094 L 1137.378906 720.980469 C 1149.058594 701.988281 1162.558594 684.359375 1177.78125 668.078125 C 1182.089844 663.421875 1186.511719 658.929688 1191.050781 654.628906 L 1188.21875 657.339844 C 1204.730469 641.539062 1222.660156 627.5 1242.011719 615.230469 C 1247.429688 611.808594 1252.980469 608.511719 1258.640625 605.441406 L 1255.101562 607.328125 C 1274.449219 596.601562 1294.730469 587.929688 1315.851562 581.378906 C 1321.859375 579.488281 1327.878906 577.839844 1334.011719 576.308594 L 1329.941406 577.308594 C 1338.789062 575.128906 1347.699219 573.421875 1356.71875 572 C 1360.910156 571.46875 1364.390625 569.578125 1367.101562 566.339844 C 1369.519531 563.390625 1371.050781 558.789062 1370.460938 555.019531 C 1369.871094 551 1368.101562 547.050781 1364.800781 544.578125 C 1361.5 542.101562 1357.539062 540.628906 1353.480469 541.21875 C 1328.351562 545.050781 1304.050781 551.660156 1280.460938 561.089844 C 1256.988281 570.589844 1234.761719 582.441406 1213.820312 596.710938 C 1193 611.050781 1173.890625 627.320312 1156.429688 645.671875 C 1139.089844 664.011719 1123.878906 684 1110.78125 705.589844 C 1098.160156 726.171875 1088.019531 747.929688 1080.410156 770.878906 C 1079.109375 774.769531 1077.929688 778.78125 1076.691406 782.730469 C 1076.28125 784.859375 1076.398438 786.921875 1077.109375 788.921875 C 1077.398438 790.988281 1078.230469 792.820312 1079.53125 794.46875 C 1081.761719 797.421875 1085.71875 800.128906 1089.488281 800.539062 C 1093.5 801.070312 1097.921875 800.371094 1101.171875 797.769531 L 1104 795 C 1105.710938 792.878906 1106.828125 790.519531 1107.238281 787.800781 L 1107.300781 787.738281 "/>
<path fill-rule="nonzero" fill="rgb(1.959229%, 67.771912%, 33.325195%)" fill-opacity="1" d="M 1842.339844 1540.890625 C 1990.910156 1534.289062 2219.148438 1386.609375 2276.070312 1155.46875 C 2340.351562 894.550781 2226.699219 642.128906 2022.21875 591.640625 C 1817.75 541.160156 1599.949219 711.660156 1535.660156 972.519531 C 1478.628906 1204.128906 1610.320312 1440.980469 1740.550781 1516 C 1742.851562 1517.300781 1744.441406 1519.128906 1745.5 1521.488281 C 1746.5 1523.910156 1746.738281 1526.378906 1746.089844 1528.859375 C 1745.320312 1531.980469 1743.558594 1534.398438 1740.839844 1536.050781 C 1738.070312 1537.710938 1735.121094 1538.179688 1732.058594 1537.410156 L 1730.929688 1537.109375 C 1727.808594 1536.351562 1724.859375 1536.820312 1722.148438 1538.46875 C 1719.371094 1540.121094 1717.609375 1542.539062 1716.839844 1545.609375 L 1711.179688 1568.730469 C 1710.410156 1571.851562 1710.820312 1574.800781 1712.539062 1577.578125 C 1714.179688 1580.289062 1716.550781 1582.058594 1719.671875 1582.820312 L 1744.789062 1589.019531 C 1726.101562 1627 1712.179688 1667.398438 1701.859375 1708.441406 C 1684.988281 1775.679688 1677.378906 1844.921875 1671.660156 1913.863281 C 1665.941406 1983.164062 1662.339844 2052.644531 1652.429688 2121.527344 C 1642.648438 2189.648438 1627.191406 2257.828125 1597.699219 2320.34375 C 1582.960938 2351.480469 1564.738281 2380.613281 1543.96875 2408.101562 C 1522.628906 2436.351562 1499.859375 2463.539062 1479.449219 2492.5 C 1474.558594 2499.519531 1469.78125 2506.652344 1465.238281 2513.90625 C 1461.460938 2519.863281 1464.300781 2528.414062 1470.25 2531.777344 C 1476.679688 2535.375 1484.289062 2532.722656 1488.058594 2526.703125 C 1525.21875 2467.847656 1575.230469 2418.304688 1608.558594 2356.789062 C 1642.050781 2294.921875 1661.398438 2226.390625 1673.25 2157.328125 C 1685.230469 2087.378906 1690.058594 2016.429688 1695.308594 1945.773438 C 1700.328125 1878.066406 1706.519531 1810.238281 1720.609375 1743.71875 C 1731.46875 1692.460938 1747.148438 1642.089844 1770.808594 1595.441406 L 1829.839844 1610.070312 C 1832.910156 1610.839844 1835.851562 1610.371094 1838.628906 1608.71875 C 1841.339844 1607.058594 1843.109375 1604.648438 1843.878906 1601.519531 L 1849.601562 1578.398438 C 1850.359375 1575.328125 1849.890625 1572.378906 1848.238281 1569.609375 C 1846.589844 1566.839844 1844.171875 1565.128906 1841.050781 1564.359375 L 1839.980469 1564.070312 C 1836.859375 1563.300781 1834.441406 1561.53125 1832.789062 1558.761719 C 1831.140625 1556.050781 1830.71875 1553.101562 1831.488281 1549.96875 L 1831.550781 1549.738281 C 1832.140625 1547.199219 1833.441406 1545.140625 1835.441406 1543.488281 C 1837.449219 1541.890625 1839.75 1541.011719 1842.339844 1540.890625 "/>
<path fill-rule="nonzero" fill="rgb(100%, 100%, 100%)" fill-opacity="1" d="M 1636.328125 906.761719 C 1638.75 898.03125 1641.578125 889.539062 1644.878906 881.101562 L 1643.351562 885 C 1649.78125 868.601562 1657.800781 853.089844 1667.421875 838.339844 C 1670.128906 834.21875 1672.960938 830.148438 1675.910156 826.199219 C 1677.03125 824.371094 1677.621094 822.421875 1677.621094 820.238281 C 1678.03125 818.230469 1677.910156 816.171875 1677.261719 814.21875 C 1675.910156 810.328125 1673.488281 807.261719 1669.949219 805.078125 C 1666.351562 803.25 1661.988281 802.371094 1658.039062 803.78125 L 1654.441406 805.378906 C 1652.078125 806.789062 1650.25 808.679688 1648.898438 811.039062 C 1641.578125 820.949219 1634.980469 831.390625 1629.140625 842.300781 C 1622.769531 854.328125 1617.28125 866.78125 1612.679688 879.570312 C 1610.261719 886.058594 1608.199219 892.660156 1606.371094 899.328125 C 1605.488281 903.460938 1606.078125 907.351562 1608.140625 911.070312 C 1610.441406 914.550781 1613.628906 916.910156 1617.640625 918.078125 C 1621.589844 918.851562 1625.890625 918.621094 1629.371094 916.308594 C 1632.910156 914.019531 1635.269531 910.828125 1636.390625 906.761719 L 1636.328125 906.761719 "/>
<path fill-rule="nonzero" fill="rgb(100%, 100%, 100%)" fill-opacity="1" d="M 1721.789062 768.160156 L 1722.261719 767.511719 L 1719.910156 770.699219 C 1732.46875 753.828125 1746.679688 738.441406 1762.371094 724.460938 C 1766.789062 720.570312 1771.28125 716.789062 1775.878906 713.140625 L 1772.75 715.609375 C 1790.210938 701.75 1808.898438 689.78125 1828.78125 679.640625 C 1834.378906 676.808594 1840.101562 674.089844 1845.878906 671.558594 L 1842.230469 673.148438 C 1863.160156 663.890625 1884.808594 656.808594 1907.160156 651.921875 C 1913.410156 650.5 1919.71875 649.320312 1926.089844 648.320312 L 1922.140625 648.96875 C 1944.019531 645.429688 1965.960938 644.191406 1988.078125 645.25 C 1994.390625 645.488281 2000.640625 646.019531 2006.890625 646.671875 L 2002.761719 646.261719 C 2011.789062 647.199219 2020.75 648.621094 2029.710938 650.378906 C 2033.839844 651.328125 2037.738281 650.738281 2041.390625 648.621094 C 2044.640625 646.671875 2047.648438 642.828125 2048.410156 639.058594 C 2049.179688 635.109375 2048.878906 630.800781 2046.640625 627.320312 C 2044.339844 623.898438 2041.160156 621.128906 2037.089844 620.300781 C 2012.199219 615.351562 1987.070312 613.230469 1961.71875 614.109375 C 1936.410156 615 1911.46875 618.601562 1886.988281 624.910156 C 1862.511719 631.269531 1838.980469 640.058594 1816.390625 651.390625 C 1793.871094 662.648438 1772.75 676.28125 1753.109375 692.140625 C 1734.238281 707.179688 1717.308594 724.171875 1702.390625 743.160156 C 1699.851562 746.398438 1697.378906 749.699219 1694.898438 753.058594 C 1693.78125 754.890625 1693.191406 756.839844 1693.128906 759.019531 C 1692.71875 761.019531 1692.890625 763.03125 1693.539062 765.039062 C 1694.601562 768.570312 1697.441406 772.46875 1700.800781 774.179688 C 1704.460938 776.011719 1708.820312 776.828125 1712.769531 775.480469 L 1716.371094 773.878906 C 1718.71875 772.46875 1720.558594 770.578125 1721.851562 768.21875 L 1721.789062 768.160156 "/>
</svg>
