<?xml version="1.0" encoding="UTF-8"?>
<svg xmlns="http://www.w3.org/2000/svg" xmlns:xlink="http://www.w3.org/1999/xlink" width="3000" height="3000" viewBox="0 0 3000 3000">
<rect x="-300" y="-300" width="3600" height="3600" fill="rgb(100%, 100%, 100%)" fill-opacity="1"/>
<path fill-rule="nonzero" fill="rgb(63.084412%, 0%, 0%)" fill-opacity="1" d="M 2123.011719 746.621094 L 2126.851562 745.488281 C 2127.398438 738.109375 2128.851562 729.761719 2131.179688 720.460938 C 2143.839844 678.410156 2149.890625 657.109375 2149.320312 656.539062 L 2158.628906 600.109375 C 2161.03125 584.488281 2163.179688 565.550781 2165.070312 543.28125 C 2169.03125 477.941406 2171.890625 437.570312 2173.648438 422.160156 C 2175.46875 403.941406 2177.980469 387.941406 2181.199219 374.160156 C 2183.429688 362.75 2188.519531 350.160156 2196.480469 336.398438 C 2199.960938 329.769531 2210.339844 318.878906 2227.628906 303.710938 C 2230.171875 301.050781 2233.109375 296.691406 2236.429688 290.628906 C 2245.070312 296.730469 2255.28125 299.441406 2267.039062 298.75 L 2367.238281 287.691406 C 2382.769531 286.160156 2401.300781 285.640625 2422.839844 286.121094 C 2430.398438 285.171875 2482.191406 289.730469 2578.210938 299.800781 C 2597.828125 301.230469 2611.640625 301.808594 2619.628906 301.53125 C 2640.730469 302.058594 2653.199219 297.71875 2657.011719 288.511719 C 2649.96875 268.308594 2596.78125 252.449219 2497.449219 240.960938 C 2440.429688 235.570312 2390.050781 240.980469 2346.308594 257.199219 L 2270.140625 246.660156 L 2254.96875 245.660156 C 2248.019531 245.699219 2238.75 250.269531 2227.160156 259.390625 C 2210.128906 244.148438 2194.488281 239.53125 2180.230469 245.53125 C 2175.460938 246.539062 2164.96875 250.949219 2148.761719 258.738281 C 2132.019531 295.960938 2122.398438 329.960938 2119.898438 360.738281 C 2118.449219 375.738281 2117.660156 392.019531 2117.550781 409.578125 L 2120.171875 551.628906 C 2120.339844 581.691406 2119.679688 608.210938 2118.210938 631.171875 C 2116.179688 662.578125 2112.359375 693.421875 2106.75 723.699219 C 2108.410156 724.640625 2104.75 729.738281 2095.738281 738.988281 C 2099.03125 737.710938 2101.390625 739.820312 2102.820312 745.339844 L 2115.800781 749.320312 L 2123.011719 746.621094 "/>
<path fill-rule="nonzero" fill="rgb(63.084412%, 0%, 0%)" fill-opacity="1" d="M 2131.109375 864.339844 L 2126.390625 870.449219 C 2113.898438 886.039062 2108.140625 897.21875 2109.109375 904 C 2109.539062 908.398438 2112.078125 913.148438 2116.730469 918.238281 C 2122.730469 914.589844 2128.398438 912.710938 2133.761719 912.589844 C 2141.988281 939.921875 2144.828125 964.921875 2142.289062 987.601562 C 2141.019531 1008.589844 2127.101562 1055.800781 2100.53125 1129.210938 L 2113.320312 1126.238281 C 2116.308594 1133.039062 2117.328125 1138.199219 2116.378906 1141.75 L 2089.660156 1167.191406 L 2097.160156 1201.769531 C 2087.390625 1221.371094 2081.351562 1234.429688 2079.03125 1240.929688 C 2076.710938 1247.019531 2074.789062 1255.960938 2073.269531 1267.75 C 2056.371094 1375.039062 2048.128906 1461.570312 2048.539062 1527.359375 C 2049.828125 1579.328125 2051.609375 1610.800781 2053.898438 1621.78125 C 2056.410156 1643.089844 2059.96875 1664.300781 2064.589844 1685.429688 C 2069.238281 1706.539062 2074.539062 1727.601562 2080.480469 1748.589844 C 2102.5 1821.96875 2117.390625 1874.589844 2125.148438 1906.429688 C 2136.46875 1959.679688 2141.910156 1991.820312 2141.488281 2002.855469 C 2144.871094 2046.503906 2142.660156 2090.433594 2134.859375 2134.648438 C 2131.179688 2156.609375 2126.820312 2178.191406 2121.761719 2199.390625 L 2083.601562 2343.242188 L 2077.949219 2367.089844 C 2074.75 2379.824219 2072.410156 2395.980469 2070.941406 2415.566406 C 2069.089844 2438.417969 2073.179688 2457.09375 2083.191406 2471.59375 C 2092.628906 2481.691406 2103.640625 2480.066406 2116.199219 2466.714844 C 2122.320312 2462.148438 2131.238281 2442.238281 2142.949219 2406.988281 L 2213.449219 2147.054688 C 2226.71875 2096.535156 2234.289062 2040.78125 2236.179688 1979.800781 C 2236.488281 1959.351562 2235.761719 1938.191406 2234 1916.339844 C 2234.03125 1905.800781 2229.640625 1872.230469 2220.839844 1815.628906 C 2221.210938 1808.78125 2203.589844 1725.28125 2168.011719 1565.121094 C 2161.390625 1531.089844 2156.878906 1501.75 2154.5 1477.070312 C 2152.128906 1452.398438 2151.019531 1430.539062 2151.179688 1411.46875 L 2157.949219 1175.859375 L 2133.660156 1189.820312 C 2138.429688 1174.128906 2140.910156 1163.429688 2141.109375 1157.710938 C 2141.820312 1152.121094 2140.660156 1143.070312 2137.621094 1130.570312 C 2137.269531 1127.378906 2143.421875 1128.558594 2156.058594 1134.089844 C 2163.628906 1101.640625 2168.300781 1078.601562 2170.078125 1064.949219 C 2172.679688 1046.359375 2174.039062 1028.761719 2174.171875 1012.148438 C 2174.519531 965.890625 2173.859375 938.660156 2172.199219 930.449219 C 2169.730469 899.578125 2166.28125 882.039062 2161.828125 877.839844 C 2156.269531 870.21875 2146.03125 865.71875 2131.109375 864.339844 "/>
<path fill-rule="nonzero" fill="rgb(0%, 0%, 0%)" fill-opacity="1" d="M 2134.46875 949.71875 L 2134.820312 951.679688 C 2136.949219 960.789062 2137.011719 971.871094 2135.019531 984.929688 C 2134.101562 991.769531 2131.191406 1005.621094 2126.300781 1026.480469 L 2123.460938 1027.699219 C 2113.089844 1032.328125 2104.410156 1034.820312 2097.441406 1035.179688 C 2091.390625 1035.628906 2085.128906 1034.460938 2078.648438 1031.660156 C 2077.390625 1031.351562 2073.820312 1029.359375 2067.941406 1025.671875 C 2063.269531 1022.449219 2059.050781 1018.851562 2055.28125 1014.871094 C 2047.75 1006.75 2043.410156 998.808594 2042.261719 991.03125 C 2040.660156 982.148438 2042.5 972.359375 2047.769531 961.660156 C 2050.078125 957.820312 2051.589844 955.601562 2052.289062 955 C 2053.449219 953.628906 2054.730469 952.351562 2056.109375 951.148438 C 2058.878906 948.738281 2062.128906 946.78125 2065.851562 945.261719 C 2085.75 938.28125 2108.621094 939.769531 2134.46875 949.71875 "/>
<path fill-rule="nonzero" fill="rgb(0%, 0%, 0%)" fill-opacity="1" d="M 2045.609375 753.699219 L 2045.929688 752.171875 C 2047.050781 748.121094 2047.121094 743.96875 2046.140625 739.730469 C 2045.289062 736.5 2043.078125 733.210938 2039.519531 729.839844 C 2036.269531 727.140625 2034.148438 725.570312 2033.140625 725.121094 C 2031.5 724.128906 2029.710938 723.210938 2027.769531 722.359375 C 2025.839844 721.511719 2023.761719 720.75 2021.539062 720.070312 L 2018.101562 719.160156 C 2015.761719 718.601562 2013.238281 718.160156 2010.558594 717.828125 C 2007.410156 717.398438 2003.140625 717.191406 1997.730469 717.21875 C 1996.480469 717.140625 1992.859375 717.371094 1986.890625 717.929688 C 1979.648438 718.769531 1973.550781 720.191406 1968.578125 722.191406 C 1966.769531 722.949219 1965.179688 723.78125 1963.828125 724.671875 C 1962.929688 725.050781 1961.308594 726.511719 1958.96875 729.050781 C 1956.828125 731.640625 1955.121094 735.660156 1953.839844 741.078125 C 1973.269531 741.210938 1985.148438 741.488281 1989.488281 741.910156 C 1992.238281 742.121094 1994.269531 742.460938 1995.570312 742.929688 C 1996.570312 743.289062 1997.109375 743.851562 1997.179688 744.609375 C 1999.328125 742.589844 2001.699219 741.28125 2004.308594 740.699219 C 2007.128906 740.078125 2010.859375 740.109375 2015.511719 740.808594 C 2022.28125 741.890625 2027.828125 743.371094 2032.148438 745.21875 C 2036.871094 747.25 2041.359375 750.078125 2045.609375 753.699219 "/>
<path fill-rule="nonzero" fill="rgb(63.084412%, 0%, 0%)" fill-opacity="1" d="M 2012.578125 740.441406 C 2013.558594 740.53125 2014.589844 740.660156 2015.660156 740.820312 C 2022.171875 741.859375 2027.671875 743.328125 2032.148438 745.21875 C 2036.800781 747.230469 2041.21875 750 2045.410156 753.53125 C 2050.109375 763.699219 2053.988281 768.929688 2057.039062 769.210938 C 2057.339844 769.238281 2057.621094 769.230469 2057.890625 769.160156 C 2058.589844 769.429688 2059.570312 769.621094 2060.839844 769.738281 C 2064.230469 770.058594 2069.679688 769.878906 2077.171875 769.210938 C 2083.679688 763.058594 2090.46875 759.738281 2097.539062 759.25 C 2099.691406 759.109375 2101.75 759.140625 2103.71875 759.320312 C 2109.328125 759.851562 2114.210938 761.710938 2118.359375 764.890625 C 2132.148438 778.058594 2140.320312 797.121094 2142.878906 822.070312 C 2147.851562 824.679688 2151.820312 828.589844 2154.78125 833.800781 C 2165.691406 836.46875 2174.921875 841.300781 2182.46875 848.289062 C 2190.699219 855.410156 2202.21875 867.128906 2217.03125 883.441406 C 2246.078125 898 2267.238281 910.960938 2280.519531 922.339844 C 2293.128906 932.289062 2302.910156 948.941406 2309.859375 972.289062 L 2311.21875 976.660156 C 2298.171875 957.921875 2286.199219 945.210938 2275.289062 938.519531 C 2263.480469 930.660156 2243.929688 922.589844 2216.628906 914.308594 C 2223.089844 928.398438 2225.148438 948.308594 2222.800781 974.019531 C 2226.691406 973.371094 2230.828125 973.261719 2235.21875 973.671875 C 2250.109375 975.078125 2267.878906 982.609375 2288.53125 996.261719 C 2281.109375 994.480469 2273.910156 993.261719 2266.949219 992.601562 C 2246.339844 990.648438 2227.738281 993.609375 2211.160156 1001.488281 C 2227.050781 1009.019531 2239.808594 1013.320312 2249.449219 1014.390625 C 2250.449219 1014.550781 2251.519531 1014.691406 2252.648438 1014.789062 C 2261.800781 1015.660156 2275.390625 1014.808594 2293.429688 1012.230469 L 2293.441406 1012.230469 C 2273.878906 1019.460938 2258.691406 1023.179688 2247.859375 1023.371094 C 2243.828125 1023.679688 2238.898438 1023.558594 2233.058594 1023.011719 C 2223.441406 1022.101562 2211.359375 1020.03125 2196.820312 1016.789062 C 2202.421875 1026.558594 2215.28125 1032.390625 2235.390625 1034.289062 C 2237.679688 1034.511719 2240.058594 1034.679688 2242.53125 1034.789062 L 2242.539062 1034.789062 C 2234.089844 1048.960938 2225.949219 1057.460938 2218.109375 1060.320312 C 2210.910156 1063.941406 2196.480469 1065.140625 2174.839844 1063.910156 C 2178.71875 1059.941406 2180.078125 1037.210938 2178.929688 995.730469 C 2177.859375 933.929688 2175.410156 900.089844 2171.570312 894.210938 C 2168.441406 880.398438 2164.929688 872.460938 2161.011719 870.390625 C 2159.398438 868.089844 2148.449219 864.140625 2128.148438 858.558594 C 2111.609375 882.730469 2103.859375 898.578125 2104.921875 906.109375 C 2104.789062 910.488281 2108.089844 915.910156 2114.808594 922.359375 C 2120.171875 919.308594 2125.570312 917.320312 2131 916.390625 L 2135.628906 945.980469 C 2122.589844 941.929688 2110.828125 939.398438 2100.351562 938.410156 C 2065.558594 935.109375 2044.871094 948.75 2038.269531 979.320312 C 2037.308594 1000.640625 2048.230469 1017.988281 2071.019531 1031.339844 C 2076.730469 1035.410156 2083.199219 1037.78125 2090.398438 1038.460938 C 2100.878906 1039.449219 2112.921875 1036.871094 2126.53125 1030.71875 C 2124.019531 1046.351562 2119 1063.238281 2111.480469 1081.398438 C 2071.488281 1102.960938 2023.921875 1111.699219 1968.769531 1107.628906 C 1946.789062 1104.871094 1930.601562 1100.941406 1920.199219 1095.851562 C 1912.441406 1092.210938 1906.128906 1088.5 1901.269531 1084.691406 L 1873.800781 1061.859375 C 1871.550781 1060.570312 1869.121094 1059.609375 1866.5 1058.980469 C 1856.058594 1057.96875 1850.191406 1057.050781 1848.890625 1056.230469 C 1844.730469 1054.871094 1841.660156 1052.769531 1839.679688 1049.921875 C 1838.371094 1048.199219 1837.800781 1045.230469 1837.949219 1041.011719 C 1844.789062 1002.289062 1847.019531 972.101562 1844.640625 950.441406 C 1841.121094 910.820312 1835.359375 886.679688 1827.351562 878 C 1826 876.691406 1824.550781 875.960938 1823 875.820312 C 1820.089844 875.539062 1816.839844 877.289062 1813.21875 881.058594 C 1807.421875 886.929688 1799.128906 899.070312 1788.339844 917.460938 C 1790.308594 848.101562 1803.449219 804.128906 1827.78125 785.570312 C 1838.871094 775.070312 1858.070312 765.371094 1885.378906 756.46875 C 1895.660156 753.28125 1904.378906 750.921875 1911.539062 749.390625 L 1953.890625 740.871094 C 1953.878906 740.941406 1953.859375 741.011719 1953.839844 741.078125 C 1973.109375 741.210938 1984.949219 741.480469 1989.378906 741.898438 C 1989.410156 741.910156 1989.449219 741.910156 1989.488281 741.910156 C 1990.058594 741.941406 1990.589844 741.988281 1991.101562 742.03125 C 1995.109375 742.410156 1997.140625 743.269531 1997.179688 744.609375 C 1999.328125 742.589844 2001.699219 741.28125 2004.308594 740.699219 C 2006.53125 740.210938 2009.289062 740.128906 2012.578125 740.441406 Z M 2012.578125 740.441406 "/>
<path fill-rule="nonzero" fill="rgb(63.084412%, 0%, 0%)" fill-opacity="1" d="M 1827.820312 1022.191406 L 1828.320312 1009.179688 C 1831.648438 958.949219 1824.730469 926.648438 1807.570312 912.28125 C 1796.25 924.941406 1786.910156 939.378906 1779.539062 955.589844 C 1781.308594 942.109375 1776.769531 928.769531 1765.910156 915.589844 C 1746.988281 932.25 1733.410156 941.441406 1725.160156 943.171875 C 1677.191406 940.320312 1629.148438 948.960938 1581.039062 969.078125 C 1554.671875 979.089844 1531.128906 999.210938 1510.429688 1029.460938 C 1500.109375 1046.230469 1492.28125 1062.910156 1486.941406 1079.480469 L 1463.78125 1164.058594 C 1460.519531 1172.390625 1455.421875 1180.460938 1448.46875 1188.269531 C 1444.378906 1192.769531 1439.988281 1195.820312 1435.308594 1197.421875 L 1422.308594 1195.929688 C 1420.710938 1195.871094 1418.019531 1196.328125 1414.21875 1197.289062 L 1410.660156 1203.621094 C 1411.769531 1213.929688 1411 1218.980469 1408.339844 1218.769531 C 1410.511719 1217.871094 1409.859375 1212.660156 1406.398438 1203.148438 C 1399.5 1215.019531 1392.460938 1222.820312 1385.25 1226.539062 L 1373.710938 1231.890625 C 1336.410156 1242.441406 1316.480469 1249.160156 1313.921875 1252.050781 C 1298.121094 1261.339844 1287.148438 1270.441406 1281.03125 1279.359375 C 1264.410156 1295.578125 1252.449219 1334.429688 1245.140625 1395.898438 C 1232.089844 1391.011719 1213.058594 1388.101562 1188.050781 1387.191406 C 1166.808594 1386.070312 1117.410156 1386.070312 1039.859375 1387.191406 C 1104.660156 1426.5 1146.148438 1454.96875 1164.339844 1472.601562 C 1201.71875 1479.941406 1232.320312 1480.28125 1256.160156 1473.601562 C 1258.699219 1447.699219 1264.75 1431.261719 1274.308594 1424.269531 C 1278.519531 1420.480469 1287.820312 1423.238281 1302.199219 1432.539062 C 1302.640625 1426.621094 1316.921875 1425.238281 1345.039062 1428.378906 C 1349.738281 1419.480469 1354.679688 1413.539062 1359.871094 1410.550781 C 1402.480469 1401.160156 1434.578125 1388.699219 1456.171875 1373.148438 C 1469.851562 1363.03125 1478.789062 1349.519531 1482.96875 1332.640625 C 1488.050781 1313.078125 1488.820312 1283.839844 1485.289062 1244.910156 C 1509.171875 1222.378906 1528.449219 1209.808594 1543.128906 1207.210938 C 1566.621094 1200.589844 1602.519531 1199.171875 1650.828125 1202.960938 C 1660.730469 1197.230469 1670.410156 1191.390625 1679.878906 1185.429688 C 1705.71875 1168.929688 1723.101562 1153.351562 1732.011719 1138.699219 C 1739.191406 1130.019531 1749.460938 1104.539062 1762.828125 1062.25 C 1767.691406 1051.570312 1772.609375 1043.679688 1777.601562 1038.570312 C 1792.640625 1021.070312 1809.378906 1015.609375 1827.820312 1022.191406 "/>
<path fill-rule="nonzero" fill="rgb(63.084412%, 0%, 0%)" fill-opacity="1" d="M 1066.828125 1497.128906 L 958.167969 1425.589844 L 940.328125 1434.699219 C 918.273438 1411.871094 899.3125 1396.851562 883.4375 1389.621094 C 868.425781 1381.648438 841.0625 1373.871094 801.347656 1366.300781 C 791.191406 1497.808594 785.296875 1577.371094 783.660156 1605.011719 C 780.757812 1640.761719 775.957031 1695.011719 769.265625 1767.75 C 845.101562 1735.109375 894.152344 1708.371094 916.425781 1687.539062 C 938.347656 1669.121094 955.363281 1644.761719 967.480469 1614.449219 C 978.144531 1588.261719 983.589844 1557.019531 983.808594 1520.71875 L 1066.828125 1497.128906 "/>
<path fill-rule="nonzero" fill="rgb(63.084412%, 0%, 0%)" fill-opacity="1" d="M 724.984375 1367.179688 L 724.324219 1391.320312 C 722.445312 1452.859375 721.582031 1517.808594 721.726562 1586.160156 C 721.546875 1600.609375 721.097656 1615.148438 720.375 1629.78125 C 718.109375 1670.191406 712.667969 1719.539062 704.054688 1777.828125 C 648.464844 1775.058594 608.425781 1771.480469 583.945312 1767.101562 C 575.542969 1766 562.679688 1762.820312 545.351562 1757.558594 C 535.414062 1754.691406 519.136719 1747.691406 496.515625 1736.550781 L 483.65625 1732.710938 C 476.214844 1730.140625 464.640625 1730.199219 448.933594 1732.890625 C 465.25 1724.789062 474.707031 1717.261719 477.300781 1710.28125 L 479.734375 1704.140625 C 481.359375 1674.289062 483.5625 1653.851562 486.347656 1642.820312 C 490.746094 1623.75 495.0625 1609.570312 499.300781 1600.269531 C 510.101562 1572.269531 530.160156 1537.96875 559.472656 1497.371094 C 589.28125 1458.660156 615.039062 1431.078125 636.746094 1414.648438 C 662.582031 1394.550781 691.992188 1378.71875 724.984375 1367.179688 "/>
<path fill-rule="nonzero" fill="rgb(63.084412%, 0%, 0%)" fill-opacity="1" d="M 1455.078125 1388.511719 L 1448.191406 1392.179688 C 1422.390625 1406.679688 1400.378906 1414.011719 1382.148438 1414.191406 C 1387.441406 1438.429688 1392.75 1453.058594 1398.070312 1458.070312 C 1399.71875 1460.308594 1403.359375 1463.238281 1408.988281 1466.871094 C 1424.089844 1468.300781 1434.671875 1471.839844 1440.71875 1477.488281 C 1444.878906 1479.789062 1446.648438 1486.160156 1446.039062 1496.589844 C 1454.328125 1501.03125 1461.371094 1501.179688 1467.140625 1497.039062 C 1466.730469 1506.75 1468.230469 1512.808594 1471.648438 1515.238281 L 1503.859375 1533.070312 C 1500.011719 1520.589844 1500.710938 1516.570312 1505.949219 1521.011719 C 1505.671875 1534.050781 1517.289062 1552.800781 1540.839844 1577.261719 C 1552.691406 1589.539062 1564.941406 1601.28125 1577.578125 1612.480469 C 1604.75 1633.789062 1623.558594 1649.730469 1634.019531 1660.320312 L 1766.371094 1795 L 1851.269531 1875.441406 C 1864.148438 1888.140625 1877.480469 1904.570312 1891.269531 1924.761719 C 1899.128906 1926.640625 1906.390625 1924.371094 1913.058594 1917.921875 L 1925.75 1931 C 1925.769531 1937.648438 1927.578125 1941.679688 1931.191406 1943.089844 C 1932.941406 1944.160156 1936.148438 1945.03125 1940.828125 1945.679688 C 1963.28125 1945.261719 1975.078125 1946.011719 1976.25 1947.921875 C 1981.511719 1950.210938 1986.878906 1954.730469 1992.339844 1961.480469 C 2052.609375 1985.238281 2091.039062 2001.570312 2107.640625 2010.476562 C 2118.808594 2016.15625 2126.730469 2022.167969 2131.421875 2028.519531 L 2126.058594 1996.640625 L 2083.789062 1968.078125 C 2054.320312 1948.640625 2027.199219 1933.328125 2002.429688 1922.148438 C 1984.078125 1913.609375 1970.640625 1911.390625 1962.109375 1915.519531 C 1960.96875 1903.351562 1953.601562 1899.320312 1939.980469 1903.429688 C 1937.808594 1886.660156 1939.238281 1877.621094 1944.25 1876.320312 C 1940.730469 1868.589844 1937.75 1863.578125 1935.320312 1861.269531 C 1931.710938 1856.941406 1924.179688 1853.539062 1912.71875 1851.089844 C 1763.589844 1696.011719 1685.691406 1616.238281 1679.03125 1611.769531 C 1658.320312 1590.949219 1617.539062 1555.910156 1556.679688 1506.660156 C 1539.660156 1491.511719 1531.050781 1481.949219 1530.839844 1477.980469 L 1522.308594 1499.96875 C 1521.371094 1488.191406 1510.25 1479.71875 1488.960938 1474.558594 C 1494.410156 1470.019531 1496.070312 1456.121094 1493.949219 1432.859375 L 1484.890625 1439.308594 C 1484.148438 1430.621094 1474.210938 1413.679688 1455.078125 1388.511719 "/>
<path fill-rule="nonzero" fill="rgb(63.084412%, 0%, 0%)" fill-opacity="1" d="M 1331.960938 1447.488281 L 1325.910156 1449.730469 C 1304.511719 1459.5 1286.910156 1458.710938 1273.128906 1447.351562 C 1265.25 1457.230469 1254.460938 1489.488281 1240.769531 1544.128906 C 1177.078125 1487.109375 1064.191406 1409.960938 902.105469 1312.671875 C 826.148438 1271.171875 781.484375 1257.171875 768.105469 1270.679688 C 765.609375 1274.371094 765.109375 1281.671875 766.617188 1292.570312 C 757.695312 1301.328125 751.136719 1312.761719 746.9375 1326.859375 C 743.300781 1338.839844 740.632812 1356.148438 738.933594 1378.808594 C 736.132812 1411.539062 734.9375 1474.019531 735.339844 1566.261719 L 731.304688 1644.398438 L 691.640625 2161.101562 L 684.765625 2172.851562 L 690.355469 2190.1875 C 690.957031 2239.804688 691.832031 2278.242188 692.972656 2305.511719 C 690.667969 2342.769531 687.941406 2371.128906 684.789062 2390.585938 C 669.359375 2477.304688 652.234375 2541.222656 633.421875 2582.339844 L 640.792969 2601.203125 C 623.007812 2636.140625 611.734375 2660.496094 606.964844 2674.269531 C 603.609375 2684.765625 603.054688 2692.511719 605.304688 2697.515625 C 597.117188 2708.570312 591.753906 2718.761719 589.203125 2728.089844 C 587.347656 2735.800781 586.558594 2745.746094 586.839844 2757.929688 C 572.722656 2770.929688 567.894531 2782.214844 572.355469 2791.789062 C 565.90625 2793.296875 550.066406 2811.085938 524.839844 2845.152344 C 544.273438 2839.605469 576.582031 2841.761719 621.769531 2851.628906 L 580.917969 2835.761719 L 584.679688 2822.335938 C 590.949219 2819.675781 595.054688 2816.984375 596.992188 2814.257812 C 598.40625 2811.972656 598.992188 2808.851562 598.75 2804.886719 L 609.183594 2796.453125 L 618.90625 2774.152344 L 621.9375 2763.074219 C 624.703125 2734.636719 626.679688 2721.472656 627.871094 2723.578125 C 642.394531 2723.257812 649.726562 2721.003906 649.867188 2716.808594 C 651.398438 2715.683594 648.621094 2707.675781 641.542969 2692.785156 C 640.59375 2689.652344 640.414062 2685.773438 641.003906 2681.144531 C 639.292969 2679.402344 647.082031 2661.726562 664.371094 2628.113281 C 666.347656 2623.695312 666.992188 2620.226562 666.300781 2617.707031 C 674.578125 2608.054688 679.621094 2599.058594 681.429688 2590.71875 C 683.035156 2586.03125 680.316406 2580.585938 673.28125 2574.382812 C 692.175781 2491.554688 709.3125 2371.328125 724.699219 2213.699219 C 728.222656 2205.023438 735.550781 2199.070312 746.679688 2195.835938 C 747.980469 2184.117188 748.378906 2175.210938 747.878906 2169.121094 C 747.074219 2161.949219 744.511719 2155.800781 740.191406 2150.671875 L 740.109375 2135.503906 C 740.175781 2083.824219 742.140625 2018.714844 746.011719 1940.179688 C 745.796875 1920.269531 753.847656 1818.03125 770.171875 1633.449219 C 778.085938 1497.359375 784.675781 1399.25 789.941406 1339.121094 C 806.769531 1342.460938 823.625 1341.53125 840.5 1336.320312 C 881.503906 1364.960938 950.257812 1409.089844 1046.75 1468.730469 C 1062.910156 1478.429688 1110.269531 1514.519531 1188.839844 1576.96875 C 1209.828125 1592.378906 1224.441406 1600.570312 1232.660156 1601.558594 C 1244.828125 1603.609375 1252.789062 1597.039062 1256.53125 1581.859375 C 1269.140625 1591.558594 1278.679688 1594.171875 1285.121094 1589.710938 L 1338.820312 1530.371094 C 1349.71875 1515.140625 1347.429688 1487.519531 1331.960938 1447.488281 "/>
<path fill-rule="nonzero" fill="rgb(63.084412%, 0%, 0%)" fill-opacity="1" d="M 1030.179688 1380.378906 L 1101.628906 1377.730469 C 1077.089844 1359.089844 1037.160156 1333.898438 981.835938 1302.160156 C 947.769531 1281.558594 885.84375 1247.929688 796.0625 1201.269531 L 601.039062 1088.628906 C 557.886719 1064.25 509.65625 1044.191406 456.347656 1028.46875 C 424.148438 1049.019531 407.789062 1078.410156 407.269531 1116.609375 C 411.769531 1182.929688 418.390625 1251.558594 427.132812 1322.519531 C 430.804688 1353.109375 436.28125 1373.261719 443.554688 1382.960938 C 436.859375 1412.890625 434.148438 1432.339844 435.429688 1441.320312 L 447.179688 1558.390625 C 450.855469 1587.808594 456.382812 1603.519531 463.761719 1605.511719 C 469.882812 1609.429688 480.421875 1607.988281 495.378906 1601.210938 C 504.753906 1579.148438 512.984375 1562.359375 520.070312 1550.820312 C 509.539062 1502.671875 496.859375 1451.320312 482.027344 1396.78125 C 489.882812 1388.328125 493.253906 1382.621094 492.136719 1379.660156 C 491.921875 1376.480469 486.558594 1372.960938 476.042969 1369.121094 C 474.03125 1364.058594 472.613281 1358.621094 471.792969 1352.808594 L 467.867188 1209.511719 C 465.96875 1181.398438 462.179688 1150.039062 456.5 1115.421875 C 476.238281 1109.179688 499.898438 1112.671875 527.484375 1125.910156 C 534.316406 1128.851562 546.609375 1135.128906 564.359375 1144.761719 L 669.773438 1204.710938 C 690.050781 1215.371094 712.859375 1226.671875 738.203125 1238.601562 L 786.125 1261.070312 C 816.769531 1266.039062 848.039062 1276.671875 879.925781 1292.980469 C 883.53125 1293.890625 915.578125 1312.929688 976.066406 1350.121094 L 1030.179688 1380.378906 "/>
<path fill-rule="nonzero" fill="rgb(63.084412%, 0%, 0%)" fill-opacity="1" d="M 1244.660156 1250.96875 L 1245.429688 1253.890625 C 1249.640625 1269.78125 1254 1277.230469 1258.511719 1276.25 C 1265.429688 1276.519531 1273.578125 1270.171875 1282.960938 1257.21875 C 1287.871094 1249.640625 1292.441406 1239.640625 1296.660156 1227.210938 C 1291.820312 1217.328125 1286.621094 1207.640625 1281.058594 1198.160156 C 1275.511719 1188.671875 1268.890625 1179.78125 1261.210938 1171.5 C 1227.179688 1143.019531 1196.230469 1111.691406 1168.359375 1077.5 C 1104.949219 997.988281 1059.601562 936.460938 1032.308594 892.921875 C 1005.46875 889.089844 988.234375 891.160156 980.617188 899.148438 C 972.175781 905.339844 965.753906 924.480469 961.351562 956.558594 L 1123.710938 1239.441406 L 1175.320312 1214.121094 L 1068.089844 1071.941406 C 1085.320312 1075.410156 1099.328125 1083.058594 1110.121094 1094.890625 C 1116.960938 1101.679688 1124.609375 1110.949219 1133.089844 1122.710938 L 1185.359375 1199.460938 L 1202.320312 1221.820312 C 1217.449219 1239.320312 1231.570312 1249.039062 1244.660156 1250.96875 "/>
<path fill-rule="nonzero" fill="rgb(63.084412%, 0%, 0%)" fill-opacity="1" d="M 1628.519531 935.910156 L 1632.359375 935.300781 C 1659.71875 929.800781 1687.660156 928.539062 1716.191406 931.53125 C 1732.53125 865.320312 1744.871094 828.308594 1753.21875 820.480469 C 1759.308594 813.128906 1765.109375 809.53125 1770.589844 809.691406 C 1778.941406 809.839844 1787.941406 812.261719 1797.609375 816.949219 L 1817.761719 787.25 C 1808.621094 773.328125 1798.308594 764.488281 1786.839844 760.710938 C 1776.890625 756.410156 1754.621094 753.070312 1720 750.679688 C 1679.570312 814.078125 1657.71875 850.25 1654.441406 859.210938 C 1644.769531 877.921875 1636.128906 903.488281 1628.519531 935.910156 "/>
<path fill-rule="nonzero" fill="rgb(63.084412%, 0%, 0%)" fill-opacity="1" d="M 1506.488281 1243.160156 L 1547.519531 1233.589844 C 1637.671875 1212.53125 1700.679688 1198.25 1736.539062 1190.769531 C 1754.820312 1186.691406 1790.171875 1180.109375 1842.601562 1171.019531 L 1898.929688 1159.710938 C 1963.101562 1143.359375 2005.820312 1131.828125 2027.109375 1125.109375 C 2050.320312 1118.140625 2074.320312 1109.121094 2099.140625 1098.078125 C 2087.789062 1130.910156 2083.660156 1159.648438 2086.738281 1184.308594 L 2054.339844 1192.101562 C 2018.058594 1202.710938 1930.128906 1214.671875 1790.550781 1227.988281 C 1777.421875 1234.96875 1760.570312 1240.601562 1739.980469 1244.878906 C 1724.828125 1248.359375 1682.308594 1255.789062 1612.410156 1267.191406 L 1572.601562 1274.859375 C 1563.628906 1290.839844 1554.53125 1298.480469 1545.269531 1297.789062 C 1537.738281 1298.761719 1523.308594 1296.039062 1501.949219 1289.621094 L 1506.488281 1243.160156 "/>
<path fill-rule="nonzero" fill="rgb(63.084412%, 0%, 0%)" fill-opacity="1" d="M 2175.328125 1069.039062 L 2157.609375 1140.871094 L 2142.601562 1132.78125 C 2146.019531 1145.53125 2146.761719 1156.429688 2144.828125 1165.5 C 2153.449219 1161.160156 2159.210938 1157.300781 2162.101562 1153.929688 C 2164.109375 1151.828125 2165.921875 1149.378906 2167.550781 1146.570312 C 2173.289062 1135.351562 2176.910156 1128.941406 2178.410156 1127.339844 C 2181.210938 1123.78125 2184.511719 1121.128906 2188.289062 1119.390625 C 2191.390625 1117.839844 2196.070312 1116.289062 2202.328125 1114.738281 C 2210.660156 1115.589844 2217.25 1115.210938 2222.109375 1113.589844 C 2226.839844 1112.328125 2234.628906 1108.390625 2245.46875 1101.78125 C 2254.230469 1100.46875 2260.640625 1098.851562 2264.710938 1096.929688 C 2271.339844 1094.371094 2281.460938 1087.160156 2295.058594 1075.269531 C 2319.988281 1080.828125 2336.980469 1080.949219 2346.03125 1075.628906 C 2347.21875 1075.320312 2350.699219 1073.339844 2356.449219 1069.679688 C 2377.910156 1052.871094 2390.980469 1043.320312 2395.671875 1041.03125 C 2404.789062 1035.171875 2422.46875 1026.039062 2448.71875 1013.640625 C 2420.558594 1013.148438 2401.851562 1013.851562 2392.578125 1015.71875 C 2386.089844 1016.761719 2380.308594 1018.28125 2375.21875 1020.289062 L 2355.941406 1029.101562 C 2351.570312 1030.800781 2349.03125 1031.589844 2348.320312 1031.46875 C 2346.191406 1031.839844 2343.78125 1031.589844 2341.089844 1030.730469 C 2331.398438 1026.070312 2324.941406 1023.53125 2321.699219 1023.109375 C 2318.070312 1022.398438 2314.128906 1022.429688 2309.910156 1023.179688 C 2304.46875 1024.230469 2298.679688 1026.011719 2292.550781 1028.5 C 2270.421875 1038.410156 2258.660156 1043.289062 2257.289062 1043.160156 C 2251.859375 1044.921875 2246.941406 1044.609375 2242.519531 1042.238281 C 2236.671875 1053.910156 2226.628906 1061.941406 2212.398438 1066.371094 C 2202.710938 1069.808594 2190.351562 1070.699219 2175.328125 1069.039062 "/>
<path fill-rule="nonzero" fill="rgb(100%, 100%, 100%)" fill-opacity="1" d="M 490.445312 1645.160156 L 490.066406 1647.289062 C 487.109375 1662.191406 485.140625 1678.691406 484.164062 1696.800781 C 484.929688 1690.210938 486.324219 1684.660156 488.351562 1680.160156 C 492.078125 1695.820312 495.125 1706.441406 497.488281 1712.019531 C 499.226562 1717.019531 502.394531 1722.921875 506.992188 1729.738281 C 509.578125 1733.480469 513.457031 1738.328125 518.632812 1744.289062 C 524.480469 1748.109375 531.535156 1751.289062 539.804688 1753.820312 C 532.589844 1751.011719 525.945312 1746.628906 519.871094 1740.691406 C 512.515625 1731.191406 507.382812 1723.160156 504.480469 1716.609375 C 500.378906 1707.988281 496.632812 1696.03125 493.242188 1680.71875 C 491.902344 1675.808594 490.96875 1663.960938 490.445312 1645.160156 "/>
<path fill-rule="nonzero" fill="rgb(100%, 100%, 100%)" fill-opacity="1" d="M 531.898438 1576.230469 L 516.128906 1603.960938 C 517.300781 1615 520.691406 1625.941406 526.304688 1636.78125 C 533.3125 1650.910156 544.050781 1668.941406 558.523438 1690.898438 C 573 1712.851562 585.265625 1729.589844 595.316406 1741.121094 C 602.957031 1750.230469 611.421875 1756.828125 620.71875 1760.929688 C 610.667969 1755.128906 600.746094 1745.359375 590.949219 1731.621094 C 579.921875 1715.671875 566.628906 1691.640625 551.070312 1659.53125 C 540.984375 1638.441406 535.222656 1624.089844 533.78125 1616.488281 C 531.832031 1610.238281 531.207031 1596.820312 531.898438 1576.230469 "/>
<path fill-rule="nonzero" fill="rgb(100%, 100%, 100%)" fill-opacity="1" d="M 605.980469 1511.230469 L 605.226562 1516.679688 C 603.4375 1527.421875 602.914062 1538.800781 603.65625 1550.820312 C 604.984375 1561.210938 606.144531 1567.621094 607.144531 1570.070312 C 608.378906 1574.578125 610.003906 1579.289062 612.015625 1584.191406 C 619.0625 1603.308594 641.316406 1637.910156 678.78125 1688 C 645.78125 1634.96875 625.644531 1598.96875 618.382812 1580 C 616.367188 1575.101562 614.660156 1570.449219 613.257812 1566.050781 C 612.257812 1563.601562 610.707031 1557.441406 608.597656 1547.578125 C 606.75 1537.929688 605.878906 1525.808594 605.980469 1511.230469 "/>
<path fill-rule="nonzero" fill="rgb(100%, 100%, 100%)" fill-opacity="1" d="M 1725.171875 1045.679688 L 1715.808594 1048.609375 C 1674.730469 1060.828125 1643 1074 1620.609375 1088.128906 C 1600.289062 1100.289062 1575.738281 1124.089844 1546.980469 1159.550781 C 1561.898438 1136.921875 1574.269531 1120.191406 1584.078125 1109.351562 C 1594.101562 1098.75 1600.339844 1092.660156 1602.808594 1091.070312 C 1607.261719 1087.339844 1611.960938 1083.890625 1616.898438 1080.71875 C 1621.859375 1077.558594 1627.058594 1074.691406 1632.5 1072.089844 C 1634.988281 1070.519531 1643.589844 1067.121094 1658.320312 1061.898438 C 1673.261719 1056.929688 1695.539062 1051.519531 1725.171875 1045.679688 "/>
<path fill-rule="nonzero" fill="rgb(100%, 100%, 100%)" fill-opacity="1" d="M 1738.140625 975.871094 L 1724.410156 977.398438 C 1696.621094 980.109375 1670.230469 984.390625 1645.230469 990.261719 C 1625.179688 996.03125 1613.558594 999.960938 1610.359375 1002.03125 C 1603.121094 1005.21875 1596.308594 1008.898438 1589.921875 1013.058594 C 1583.558594 1017.25 1577.628906 1021.921875 1572.121094 1027.078125 C 1568.941406 1029.179688 1561.449219 1037.789062 1549.628906 1052.890625 C 1538.179688 1068.410156 1524.539062 1092.839844 1508.710938 1126.191406 C 1523.609375 1098.390625 1536.621094 1077.699219 1547.75 1064.121094 C 1559.269531 1050.789062 1566.609375 1043.078125 1569.78125 1040.980469 C 1575.230469 1036.199219 1581.128906 1031.710938 1587.488281 1027.53125 C 1593.878906 1023.359375 1600.71875 1019.5 1608.019531 1015.929688 C 1611.230469 1013.851562 1623 1009.039062 1643.339844 1001.480469 C 1664.089844 994.191406 1695.691406 985.660156 1738.140625 975.871094 "/>
<path fill-rule="nonzero" fill="rgb(100%, 100%, 100%)" fill-opacity="1" d="M 1413.25 1235.109375 L 1418.621094 1245.738281 C 1429.820312 1267.351562 1438.929688 1287.421875 1445.941406 1305.949219 C 1448.128906 1312.011719 1449.839844 1317.730469 1451.101562 1323.109375 L 1452.539062 1330.859375 L 1453.109375 1337.960938 L 1452.71875 1344.371094 L 1451.320312 1350.019531 L 1448.949219 1354.96875 L 1445.710938 1359.269531 C 1443.261719 1361.929688 1440.339844 1364.25 1436.960938 1366.21875 C 1428.75 1371.328125 1413.660156 1375.839844 1391.699219 1379.769531 C 1409.261719 1373.648438 1421.378906 1367.648438 1428.058594 1361.78125 C 1430.800781 1359.488281 1433.191406 1356.910156 1435.210938 1354.039062 L 1437.921875 1349.460938 L 1439.949219 1344.351562 L 1441.238281 1338.640625 L 1441.75 1332.289062 L 1441.511719 1325.359375 L 1440.601562 1317.871094 C 1439.769531 1312.710938 1438.578125 1307.25 1437.039062 1301.5 C 1433.351562 1287.289062 1425.421875 1265.148438 1413.25 1235.109375 "/>
<path fill-rule="nonzero" fill="rgb(100%, 100%, 100%)" fill-opacity="1" d="M 1354.570312 1264.539062 L 1348.800781 1266.929688 C 1337.078125 1271.558594 1326.230469 1276.910156 1316.261719 1283 C 1313 1285.089844 1309.929688 1287.339844 1307.058594 1289.75 L 1302.929688 1293.519531 C 1300.28125 1296.128906 1297.910156 1298.960938 1295.789062 1302.019531 C 1293.691406 1305.089844 1291.871094 1308.378906 1290.308594 1311.898438 L 1288.121094 1317.320312 C 1286.789062 1321.03125 1285.648438 1324.910156 1284.699219 1328.941406 C 1282.238281 1338.960938 1280.289062 1354.25 1278.828125 1374.789062 C 1282.070312 1357.449219 1285.238281 1344.339844 1288.320312 1335.441406 C 1291.589844 1326.640625 1293.75 1321.480469 1294.789062 1319.941406 C 1296.46875 1316.640625 1298.359375 1313.449219 1300.460938 1310.390625 C 1302.570312 1307.328125 1304.890625 1304.390625 1307.410156 1301.558594 C 1308.46875 1300.039062 1312.628906 1296.019531 1319.878906 1289.5 C 1327.308594 1283.078125 1338.871094 1274.761719 1354.570312 1264.539062 "/>
<path fill-rule="nonzero" fill="rgb(100%, 100%, 100%)" fill-opacity="1" d="M 2065.160156 881.578125 L 2056.960938 885.410156 C 2040.441406 893.261719 2024.421875 900.230469 2008.890625 906.351562 C 1996.21875 910.949219 1988.769531 913.46875 1986.519531 913.890625 C 1981.730469 915.25 1977.089844 916.339844 1972.601562 917.171875 C 1968.128906 917.980469 1963.789062 918.53125 1959.621094 918.808594 L 1953.441406 919.070312 C 1949.398438 919.121094 1945.460938 918.980469 1941.628906 918.648438 C 1932.011719 917.910156 1919.378906 915.398438 1903.75 911.109375 C 1918.851562 912.761719 1931.121094 913.488281 1940.558594 913.300781 C 1950.140625 912.960938 1956.050781 912.589844 1958.28125 912.179688 C 1962.429688 911.730469 1966.730469 911.089844 1971.210938 910.269531 C 1988.691406 907.46875 2020.011719 897.910156 2065.160156 881.578125 "/>
<path fill-rule="nonzero" fill="rgb(100%, 100%, 100%)" fill-opacity="1" d="M 2032.070312 795.28125 L 2025.839844 795.328125 C 2013.289062 795.308594 2001.078125 795.78125 1989.21875 796.738281 C 1979.519531 797.808594 1973.789062 798.589844 1972.050781 799.078125 C 1968.359375 799.78125 1964.769531 800.621094 1961.289062 801.621094 C 1957.820312 802.621094 1954.441406 803.769531 1951.179688 805.070312 C 1949.441406 805.570312 1944.730469 807.789062 1937.039062 811.710938 C 1929.429688 815.769531 1919.371094 822.269531 1906.851562 831.230469 C 1930.199219 818.121094 1948.941406 809.699219 1963.078125 805.960938 C 1968.148438 804.289062 1977.328125 802.339844 1990.601562 800.109375 C 2000.148438 798.589844 2013.96875 796.980469 2032.070312 795.28125 "/>
<path fill-rule="nonzero" fill="rgb(100%, 100%, 100%)" fill-opacity="1" d="M 2025.199219 866.570312 L 2019.078125 868.691406 C 1992.109375 878.308594 1971.730469 884.160156 1957.941406 886.25 C 1954.898438 886.691406 1952.019531 886.980469 1949.300781 887.128906 L 1945.308594 887.25 C 1942.730469 887.269531 1940.261719 887.179688 1937.910156 886.980469 C 1931.96875 886.53125 1924.539062 885.078125 1915.628906 882.609375 C 1923.191406 884.53125 1929.710938 885.609375 1935.179688 885.871094 C 1937.339844 885.988281 1939.640625 886.011719 1942.101562 885.941406 L 1945.921875 885.75 C 1948.550781 885.570312 1951.378906 885.261719 1954.421875 884.820312 C 1966.050781 883.390625 1989.640625 877.308594 2025.199219 866.570312 "/>
<path fill-rule="nonzero" fill="rgb(100%, 100%, 100%)" fill-opacity="1" d="M 2009.828125 819.660156 L 2005.769531 819.53125 C 1997.621094 819.179688 1989.558594 819.28125 1981.589844 819.851562 C 1975 820.578125 1971.070312 821.148438 1969.808594 821.558594 C 1967.230469 822.109375 1964.671875 822.800781 1962.140625 823.621094 C 1959.621094 824.460938 1957.121094 825.441406 1954.648438 826.558594 C 1953.390625 826.980469 1949.730469 828.910156 1943.691406 832.359375 C 1937.660156 835.910156 1929.390625 841.691406 1918.871094 849.671875 C 1938.808594 836.980469 1953.839844 829.121094 1963.960938 826.078125 C 1966.488281 825.25 1969.019531 824.53125 1971.558594 823.910156 C 1972.820312 823.5 1976.628906 822.78125 1983 821.75 C 1989.371094 820.820312 1998.308594 820.121094 2009.828125 819.660156 "/>
<path fill-rule="nonzero" fill="rgb(100%, 100%, 100%)" fill-opacity="1" d="M 2010.808594 846.421875 L 2007.621094 847.101562 C 1993.941406 850.058594 1981.621094 852.5 1970.648438 854.390625 C 1961.019531 856.089844 1945.089844 858.488281 1922.878906 861.589844 C 1957.96875 855.289062 1987.289062 850.230469 2010.808594 846.421875 "/>
</svg>
