<?xml version="1.0" encoding="UTF-8"?>
<svg xmlns="http://www.w3.org/2000/svg" xmlns:xlink="http://www.w3.org/1999/xlink" width="2000" height="2000" viewBox="0 0 2000 2000">

<path fill-rule="evenodd" fill="rgb(95.701599%, 96.875%, 98.046875%)" fill-opacity="1" d="M 1908.238281 1915.15625 L 1889.179688 1915.15625 C 1888.300781 1915.15625 1887.589844 1915.871094 1887.589844 1916.746094 L 1887.589844 1935.800781 C 1887.589844 1936.679688 1888.300781 1937.394531 1889.179688 1937.394531 L 1908.238281 1937.394531 C 1909.109375 1937.394531 1909.828125 1936.679688 1909.828125 1935.800781 L 1909.828125 1916.746094 C 1909.828125 1915.871094 1909.109375 1915.15625 1908.238281 1915.15625 "/>
<path fill-rule="evenodd" fill="rgb(95.701599%, 96.875%, 98.046875%)" fill-opacity="1" d="M 1865.28125 1916.171875 L 1847.089844 1916.171875 C 1846.261719 1916.171875 1845.578125 1916.855469 1845.578125 1917.691406 L 1845.578125 1935.875 C 1845.578125 1936.710938 1846.261719 1937.394531 1847.089844 1937.394531 L 1865.28125 1937.394531 C 1866.109375 1937.394531 1866.800781 1936.710938 1866.800781 1935.875 L 1866.800781 1917.691406 C 1866.800781 1916.855469 1866.109375 1916.171875 1865.28125 1916.171875 "/>
<path fill-rule="evenodd" fill="rgb(95.701599%, 96.875%, 98.046875%)" fill-opacity="1" d="M 1822.320312 1917.1875 L 1805.011719 1917.1875 C 1804.210938 1917.1875 1803.558594 1917.839844 1803.558594 1918.636719 L 1803.558594 1935.949219 C 1803.558594 1936.742188 1804.210938 1937.394531 1805.011719 1937.394531 L 1822.320312 1937.394531 C 1823.121094 1937.394531 1823.769531 1936.742188 1823.769531 1935.949219 L 1823.769531 1918.636719 C 1823.769531 1917.839844 1823.121094 1917.1875 1822.320312 1917.1875 "/>
<path fill-rule="evenodd" fill="rgb(95.701599%, 96.875%, 98.046875%)" fill-opacity="1" d="M 1779.371094 1918.207031 L 1762.929688 1918.207031 C 1762.171875 1918.207031 1761.550781 1918.824219 1761.550781 1919.582031 L 1761.550781 1936.019531 C 1761.550781 1936.777344 1762.171875 1937.394531 1762.929688 1937.394531 L 1779.371094 1937.394531 C 1780.121094 1937.394531 1780.738281 1936.777344 1780.738281 1936.019531 L 1780.738281 1919.582031 C 1780.738281 1918.824219 1780.121094 1918.207031 1779.371094 1918.207031 "/>
<path fill-rule="evenodd" fill="rgb(95.701599%, 96.875%, 98.046875%)" fill-opacity="1" d="M 1736.410156 1919.222656 L 1720.839844 1919.222656 C 1720.128906 1919.222656 1719.539062 1919.808594 1719.539062 1920.523438 L 1719.539062 1936.09375 C 1719.539062 1936.808594 1720.128906 1937.394531 1720.839844 1937.394531 L 1736.410156 1937.394531 C 1737.128906 1937.394531 1737.710938 1936.808594 1737.710938 1936.09375 L 1737.710938 1920.523438 C 1737.710938 1919.808594 1737.128906 1919.222656 1736.410156 1919.222656 "/>
<path fill-rule="evenodd" fill="rgb(95.701599%, 96.875%, 98.046875%)" fill-opacity="1" d="M 1693.460938 1920.238281 L 1678.761719 1920.238281 C 1678.078125 1920.238281 1677.53125 1920.792969 1677.53125 1921.46875 L 1677.53125 1936.167969 C 1677.53125 1936.84375 1678.078125 1937.394531 1678.761719 1937.394531 L 1693.460938 1937.394531 C 1694.128906 1937.394531 1694.679688 1936.84375 1694.679688 1936.167969 L 1694.679688 1921.46875 C 1694.679688 1920.792969 1694.128906 1920.238281 1693.460938 1920.238281 "/>
<path fill-rule="evenodd" fill="rgb(95.701599%, 96.875%, 98.046875%)" fill-opacity="1" d="M 1650.5 1921.257812 L 1636.671875 1921.257812 C 1636.039062 1921.257812 1635.519531 1921.777344 1635.519531 1922.414062 L 1635.519531 1936.238281 C 1635.519531 1936.875 1636.039062 1937.394531 1636.671875 1937.394531 L 1650.5 1937.394531 C 1651.140625 1937.394531 1651.648438 1936.875 1651.648438 1936.238281 L 1651.648438 1922.414062 C 1651.648438 1921.777344 1651.140625 1921.257812 1650.5 1921.257812 "/>
<path fill-rule="evenodd" fill="rgb(95.701599%, 96.875%, 98.046875%)" fill-opacity="1" d="M 1607.539062 1922.273438 L 1594.589844 1922.273438 C 1593.988281 1922.273438 1593.511719 1922.761719 1593.511719 1923.355469 L 1593.511719 1936.3125 C 1593.511719 1936.90625 1593.988281 1937.394531 1594.589844 1937.394531 L 1607.539062 1937.394531 C 1608.140625 1937.394531 1608.628906 1936.90625 1608.628906 1936.3125 L 1608.628906 1923.355469 C 1608.628906 1922.761719 1608.140625 1922.273438 1607.539062 1922.273438 "/>
<path fill-rule="evenodd" fill="rgb(95.701599%, 96.875%, 98.046875%)" fill-opacity="1" d="M 1564.589844 1923.292969 L 1552.5 1923.292969 C 1551.949219 1923.292969 1551.488281 1923.746094 1551.488281 1924.300781 L 1551.488281 1936.386719 C 1551.488281 1936.941406 1551.949219 1937.394531 1552.5 1937.394531 L 1564.589844 1937.394531 C 1565.140625 1937.394531 1565.601562 1936.941406 1565.601562 1936.386719 L 1565.601562 1924.300781 C 1565.601562 1923.746094 1565.140625 1923.292969 1564.589844 1923.292969 "/>
<path fill-rule="evenodd" fill="rgb(78.125%, 86.326599%, 93.359375%)" fill-opacity="1" d="M 999.960938 69.859375 C 1511.558594 69.859375 1930.140625 488.441406 1930.140625 1000.039062 C 1930.140625 1511.636719 1511.558594 1930.21875 999.960938 1930.21875 C 488.363281 1930.21875 69.78125 1511.636719 69.78125 1000.039062 C 69.78125 488.441406 488.363281 69.859375 999.960938 69.859375 "/>
<path fill-rule="evenodd" fill="rgb(94.921875%, 87.5%, 82.03125%)" fill-opacity="1" d="M 644.359375 1261.28125 C 782.929688 1021.269531 921.503906 781.261719 1060.070312 541.25 C 978.476562 494.140625 950.519531 389.800781 997.628906 308.199219 C 1044.738281 226.609375 1149.078125 198.648438 1230.671875 245.761719 C 1299.96875 285.769531 1330.570312 367.058594 1309.359375 440.628906 L 1318.050781 445.648438 C 1371.171875 390.488281 1456.859375 376.351562 1526.160156 416.359375 C 1607.761719 463.46875 1635.710938 567.808594 1588.601562 649.398438 C 1541.488281 731 1437.160156 758.960938 1355.558594 711.851562 C 1352.710938 710.199219 1349.929688 708.480469 1347.210938 706.691406 L 1225.410156 917.660156 C 1215.929688 903.371094 1203.078125 891 1187.21875 881.839844 C 1132.359375 850.160156 1062.199219 868.960938 1030.519531 923.828125 C 1009.289062 960.609375 1010.738281 1004.253906 1030.519531 1038.578125 C 1002.878906 1041.808594 977.058594 1057.605469 962.070312 1083.5625 C 944.375 1114.214844 946.496094 1150.871094 964.464844 1178.691406 C 952.378906 1186.328125 941.910156 1196.921875 934.265625 1210.160156 C 909.089844 1253.769531 924.03125 1309.535156 967.640625 1334.714844 C 971.980469 1337.21875 976.4375 1339.320312 980.972656 1341.042969 L 931.210938 1427.226562 C 934.113281 1428.691406 936.996094 1430.234375 939.847656 1431.882812 C 1021.441406 1478.992188 1049.398438 1583.328125 1002.289062 1664.925781 C 955.179688 1746.519531 850.84375 1774.476562 769.246094 1727.367188 C 699.949219 1687.359375 669.351562 1606.074219 690.558594 1532.496094 L 681.871094 1527.480469 C 628.753906 1582.632812 543.058594 1596.777344 473.761719 1556.769531 C 392.164062 1509.660156 364.207031 1405.324219 411.316406 1323.726562 C 458.425781 1242.128906 562.761719 1214.171875 644.359375 1261.28125 "/>
<path fill-rule="evenodd" fill="rgb(91.014099%, 62.304688%, 62.304688%)" fill-opacity="1" d="M 934.265625 1210.160156 C 941.910156 1196.921875 952.378906 1186.328125 964.464844 1178.691406 C 946.496094 1150.871094 944.375 1114.214844 962.070312 1083.5625 C 977.058594 1057.605469 1002.878906 1041.808594 1030.519531 1038.578125 C 1010.738281 1004.253906 1009.289062 960.609375 1030.519531 923.828125 C 1062.199219 868.960938 1132.359375 850.160156 1187.21875 881.839844 C 1241.238281 913.03125 1260.300781 981.511719 1230.640625 1035.980469 C 1243.769531 1037.011719 1256.878906 1040.90625 1269.050781 1047.929688 C 1312.660156 1073.109375 1327.601562 1128.878906 1302.421875 1172.488281 C 1281.140625 1209.339844 1238.03125 1225.71875 1198.859375 1214.722656 C 1198.101562 1228.535156 1194.171875 1242.382812 1186.78125 1255.183594 C 1167.289062 1288.9375 1129.480469 1305.511719 1093.171875 1299.613281 C 1092.851562 1300.191406 1092.53125 1300.769531 1092.199219 1301.339844 C 1067.019531 1344.953125 1011.25 1359.894531 967.640625 1334.714844 C 924.03125 1309.535156 909.089844 1253.769531 934.265625 1210.160156 "/>
<path fill="none" stroke-width="339.998" stroke-linecap="round" stroke-linejoin="round" stroke="rgb(24.31488%, 27.050781%, 30.589294%)" stroke-opacity="1" stroke-miterlimit="22.9256" d="M 6443.59375 7387.1875 C 7829.296875 9787.304688 9215.039062 12187.382812 10600.703125 14587.5 C 9784.765625 15058.59375 9505.195312 16101.992188 9976.289062 16918.007812 C 10447.382812 17733.90625 11490.78125 18013.515625 12306.71875 17542.382812 C 12999.6875 17142.304688 13305.703125 16329.414062 13093.59375 15593.710938 L 13180.507812 15543.515625 C 13711.71875 16095.117188 14568.59375 16236.484375 15261.601562 15836.40625 C 16077.617188 15365.3125 16357.109375 14321.914062 15886.015625 13506.015625 C 15414.882812 12690 14371.601562 12410.390625 13555.585938 12881.484375 C 13527.109375 12898.007812 13499.296875 12915.195312 13472.109375 12933.085938 L 12254.101562 10823.398438 C 12159.296875 10966.289062 12030.78125 11090 11872.1875 11181.601562 C 11323.59375 11498.398438 10621.992188 11310.390625 10305.195312 10761.71875 C 10092.890625 10393.90625 10107.382812 9957.460938 10305.195312 9614.21875 C 10028.789062 9581.914062 9770.585938 9423.945312 9620.703125 9164.375 C 9443.75 8857.851562 9464.960938 8491.289062 9644.648438 8213.085938 C 9523.789062 8136.71875 9419.101562 8030.78125 9342.65625 7898.398438 C 9090.898438 7462.304688 9240.3125 6904.648438 9676.40625 6652.851562 C 9719.804688 6627.8125 9764.375 6606.796875 9809.726562 6589.570312 L 9312.109375 5727.734375 C 9341.132812 5713.085938 9369.960938 5697.65625 9398.476562 5681.171875 C 10214.414062 5210.078125 10493.984375 4166.71875 10022.890625 3350.742188 C 9551.796875 2534.804688 8508.4375 2255.234375 7692.460938 2726.328125 C 6999.492188 3126.40625 6693.515625 3939.257812 6905.585938 4675.039062 L 6818.710938 4725.195312 C 6287.539062 4173.671875 5430.585938 4032.226562 4737.617188 4432.304688 C 3921.640625 4903.398438 3642.070312 5946.757812 4113.164062 6762.734375 C 4584.257812 7578.710938 5627.617188 7858.28125 6443.59375 7387.1875 Z M 6443.59375 7387.1875 " transform="matrix(0.1, 0, 0, -0.1, 0, 2000)"/>
<path fill="none" stroke-width="339.998" stroke-linecap="round" stroke-linejoin="round" stroke="rgb(24.31488%, 27.050781%, 30.589294%)" stroke-opacity="1" stroke-miterlimit="22.9256" d="M 9342.65625 7898.398438 C 9419.101562 8030.78125 9523.789062 8136.71875 9644.648438 8213.085938 C 9464.960938 8491.289062 9443.75 8857.851562 9620.703125 9164.375 C 9770.585938 9423.945312 10028.789062 9581.914062 10305.195312 9614.21875 C 10107.382812 9957.460938 10092.890625 10393.90625 10305.195312 10761.71875 C 10621.992188 11310.390625 11323.59375 11498.398438 11872.1875 11181.601562 C 12412.382812 10869.6875 12603.007812 10184.882812 12306.40625 9640.195312 C 12437.695312 9629.882812 12568.789062 9590.9375 12690.507812 9520.703125 C 13126.601562 9268.90625 13276.015625 8711.210938 13024.21875 8275.117188 C 12811.40625 7906.601562 12380.3125 7742.8125 11988.59375 7852.773438 C 11981.015625 7714.648438 11941.71875 7576.171875 11867.8125 7448.164062 C 11672.890625 7110.625 11294.804688 6944.882812 10931.71875 7003.867188 C 10928.515625 6998.085938 10925.3125 6992.304688 10921.992188 6986.601562 C 10670.195312 6550.46875 10112.5 6401.054688 9676.40625 6652.851562 C 9240.3125 6904.648438 9090.898438 7462.304688 9342.65625 7898.398438 Z M 9342.65625 7898.398438 " transform="matrix(0.1, 0, 0, -0.1, 0, 2000)"/>
</svg>
