<?xml version="1.0" encoding="utf-8"?>
<svg viewBox="946.9000244140625 1076.01416015625 208.7999267578125 223.10009765625" width="208.7999267578125" height="223.10009765625" xmlns="http://www.w3.org/2000/svg"><g transform="matrix(1, 0, 0, 1, 3.410605131648481e-13, -224.38580322265614)">
			<path d="M 1079.5 1398.800048828125 L 1117.5999755859375 1370.4000244140625 L 1155.699951171875 1398.800048828125 Z" class="st51" style="fill: rgb(208, 153, 16);"/>
			<path d="M 1145.9000244140625 1398.800048828125 L 1117.5999755859375 1378 L 1089.4000244140625 1398.800048828125 L 1089.4000244140625 1523.4000244140625 L 1145.9000244140625 1523.4000244140625 Z" class="st40" style="fill: rgb(253, 185, 19);"/>
			<path class="st3" d="M1132.8,1429.5v-18.7c0-8.4-6.8-15.2-15.2-15.2c-8.4,0-15.2,6.8-15.2,15.2v18.7H1132.8z" style="fill: rgb(88, 89, 91);"/>
			<g>
				<path class="st43" d="M1119.9,1420.3c0,1.3-1,2.3-2.3,2.3c-1.3,0-2.3-1-2.3-2.3s1-2.3,2.3-2.3&#10;&#9;&#9;&#9;&#9;&#9;C1118.9,1418,1119.9,1419,1119.9,1420.3z" style="fill: rgb(255, 212, 0);"/>
				<path d="M 1108 1417 H 1127.200001 V 1420.4 H 1108 V 1417 Z" class="st44" style="fill: rgb(252, 175, 23);"/>
				<path class="st43" d="M1127.2,1417c-1.3,0-2.4-1.1-2.4-2.4v-4.9c0-4-3.2-7.2-7.2-7.2c-4,0-7.2,3.2-7.2,7.2v4.9&#10;&#9;&#9;&#9;&#9;&#9;c0,1.3-1.1,2.4-2.4,2.4H1127.2z" style="fill: rgb(255, 212, 0);"/>
			</g>
			<path d="M 974 1363 L 1020.2999877929688 1328.5 L 1066.5999755859375 1363 Z" class="st51" style="fill: rgb(208, 153, 16);"/>
			<path d="M 1054.699951171875 1363 L 1020.2999877929688 1337.800048828125 L 986 1363 L 986 1436.800048828125 L 1054.699951171875 1436.800048828125 Z" class="st40" style="fill: rgb(253, 185, 19);"/>
			<path d="M 949 1447 L 946.9000244140625 1440.4000244140625 L 1020.2999877929688 1417.5999755859375 L 1093.800048828125 1440.4000244140625 L 1091.5999755859375 1447 Z" class="st52" style="fill: rgb(229, 168, 18);"/>
			<path d="M 1089.4000244140625 1447 L 1020.2999877929688 1426.300048828125 L 951.2000122070312 1447 L 951.2000122070312 1523.4000244140625 L 1089.4000244140625 1523.4000244140625 Z" class="st53" style="fill: rgb(255, 197, 78);"/>
			<g>
				<g>
					<path d="M 960 1472.5 H 987.700001 V 1501.9 H 960 V 1472.5 Z" class="st5" style="fill: rgb(255, 255, 255);"/>
					<path d="M 963.400024 1475.900024 H 984.200024 V 1498.400024 H 963.400024 V 1475.900024 Z" class="st15" style="fill: rgb(142, 216, 248);"/>
				</g>
				<g>
					<path d="M 1053 1472.5 H 1080.700001 V 1501.9 H 1053 V 1472.5 Z" class="st5" style="fill: rgb(255, 255, 255);"/>
					<path d="M 1056.400024 1475.900024 H 1077.200024 V 1498.400024 H 1056.400024 V 1475.900024 Z" class="st15" style="fill: rgb(142, 216, 248);"/>
				</g>
			</g>
			<path class="st52" d="M1044.5,1523.4v-43c0-13.4-10.9-24.2-24.2-24.2c-13.4,0-24.2,10.9-24.2,24.2v43H1044.5z" style="fill: rgb(229, 168, 18);"/>
			<path class="st3" d="M1038.8,1400.2v-22.7c0-10.2-8.3-18.4-18.4-18.4c-10.2,0-18.4,8.3-18.4,18.4v22.7H1038.8z" style="fill: rgb(88, 89, 91);"/>
			<g>
				<path class="st40" d="M1019,1463.3c-8.9,0.7-16,8.1-16,17.2v43h16V1463.3z" style="fill: rgb(253, 185, 19);"/>
				<path class="st40" d="M1021.6,1463.3v60.2h16v-43C1037.6,1471.4,1030.6,1463.9,1021.6,1463.3z" style="fill: rgb(253, 185, 19);"/>
			</g>
			<path d="M 1022.4000244140625 1308 L 1022.4000244140625 1300.4000244140625 L 1018.2000122070312 1300.4000244140625 L 1018.2000122070312 1308 L 1010.7000122070312 1308 L 1010.7000122070312 1312.199951171875 L 1018.2000122070312 1312.199951171875 L 1018.2000122070312 1330.5999755859375 L 1022.4000244140625 1330.5999755859375 L 1022.4000244140625 1312.199951171875 L 1029.9000244140625 1312.199951171875 L 1029.9000244140625 1308 Z" class="st51" style="fill: rgb(208, 153, 16);"/>
			<g>
				<path d="M 1023.099988 1389.099976 A 2.8 2.8 0 0 1 1020.299988 1391.899976 A 2.8 2.8 0 0 1 1017.499988 1389.099976 A 2.8 2.8 0 0 1 1020.299988 1386.299976 A 2.8 2.8 0 0 1 1023.099988 1389.099976 Z" class="st43" style="fill: rgb(255, 212, 0);"/>
				<path d="M 1008.700012 1385.099976 H 1032.000011 V 1389.199975 H 1008.700012 V 1385.099976 Z" class="st44" style="fill: rgb(252, 175, 23);"/>
				<path class="st43" d="M1032,1385.1c-1.6,0-2.9-1.3-2.9-2.9v-6c0-4.8-3.9-8.7-8.7-8.7c-4.8,0-8.7,3.9-8.7,8.7v6&#10;&#9;&#9;&#9;&#9;&#9;c0,1.6-1.3,2.9-2.9,2.9H1032z" style="fill: rgb(255, 212, 0);"/>
			</g>
		</g></svg>