<?xml version="1.0" encoding="UTF-8"?>
<svg xmlns="http://www.w3.org/2000/svg" xmlns:xlink="http://www.w3.org/1999/xlink" width="2000" height="2000" viewBox="0 0 2000 2000">
<defs>
<clipPath id="clip-0">
<path clip-rule="nonzero" d="M 600 930 L 844 930 L 844 1019 L 600 1019 Z M 600 930 "/>
</clipPath>
<clipPath id="clip-1">
<path clip-rule="nonzero" d="M 600.566406 955.261719 L 689.003906 1018.03125 L 843.53125 990.820312 L 756.0625 930.558594 Z M 600.566406 955.261719 "/>
</clipPath>
<clipPath id="clip-2">
<path clip-rule="nonzero" d="M 600.566406 955.261719 L 689.003906 1018.03125 L 843.53125 990.820312 L 756.0625 930.558594 L 600.566406 955.261719 "/>
</clipPath>
<linearGradient id="linear-pattern-0" gradientUnits="userSpaceOnUse" x1="0.000000000000000888" y1="0" x2="1" y2="0" gradientTransform="matrix(242.965, 0, 0, 242.965, 600.566, 974.3)">
<stop offset="0" stop-color="rgb(26.501465%, 67.851257%, 80.734253%)" stop-opacity="1"/>
<stop offset="0.0078125" stop-color="rgb(26.469421%, 67.767334%, 80.647278%)" stop-opacity="1"/>
<stop offset="0.015625" stop-color="rgb(26.403809%, 67.596436%, 80.470276%)" stop-opacity="1"/>
<stop offset="0.0234375" stop-color="rgb(26.338196%, 67.428589%, 80.296326%)" stop-opacity="1"/>
<stop offset="0.03125" stop-color="rgb(26.275635%, 67.262268%, 80.123901%)" stop-opacity="1"/>
<stop offset="0.0390625" stop-color="rgb(26.211548%, 67.095947%, 79.953003%)" stop-opacity="1"/>
<stop offset="0.046875" stop-color="rgb(26.147461%, 66.934204%, 79.785156%)" stop-opacity="1"/>
<stop offset="0.0546875" stop-color="rgb(26.0849%, 66.772461%, 79.618835%)" stop-opacity="1"/>
<stop offset="0.0625" stop-color="rgb(26.023865%, 66.612244%, 79.454041%)" stop-opacity="1"/>
<stop offset="0.0703125" stop-color="rgb(25.96283%, 66.455078%, 79.290771%)" stop-opacity="1"/>
<stop offset="0.078125" stop-color="rgb(25.901794%, 66.297913%, 79.129028%)" stop-opacity="1"/>
<stop offset="0.0859375" stop-color="rgb(25.842285%, 66.143799%, 78.968811%)" stop-opacity="1"/>
<stop offset="0.09375" stop-color="rgb(25.782776%, 65.991211%, 78.811646%)" stop-opacity="1"/>
<stop offset="0.101562" stop-color="rgb(25.724792%, 65.838623%, 78.656006%)" stop-opacity="1"/>
<stop offset="0.109375" stop-color="rgb(25.666809%, 65.689087%, 78.501892%)" stop-opacity="1"/>
<stop offset="0.117188" stop-color="rgb(25.608826%, 65.541077%, 78.349304%)" stop-opacity="1"/>
<stop offset="0.125" stop-color="rgb(25.553894%, 65.396118%, 78.199768%)" stop-opacity="1"/>
<stop offset="0.132812" stop-color="rgb(25.498962%, 65.25116%, 78.050232%)" stop-opacity="1"/>
<stop offset="0.140625" stop-color="rgb(25.444031%, 65.107727%, 77.903748%)" stop-opacity="1"/>
<stop offset="0.15625" stop-color="rgb(25.361633%, 64.897156%, 77.687073%)" stop-opacity="1"/>
<stop offset="0.171875" stop-color="rgb(25.256348%, 64.620972%, 77.403259%)" stop-opacity="1"/>
<stop offset="0.1875" stop-color="rgb(25.151062%, 64.350891%, 77.125549%)" stop-opacity="1"/>
<stop offset="0.203125" stop-color="rgb(25.05188%, 64.08844%, 76.855469%)" stop-opacity="1"/>
<stop offset="0.21875" stop-color="rgb(24.952698%, 63.832092%, 76.591492%)" stop-opacity="1"/>
<stop offset="0.234375" stop-color="rgb(24.856567%, 63.581848%, 76.333618%)" stop-opacity="1"/>
<stop offset="0.25" stop-color="rgb(24.763489%, 63.336182%, 76.081848%)" stop-opacity="1"/>
<stop offset="0.265625" stop-color="rgb(24.671936%, 63.098145%, 75.837708%)" stop-opacity="1"/>
<stop offset="0.28125" stop-color="rgb(24.581909%, 62.866211%, 75.59967%)" stop-opacity="1"/>
<stop offset="0.296875" stop-color="rgb(24.494934%, 62.638855%, 75.367737%)" stop-opacity="1"/>
<stop offset="0.3125" stop-color="rgb(24.412537%, 62.420654%, 75.141907%)" stop-opacity="1"/>
<stop offset="0.328125" stop-color="rgb(24.330139%, 62.205505%, 74.92218%)" stop-opacity="1"/>
<stop offset="0.34375" stop-color="rgb(24.250793%, 61.997986%, 74.708557%)" stop-opacity="1"/>
<stop offset="0.359375" stop-color="rgb(24.172974%, 61.795044%, 74.502563%)" stop-opacity="1"/>
<stop offset="0.375" stop-color="rgb(24.098206%, 61.59668%, 74.299622%)" stop-opacity="1"/>
<stop offset="0.390625" stop-color="rgb(24.024963%, 61.405945%, 74.104309%)" stop-opacity="1"/>
<stop offset="0.40625" stop-color="rgb(23.954773%, 61.221313%, 73.9151%)" stop-opacity="1"/>
<stop offset="0.421875" stop-color="rgb(23.886108%, 61.04126%, 73.730469%)" stop-opacity="1"/>
<stop offset="0.4375" stop-color="rgb(23.820496%, 60.86731%, 73.553467%)" stop-opacity="1"/>
<stop offset="0.453125" stop-color="rgb(23.756409%, 60.697937%, 73.381042%)" stop-opacity="1"/>
<stop offset="0.46875" stop-color="rgb(23.693848%, 60.534668%, 73.213196%)" stop-opacity="1"/>
<stop offset="0.484375" stop-color="rgb(23.634338%, 60.377502%, 73.052979%)" stop-opacity="1"/>
<stop offset="0.5" stop-color="rgb(23.576355%, 60.224915%, 72.897339%)" stop-opacity="1"/>
<stop offset="0.515625" stop-color="rgb(23.521423%, 60.076904%, 72.746277%)" stop-opacity="1"/>
<stop offset="0.53125" stop-color="rgb(23.468018%, 59.936523%, 72.602844%)" stop-opacity="1"/>
<stop offset="0.5625" stop-color="rgb(23.391724%, 59.736633%, 72.398376%)" stop-opacity="1"/>
<stop offset="0.59375" stop-color="rgb(23.295593%, 59.483337%, 72.140503%)" stop-opacity="1"/>
<stop offset="0.625" stop-color="rgb(23.208618%, 59.251404%, 71.903992%)" stop-opacity="1"/>
<stop offset="0.65625" stop-color="rgb(23.129272%, 59.040833%, 71.688843%)" stop-opacity="1"/>
<stop offset="0.6875" stop-color="rgb(23.05603%, 58.850098%, 71.49353%)" stop-opacity="1"/>
<stop offset="0.71875" stop-color="rgb(22.991943%, 58.679199%, 71.31958%)" stop-opacity="1"/>
<stop offset="0.75" stop-color="rgb(22.935486%, 58.525085%, 71.16394%)" stop-opacity="1"/>
<stop offset="0.8125" stop-color="rgb(22.86377%, 58.338928%, 70.974731%)" stop-opacity="1"/>
<stop offset="0.875" stop-color="rgb(22.792053%, 58.145142%, 70.776367%)" stop-opacity="1"/>
<stop offset="1" stop-color="rgb(22.738647%, 58.007812%, 70.637512%)" stop-opacity="1"/>
</linearGradient>
</defs>
<rect x="-200" y="-200" width="2400" height="2400" fill="rgb(100%, 100%, 100%)" fill-opacity="1"/>
<path fill-rule="nonzero" fill="rgb(22.322083%, 20.909119%, 21.260071%)" fill-opacity="1" d="M 1104.960938 818.46875 C 1100.980469 792.671875 1077.140625 774.761719 1051.25 778.128906 L 601.617188 836.539062 C 574.847656 840.019531 556.1875 864.859375 560.300781 891.539062 L 562.128906 903.410156 L 1107.140625 832.609375 L 1104.960938 818.46875 "/>
<path fill-rule="nonzero" fill="rgb(13.729858%, 12.159729%, 12.548828%)" fill-opacity="1" d="M 1265.75 1399.351562 L 985.171875 1314.011719 C 980.644531 1312.640625 975.734375 1313.75 972.203125 1316.949219 L 941.476562 1344.789062 C 932.988281 1352.488281 936.925781 1366.761719 948.113281 1368.820312 L 1259.410156 1426.308594 C 1265.21875 1427.378906 1271.050781 1424.53125 1273.851562 1419.230469 C 1277.949219 1411.488281 1274.03125 1401.871094 1265.75 1399.351562 "/>
<path fill-rule="nonzero" fill="rgb(22.322083%, 20.909119%, 21.260071%)" fill-opacity="1" d="M 1566.480469 945.179688 L 656.933594 1103.46875 L 396.65625 920.238281 C 388.617188 923.539062 381.761719 928.898438 376.722656 935.640625 C 369.441406 945.398438 365.898438 957.941406 367.847656 970.949219 L 385.1875 1086.570312 C 394.84375 1150.941406 429.59375 1208.871094 481.84375 1247.699219 L 686.6875 1399.878906 L 845.300781 1361.039062 L 1516.230469 1204.679688 L 1587.410156 1049.171875 C 1604.171875 1012.550781 1594.351562 970.839844 1566.480469 945.179688 "/>
<path fill-rule="nonzero" fill="rgb(22.322083%, 20.909119%, 21.260071%)" fill-opacity="1" d="M 408.054688 917.101562 C 404.109375 917.660156 400.375 918.730469 396.84375 920.160156 L 455.347656 910.480469 L 408.054688 917.101562 "/>
<path fill-rule="nonzero" fill="rgb(13.729858%, 12.159729%, 12.548828%)" fill-opacity="1" d="M 1566.480469 945.179688 C 1558.550781 937.871094 1549.148438 931.851562 1538.480469 927.640625 L 1259.910156 817.640625 C 1235.558594 808.039062 1209.148438 804.890625 1183.230469 808.519531 L 455.347656 910.480469 L 396.84375 920.160156 C 396.78125 920.191406 396.71875 920.210938 396.65625 920.238281 L 656.933594 1103.46875 L 1566.480469 945.179688 "/>
<path fill-rule="nonzero" fill="rgb(22.322083%, 20.909119%, 21.260071%)" fill-opacity="1" d="M 559.992188 941.898438 L 1151.988281 858.980469 C 1156.558594 858.339844 1161.21875 858.011719 1165.839844 858.011719 C 1178.449219 858.011719 1190.800781 860.359375 1202.53125 864.988281 L 1379.710938 934.949219 L 714.558594 1050.710938 L 559.992188 941.898438 "/>
<path fill-rule="nonzero" fill="rgb(13.729858%, 12.159729%, 12.548828%)" fill-opacity="1" d="M 1339.011719 1072.261719 L 868.203125 1154.859375 C 848.316406 1158.351562 833.8125 1175.621094 833.8125 1195.808594 L 833.8125 1337.328125 C 833.8125 1363.660156 857.960938 1383.351562 883.746094 1378.058594 L 1354.558594 1281.421875 C 1373.890625 1277.449219 1387.769531 1260.429688 1387.769531 1240.691406 L 1387.769531 1113.210938 C 1387.769531 1087.378906 1364.460938 1067.800781 1339.011719 1072.261719 "/>
<path fill-rule="nonzero" fill="rgb(82.751465%, 82.437134%, 82.514954%)" fill-opacity="1" d="M 936.894531 1294.28125 L 1313.101562 1439 L 1632.679688 1332.140625 L 1262.421875 1225.28125 L 936.894531 1294.28125 "/>
<g clip-path="url(#clip-0)">
<g clip-path="url(#clip-1)">
<g clip-path="url(#clip-2)">
<path fill-rule="nonzero" fill="url(#linear-pattern-0)" d="M 600.566406 930.558594 L 600.566406 1018.03125 L 843.53125 1018.03125 L 843.53125 930.558594 Z M 600.566406 930.558594 "/>
</g>
</g>
</g>
<path fill-rule="nonzero" fill="rgb(91.363525%, 91.20636%, 91.246033%)" fill-opacity="1" d="M 712.199219 1027.679688 C 709.621094 1030.800781 710.066406 1035.429688 713.191406 1038.011719 L 721.5625 1044.910156 C 724.691406 1047.488281 729.316406 1047.050781 731.894531 1043.921875 C 734.476562 1040.789062 734.03125 1036.171875 730.902344 1033.589844 L 722.535156 1026.679688 C 719.40625 1024.101562 714.78125 1024.550781 712.199219 1027.679688 "/>
<path fill-rule="nonzero" fill="rgb(91.363525%, 91.20636%, 91.246033%)" fill-opacity="1" d="M 735.25 1022.890625 C 732.671875 1026.019531 733.117188 1030.640625 736.242188 1033.21875 L 744.613281 1040.128906 C 747.742188 1042.699219 752.367188 1042.261719 754.945312 1039.128906 C 757.523438 1036.011719 757.082031 1031.378906 753.953125 1028.800781 L 745.585938 1021.898438 C 742.457031 1019.320312 737.828125 1019.761719 735.25 1022.890625 "/>
<path fill-rule="nonzero" fill="rgb(91.363525%, 91.20636%, 91.246033%)" fill-opacity="1" d="M 760.488281 1017.550781 C 757.90625 1020.671875 758.351562 1025.300781 761.480469 1027.878906 L 769.851562 1034.78125 C 772.976562 1037.359375 777.601562 1036.921875 780.183594 1033.789062 C 782.761719 1030.660156 782.316406 1026.039062 779.191406 1023.460938 L 770.820312 1016.550781 C 767.695312 1013.980469 763.066406 1014.421875 760.488281 1017.550781 "/>
<path fill-rule="nonzero" fill="rgb(91.363525%, 91.20636%, 91.246033%)" fill-opacity="1" d="M 783.539062 1012.101562 C 780.960938 1015.21875 781.402344 1019.851562 784.53125 1022.429688 L 792.902344 1029.328125 C 796.027344 1031.910156 800.652344 1031.46875 803.234375 1028.339844 C 805.8125 1025.210938 805.367188 1020.589844 802.242188 1018.011719 L 793.871094 1011.101562 C 790.742188 1008.53125 786.117188 1008.96875 783.539062 1012.101562 "/>
<path fill-rule="nonzero" fill="rgb(82.751465%, 82.437134%, 82.514954%)" fill-opacity="1" d="M 645.269531 903.410156 L 602.753906 601.820312 L 992.882812 561 L 1045.878906 848.671875 L 645.269531 903.410156 "/>
</svg>
