<?xml version="1.0" encoding="UTF-8"?>
<svg xmlns="http://www.w3.org/2000/svg" xmlns:xlink="http://www.w3.org/1999/xlink" width="2568.49" height="3304.96" viewBox="0 0 2568.49 3304.96">
<defs>
<clipPath id="clip-0">

</clipPath>
<clipPath id="clip-1">
<path clip-rule="nonzero" d="M 2071 1832 L 2273 1832 L 2273 2337 L 2071 2337 Z M 2071 1832 "/>
</clipPath>
<clipPath id="clip-2">
<path clip-rule="evenodd" d="M 2071.019531 1832.519531 L 2071.019531 2336.210938 L 2272.691406 2336.210938 L 2272.691406 2128.480469 L 2171.859375 2128.480469 C 2113.730469 2128.480469 2113.730469 2040.171875 2171.859375 2040.171875 L 2272.691406 2040.171875 L 2272.691406 1832.519531 L 2071.019531 1832.519531 "/>
</clipPath>
<linearGradient id="linear-pattern-0" gradientUnits="userSpaceOnUse" x1="0.299804" y1="0" x2="0.700188" y2="0" gradientTransform="matrix(0.000015, 1258.02, -1258.02, 0.000015, 2171.86, 1455.36)">
<stop offset="0" stop-color="rgb(96.548462%, 52.316284%, 11.959839%)" stop-opacity="1"/>
<stop offset="0.03125" stop-color="rgb(96.533203%, 52.18811%, 11.972046%)" stop-opacity="1"/>
<stop offset="0.0625" stop-color="rgb(96.504211%, 51.933289%, 11.99646%)" stop-opacity="1"/>
<stop offset="0.09375" stop-color="rgb(96.47522%, 51.678467%, 12.020874%)" stop-opacity="1"/>
<stop offset="0.125" stop-color="rgb(96.444702%, 51.423645%, 12.045288%)" stop-opacity="1"/>
<stop offset="0.15625" stop-color="rgb(96.41571%, 51.168823%, 12.069702%)" stop-opacity="1"/>
<stop offset="0.1875" stop-color="rgb(96.386719%, 50.912476%, 12.094116%)" stop-opacity="1"/>
<stop offset="0.21875" stop-color="rgb(96.356201%, 50.657654%, 12.11853%)" stop-opacity="1"/>
<stop offset="0.25" stop-color="rgb(96.327209%, 50.402832%, 12.142944%)" stop-opacity="1"/>
<stop offset="0.28125" stop-color="rgb(96.298218%, 50.14801%, 12.167358%)" stop-opacity="1"/>
<stop offset="0.3125" stop-color="rgb(96.269226%, 49.893188%, 12.193298%)" stop-opacity="1"/>
<stop offset="0.34375" stop-color="rgb(96.238708%, 49.636841%, 12.217712%)" stop-opacity="1"/>
<stop offset="0.375" stop-color="rgb(96.209717%, 49.382019%, 12.242126%)" stop-opacity="1"/>
<stop offset="0.40625" stop-color="rgb(96.180725%, 49.127197%, 12.266541%)" stop-opacity="1"/>
<stop offset="0.4375" stop-color="rgb(96.150208%, 48.872375%, 12.290955%)" stop-opacity="1"/>
<stop offset="0.46875" stop-color="rgb(96.121216%, 48.616028%, 12.315369%)" stop-opacity="1"/>
<stop offset="0.5" stop-color="rgb(96.092224%, 48.361206%, 12.339783%)" stop-opacity="1"/>
<stop offset="0.53125" stop-color="rgb(96.061707%, 48.106384%, 12.364197%)" stop-opacity="1"/>
<stop offset="0.5625" stop-color="rgb(96.032715%, 47.851562%, 12.388611%)" stop-opacity="1"/>
<stop offset="0.59375" stop-color="rgb(96.003723%, 47.596741%, 12.413025%)" stop-opacity="1"/>
<stop offset="0.625" stop-color="rgb(95.974731%, 47.340393%, 12.437439%)" stop-opacity="1"/>
<stop offset="0.65625" stop-color="rgb(95.944214%, 47.085571%, 12.461853%)" stop-opacity="1"/>
<stop offset="0.6875" stop-color="rgb(95.915222%, 46.83075%, 12.486267%)" stop-opacity="1"/>
<stop offset="0.71875" stop-color="rgb(95.88623%, 46.575928%, 12.512207%)" stop-opacity="1"/>
<stop offset="0.75" stop-color="rgb(95.855713%, 46.321106%, 12.536621%)" stop-opacity="1"/>
<stop offset="0.78125" stop-color="rgb(95.826721%, 46.064758%, 12.561035%)" stop-opacity="1"/>
<stop offset="0.8125" stop-color="rgb(95.797729%, 45.809937%, 12.585449%)" stop-opacity="1"/>
<stop offset="0.84375" stop-color="rgb(95.768738%, 45.555115%, 12.609863%)" stop-opacity="1"/>
<stop offset="0.875" stop-color="rgb(95.73822%, 45.300293%, 12.634277%)" stop-opacity="1"/>
<stop offset="0.90625" stop-color="rgb(95.709229%, 45.043945%, 12.658691%)" stop-opacity="1"/>
<stop offset="0.9375" stop-color="rgb(95.680237%, 44.789124%, 12.683105%)" stop-opacity="1"/>
<stop offset="0.96875" stop-color="rgb(95.649719%, 44.534302%, 12.70752%)" stop-opacity="1"/>
<stop offset="1" stop-color="rgb(95.620728%, 44.27948%, 12.731934%)" stop-opacity="1"/>
</linearGradient>
</defs>
<g clip-path="url(#clip-0)">
<path fill-rule="evenodd" fill="rgb(0%, 0%, 0.784302%)" fill-opacity="1" d="M 1350.039062 1183.460938 L 1350.039062 757.03125 C 1350.039062 616.53125 1235.710938 502.230469 1095.199219 502.230469 C 954.691406 502.230469 840.371094 616.539062 840.371094 757.03125 L 840.371094 1183.460938 C 924.027344 1177.878906 1009.691406 1175.089844 1095.199219 1175.089844 C 1180.710938 1175.089844 1266.371094 1177.878906 1350.039062 1183.460938 Z M 1350.039062 1740.511719 L 1350.039062 1271.730469 C 1270.398438 1266.371094 1185.320312 1263.421875 1095.199219 1263.421875 C 1005.070312 1263.421875 920.007812 1266.371094 840.371094 1271.730469 L 840.371094 1740.511719 C 920.007812 1745.871094 1005.070312 1748.839844 1095.199219 1748.839844 C 1185.320312 1748.839844 1270.398438 1745.871094 1350.039062 1740.511719 Z M 1350.039062 2882.160156 L 1350.039062 2413.378906 C 1270.398438 2408.019531 1185.320312 2405.050781 1095.199219 2405.050781 C 1005.070312 2405.050781 920.007812 2408.019531 840.371094 2413.378906 L 840.371094 2882.160156 C 920.007812 2887.519531 1005.070312 2890.488281 1095.199219 2890.488281 C 1185.320312 2890.488281 1270.398438 2887.519531 1350.039062 2882.160156 Z M 840.371094 2325.128906 C 924.027344 2319.558594 1009.691406 2316.75 1095.199219 2316.75 C 1180.710938 2316.75 1266.371094 2319.558594 1350.039062 2325.128906 L 1350.039062 1828.738281 C 1266.371094 1834.328125 1180.710938 1837.121094 1095.199219 1837.121094 C 1009.691406 1837.121094 924.027344 1834.328125 840.371094 1828.738281 Z M 423.59375 2471.769531 L 423.59375 2823.769531 C 516.152344 2845.289062 626.296875 2863.230469 752.082031 2875.039062 L 752.082031 2420.46875 C 626.296875 2432.320312 516.152344 2450.25 423.59375 2471.769531 Z M 423.59375 1772.609375 L 423.59375 2381.261719 C 523.21875 2359.320312 634.808594 2342.910156 752.082031 2332.140625 L 752.082031 1821.75 C 634.808594 1810.960938 523.21875 1794.539062 423.59375 1772.609375 Z M 423.59375 1330.101562 L 423.59375 1682.128906 C 516.152344 1703.640625 626.296875 1721.578125 752.082031 1733.421875 L 752.082031 1278.828125 C 626.296875 1290.648438 516.152344 1308.601562 423.59375 1330.101562 Z M 810.574219 565.601562 C 582.144531 672.921875 423.59375 905.171875 423.59375 1173.800781 L 423.59375 1239.589844 C 523.21875 1217.660156 634.808594 1201.230469 752.082031 1190.460938 L 752.082031 757.011719 C 752.082031 686.179688 773.660156 620.308594 810.574219 565.601562 Z M 1766.789062 1239.589844 L 1766.789062 1173.800781 C 1766.789062 905.179688 1608.25 672.929688 1379.851562 565.609375 C 1416.75 620.308594 1438.339844 686.191406 1438.339844 757.011719 L 1438.339844 1190.460938 C 1555.589844 1201.25 1667.171875 1217.660156 1766.789062 1239.589844 Z M 1766.789062 1682.128906 L 1766.789062 1330.121094 C 1674.230469 1308.621094 1564.101562 1290.679688 1438.339844 1278.828125 L 1438.339844 1733.421875 C 1564.101562 1721.578125 1674.230469 1703.640625 1766.789062 1682.128906 Z M 1766.789062 2381.261719 L 1766.789062 1772.609375 C 1667.171875 1794.539062 1555.589844 1810.960938 1438.339844 1821.75 L 1438.339844 2332.140625 C 1555.589844 2342.910156 1667.171875 2359.320312 1766.789062 2381.261719 Z M 1766.789062 2823.769531 L 1766.789062 2471.769531 C 1674.230469 2450.25 1564.101562 2432.320312 1438.339844 2420.46875 L 1438.339844 2875.039062 C 1564.101562 2863.230469 1674.230469 2845.289062 1766.789062 2823.769531 Z M 1438.339844 3216.679688 L 1766.789062 3216.679688 L 1766.789062 2914.28125 C 1667.171875 2936.21875 1555.589844 2952.609375 1438.339844 2963.398438 Z M 423.59375 3216.679688 L 752.082031 3216.679688 L 752.082031 2963.398438 C 634.808594 2952.628906 523.21875 2936.21875 423.59375 2914.261719 Z M 1855.101562 2494.851562 L 1855.101562 2800.660156 C 2014.550781 2753.75 2102.070312 2696.199219 2102.070312 2647.769531 C 2102.070312 2599.339844 2014.550781 2541.761719 1855.101562 2494.851562 Z M 88.332031 2646.820312 L 88.332031 2648.71875 C 89.472656 2696.941406 176.871094 2754.070312 335.277344 2800.660156 L 335.277344 2494.851562 C 176.871094 2541.46875 89.472656 2598.578125 88.332031 2646.820312 Z M 88.316406 1645.101562 L 88.332031 2508.769531 C 147.152344 2466.71875 232.449219 2431.421875 335.277344 2403.03125 L 335.277344 1750.828125 C 232.449219 1722.441406 147.152344 1687.140625 88.316406 1645.101562 Z M 88.394531 1503.570312 L 88.34375 1507.460938 C 89.933594 1555.621094 177.289062 1612.550781 335.277344 1659.039062 L 335.277344 1353.199219 C 178.617188 1399.300781 91.390625 1455.671875 88.394531 1503.570312 Z M 508.65625 691.199219 C 292.738281 846.488281 140.519531 1085.019531 99.453125 1359.441406 C 157.695312 1320.769531 238.765625 1288.03125 335.277344 1261.378906 L 335.277344 1173.761719 C 335.277344 990.679688 400.390625 822.519531 508.65625 691.199219 Z M 2090.960938 1359.488281 C 2049.910156 1085.019531 1897.671875 846.410156 1681.671875 691.121094 C 1789.960938 822.460938 1855.101562 990.640625 1855.101562 1173.761719 L 1855.101562 1261.378906 C 1951.648438 1288.039062 2032.730469 1320.789062 2090.960938 1359.488281 Z M 2102.070312 1506.488281 L 2102.039062 1505.101562 C 2100.828125 1456.871094 2013.421875 1399.800781 1855.101562 1353.21875 L 1855.101562 1659.039062 C 2014.160156 1612.230469 2101.621094 1554.839844 2102.070312 1506.488281 Z M 2102.089844 2508.828125 L 2102.089844 2424.460938 L 2025.738281 2424.460938 L 2023.480469 2424.359375 L 2022.378906 2424.25 L 2022.351562 2424.25 L 2021.25 2424.121094 L 2020.171875 2423.960938 L 2020.148438 2423.960938 L 2019.070312 2423.78125 L 2017.988281 2423.570312 L 2017.96875 2423.570312 L 2016.921875 2423.359375 L 2016.890625 2423.359375 L 2015.871094 2423.101562 L 2015.839844 2423.101562 L 2014.808594 2422.808594 L 2014.789062 2422.808594 L 2013.761719 2422.488281 L 2013.738281 2422.488281 L 2012.738281 2422.148438 L 2012.710938 2422.148438 L 2011.71875 2421.808594 C 2010.351562 2421.308594 2009.039062 2420.761719 2007.75 2420.128906 L 2007.71875 2420.128906 C 1992.941406 2412.980469 1982.71875 2397.859375 1982.71875 2380.308594 L 1982.71875 1788.371094 C 1982.71875 1770.851562 1992.941406 1755.691406 2007.71875 1748.578125 L 2007.75 1748.578125 C 2009.039062 1747.949219 2010.351562 1747.390625 2011.71875 1746.898438 L 2012.710938 1746.53125 L 2012.738281 1746.53125 L 2013.738281 1746.210938 L 2013.761719 1746.210938 L 2014.789062 1745.898438 L 2014.808594 1745.898438 L 2015.839844 1745.609375 L 2015.871094 1745.609375 L 2016.890625 1745.351562 L 2016.921875 1745.351562 L 2017.96875 1745.109375 L 2017.988281 1745.109375 L 2019.070312 1744.898438 L 2020.148438 1744.738281 L 2020.171875 1744.738281 L 2021.25 1744.578125 L 2022.351562 1744.449219 L 2022.378906 1744.449219 L 2023.480469 1744.351562 L 2024.609375 1744.269531 L 2025.738281 1744.238281 L 2026.871094 1744.21875 L 2102.089844 1744.21875 L 2102.089844 1645.039062 C 2043.261719 1687.089844 1957.949219 1722.421875 1855.101562 1750.828125 L 1855.101562 2403.03125 C 1957.949219 2431.449219 2043.261719 2466.75 2102.089844 2508.828125 Z M 1855.101562 3216.679688 L 2102.089844 3216.679688 L 2102.089844 2786.710938 C 2043.261719 2828.769531 1957.949219 2864.089844 1855.101562 2892.480469 Z M 88.34375 3216.679688 L 335.277344 3216.679688 L 335.277344 2892.480469 C 232.449219 2864.089844 147.152344 2828.820312 88.332031 2786.769531 Z M 923.488281 427.390625 C 974.300781 419.371094 1026.269531 414.871094 1079.109375 414.101562 L 1086.148438 413.980469 C 1089.148438 413.898438 1092.171875 413.878906 1095.191406 413.878906 L 1095.230469 413.878906 C 1098.261719 413.878906 1101.308594 413.898438 1104.308594 413.980469 L 1111.371094 414.101562 C 1164.199219 414.871094 1216.140625 419.371094 1266.921875 427.390625 L 1266.921875 260.039062 C 1266.921875 165.339844 1189.890625 88.339844 1095.230469 88.339844 C 1000.53125 88.339844 923.488281 165.378906 923.488281 260.039062 Z M 2272.691406 2128.480469 L 2171.859375 2128.480469 C 2147.480469 2128.480469 2127.699219 2108.730469 2127.699219 2084.328125 C 2127.699219 2059.949219 2147.480469 2040.171875 2171.859375 2040.171875 L 2272.691406 2040.171875 L 2272.691406 1832.519531 L 2071.019531 1832.519531 L 2071.019531 2336.210938 L 2272.691406 2336.210938 Z M 2524.339844 2128.480469 L 2360.96875 2128.480469 L 2360.96875 2380.308594 C 2360.96875 2404.710938 2341.210938 2424.460938 2316.808594 2424.460938 L 2190.371094 2424.460938 L 2190.371094 3260.828125 C 2190.371094 3285.179688 2170.621094 3304.960938 2146.21875 3304.960938 L 44.179688 3304.960938 C 19.804688 3304.960938 0.0273438 3285.179688 0.0273438 3260.800781 L 0.0273438 2649.320312 L 0 2647.769531 L 0.0273438 2646.21875 L 0.0273438 1509.078125 L 0.0390625 1508.210938 L 0 1506.109375 C 0 1504.191406 0.0507812 1502.269531 0.132812 1500.378906 C 4.136719 989.910156 359.140625 561.550781 835.1875 445.171875 L 835.1875 260.039062 C 835.1875 116.671875 951.855469 0 1095.25 0 C 1238.621094 0 1355.269531 116.640625 1355.269531 260.039062 L 1355.269531 445.171875 C 1832.769531 561.890625 2188.480469 992.539062 2190.320312 1505.101562 L 2190.351562 1506.109375 L 2190.351562 1506.328125 L 2190.371094 1509.078125 L 2190.371094 1744.21875 L 2316.808594 1744.21875 C 2341.210938 1744.21875 2360.96875 1763.988281 2360.96875 1788.371094 L 2360.96875 2040.171875 L 2524.339844 2040.171875 C 2548.710938 2040.171875 2568.488281 2059.949219 2568.488281 2084.328125 C 2568.488281 2108.730469 2548.710938 2128.480469 2524.339844 2128.480469 Z M 1095.199219 2978.789062 C 1009.691406 2978.789062 924.027344 2975.980469 840.371094 2970.410156 L 840.371094 3216.679688 L 1350.039062 3216.679688 L 1350.039062 2970.410156 C 1266.371094 2975.980469 1180.710938 2978.789062 1095.199219 2978.789062 "/>
</g>
<g clip-path="url(#clip-1)">
<g clip-path="url(#clip-2)">
<path fill-rule="nonzero" fill="url(#linear-pattern-0)" d="M 2272.691406 1832.519531 L 2071.019531 1832.519531 L 2071.019531 2336.210938 L 2272.691406 2336.210938 Z M 2272.691406 1832.519531 "/>
</g>
</g>
</svg>
