<?xml version="1.0" encoding="UTF-8"?>
<svg viewBox="0 0 814.96061 1512.992089" xmlns="http://www.w3.org/2000/svg">
 <defs>
  <linearGradient id="a" x1="1271" x2="1483.3" y1="-745.34" y2="-642.75" gradientTransform="matrix(1.3518 0 0 .73975 -1490.8 620.99)" gradientUnits="userSpaceOnUse">
   <stop stop-color="#fff" stop-opacity=".46392" offset="0"/>
   <stop stop-opacity=".50515" offset="1"/>
  </linearGradient>
 </defs>
 <path transform="matrix(1.3862 0 0 1.3862 -1566.2 314.27)" d="m1694.2 754.61a255.81 62.905 0 1 1 -511.63 0 255.81 62.905 0 1 1 511.63 0z" fill-opacity=".44813" fill-rule="evenodd"/>
 <path d="m565.3 1367s93.748-92.312 93.748-391.13 13.38-126.23-93.748-298.82c-26.366-42.479-43.7-85.203-55.388-128.08s-266.96-32.832-279.84 9.0395-32.585 81.917-63.201 119.04c-120.06 145.57-87.889 5.8592-93.748 298.82 0 298.82 82.029 391.13 82.029 391.13h410.15z" fill="#ab0000" fill-rule="evenodd"/>
 <path d="m565.3 1367s93.748-92.312 93.748-391.13 13.38-126.23-93.748-298.82c-105.47-169.92-66.405-343.74-99.607-515.61v-41.979h-193.35v41.979c-35.156 171.87 17.002 367.12-105.47 515.61-120.06 145.57-87.889 5.8592-93.748 298.82 0 298.82 82.029 391.13 82.029 391.13h410.15z" fill-opacity=".27801" fill-rule="evenodd" stroke="#000" stroke-width="15.312"/>
 <path d="m316.31 72.009h99.552a90.876 37.502 0 0 1 90.876 37.502v72.003a90.876 37.502 0 0 1 -90.876 37.502h-99.552a90.876 37.502 0 0 1 -90.876 -37.502v-72.003a90.876 37.502 0 0 1 90.876 -37.502" fill="#fff" fill-rule="evenodd" stroke="#000" stroke-width="15.312"/>
 <path d="m347.34 245.85c-19.429-1.3548-36.68 20.654-38.684 49.384l-25.558 238.54c-1.0653 15.276 2.4787 29.15 8.8804 39.117-13.642 5.4091-27.708 15.501-37.298 27.811l-125.32 160.84c-3.1531 4.0475-5.3584 7.9767-7.061 11.739-10.386 9.3964-16.885 26.667-15.812 46.351l20.013 366.74c1.5684 28.757 18.457 51.094 37.904 50.033s33.841-25.088 32.272-53.846l-19.97-366.78c-0.4996-9.1575-2.6929-17.52-5.8914-24.822 9.1733-5.5677 17.874-12.851 24.432-21.27l125.28-160.84c7.3486-9.4332 10.608-18.363 10.18-25.428 12.012-7.7379 21.112-24.47 22.526-44.748l25.558-238.54c2.0033-28.73-12.021-52.924-31.45-54.279z" fill="#fff" fill-opacity=".34025" fill-rule="evenodd"/>
 <path d="m575.07 922c-19.108-1.63-37.19 16.636-40.547 40.98l-42.539 308.65h-280.66c-24.628 0-44.445 15.461-44.445 34.655s19.818 34.655 44.445 34.655h313.59c24.094 1e-4 43.483-14.828 44.315-33.442 4.9453-6.8159 8.5295-15.279 9.8335-24.735l43.059-312.29c3.3571-24.344-9.3089-45.241-28.417-46.871l-18.627-1.6028z" fill="#270000" fill-opacity=".53112" fill-rule="evenodd"/>
 <path d="m316.31 72.009h99.552a90.876 37.502 0 0 1 90.876 37.502v72.003a90.876 37.502 0 0 1 -90.876 37.502h-99.552a90.876 37.502 0 0 1 -90.876 -37.502v-72.003a90.876 37.502 0 0 1 90.876 -37.502" fill="url(#a)" fill-rule="evenodd" stroke="#000" stroke-width="15.312"/>
 <path d="m257.75 819.21h233.49a90.876 37.502 0 0 1 90.876 37.502v320.37a90.876 37.502 0 0 1 -90.876 37.502h-233.49a90.876 37.502 0 0 1 -90.876 -37.502v-320.37a90.876 37.502 0 0 1 90.876 -37.502" fill="#fff" fill-rule="evenodd" stroke="#000" stroke-width="8"/>
 <path d="m355.96 849.88c-46.261 0.2357-93.878-1.4445-138.36 12.909-8.9274 3.7156-20.996 9.2356-18.916 20.985-2.6997 37.892-0.4274 75.946-1.1904 113.91 0.0745 53.167 0.1488 106.33 0.2231 159.5 15.332 18.7 41.49 19.507 63.496 23.493 62.634 5.4746 125.61 3.0943 188.4 2.8032 33.39-0.3364 67.609-4.7119 97.646-20.275 8.6783-16.177 2.1372-34.972 4.1564-52.373-0.0424-78.09-0.0851-156.18-0.1277-234.27-14.458-18.327-39.949-18.983-61.056-23.139-44.52-5.4079-89.529-2.9763-134.27-3.5456z" fill="#fff" fill-rule="evenodd" stroke="#007600" stroke-width="8"/>
 <text transform="scale(.65436 1.5282)" x="356.17178" y="671.87708" font-family="Sans" font-size="106.45" font-weight="bold">
  <tspan>Ketchup</tspan>
 </text>
</svg>
