<?xml version='1.0' encoding='utf-8'?>
<svg xmlns:xlink="http://www.w3.org/1999/xlink" xmlns="http://www.w3.org/2000/svg" width="2000" height="2000" viewBox="0 0 529.16665 529.16668" version="1.1" id="svg4105"> <defs id="defs4102"> <linearGradient id="linearGradient34863"> <stop style="stop-color:#7a5706;stop-opacity:1;" offset="0" id="stop34859"/> <stop style="stop-color:#7a9922;stop-opacity:1" offset="1" id="stop34861"/> </linearGradient> <linearGradient id="linearGradient24498"> <stop style="stop-color:#bcd669;stop-opacity:1" offset="0" id="stop24494"/> <stop style="stop-color:#7a9922;stop-opacity:1" offset="1" id="stop24496"/> </linearGradient> <radialGradient xlink:href="#linearGradient24498" id="radialGradient24500" cx="152.51467" cy="219.75349" fx="152.51467" fy="219.75349" r="112.15082" gradientTransform="matrix(1,0,0,1.0178385,0,-3.9200737)" gradientUnits="userSpaceOnUse"/> <radialGradient xlink:href="#linearGradient24498" id="radialGradient31435" cx="160.2049" cy="344.08374" fx="160.2049" fy="344.08374" r="118.15293" gradientTransform="matrix(1,0,0,0.59745591,0,138.50888)" gradientUnits="userSpaceOnUse"/> <radialGradient xlink:href="#linearGradient34863" id="radialGradient34865" cx="355.70853" cy="347.24515" fx="355.70853" fy="347.24515" r="144.76425" gradientTransform="matrix(2.703893,0.01308926,-0.01724085,3.5614955,-603.51018,-869.5203)" gradientUnits="userSpaceOnUse"/> </defs> <g id="layer1"> <rect style="fill:#eef4d7;fill-opacity:1;stroke:none;stroke-width:2.565;stroke-linecap:round;stroke-linejoin:round" id="rect59405" width="529.16669" height="529.16669" x="3.2276604" y="0" ry="4.195909"/> <ellipse style="fill:#dde9af;fill-opacity:1;stroke:none;stroke-width:2.56499;stroke-linecap:round;stroke-linejoin:round" id="path61071" cx="179.73114" cy="439.91336" rx="105.55639" ry="46.216583"/> <ellipse style="fill:#dde9af;fill-opacity:1;stroke:none;stroke-width:2.565;stroke-linecap:round;stroke-linejoin:round" id="ellipse61981" cx="369.73267" cy="418.23151" rx="134.65573" ry="22.252428"/> <g id="g59381"> <path style="fill:#7a5706;stroke-width:0.999997;fill-opacity:1" d="M 136.46043,340.91844 C 94.068807,330.38698 63.44553,306.27119 45.591346,269.35945 20.281448,217.0335 28.604332,165.16518 68.191748,128.51325 105.53247,93.941507 158.7626,87.796633 207.64762,112.41484 c 25.69542,12.93998 51.48733,44.00633 61.05816,73.54454 5.78509,17.85433 7.23359,55.16714 2.8212,72.67126 -8.16639,32.39625 -31.31282,61.1548 -60.91443,75.68382 -15.50151,7.60843 -15.7367,7.65434 -41.20947,8.03779 -14.09046,0.21212 -28.91467,-0.43314 -32.94265,-1.43381 z" id="path2536"/> <path style="fill:url(#radialGradient24500);stroke-width:0.999997;fill-opacity:1" d="m 190.88066,329.84422 c 32.62677,-8.10735 60.0233,-33.68596 69.73394,-65.10683 7.92319,-25.63683 3.82987,-69.9123 -8.8448,-95.67039 -12.14475,-24.6811 -46.57551,-52.74663 -74.49841,-60.72582 -25.31412,-7.23366 -68.5058,0.4235 -92.188527,16.34309 -12.351603,8.30286 -24.145242,22.97524 -33.479403,41.6515 -8.1299,16.26685 -11.471751,30.54741 -11.227146,47.97639 0.284804,20.28226 3.377081,33.21222 12.403224,51.86015 6.280823,12.97617 11.331499,19.89009 23.032873,31.5299 32.211949,32.04241 71.407759,42.99098 115.068249,32.14201 z" id="path2540"/> <path style="fill:#576d18;stroke-width:0.999997;fill-opacity:1" d="m 175.0362,301.50279 c -0.76882,-1.24409 -1.82646,-8.25168 -2.3503,-15.57248 -0.73056,-10.21446 -1.57829,-13.07029 -3.6435,-12.27781 -1.87266,0.71869 -2.69125,-0.58741 -2.69125,-4.29305 0,-3.80763 0.79857,-5.01938 2.80132,-4.25085 2.21153,0.84862 2.59795,-0.4502 1.83528,-6.16772 -1.77009,-13.26987 -2.72782,-16.07327 -5.4916,-16.07327 -1.50843,0 -3.11416,-1.10384 -3.56821,-2.45295 -0.64378,-1.91234 -1.54462,-1.85931 -4.08821,0.24031 -2.84789,2.35082 -3.26271,2.2053 -3.26271,-1.14471 0,-2.11089 -0.52807,-4.36581 -1.17304,-5.01092 -1.96329,-1.96337 -6.49079,0.6816 -5.51585,3.22214 1.14774,2.99089 -21.31382,52.74634 -24.2542,53.72646 -2.78047,0.9268 0.14537,-10.0656 6.51008,-24.45711 2.52645,-5.7127 3.75904,-10.38668 2.73916,-10.38668 -2.8915,0 -2.17868,-5.13745 1.08916,-7.84947 2.40296,-1.9943 2.94349,-1.87949 2.94349,0.62523 0,1.68739 1.01951,3.69808 2.2656,4.46824 1.40845,0.87043 1.73264,0.53772 0.85709,-0.87881 -0.77469,-1.25336 0.53845,-5.01337 2.91842,-8.35552 3.55894,-4.99802 3.84219,-6.38347 1.59587,-7.80594 -1.50212,-0.9512 -3.49634,-1.74294 -4.43167,-1.75948 -0.9354,-0.0148 -1.23882,-1.79619 -0.67419,-3.95477 1.68732,-6.4523 -3.636,-4.29506 -7.76432,3.14634 -2.06572,3.72352 -1.82557,4.07663 2.45295,3.60693 2.60855,-0.28629 4.7428,-0.0801 4.7428,0.45762 0,2.64333 -12.56795,18.04086 -14.00205,17.15455 -0.90848,-0.56145 -1.23861,0.12831 -0.73352,1.53394 0.50508,1.40518 -2.30818,6.94974 -6.25168,12.32127 -3.94357,5.37153 -7.51134,8.7429 -7.92838,7.49191 -1.01988,-3.05972 3.52645,-11.48896 11.86246,-21.99416 3.77974,-4.76327 6.4678,-9.71442 5.97355,-11.00249 -0.92762,-2.41727 -6.85622,-2.36536 -13.0763,0.11496 -2.61983,1.04451 -3.83084,0.34711 -4.61731,-2.66062 l -1.06601,-4.07648 -10.726444,4.01322 c -5.899526,2.2073 -11.254216,3.48551 -11.899328,2.84047 -0.645259,-0.64525 0.246979,-1.17281 1.981986,-1.17281 1.735154,0 3.759044,-0.97768 4.497533,-2.1726 0.910854,-1.47386 -0.156494,-1.75926 -3.31834,-0.88749 -3.654098,1.0075 -3.97695,0.85226 -1.494481,-0.71868 5.900491,-3.73398 38.585114,-13.8825 44.710114,-13.8825 3.34852,0 6.0882,-0.82 6.0882,-1.82216 0,-2.68576 -5.77455,-7.98957 -8.69869,-7.98957 -1.60714,0 -2.2056,-1.70354 -1.63918,-4.66647 1.00342,-5.24892 -5.37405,-11.02971 -12.17531,-11.03616 -2.18824,-0.002 -12.65969,-2.10429 -23.269761,-4.67153 -21.482841,-5.19797 -28.651008,-9.18649 -15.933238,-8.86557 6.403719,0.16169 6.905983,0.43091 2.88876,1.55003 -4.09814,1.14144 -3.071658,1.75511 6.529952,3.9039 6.265842,1.40221 11.855643,2.08626 12.42184,1.52006 0.5659,-0.5659 -1.964111,-1.59104 -5.622881,-2.27746 -5.255379,-0.98592 -6.736287,-2.26138 -7.051722,-6.07353 -0.355264,-4.29008 0.0445,-4.5869 3.61909,-2.67486 2.210199,1.18283 4.488336,3.37471 5.062395,4.87089 1.298529,3.38369 12.791125,7.3418 16.824145,5.79421 1.64437,-0.63116 6.34942,1.13269 10.4558,3.91932 8.42738,5.71893 12.49919,4.23535 8.66902,-3.15865 -3.96894,-7.66183 -8.1586,-11.49719 -12.49853,-11.44142 -3.56672,0.0445 -3.20152,0.81844 2.75712,5.83426 13.99501,11.78059 -2.76839,3.08612 -22.076559,-11.45017 -8.479601,-6.38391 -12.850826,-13.71933 -6.868306,-11.52574 1.349112,0.4947 2.251734,1.83417 2.005867,2.97657 -0.399022,1.85449 9.671258,10.81181 16.939768,15.06733 2.04666,1.19826 2.31181,0.90418 1.03019,-1.14248 -0.94935,-1.51584 -1.47379,-4.29016 -1.1654,-6.16505 0.30854,-1.87488 -1.82363,-6.53499 -4.73791,-10.35574 -7.092661,-9.29908 -4.43419,-11.16692 4.10867,-2.88684 6.73614,6.52884 9.17938,11.33625 4.38599,8.63002 -1.80791,-1.0207 -1.7821,-0.66455 0.0979,1.35593 1.40311,1.50746 3.16919,2.81712 3.92474,2.91035 0.75547,0.0935 2.97835,0.87273 4.93964,1.73233 2.16659,0.9495 4.47692,0.63562 5.88707,-0.80027 1.79271,-1.82519 1.65105,-2.21947 -0.62227,-1.73233 -1.93422,0.41459 -2.73026,-0.61411 -2.32167,-3.00024 0.34191,-1.99711 -0.22399,-3.10852 -1.25714,-2.46986 -1.03346,0.63858 -3.26598,-0.95565 -4.96131,-3.54299 -2.67538,-4.08309 -2.6957,-4.6475 -0.15427,-4.27451 1.61048,0.23659 5.18477,3.75073 7.94292,7.80964 3.27384,4.81794 6.03355,6.98898 7.94953,6.25375 1.61411,-0.6193 3.26486,-1.12616 3.66841,-1.12616 0.40347,0 -0.55181,-3.64327 -2.1229,-8.09616 -3.04192,-8.62178 -3.72397,-15.16923 -0.89417,-8.58388 l 1.68657,3.92466 0.32486,-3.92466 c 0.17874,-2.15858 2.36921,4.46431 4.86748,14.71763 4.46193,18.31276 4.95515,25.1988 1.07373,14.98983 -1.08278,-2.8479 -3.34623,-5.17803 -5.02984,-5.17803 -2.4531,0 -2.64393,0.77966 -0.96069,3.92474 2.58571,4.83151 0.37677,5.19019 -3.05557,0.49618 -1.53208,-2.09524 -1.81911,-4.25745 -0.73796,-5.55998 1.1206,-1.3503 0.8214,-2.13144 -0.81637,-2.13144 -1.42194,0 -2.6202,0.95662 -2.66284,2.12587 -0.0445,1.16926 -0.41015,3.35461 -0.81763,4.85643 -0.40718,1.50175 2.0744,4.42063 5.51445,6.48642 5.24277,3.14827 7.47388,3.42751 13.79223,1.72618 7.38066,-1.9874 7.52173,-2.19737 6.76996,-10.08051 -1.11222,-11.66273 1.69051,-45.01561 3.78286,-45.01561 0.97857,0 1.77921,4.23869 1.77921,9.41931 0,5.18062 1.0003,10.41961 2.22288,11.64219 2.62443,2.62435 0.66825,9.17922 -2.20901,7.4012 -1.15524,-0.71424 -1.97628,1.17059 -1.97628,4.53617 0,3.16667 -0.55477,8.533 -1.23348,11.92522 -1.03249,5.16259 -0.71275,5.96776 1.96233,4.9412 1.75778,-0.67418 3.19767,-3.11875 3.19989,-5.43168 0.004,-4.06113 18.55767,-44.43361 20.42017,-44.43361 0.50508,0 0.87703,1.98688 0.82712,4.41528 -0.13499,6.55614 -5.81038,19.20515 -8.00812,17.84692 -1.04932,-0.64823 -2.67864,0.0371 -3.62072,1.52519 -2.41045,3.80562 -2.18142,6.13196 0.44426,4.5094 1.35779,-0.83914 1.83306,-0.31373 1.22652,1.35593 -0.54514,1.49938 -1.76319,2.58037 -2.70757,2.40229 -0.94438,-0.178 -1.90982,2.34689 -2.14545,5.61109 -0.23586,3.2642 -1.41549,7.12426 -2.62191,8.57788 -1.20641,1.45361 -1.62375,3.56472 -0.92754,4.69125 2.17912,3.52587 7.58173,2.24899 16.73314,-3.95477 18.13394,-12.29301 40.08627,-21.70327 36.28628,-15.55476 -0.67641,1.09472 -4.7948,3.80896 -9.15156,6.03162 -4.35676,2.22266 -7.33549,3.09309 -6.61925,1.9343 1.79167,-2.899 -0.0519,-2.6429 -7.05877,0.98131 -3.28459,1.69852 -5.52401,3.53624 -4.97651,4.08375 0.54736,0.54736 3.05801,-0.10383 5.57883,-1.44716 4.0839,-2.17645 4.30588,-2.10614 2.03687,0.64526 -2.14968,2.60677 -1.84389,3.59476 1.9624,6.34038 2.60099,1.87622 3.26331,3.06335 1.56531,2.80562 -1.61893,-0.2455 -5.15117,0.44871 -7.84947,1.54298 -2.69822,1.09435 -7.55502,2.5249 -10.79289,3.17898 -5.62207,1.13581 -5.57082,1.03768 1.13973,-2.18031 3.86481,-1.8533 6.66754,-4.44769 6.22832,-5.76528 -0.56442,-1.69273 -3.63326,-0.95914 -10.46092,2.50079 -5.31434,2.69295 -9.64893,5.54374 -9.63239,6.33504 0.0667,3.18995 3.4373,6.51645 6.03681,5.9576 1.64007,-0.3523 2.54848,0.71868 2.2343,2.63444 -0.34191,2.08589 1.61998,3.97791 5.54367,5.34564 3.34022,1.16443 5.50933,3.02931 4.82031,4.1441 -0.68901,1.11482 0.12757,2.55671 1.81519,3.20427 4.31322,1.65513 3.82238,4.68206 -0.75933,4.68206 -2.10496,0 -4.69475,-1.54536 -5.75505,-3.43411 -1.80829,-3.22104 -2.01729,-3.20212 -3.36833,0.30557 -1.02774,2.66855 -0.1602,4.7764 3.02901,7.35885 l 4.46935,3.61901 h -5.98868 c -7.83448,0 -9.01145,2.34178 -4.23119,8.41894 5.19478,6.60404 4.91754,8.03845 -0.82616,4.27503 -6.41751,-4.20495 -7.69401,-1.36536 -5.27325,11.72992 1.09078,5.9005 1.46533,15.10101 0.83238,20.44561 -0.63339,5.3446 -0.43759,13.10967 0.43463,17.2558 l 1.58578,7.53834 1.35148,-6.86824 1.35149,-6.86823 0.2581,7.243 c 0.26478,7.4176 -2.2943,11.28226 -4.79316,7.23915 z" id="path2542"/> <path style="fill:#896206;stroke-width:0.999997;fill-opacity:1" d="m 184.01235,338.96671 c 30.00227,-4.67843 61.14554,-28.24049 75.27606,-56.9515 16.81257,-34.16048 16.82651,-77.61617 0.0371,-111.68476 -10.50438,-21.31374 -35.39582,-45.71583 -57.92161,-56.78292 -9.02503,-4.43412 -19.49982,-8.56081 -23.27741,-9.17054 -4.34638,-0.70163 -2.08218,0.646 6.16668,3.67004 26.80015,9.82485 58.02189,36.59215 69.12095,59.25938 6.58773,13.45388 12.39884,36.50033 14.13756,56.06813 5.89493,66.3447 -46.72777,118.13338 -114.73783,112.91946 C 95.54697,331.90372 48.449179,287.77115 38.382536,229.06736 c -5.496944,-32.0558 7.710036,-69.41841 34.545194,-97.72861 14.966462,-15.78906 41.00424,-25.43599 74.78225,-27.70678 l 21.58593,-1.45109 -19.70185,-0.30112 c -22.9346,-0.35082 -36.27086,2.59461 -55.427723,12.24183 -42.316195,21.31003 -66.354932,69.54719 -58.138627,116.6632 10.260072,58.83529 52.162856,99.33564 111.75866,108.01808 16.47592,2.40037 21.7339,2.42418 36.22717,0.16392 z" id="path2538"/> <path style="fill:#ebe9ac;stroke-width:0.999997;fill-opacity:1" d="m 173.89884,234.86447 c 0.3738,-2.61368 1.91901,-5.45831 3.43411,-6.3214 1.5151,-0.86316 2.75474,-3.55649 2.75474,-5.98519 0,-2.42877 0.85234,-5.26828 1.8941,-6.31004 1.21724,-1.21724 -0.16688,-3.27901 -3.8723,-5.76971 -3.17156,-2.13158 -6.3033,-6.31999 -6.95953,-9.30761 -1.66826,-7.5956 -6.95805,-10.01117 -13.94406,-6.3676 -3.06484,1.59854 -8.24583,2.91182 -11.51336,2.9185 -3.26761,0.006 -7.93936,1.41171 -10.38171,3.12239 -5.23224,3.66485 -4.40215,8.36531 2.7385,15.50586 2.65416,2.65424 4.75356,7.06581 4.75356,9.98899 0,4.30292 0.49692,4.82305 2.78982,2.92006 3.2415,-2.69022 10.94672,1.00542 10.94672,5.25033 0,2.98444 1.08589,3.07863 5.88424,0.51102 2.93964,-1.57325 3.91695,-1.16392 4.94343,2.07039 1.66069,5.23232 5.66034,3.86956 6.53174,-2.22562 z" id="path2550"/> <path id="path2578" style="fill:#3b4a10;stroke-width:0.999997;fill-opacity:1" d="m 146.22395,137.93694 c -0.88401,0.0148 -1.8358,0.98057 -2.49893,3.06987 -2.00825,6.3274 0.9199,26.64603 3.34214,23.19189 1.40059,-1.99785 1.62064,-1.30298 0.79338,2.50279 -0.63043,2.89937 -0.17282,9.80276 1.01565,15.34227 1.18802,5.53974 2.32961,9.79178 2.53728,9.44779 0.20767,-0.34414 0.0371,-9.61771 -0.37158,-20.60863 -0.60595,-16.17517 -1.27762,-19.78432 -3.51459,-18.92598 -2.05252,0.78774 -2.72782,-0.63413 -2.62546,-5.52676 0.11421,-5.46438 0.42572,-5.91925 1.82437,-2.66373 1.62569,3.78404 1.69162,3.77343 1.82438,-0.37158 0.11125,-3.47736 -1.03449,-5.48167 -2.32642,-5.45771 z m -12.55987,9.45149 c -0.27368,0.0297 -0.46132,0.74665 -0.51769,2.10399 -0.0853,2.06913 0.379,3.22771 1.03101,2.57563 0.65193,-0.65194 0.72017,-2.34326 0.15353,-3.75987 -0.2544,-0.63561 -0.47987,-0.94 -0.66677,-0.91975 z m -17.71482,5.76439 c -0.47052,0.0297 -0.62093,0.62969 -0.62093,1.82438 0,1.5711 1.32459,2.85524 2.94353,2.85524 1.61895,0 2.94354,-0.18616 2.94354,-0.41386 0,-0.22769 -1.32459,-1.51183 -2.94354,-2.85546 -1.15631,-0.95958 -1.88062,-1.43737 -2.32262,-1.4103 z m 92.72513,1.4103 c -1.87963,0 -9.15252,5.50659 -16.16263,12.23791 -7.01005,6.73146 -14.21626,12.24999 -16.01698,12.26468 -1.89076,0.0148 -3.53973,1.89231 -3.90167,4.4422 -0.34488,2.4284 -0.0222,4.41528 0.71275,4.41528 0.73797,0 6.76158,-4.58794 13.38387,-10.1911 16.05473,-13.58419 16.63324,-14.17271 12.52916,-12.72859 -4.90708,1.72662 -4.24373,0.35007 1.71328,-3.55286 2.83106,-1.85523 4.54619,-2.39859 3.8097,-1.20723 -2.14411,3.4692 -0.0593,2.50709 3.79821,-1.75555 3.32954,-3.67924 3.33784,-3.92474 0.13424,-3.92474 z m -79.85865,1.96241 c -2.45458,0.14166 -2.1143,4.70038 0.60966,7.42397 1.27717,1.27746 2.68309,1.96218 3.12365,1.52162 1.37306,-1.37306 -1.68636,-8.94559 -3.61427,-8.94559 -0.0371,0 -0.0801,-0.002 -0.11867,0 z m -25.7751,0.98116 4.53412,6.35077 c 2.49315,3.49456 4.99069,5.89826 5.54977,5.33896 0.55923,-0.55922 -1.48181,-3.41921 -4.5341,-6.35447 z m 79.00782,4.9022 c -1.07929,0 -1.97434,1.10376 -1.98918,2.45287 -0.0223,1.66826 -0.71052,1.5148 -2.15019,-0.48654 -1.76097,-2.44805 -1.9205,-2.34185 -0.95054,0.64749 0.64155,1.97709 1.19329,5.06781 1.2303,6.86823 0.0519,2.82401 0.45835,2.75318 2.94357,-0.53253 3.31619,-4.3845 3.78196,-8.9493 0.91604,-8.9493 z m 21.56287,1.11147 c -0.88289,0.0148 -1.27657,0.33524 -0.92754,0.9007 0.55848,0.90388 0.11941,2.19662 -0.97731,2.87444 -1.09687,0.6779 -1.99682,2.06595 -1.99682,3.08153 0,2.97449 3.05705,2.13321 6.6421,-1.82817 3.14404,-3.47379 3.1077,-3.73575 -0.67864,-4.72574 -0.82623,-0.21583 -1.53223,-0.31299 -2.06201,-0.30261 z m -104.184963,6.05187 c -0.62071,0.007 0.460063,1.23667 3.146683,3.5183 3.23786,2.75006 6.21713,5.00343 6.61912,5.00951 1.84455,0.0222 -4.77294,-6.30011 -8.42051,-8.04876 -0.67448,-0.32337 -1.120757,-0.48209 -1.345293,-0.47912 z m 116.963253,0.82771 c -1.07929,0 -4.17001,1.26315 -6.86823,2.80562 -2.69822,1.54239 -4.02278,2.80184 -2.9435,2.80184 1.07929,0 4.17001,-1.25945 6.86824,-2.80184 2.69829,-1.54247 4.02286,-2.80562 2.94349,-2.80562 z m 3.55301,11.66311 c -4.28015,0.0222 -4.85732,0.45835 -2.57177,1.9354 3.77025,2.43671 5.36241,2.43671 6.86823,0 0.70015,-1.13246 -1.11541,-1.95031 -4.29646,-1.9354 z m -9.48606,1.99296 c -1.01573,0.0297 -0.56664,0.87496 1.02723,1.90485 1.61893,1.04628 3.82653,1.90114 4.90582,1.90114 1.07937,0 0.63785,-0.85486 -0.98116,-1.90114 -1.61894,-1.04636 -3.82654,-1.90485 -4.9059,-1.90485 -0.0148,0 -0.0297,-4.5e-4 -0.0445,0 z m -5.88706,1.96233 c -1.01573,0.0297 -0.56665,0.87503 1.02722,1.90485 1.61893,1.04636 3.82654,1.90114 4.90583,1.90114 1.07936,0 0.63784,-0.85478 -0.98117,-1.90114 -1.61893,-1.04628 -3.82654,-1.90485 -4.9059,-1.90485 -0.0148,0 -0.0297,-3.7e-4 -0.0445,0 z m 17.88733,5.9177 c -2.13825,0.0371 -5.48634,1.08322 -7.91073,2.91679 -2.09502,1.58467 -6.06878,2.94869 -8.83056,3.03168 -2.76179,0.0831 -8.55696,1.39072 -12.87419,2.90523 -7.30916,2.56405 -6.19613,2.68294 16.17028,1.75533 13.21068,-0.5481 25.35269,-1.50568 26.98238,-2.13092 5.61976,-2.15657 2.94208,-4.64156 -5.00165,-4.64156 -4.81045,0 -7.48531,-0.77728 -6.75328,-1.96233 0.80984,-1.31047 -0.11941,-1.90033 -1.78225,-1.87422 z M 96.68598,202.1772 86.050166,202.40712 c -13.629736,0.29518 -16.70396,5.1396 -3.261646,5.1396 6.686588,0 8.991566,0.75532 8.991566,2.94357 0,1.8315 1.853289,2.9435 4.905894,2.9435 3.052522,0 4.90589,-1.112 4.90589,-2.9435 0,-1.97494 1.97819,-2.94357 6.00589,-2.94357 3.90469,0 5.53003,0.76163 4.65291,2.18083 -0.7416,1.19996 -0.13053,2.95195 1.3568,3.8941 1.77787,1.12637 -0.32323,1.73744 -6.12854,1.77452 -6.22275,0.0445 -7.975072,0.59927 -5.94072,1.88579 3.8674,2.44568 2.74183,3.14649 -8.776944,5.47692 -5.396439,1.0919 -8.357906,2.08775 -6.584621,2.21531 4.847234,0.34859 33.628805,-5.81683 37.001155,-7.92616 2.15265,-1.34614 1.75718,-1.5151 -1.47179,-0.63191 -4.81311,1.31574 -5.78155,-0.83008 -2.05818,-4.55343 5.17123,-5.1712 -1.83527,-7.26822 -23.571265,-7.0561 -16.596654,0.16169 -18.722769,-0.0905 -10.183545,-1.21116 z m 127.02037,5.70691 c -1.28681,5.9e-4 -2.62354,0.0148 -3.99757,0.0445 l -19.01795,0.379 19.62353,1.20352 c 10.79289,0.66157 19.89921,1.36988 20.23296,1.5791 0.33302,0.20916 0.0593,-0.49989 -0.60965,-1.5791 -0.61337,-0.99259 -7.22409,-1.6288 -16.23155,-1.62502 z m -28.70716,2.45295 c -0.32411,0.0222 -0.25291,0.15649 0.29519,0.39457 1.34919,0.58667 2.45295,2.85212 2.45295,5.03619 0,2.81697 0.90426,3.6231 3.10452,2.7787 1.70726,-0.6549 4.42114,-1.18824 6.02887,-1.18824 4.953,0 -1.42298,-5.04242 -8.17136,-6.462 -1.91605,-0.40347 -3.23609,-0.59408 -3.71009,-0.55922 z m 29.58864,7.17096 c -7.39675,0.11793 -10.14185,2.82446 -3.78285,4.25812 v 0.004 c 1.88875,0.42573 4.31716,0.16688 5.39644,-0.5748 1.07929,-0.74168 3.28697,-1.83832 4.90591,-2.43767 1.619,-0.59927 -0.80947,-1.16035 -5.39645,-1.24565 -0.38567,-0.007 -0.75926,-0.007 -1.12305,-0.004 z m -131.332147,0.0883 c -0.596976,0.0148 -1.245937,0.14463 -1.843536,0.38345 -1.565451,0.62597 -1.097861,1.09004 1.188145,1.18424 2.068324,0.0853 3.227529,-0.379 2.575595,-1.03079 -0.376995,-0.37677 -1.102081,-0.55922 -1.920204,-0.53697 z m -7.136541,1.84366 c -1.468507,-0.007 -4.340512,0.89617 -6.504127,2.05415 -3.257077,1.74317 -3.525372,2.5134 -1.345292,3.89411 3.562204,2.25611 4.19748,2.20805 2.709742,-0.19877 -0.672702,-1.08856 0.817573,-2.79657 3.315321,-3.79835 2.497881,-1.00179 3.382428,-1.88031 1.962353,-1.94706 -0.0445,-0.002 -0.09063,-0.004 -0.138026,-0.004 z m 39.166658,0.31448 c -2.23453,0.0742 -6.03274,2.11341 -6.03274,3.69859 0,2.45651 5.3831,2.19196 6.94878,-0.34117 0.71127,-1.1513 0.8918,-2.49634 0.39828,-2.98963 -0.27813,-0.27813 -0.74509,-0.38641 -1.31462,-0.36787 z m 112.69747,0.21805 c -0.58889,-0.004 -0.98888,0.42424 -0.98888,1.1921 0,1.14285 0.88304,2.08107 1.96233,2.08107 1.07929,0 1.96241,-0.39012 1.96241,-0.8662 0,-0.47616 -0.88312,-1.41053 -1.96241,-2.0773 -0.35452,-0.21879 -0.68605,-0.32782 -0.97345,-0.3293 z m -130.30887,4.66448 c -0.98726,-0.005 -2.37734,0.2544 -4.12018,0.8625 -3.23786,1.12869 -5.887068,2.85123 -5.887068,3.82498 0,2.34912 3.304348,2.24157 7.979748,-0.26033 4.41689,-2.36402 4.757,-4.41254 2.0275,-4.42685 z m 90.66694,0.92369 c -2.41661,-0.007 -1.50753,0.67122 1.36832,2.38012 2.69823,1.60343 7.11351,2.50753 9.81173,2.00831 4.76869,-0.88208 4.78278,-0.85523 0.49025,1.03494 -2.4284,1.06927 -4.41528,2.88409 -4.41528,4.03205 0,3.11423 6.06796,4.85058 7.70373,2.20375 1.06972,-1.731 4.04029,-1.59409 12.06546,0.56368 13.12963,3.52986 13.5908,3.57399 13.5908,1.2188 0,-3.46987 -20.41252,-11.50862 -32.37883,-12.75137 -4.1413,-0.43017 -6.78657,-0.68457 -8.23655,-0.68976 z m -70.69078,2.70586 c -0.69643,0.0297 -1.5791,0.36936 -2.74421,0.99281 -2.07306,1.10948 -4.85541,1.39131 -6.1822,0.6282 -1.32678,-0.76252 -1.80613,-0.71275 -1.0655,0.11125 0.74019,0.82379 0.53564,3.62288 -0.45227,6.22045 l -1.79371,4.72204 7.74206,-3.94765 c 5.23973,-2.67315 7.38385,-4.8904 6.63068,-6.85295 -0.50286,-1.31047 -1.11719,-1.9188 -2.13485,-1.8743 z m -11.34103,2.66374 -4.90588,1.29927 c -2.69823,0.71497 -6.23048,2.05066 -7.84943,2.96671 -2.61648,1.48016 -2.61648,1.66447 0,1.65565 1.61895,-0.006 5.1512,-1.34074 7.84943,-2.96649 z m 62.79536,1.39524 3.92474,4.57623 c 6.87661,8.01523 24.75801,24.52728 29.1325,26.90191 7.22624,3.92258 6.29388,0.9219 -2.49893,-8.03719 -9.99952,-10.1888 -9.34796,-15.24816 1.16518,-9.04528 3.76542,2.22132 7.79762,3.45132 8.96087,2.73271 1.2277,-0.75881 1.54944,-0.38864 0.7666,0.87777 -1.61693,2.6162 9.36894,8.75173 14.05457,7.84948 3.13292,-0.60373 -13.85973,-11.60503 -32.36733,-20.95366 -10.19192,-5.14806 -10.26705,-5.14724 -8.8919,0.11125 l 1.11911,4.28497 -7.68074,-4.64921 z m -59.24626,11.62461 c -0.12215,0.0148 -0.33264,0.10013 -0.64007,0.26478 -5.20101,2.78359 -19.589055,12.87894 -19.589055,13.74418 0,1.34206 11.371605,-5.76618 17.201265,-10.75077 2.39811,-2.05066 3.55714,-3.32309 3.02785,-3.25789 z m 41.50459,1.3299 c -0.0223,-0.003 -0.0445,0.006 -0.0668,0.0297 -1.28547,1.28555 -4.22133,45.3039 -3.26546,48.95918 1.04325,3.98948 3.49939,4.6188 5.48464,1.40667 1.3029,-2.10822 -0.79271,-50.18607 -2.15399,-50.3927 z m -51.20905,0.0445 c -4.26084,-0.007 -24.26115,14.11509 -24.26115,17.51168 0,2.63073 4.842547,1.85382 8.945574,-1.43329 3.679849,-2.94802 3.665312,-2.9814 -0.475267,-0.98117 -11.79639,5.69846 -7.003751,-0.15649 6.408303,-7.83041 5.97734,-3.4198 10.48292,-6.59937 10.01492,-7.06737 -0.13357,-0.1335 -0.34836,-0.19877 -0.63242,-0.19951 z m 44.00351,0 c -0.24698,0.0371 -0.82824,0.88683 -1.82053,2.45295 -1.36765,2.15858 -4.46556,9.22306 -6.88744,15.69887 -2.4218,6.47574 -4.4781,10.44957 -4.56858,8.83057 -0.12683,-2.2708 -0.82423,-2.07633 -3.04704,0.86249 -3.61961,4.78501 -3.65677,6.98698 -0.12237,6.98698 2.08366,0 2.49752,1.91723 1.70177,7.84939 -1.40926,10.50728 2.56065,10.3605 5.40409,-0.19877 1.1918,-4.42633 1.66826,-8.54605 1.05786,-9.1566 -0.61041,-0.6104 -1.11148,0.50879 -1.11148,2.48751 0,1.97887 -0.49841,3.09717 -1.10762,2.48752 -0.60892,-0.60966 -0.44872,-4.50814 0.35674,-8.66577 1.38101,-7.13316 1.55226,-7.28156 3.04318,-2.65238 1.29727,4.02857 1.44605,3.67746 0.81637,-1.96233 -0.7534,-6.7466 -0.73204,-6.77249 1.38359,-1.47179 2.06268,5.1689 5.32362,7.36671 5.32362,3.59135 0,-0.99103 0.59186,-3.3486 1.31848,-5.24321 1.04636,-2.72693 0.58815,-3.16296 -2.21146,-2.08872 -3.7388,1.43463 -3.74021,1.59068 -0.0593,-15.65666 0.6156,-2.88624 0.84989,-4.19434 0.53253,-4.15103 z m 24.56013,1.82067 c -0.33524,2.3e-4 -0.39235,1.3064 -0.45984,4.0664 -0.0742,2.96812 0.84418,5.39652 2.03895,5.39652 1.19477,0 1.63436,1.40637 0.97352,3.12758 -1.1875,3.09443 4.1709,17.27249 9.75811,25.81713 2.76653,4.23105 6.81038,6.02428 6.63831,2.94357 -0.18171,-3.24832 -7.61265,-15.00265 -7.75357,-12.26475 -0.0942,1.82008 -1.22481,1.07106 -2.95893,-1.96233 -3.83788,-6.71307 -3.64564,-12.16737 0.20693,-5.88707 2.86941,4.6771 2.78626,3.08249 -0.23363,-4.43827 -1.10109,-2.74198 -0.66676,-3.17824 2.11178,-2.11185 2.71632,1.04235 3.21963,0.60372 2.24217,-1.9432 -2.04303,-5.32406 -0.55626,-3.93489 9.09504,8.49332 7.94997,10.23953 15.03196,15.06385 15.03196,10.24487 0,-0.83987 -6.70826,-8.56667 -14.90928,-17.17065 -8.20103,-8.60376 -14.00881,-13.83711 -12.90482,-11.63225 1.64051,3.27636 1.36298,4.05542 -1.52919,4.27347 -1.94631,0.14685 -4.47039,-1.65743 -5.60731,-4.00892 -0.93281,-1.92962 -1.44442,-2.94394 -1.74005,-2.94357 z m -20.79256,0.0668 c -0.29445,0.007 -0.73871,0.54068 -1.38746,1.54454 -1.04628,1.61901 -1.91686,3.60589 -1.9317,4.41535 -0.0148,0.80947 0.85241,1.47172 1.9317,1.47172 1.07929,0 1.95039,-1.98688 1.93556,-4.41529 -0.0148,-2.06401 -0.14389,-3.02945 -0.5481,-3.01632 z m -42.16763,5.46927 c -1.08984,0.0371 -3.03127,1.34993 -4.35397,2.94357 -1.36276,1.64208 -1.57381,2.9435 -0.47913,2.9435 1.07936,0 3.06018,-1.32441 4.4038,-2.9435 1.36276,-1.64192 1.57756,-2.94357 0.48291,-2.94357 -0.0171,0 -0.0363,-5.9e-4 -0.0534,0 z m 102.32229,2.8209 c -1.80243,0.0519 -2.22192,2.26946 0.44871,5.22023 1.85657,2.05148 4.12417,3.73301 5.03621,3.73301 2.64705,0 1.92266,-3.38176 -1.44493,-6.74934 -1.58348,-1.58363 -3.02857,-2.23394 -4.0397,-2.2039 z m -82.05484,5.51912 c -1.39606,0.11348 -8.93032,16.77771 -8.9034,19.87281 0.007,1.21175 2.23735,-2.56287 4.94803,-8.38615 2.71076,-5.82313 4.54285,-10.97193 4.07033,-11.44446 -0.0297,-0.0297 -0.0667,-0.0445 -0.11496,-0.0445 z m -20.10265,6.14391 c -0.16614,0.0148 -0.36987,0.0949 -0.61322,0.2455 -1.06697,0.65935 -1.94318,2.03138 -1.94318,3.04696 0,2.82282 1.40903,2.19996 2.71357,-1.19959 0.52385,-1.36425 0.43618,-2.14486 -0.15716,-2.09272 z m 63.54664,4.89433 c -1.725,0.0994 -3.21132,2.86955 -3.0394,7.60413 0.18765,5.15829 0.53624,5.94343 1.16132,2.62546 0.6727,-3.56873 1.3032,-4.06625 2.56791,-2.01988 2.36128,3.8203 4.47469,1.00237 2.92058,-3.89411 -0.96492,-3.04006 -2.35171,-4.38821 -3.61041,-4.3156 z"/> <path id="path2358" style="fill:url(#radialGradient34865);fill-opacity:1;stroke-width:9.99998;stroke-linecap:round;stroke-linejoin:round" d="m 506.39229,294.393 c 12.5908,79.36852 -92.34547,128.25108 -168.40153,128.25108 -76.05606,0 -110.62813,-47.11489 -118.82551,-104.93271 -11.8039,-83.25496 60.91475,-102.72418 135.35088,-118.14645 86.28607,-17.87734 142.72633,37.1499 151.87616,94.82808 z"/> <path style="fill:#7a6b0f;stroke-width:0.999998;fill-opacity:1" d="m 259.27423,364.5447 c -4.88539,-2.40813 -13.14478,-14.78011 -19.69065,-29.49514 -1.31465,-2.95532 -1.78442,-8.27491 -1.04391,-11.82137 0.74019,-3.54639 2.07712,-11.42519 2.9702,-17.50846 1.90565,-12.97986 5.41914,-17.95557 12.67896,-17.95557 15.52373,0 26.81731,20.75882 26.54763,48.79758 -0.20643,21.44737 -0.88649,23.66297 -8.45233,27.52748 -7.44914,3.80487 -6.29692,3.7645 -13.0099,0.45572 z" id="path2474"/> <path id="path2690" style="fill:#7a9922;stroke-width:0.999998;fill-opacity:1" d="m 357.60064,212.69466 c -0.84488,0.003 -2.07803,0.64663 -3.16199,1.72535 -2.13304,2.12274 -1.88582,2.37116 1.21547,1.20479 2.14588,-0.80747 3.35633,-2.0078 2.68597,-2.66986 -0.17765,-0.17547 -0.43424,-0.26158 -0.73937,-0.25996 z m 38.76012,10.85159 c -1.38045,0 -2.76081,0.13729 -3.80801,0.40699 -2.09439,0.54021 -0.38078,0.98229 3.80801,0.98229 4.18887,0 5.9024,-0.44111 3.808,-0.98229 -1.04728,-0.27052 -2.42756,-0.40699 -3.808,-0.40699 z m -106.18233,6.18774 c -1.20659,0.0406 -2.72586,1.47855 -3.40428,3.22404 -0.68837,1.77328 -0.91174,3.22397 -0.49757,3.22397 0.41451,0 1.96964,-1.45069 3.45955,-3.22397 1.56138,-1.85824 1.77512,-3.22404 0.50168,-3.22404 -0.0165,0 -0.0411,-6.5e-4 -0.0576,0 z m 79.8875,4.57571 c -0.9235,0.0163 -1.83607,0.16978 -2.53727,0.44923 -1.49608,0.59626 -0.27222,1.0831 2.72002,1.0831 2.99223,0 4.21601,-0.48659 2.72001,-1.0831 -0.79446,-0.31682 -1.85614,-0.46873 -2.90276,-0.44923 z m 87.55023,2.78327 c -0.42766,3.2e-4 -0.91034,0.0731 -1.41523,0.2307 -1.79528,0.55403 -4.7524,1.46727 -6.57474,2.03185 -2.76228,0.8554 -2.85719,1.74833 -0.565,5.37328 2.88721,4.56661 6.05199,5.77205 6.05199,2.30471 0,-1.1234 -1.71361,-3.02657 -3.808,-4.23152 -3.2555,-1.87271 -2.93993,-2.20163 2.17598,-2.25849 3.29119,-0.0325 5.98406,-1.00009 5.98406,-2.14517 0,-0.82494 -0.75498,-1.30626 -1.84881,-1.30553 z m -132.71508,1.23842 c -1.4001,0.0569 -2.52452,1.00406 -2.52452,2.14931 0,1.18213 -1.2811,2.14931 -2.8475,2.14931 -1.56656,0 -4.64762,1.29984 -6.84679,2.88823 -3.78629,2.73436 -3.74353,2.8671 0.76075,2.53972 5.0122,-0.36474 16.17148,-9.72657 11.59401,-9.72657 -0.0494,0 -0.0905,-0.002 -0.1357,0 z m 3.50617,7.62763 c -0.93929,0.0162 -3.2967,1.35946 -5.72475,3.30373 -2.8257,2.26256 -4.29414,4.08319 -3.26397,4.04265 2.65537,-0.0967 10.44681,-6.14841 9.32872,-7.24565 -0.074,-0.0731 -0.18587,-0.10398 -0.33967,-0.10073 z m -64.29419,5.34395 c -4.71177,0.18521 -24.43334,20.24501 -24.25051,24.72998 0.0946,2.31536 0.66863,2.99205 1.27501,1.50707 0.60613,-1.48513 1.99512,-2.15044 3.08969,-1.48188 1.09457,0.66775 1.98904,-0.83363 1.98904,-3.33737 0,-2.5035 0.93305,-3.98489 2.06973,-3.29115 1.13676,0.69375 3.21783,-0.94249 4.62829,-3.63542 1.41046,-2.69293 5.13294,-7.03794 8.2705,-9.65524 3.13797,-2.61731 4.5023,-4.79538 3.03451,-4.83599 -0.0329,-10e-4 -0.0658,-10e-4 -0.10609,0 z m 212.64946,21.4178 c -1.14629,0.0406 -2.07934,0.75304 -2.09529,1.61202 -0.0165,0.8866 -0.57817,4.02998 -1.24952,6.9853 -1.1773,5.18611 -1.10041,5.22738 2.20575,1.20065 3.86903,-4.71235 4.5176,-9.79797 1.24952,-9.79797 -0.0411,0 -0.074,-0.001 -0.11021,0 z m -212.39015,2.97214 c -0.23274,0.008 -0.48605,0.0918 -0.74758,0.25182 -1.1968,0.7303 -2.17607,2.23762 -2.17607,3.34996 0,1.11235 0.97927,2.0234 2.17607,2.0234 1.19679,0 2.17598,-1.51113 2.17598,-3.3541 0,-1.43981 -0.59626,-2.30748 -1.42799,-2.27108 z m 11.43249,12.07319 c -0.47783,0.0406 -1.40833,1.47856 -2.08675,3.22405 -0.68919,1.77328 -0.30512,3.22397 0.85426,3.22397 1.15921,0 2.10805,-1.45069 2.10805,-3.22397 0,-1.77319 -0.38408,-3.22405 -0.85426,-3.22405 -0.007,0 -0.0165,-6.5e-4 -0.0247,0 z m -17.99028,2.08222 c -1.9429,0.008 -5.81884,1.31332 -8.46179,3.40032 -4.05934,3.20537 -4.01255,3.27783 1.21554,1.90585 2.992,-0.78473 6.37283,-2.28391 7.50976,-3.33314 1.49098,-1.37604 1.06586,-1.97831 -0.26318,-1.97303 z m 227.97072,0.0731 c -0.1061,0.0162 -0.16942,0.12754 -0.17436,0.35256 -0.0165,0.7896 -0.62504,2.96612 -1.35149,4.83599 -0.86668,2.23103 -0.11843,3.40032 2.17598,3.40032 1.92333,0 3.48026,-0.72542 3.46382,-1.61202 -0.0411,-1.81657 -3.31776,-7.08977 -4.11403,-6.97693 z m -253.87028,6.43964 c -3.26841,0.0812 -4.11798,2.57783 -1.65325,5.01227 2.50372,2.47311 5.07446,1.568 5.07446,-1.7883 0,-1.77319 -1.46877,-3.22397 -3.26397,-3.22397 -0.0493,0 -0.10527,-0.001 -0.15708,0 z m 25.25782,0.50366 c -5.61447,0.0569 -10.95655,3.71868 -10.95655,8.16913 0,4.97523 3.34548,5.62495 5.14248,0.99911 0.68919,-1.77319 3.71252,-3.22397 6.71932,-3.22397 4.04322,0 5.82665,1.42178 6.85526,5.46987 1.96108,7.71787 3.36389,5.23274 1.69576,-3.00569 -0.94858,-4.68497 -2.93351,-7.20691 -6.341,-8.05167 -1.02647,-0.25426 -2.07556,-0.36718 -3.11527,-0.35662 z m 59.58514,1.67498 c -2.29384,0.0163 -5.64227,1.01649 -7.43746,2.21649 -2.38373,1.59318 -1.50348,1.79212 3.26396,0.73843 8.00099,-1.76776 9.74076,-2.99594 4.1735,-2.95533 z m -47.53633,2.66564 c -0.78953,0.0569 -0.0872,4.14411 2.54147,11.17913 2.10648,5.63737 4.10975,8.88554 4.44975,7.22039 0.33966,-1.66507 -0.94144,-6.71495 -2.8475,-11.22105 -2.10771,-4.98269 -3.5491,-7.22274 -4.14372,-7.17847 z m 48.26311,1.86385 c -0.66206,0.0162 -1.38152,0.15841 -2.04423,0.41998 -1.73582,0.68644 -1.21744,1.19399 1.31745,1.29716 2.2935,0.0934 3.57896,-0.41511 2.85604,-1.12924 -0.41779,-0.41268 -1.22204,-0.61251 -2.12926,-0.58814 z m -58.97745,2.85882 c -0.70646,0.0325 -1.55439,0.40536 -2.52452,1.20065 -1.78105,1.46003 -3.23848,4.60479 -3.23848,6.98952 0,2.38473 -1.52568,5.43623 -3.39152,6.78384 -4.35147,3.14281 -1.07928,12.78002 5.52507,16.27117 2.48447,1.31332 3.91812,3.35069 3.1832,4.52535 -1.94578,3.10958 3.17375,8.33948 6.81283,6.96019 1.70769,-0.64744 3.10244,-0.10398 3.10244,1.2048 0,3.84224 -10.46703,2.7251 -12.78398,-1.36434 -1.16653,-2.0589 -2.67346,-3.19862 -3.34901,-2.53136 -2.45749,2.42738 7.88618,10.8104 12.52903,10.15476 3.64443,-0.51503 4.59877,-1.99545 4.27548,-6.62007 -0.22946,-3.27661 0.40545,-5.45565 1.40676,-4.84444 2.74748,1.67726 4.08047,-3.6632 2.12926,-8.53436 -1.57445,-3.93031 -1.75859,-3.83827 -2.12926,1.07465 -0.28456,3.76889 -0.704,4.24704 -1.40249,1.6078 -0.72373,-2.73469 -2.37772,-3.41917 -6.06055,-2.50617 -4.29464,1.06458 -5.29035,0.25588 -6.52802,-5.31032 -1.00032,-4.49838 -0.27716,-8.54323 2.29079,-12.8373 3.6376,-6.08245 3.21405,-12.35922 0.15297,-12.22437 z m -26.51581,1.89748 c -0.60366,0.0406 -1.00723,0.49959 -1.00723,1.30138 0,1.25191 0.97919,2.27945 2.17598,2.27945 1.19688,0 2.17598,-0.4273 2.17598,-0.94874 0,-0.52153 -0.9791,-1.54501 -2.17598,-2.27531 -0.43013,-0.26239 -0.83024,-0.37774 -1.16875,-0.35662 z m 250.57227,0.1844 c -0.44494,0.0162 -0.9393,0.56377 -1.60653,1.60358 -1.01225,1.57684 -1.77398,3.83436 -1.69996,5.01649 0.074,1.18213 0.63491,0.93095 1.24096,-0.55402 0.60613,-1.48416 1.98337,-2.15825 3.06428,-1.49862 1.08067,0.65962 1.3501,-0.38343 0.59955,-2.31731 -0.5979,-1.53883 -1.06093,-2.27425 -1.59798,-2.25004 z m -6.77878,4.47076 -5.44003,4.27352 c -2.992,2.35166 -5.84689,4.52811 -6.34528,4.83599 -0.49839,0.30869 0.0855,0.56296 1.29631,0.56296 1.21078,0 4.06534,-2.17629 6.3452,-4.83608 z m -244.78797,3.22405 c -1.21316,0.0569 -2.18881,1.00406 -2.18881,2.14931 0,1.18213 0.4326,2.14931 0.96052,2.14931 0.52799,0 1.56417,-0.96718 2.30353,-2.14931 0.73937,-1.18221 0.31088,-2.14931 -0.95623,-2.14931 -0.0411,0 -0.0822,-0.002 -0.11925,0 z m 36.92413,0 c -1.17122,0.10966 -2.1208,3.64525 -2.1208,7.95085 0,7.56605 3.41678,8.06491 4.42853,0.64663 0.76815,-5.62998 -0.008,-8.59732 -2.25255,-8.59732 -0.0164,0 -0.0329,-0.002 -0.0576,0 z m -7.80303,5.15499 c -0.5757,0.065 -0.79529,1.65858 -0.81174,5.05435 -0.0164,3.842 0.94522,6.9853 2.14202,6.9853 1.19679,0 2.16463,-1.69261 2.14629,-3.76133 -0.0165,-2.06873 -0.98618,-5.21211 -2.14629,-6.9853 -0.57488,-0.87921 -1.00748,-1.32827 -1.3302,-1.29302 z m -17.65884,4.14339 c -0.24015,0.007 -0.32897,1.0991 -0.40792,3.19878 -0.22617,6.02112 3.43133,13.29489 6.68526,13.29489 1.59823,0 1.52701,-1.00463 -0.22534,-3.08969 -1.42642,-1.69756 -3.42188,-5.8082 -4.43272,-9.13469 -0.87877,-2.89155 -1.34739,-4.27717 -1.61928,-4.26929 z m 93.21552,8.43363 c -0.32075,0.003 0.67604,0.8091 2.89429,2.56491 4.43963,3.51324 5.56751,3.99131 5.56751,2.34663 0,-0.54996 -2.20321,-2.05687 -4.896,-3.34574 -2.13033,-1.01974 -3.30007,-1.5684 -3.5658,-1.5658 z m 145.49495,0.20959 c -2.66779,0.0325 -3.88276,1.0974 -3.71877,3.24915 0.15544,2.03598 2.32508,3.65548 5.134,3.82851 3.27582,0.20146 4.77527,-0.85378 4.59433,-3.22819 -0.15544,-2.03599 -2.32517,-3.65126 -5.13408,-3.82429 -0.30677,-0.0163 -0.59955,-0.0244 -0.87548,-0.0244 z m -203.26959,14.11755 c -1.18635,0.0731 -3.20854,2.06913 -4.50929,4.97458 -1.18142,2.63883 -4.59844,6.0121 -7.59052,7.49334 -4.7158,2.33453 -4.86063,2.69188 -1.08799,2.69082 2.3936,-6.5e-4 5.43214,-0.70999 6.74901,-1.57839 2.37164,-1.56418 7.39502,-9.8446 7.39502,-12.1866 0,-1.00277 -0.37667,-1.42852 -0.95623,-1.39375 z m 128.03588,3.66483 c -1.4006,0.0406 -3.22795,0.44679 -5.49103,1.22575 -5.7912,1.99415 -6.0617,2.48124 -2.72001,4.8948 3.46135,2.50017 3.4315,2.83624 -0.45892,5.06694 -3.64878,2.09213 -3.70133,2.39887 -0.44164,2.45573 3.49598,0.065 12.59704,-7.69107 12.59704,-10.7299 0,-2.00796 -1.15074,-2.97636 -3.48503,-2.91332 z m 61.62097,2.2459 c -1.10806,0.0244 -3.48504,0.85451 -5.91605,2.1199 -2.99841,1.56077 -3.97504,2.83006 -2.17598,2.82941 3.75167,-0.001 10.17483,-3.59107 8.64454,-4.83177 -0.1061,-0.0861 -0.2969,-0.12266 -0.55268,-0.11779 z m -223.9715,5.57904 c -0.4145,0.007 -0.94776,0.44761 -1.55126,1.38952 -1.06751,1.66597 -1.43621,4.32584 -0.81996,5.91065 1.2945,3.33184 7.17823,3.93485 7.17823,0.73436 0,-1.18213 -0.9791,-2.14939 -2.17598,-2.14939 -1.19704,0 -2.05821,-0.72543 -1.91675,-1.61194 0.43342,-2.71186 0.074,-4.28652 -0.71387,-4.27352 z m 37.20466,3.73615 c -1.17426,0.065 -1.51713,1.06978 -0.75252,2.29204 0.79035,1.26312 -0.61929,2.826 -3.1365,3.47588 -4.4754,1.15597 -6.00232,4.99423 -3.11955,7.84176 2.44771,2.41763 5.49209,1.58993 4.53907,-1.2342 -0.49511,-1.4671 0.40134,-3.95183 1.99323,-5.52446 3.4769,-3.4342 3.77157,-6.85102 0.5905,-6.85102 -0.0411,0 -0.074,-0.002 -0.11431,0 z m 34.51861,4.5589 c -0.66206,0.0163 -1.3816,0.15841 -2.04431,0.41998 -1.7359,0.68644 -1.21736,1.19399 1.31753,1.29716 2.2935,0.0934 3.57896,-0.41511 2.85604,-1.12924 -0.41779,-0.41268 -1.22213,-0.61251 -2.12926,-0.58814 z m -23.9361,1.0957 c -1.94389,-0.0163 1.20419,3.4026 7.84982,7.40512 8.07567,4.86393 15.75755,5.29927 19.97504,1.13347 2.59674,-2.56491 1.94093,-3.19789 -4.54333,-4.39944 -4.16905,-0.77254 -8.5146,-0.8355 -9.65596,-0.1381 -1.14129,0.697 -5.15079,-0.30544 -8.90805,-2.22494 -2.41538,-1.23371 -3.95686,-1.76791 -4.71752,-1.77571 z m 156.11997,1.49025 c -0.3191,0.0162 -0.69084,0.1381 -1.08371,0.37774 -1.1968,0.7303 -2.17606,2.29375 -2.17606,3.47588 0,1.18245 0.97926,1.55312 2.17606,0.82282 1.19679,-0.7303 2.17598,-2.29797 2.17598,-3.4801 0,-0.79447 -0.43918,-1.22315 -1.09227,-1.19642 z m -183.40928,0.22258 c -0.14639,0.007 -0.30018,0.0569 -0.45891,0.15516 -1.1968,0.7303 -2.17606,3.68839 -2.17606,6.57393 0,2.88562 0.97926,5.24744 2.17606,5.24744 1.19679,0 2.17598,-2.96198 2.17598,-6.57815 0,-3.35638 -0.69331,-5.44696 -1.71699,-5.39854 z m 175.05374,1.22998 c -0.70317,0 -5.91128,2.90162 -11.57279,6.44801 -11.13213,6.97344 -11.17177,8.11739 -0.12336,3.55565 6.26015,-2.58473 14.93463,-10.00366 11.69599,-10.00366 z m -86.83627,0.25995 c -0.66206,0.0162 -1.38152,0.15841 -2.04423,0.41998 -1.73582,0.68644 -1.21744,1.19399 1.31753,1.29716 2.29342,0.0934 3.57888,-0.41511 2.85596,-1.12924 -0.41779,-0.41268 -1.22204,-0.61251 -2.12926,-0.58733 z m -83.57651,4.77726 c -0.30347,0.0325 -0.51155,0.81803 -0.57405,2.30463 -0.0946,2.26621 0.42026,3.53509 1.14325,2.82104 0.72292,-0.71405 0.79858,-2.5667 0.17025,-4.1182 -0.2821,-0.69699 -0.53211,-1.02957 -0.73937,-1.00747 z m 42.10065,7.8879 c -1.55685,0.0162 -1.28965,0.86385 0.6711,2.11576 4.1804,2.66848 4.93358,2.66848 3.26397,0 -0.73936,-1.18213 -2.51005,-2.13201 -3.93548,-2.11576 z m 80.89046,1.52388 c -0.91084,0.005 -1.96495,0.0731 -3.11947,0.20552 -4.10482,0.4736 -7.46723,1.23875 -7.46723,1.70017 0,1.61755 12.81046,0.82226 13.8635,-0.8606 0.42026,-0.67263 -0.949,-1.05817 -3.2768,-1.04525 z m -47.76159,0.87311 c -0.9235,0.0163 -1.83607,0.16572 -2.53727,0.44517 -1.49608,0.59626 -0.27222,1.08725 2.72002,1.08725 2.99223,0 4.21601,-0.49066 2.72001,-1.08725 -0.79446,-0.31682 -1.85614,-0.46466 -2.90276,-0.44517 z m 6.17101,6.4312 c -0.66206,0.0163 -1.38152,0.15841 -2.04423,0.41998 -1.73582,0.68644 -1.21744,1.19399 1.31745,1.29716 2.2935,0.0934 3.57896,-0.41511 2.85604,-1.12924 -0.41779,-0.41268 -1.22204,-0.61251 -2.12926,-0.58814 z m 44.62937,0.68806 c -0.38654,0.0163 -0.90731,0.13729 -1.54271,0.37774 -1.85737,0.70431 -3.37878,1.65955 -3.37878,2.12421 0,1.7407 4.14939,0.76198 5.42728,-1.28042 0.51237,-0.81861 0.28538,-1.24931 -0.50579,-1.22161 z m -106.82827,2.77904 c -0.23439,0.007 -0.36598,0.14135 -0.36598,0.41592 0,1.09773 1.59494,3.56954 3.54458,5.49513 1.94949,1.926 4.96771,2.96345 6.70649,2.30463 1.73878,-0.65962 4.30541,-1.21373 5.70354,-1.22997 1.47913,-0.0163 1.20272,-0.8706 -0.66288,-2.03599 -2.05738,-1.28497 -3.7219,-1.18359 -4.64104,0.28513 -0.90837,1.45175 -3.11692,0.62389 -6.03925,-2.26271 -1.90113,-1.87474 -3.5436,-2.99334 -4.2457,-2.97214 z m 31.73478,2.98051 c -0.66206,0.0162 -1.38152,0.1584 -2.04423,0.41998 -1.73582,0.68643 -1.21744,1.19399 1.31753,1.29716 2.29342,0.0934 3.57887,-0.41511 2.85596,-1.12925 -0.41779,-0.41267 -1.22204,-0.61251 -2.12926,-0.58814 z m -7.12725,4.10146 c -1.12631,0.0325 -0.62833,0.95833 1.13898,2.08635 1.7952,1.14598 4.24324,2.08213 5.44003,2.08213 1.1968,0 0.70729,-0.93615 -1.08798,-2.08213 -1.7952,-1.14589 -4.24324,-2.08635 -5.44004,-2.08635 -0.0164,0 -0.0329,-4.9e-4 -0.0493,0 z m 35.41539,2.34655 c -0.66206,0.0163 -1.3816,0.15841 -2.04431,0.41998 -1.7359,0.68644 -1.21736,1.19399 1.31753,1.29716 2.2935,0.0934 3.57896,-0.41511 2.85604,-1.12924 -0.41779,-0.41268 -1.22213,-0.61251 -2.12926,-0.58814 z"/> <path style="fill:#7a5706;stroke:none;stroke-width:0.264583px;stroke-linecap:butt;stroke-linejoin:miter;stroke-opacity:1;fill-opacity:1" d="m 42.318044,327.96073 235.784366,28.56371 c -2.29846,26.68171 3.63622,111.07676 -115.8519,110.5294 C 97.729003,467.57079 42.243802,426.21967 42.318044,327.96073 Z" id="path1293"/> <path style="fill:url(#radialGradient31435);stroke-width:0.999997;fill-opacity:1.0" d="m 186.22205,412.86235 c 14.79143,-1.26278 41.8726,-9.53412 58.04117,-17.72736 11.83428,-5.99691 26.35641,-18.88482 30.75522,-27.29433 5.2809,-10.09572 4.18425,-27.78769 -2.48158,-40.03502 -12.10915,-22.2484 -43.37205,-43.35083 -74.95891,-50.59717 -34.93183,-8.01368 -97.671752,-2.47431 -123.978094,10.9462 -18.132313,9.25042 -31.677497,27.595 -31.546962,42.72486 0.336722,39.03323 49.643897,77.61159 105.903186,82.8597 8.09475,0.75503 16.92531,1.13054 19.62353,0.83432 2.6983,-0.29593 11.08734,-1.06624 18.64244,-1.7112 z" id="path2266"/> <path id="path2366" style="fill:#112b00;stroke-width:0.999997" d="m 125.67482,290.77553 c -0.45984,0.0148 -0.9773,0.34117 -1.59052,0.95432 -1.18706,1.18728 -1.5734,3.68933 -0.85471,5.56132 0.94986,2.47528 1.89483,2.81541 3.46474,1.24557 1.18698,-1.1872 1.5734,-3.69311 0.85471,-5.5651 -0.57851,-1.50842 -1.15649,-2.22273 -1.87422,-2.19611 z m 23.05772,0.0593 c -0.31743,0.0445 -0.59631,1.29541 -0.68605,3.31915 -0.11941,2.69823 -1.41853,6.49176 -2.88995,8.43199 -2.11348,2.7873 -2.20471,4.78382 -0.42943,9.51661 2.18076,5.81305 2.29194,5.62355 3.68711,-6.46958 0.79062,-6.85377 1.07928,-13.3433 0.64377,-14.42259 -0.10902,-0.26997 -0.22028,-0.39012 -0.32559,-0.37529 z m 21.67405,7.91459 c -0.24327,0.006 -0.53401,0.10532 -0.86621,0.31076 -1.07929,0.66677 -1.94645,3.14679 -1.9317,5.51148 0.0223,3.49538 0.38494,3.74992 1.9317,1.35683 2.16659,-3.35261 2.45733,-7.21838 0.86621,-7.1787 z m 11.96193,1.29163 c -0.48803,0.0519 -1.38924,0.91671 -2.03517,1.96233 -0.66677,1.07929 -0.27664,1.96233 0.86621,1.96233 1.143,0 2.07736,-0.88304 2.07736,-1.96233 0,-1.07936 -0.38641,-1.96233 -0.86235,-1.96233 -0.0148,0 -0.0297,-0.002 -0.0445,0 z m -5.49992,0.71646 c -0.66899,0.0823 -2.67449,3.27302 -5.05542,8.80757 -4.38902,10.20274 -9.00671,13.86589 -10.98454,8.71182 -0.65416,-1.70549 -1.63325,-2.65943 -2.17319,-2.11949 -0.53994,0.53994 -0.42424,2.43107 0.25662,4.20449 1.83513,4.78234 8.43999,3.90835 10.8773,-1.44108 1.46918,-3.22488 3.27665,-4.37055 5.84493,-3.69859 2.51689,0.65786 3.71774,-0.0519 3.71774,-2.19997 0,-1.7448 -0.93444,-3.16971 -2.07737,-3.16971 -1.14292,0 -1.44842,1.01914 -0.67863,2.26516 0.85041,1.37604 0.54068,1.73441 -0.78959,0.91219 -1.52942,-0.94512 -1.60499,-2.89951 -0.24921,-6.4658 1.54247,-4.0569 1.83128,-5.87075 1.31085,-5.80659 z m -45.78198,6.20903 c -0.10606,0.006 -0.18838,0.0897 -0.24549,0.26033 -0.40496,1.2139 -2.45785,1.75837 -4.56473,1.2073 -5.19568,-1.35875 -5.12225,4.51459 0.092,7.30515 3.38257,1.81036 3.94402,1.48106 4.06268,-2.3839 0.13054,-4.25359 0.22473,-4.28207 1.82438,-0.55922 0.92762,2.15865 1.74873,4.96716 1.82438,6.24351 0.2099,3.52824 -6.52899,4.89827 -12.64805,2.57177 -4.65492,-1.76994 -5.11654,-1.65772 -3.12365,0.74353 1.82052,2.19307 1.77929,3.03658 -0.1958,3.82884 -1.61204,0.64674 -1.28711,1.07417 0.89683,1.17289 1.88883,0.0853 3.43412,-0.78106 3.43412,-1.92406 0,-1.14285 0.90663,-1.51859 2.01217,-0.83557 1.10569,0.68456 4.5651,0.68234 7.68845,-0.004 l 5.68014,-1.24564 -3.12365,-9.16403 c -1.47586,-4.33147 -2.96745,-7.25197 -3.61427,-7.21704 z m 79.50992,3.70238 c -0.99466,0.002 -2.7333,0.34636 -5.3581,0.99652 -0.33301,0.0823 -0.0593,1.03249 0.60521,2.11185 1.58534,2.56502 2.02626,2.48862 4.77559,-0.824 1.29371,-1.55886 1.43084,-2.28652 -0.0222,-2.28437 z m -8.67725,0.16465 -6.37769,5.76061 c -3.50776,3.16993 -6.37761,6.04022 -6.37761,6.37769 0,1.51606 1.6222,0.18393 6.99469,-5.76061 z m -36.41089,0.98124 c -1.02314,0.0371 -1.85508,1.34985 -1.85508,2.9435 0,1.61893 0.35007,2.94357 0.77424,2.94357 0.42423,0 1.27954,-1.32464 1.90099,-2.94357 0.62153,-1.61894 0.27145,-2.9435 -0.77416,-2.9435 -0.0148,0 -0.0297,-6.7e-4 -0.0445,0 z m -56.73589,1.96233 c -1.11852,0.0371 -2.02752,1.34985 -2.02752,2.9435 0,1.6354 1.74435,2.94357 3.92473,2.94357 2.15858,0 3.92474,-0.8556 3.92474,-1.90107 0,-1.04502 -1.46956,-1.33673 -3.26554,-0.64749 -2.19588,0.84255 -2.7976,0.50138 -1.84351,-1.0425 0.78032,-1.2627 0.48357,-2.29579 -0.65935,-2.29579 -0.0148,0 -0.0371,-6.6e-4 -0.0519,0 z m 43.80044,0.67493 c -0.28555,-0.007 -0.47912,0.71127 -0.53697,2.10414 -0.0853,2.06831 0.37899,3.22756 1.031,2.57562 0.65194,-0.65193 0.72017,-2.3434 0.15353,-3.75993 -0.24475,-0.61189 -0.46503,-0.91553 -0.64749,-0.91983 z m 80.93565,0.0445 c -0.5036,0.0297 -1.04124,0.32856 -1.6136,0.90069 -1.07988,1.07929 -1.32367,3.00224 -0.54068,4.26969 0.94942,1.53616 2.07989,1.64934 3.38813,0.34117 1.07989,-1.07929 1.31989,-2.99845 0.53624,-4.26583 -0.53401,-0.86405 -1.12313,-1.28147 -1.77069,-1.24565 z m -47.25369,3.20805 c -4.0951,0.11051 -5.62081,3.68035 -2.90516,6.95256 1.74057,2.09702 1.76883,2.85917 0.10755,2.85917 -1.24535,0 -2.73598,-1.22918 -3.31152,-2.72886 -0.62746,-1.63643 -2.6449,-2.30624 -5.04385,-1.67878 -3.40408,0.89016 -2.87474,1.57755 3.56057,4.62228 4.15785,1.96723 8.16913,3.60403 8.91497,3.64112 2.80391,0.13795 3.80028,-4.13218 1.58674,-6.79926 -1.26493,-1.52437 -1.72744,-3.69496 -1.03101,-4.82157 0.69644,-1.12653 -0.0593,-2.04666 -1.67878,-2.04666 -0.0667,0 -0.13425,-0.002 -0.19951,0 z m 33.79699,0.18394 c -0.69644,0.007 -1.53283,0.18022 -2.47209,0.54068 -1.73389,0.66528 -2.60366,2.09813 -1.9317,3.18506 1.59068,2.57384 4.34564,2.52156 5.97518,-0.11496 1.35452,-2.19181 0.51769,-3.63489 -1.57139,-3.61041 z m -127.208179,2.05437 c -1.663212,0.0371 -1.250543,0.65638 1.145966,1.68635 2.158579,0.92754 5.249298,1.68643 6.868233,1.68643 1.85538,0 1.49263,-0.62375 -0.981166,-1.68643 -2.158579,-0.92761 -5.249298,-1.68635 -6.868232,-1.68635 -0.05933,0 -0.111252,-10e-4 -0.164653,0 z m 113.828159,1.70934 c -0.32411,0.005 -1.48224,0.72314 -3.66411,2.12721 -2.63911,1.69866 -5.13841,4.11668 -5.55746,5.37345 -0.41905,1.25678 -0.0223,2.27228 0.87384,2.25745 2.24966,-0.0445 7.94166,-3.8301 5.81045,-3.86718 -0.94163,-0.0148 -0.49989,-1.56183 0.98117,-3.43798 1.30365,-1.65112 1.90092,-2.45791 1.55611,-2.45295 z m -59.20034,0.3256 c -1.07076,0.0148 -2.35364,0.38122 -3.86725,1.08849 -4.18937,1.95988 -4.06098,2.08708 1.98925,1.98918 4.37182,-0.0742 5.82492,-0.75199 4.4804,-2.0965 -0.67196,-0.67196 -1.53164,-0.99852 -2.6024,-0.98117 z m -37.28858,1.85115 c -0.59705,0.0148 -1.24587,0.14463 -1.84352,0.38345 -1.56538,0.62672 -1.09798,1.09012 1.1881,1.18431 2.06906,0.0853 3.22756,-0.379 2.57562,-1.031 -0.37677,-0.37678 -1.10206,-0.55923 -1.9202,-0.53624 z m 103.51046,3.33837 -6.37769,3.16963 c -3.50776,1.74183 -6.37761,4.02672 -6.37761,5.07834 0,2.7873 0.74687,2.45036 7.05603,-3.16963 z m -114.974129,2.31114 c -3.687028,0.0668 -4.900931,2.11682 -2.575624,4.44213 1.57206,1.57214 6.676653,-0.48506 6.676653,-2.69058 0,-0.96381 -1.76615,-1.75155 -3.924732,-1.75155 -0.05933,0 -0.117927,-10e-4 -0.176519,0 z m 130.393159,0.38345 c -1.14544,0.0371 -4.21102,0.88905 -8.5508,2.56027 -3.77781,1.45473 -5.54367,2.67627 -3.92473,2.70594 1.61893,0.0297 5.59276,-1.15049 8.83063,-2.63311 3.90775,-1.79107 4.86422,-2.67278 3.6449,-2.6331 z m -34.70146,1.35297 c -1.22095,0.0148 -2.53157,1.118 -2.93593,3.05853 -0.43685,2.09716 0.35081,2.66336 2.53728,1.82438 1.74294,-0.669 2.88757,-2.05809 2.54499,-3.08538 -0.41386,-1.24046 -1.25537,-1.80851 -2.14634,-1.79753 z M 84.469216,331.9544 c -1.831424,0.0148 -3.234827,0.66603 -3.234827,1.56754 0,1.01224 1.766157,1.84358 3.924736,1.84358 2.158653,0 3.924661,-0.69495 3.924661,-1.54461 0,-0.8496 -1.766008,-1.68109 -3.924661,-1.84352 -0.235854,-0.0148 -0.465032,-0.0223 -0.68976,-0.0223 z m 20.148634,3.66404 c -0.83283,0.0148 -1.65572,0.15501 -2.28815,0.41014 -1.34911,0.54439 -0.24549,0.98881 2.45295,0.98881 2.69845,0 3.80207,-0.44427 2.45295,-0.98881 -0.71646,-0.28925 -1.67389,-0.42794 -2.61775,-0.41014 z m 122.49778,0.5481 c -1.06942,-0.0148 -3.578,0.77905 -8.02576,2.44909 -2.71892,1.02084 -2.20798,1.58778 2.45295,2.71357 3.23786,0.78233 9.8609,1.40585 14.7177,1.3836 4.8568,-0.0223 6.62288,-0.37973 3.92466,-0.80486 -10.7521,-1.69355 -13.84482,-2.8146 -12.73231,-4.61457 0.45243,-0.73204 0.39458,-1.1189 -0.33746,-1.12683 z m -118.27793,3.12364 c -1.06571,0.0519 -2.42795,0.91679 -3.07388,1.96241 -0.66677,1.07929 -0.32782,1.96233 0.75125,1.96233 1.07928,0 2.50672,-0.88304 3.17349,-1.96233 0.66676,-1.07929 0.33153,-1.96241 -0.74739,-1.96241 -0.0371,0 -0.0667,-0.002 -0.10384,0 z m 6.73792,1.96241 c -1.61901,0 -2.94357,1.38212 -2.94357,3.07381 0,2.95306 -2.0121,2.86273 -10.95391,-0.48654 -1.16918,-0.43833 -2.127131,0.56886 -2.127131,2.23452 0,1.66537 1.324491,3.02783 2.943491,3.02783 5.25932,0 1.07922,2.03116 -7.742072,3.76372 -7.228538,1.41979 -7.648031,1.72462 -2.617751,1.90485 3.295793,0.11792 10.580993,-2.06891 16.189413,-4.8637 10.00553,-4.98593 13.07852,-8.65427 7.25153,-8.65427 z m 7.25153,3.82884 c -0.49321,0.0371 0.0853,0.76155 1.64037,2.42617 1.582,1.69347 4.86437,2.96338 7.29366,2.82468 5.36463,-0.30705 5.95686,-3.19262 0.65564,-3.19262 -2.07032,0 -5.35194,-0.61189 -7.29366,-1.35683 -1.22347,-0.46948 -1.97983,-0.7261 -2.29578,-0.70163 z m 94.584,0.50953 c -2.71491,0.0297 -3.21539,1.14456 -1.83587,3.37663 0.71127,1.15116 1.73671,2.0965 2.27665,2.0965 0.5392,0 0.34933,-1.02121 -0.42127,-2.26894 -1.00475,-1.62575 0.35378,-1.90381 4.79094,-0.98116 14.25957,2.96478 18.0735,2.91657 6.69193,-0.0845 -5.48337,-1.44575 -9.25257,-2.16459 -11.50201,-2.1387 z m -70.82495,4.44599 c -3.25374,0.0222 -6.48115,0.81339 -6.48115,2.29193 0,1.47779 2.60121,2.24558 6.8606,2.02752 3.77217,-0.19283 6.56807,-1.23563 6.21281,-2.31492 -0.45391,-1.379 -3.53573,-2.02775 -6.59226,-2.00453 z m 100.31776,1.02714 c -1.54951,0.0519 -2.79404,0.91679 -2.79404,1.96241 0,1.07929 1.32456,1.96233 2.94349,1.96233 1.61901,0 2.94357,-0.88304 2.94357,-1.96233 0,-1.07929 -1.32456,-1.96241 -2.94357,-1.96241 -0.0519,0 -0.0994,-0.002 -0.14982,0 z m -88.63559,0.14537 c -0.16614,0.0148 0.23066,0.92992 1.08848,2.79405 0.99585,2.15865 1.42714,5.24923 0.96582,6.86823 -0.57258,2.00913 0.0927,1.79175 2.0965,-0.68605 3.25774,-4.02812 7.03956,-2.84455 7.27838,2.27666 0.12608,2.70801 0.36193,2.77787 1.27627,0.37528 0.61634,-1.61893 1.95418,-3.49174 2.97421,-4.15851 1.02003,-0.66677 -0.54069,-1.81377 -3.46861,-2.54877 -2.92814,-0.73501 -5.79443,-0.86295 -6.36997,-0.28703 -0.57554,0.57554 -2.28674,-0.48506 -3.80214,-2.35713 -1.22925,-1.51888 -1.88297,-2.29364 -2.03894,-2.27665 z m -45.67081,0.21064 c -2.64096,0.0297 -4.4488,3.47194 -2.25366,6.11706 1.24009,1.49411 1.67642,3.29846 0.96589,4.00899 -0.70979,0.71053 -0.39828,1.29163 0.69347,1.29163 1.0919,0 3.64505,-1.98688 5.67242,-4.41528 2.02753,-2.42818 2.42937,-3.31144 0.89306,-1.96233 -3.81549,3.35038 -6.95902,3.10696 -4.11639,-0.31818 1.70393,-2.05615 1.72396,-3.12417 0.0667,-4.14702 -0.65935,-0.40792 -1.31455,-0.58221 -1.92406,-0.5748 z m 124.47932,1.60595 c -3.40904,0.0972 -3.68925,3.22675 -0.32559,4.58394 1.34911,0.54439 2.6736,1.06068 2.94357,1.14597 0.26923,0.0853 0.49025,-1.16748 0.49025,-2.78641 0,-1.61893 -1.32457,-2.9435 -2.9435,-2.9435 -0.0593,0 -0.11051,-0.002 -0.16465,0 z m -109.88814,0.92747 c -2.1189,-0.0148 -4.74489,1.84589 -4.74489,4.18536 h 0.004 c 0,3.1376 5.0549,3.70824 6.86823,0.77424 0.66603,-1.07929 0.68754,-2.80821 0.0519,-3.84041 -0.47912,-0.77535 -1.28236,-1.11444 -2.17697,-1.11919 z m 74.40094,0.65194 c -0.43907,0.007 -0.65193,0.32708 -0.65193,0.94667 0,1.84819 1.15309,3.36136 2.56027,3.36136 1.40726,0 5.55257,3.09072 9.21386,6.86823 6.1965,6.39289 7.8494,7.71775 7.8494,6.301 0,-0.31002 -4.41536,-4.91042 -9.8118,-10.22573 -4.9998,-4.92459 -7.94686,-7.27467 -9.16017,-7.25153 z m -7.01004,0.38344 c -0.82749,0.0519 -1.49099,0.91679 -1.49099,1.96234 0,1.07928 0.75191,1.9624 1.66729,1.9624 0.91538,0 3.26071,3.5404 5.21251,7.86853 1.95165,4.32821 3.89196,7.52566 4.31174,7.10587 1.17883,-1.17882 -7.84138,-18.89914 -9.62007,-18.89914 -0.0297,0 -0.0519,-0.002 -0.0808,0 z m -8.27489,1.2725 c -0.52808,0.007 -1.108,0.10013 -1.75926,0.26478 -4.11283,1.03776 -7.06567,3.85509 -7.125,6.80311 -0.0148,0.80947 0.85241,1.47179 1.9317,1.47179 1.07936,0 1.96233,-1.32464 1.96233,-2.94357 0,-3.5361 3.86013,-3.99957 4.08189,-0.49025 0.11719,1.85501 0.4057,1.82616 1.18046,-0.10754 0.7683,-1.91769 1.71535,-1.67234 3.7982,0.98116 2.48247,3.16259 2.54611,2.99371 0.57851,-1.61745 -1.33613,-3.13173 -2.57777,-4.38999 -4.64913,-4.36158 z m 38.89446,0.68976 c -1.57784,0.0519 -2.33999,0.91679 -1.69406,1.96241 0.66677,1.07929 2.0468,1.96233 3.06238,1.96233 1.01558,0 1.84352,-0.88304 1.84352,-1.96233 0,-1.07929 -1.37581,-1.96241 -3.05846,-1.96241 -0.0519,0 -0.10235,-0.002 -0.15353,0 z m -68.91238,0.26849 c -0.23141,0.007 -0.49544,0.0593 -0.78574,0.15723 -1.4522,0.48358 -2.94223,2.4534 -3.3153,4.37701 -0.43388,2.23705 0.27368,3.17995 1.96234,2.61776 1.4522,-0.48358 2.94223,-2.4534 3.31529,-4.37701 0.35898,-1.85257 -0.0593,-2.81704 -1.17659,-2.77484 z m -35.7057,5.61873 c -1.87066,0.0831 -7.94908,5.42396 -7.94908,7.00625 0,1.20011 3.09146,1.04021 6.71115,-0.34858 3.30669,-1.26887 4.34252,-6.65745 1.28013,-6.65745 -0.0148,0 -0.0297,-6.7e-4 -0.0445,0 z m -23.755193,6.27414 c -0.263296,0.0223 -1.207007,0.4502 -2.83625,1.19967 -2.158578,0.99303 -5.249298,2.29757 -6.868232,2.89758 -2.542545,0.94297 -2.523706,1.11215 0.118669,1.24565 1.682496,0.0853 4.773215,-1.21909 6.868232,-2.89758 2.166885,-1.73612 3.078481,-2.47394 2.717432,-2.44532 z m 71.422813,0.28777 c -0.27368,0.0297 -0.45761,0.74687 -0.51324,2.10422 -0.0853,2.06898 0.379,3.22748 1.03101,2.57555 0.65193,-0.65194 0.72017,-2.34326 0.15353,-3.75986 -0.2544,-0.63562 -0.48358,-0.94008 -0.67048,-0.91991 z m 25.45698,2.1502 c -0.51621,0.0148 -0.61708,0.94453 -0.61708,2.92051 0,2.30498 1.2745,4.06654 2.94357,4.06654 1.61893,0 2.9435,-0.50582 2.9435,-1.12297 0,-0.61708 -1.32457,-2.44761 -2.9435,-4.06655 -1.18557,-1.18557 -1.89847,-1.8071 -2.32649,-1.79753 z m -45.68994,1.56376 c -2.12639,0.0148 -4.03169,1.79723 -2.92051,3.59506 0.62079,1.00467 1.9073,1.82823 2.85917,1.82823 2.74821,0 4.19152,-3.53038 1.99689,-4.88676 -0.61262,-0.37826 -1.28458,-0.54069 -1.93555,-0.53624 z m 68.41798,1.74005 c -0.43314,-9.7e-4 -0.81829,0.1246 -1.10377,0.41014 -0.57628,0.57629 -0.46577,1.99178 0.2455,3.14286 1.59876,2.58668 4.98637,2.75311 4.98637,0.2455 0,-1.845 -2.42921,-3.79443 -4.12788,-3.79821 z m -11.28737,1.96618 c -0.43388,0.0593 -0.16688,1.69251 0.94289,4.58394 0.67271,1.75385 1.63741,2.77402 2.14249,2.26894 0.50508,-0.50508 -0.0222,-2.52993 -1.16518,-4.49961 -0.9578,-1.64719 -1.61352,-2.39391 -1.9202,-2.35327 z m -45.88159,1.05014 c -1.20263,-0.0148 -5.24499,6.57653 -5.35046,9.37867 -0.0371,1.01587 1.22481,0.13276 2.8094,-1.96233 1.58459,-2.09502 2.87845,-5.13049 2.87452,-6.74942 -0.001,-0.45836 -0.12386,-0.66454 -0.33376,-0.66677 z m -48.11597,4.61843 c -0.79188,0.0297 -2.84952,1.58986 -4.9481,3.79828 l -4.36166,4.58772 5.20488,-3.71773 c 2.86235,-2.04429 4.82594,-4.10793 4.36165,-4.58772 -0.0593,-0.0593 -0.14388,-0.0853 -0.25662,-0.0808 z m 86.7039,1.93556 c -2.9475,0.0742 -3.71358,2.35356 -1.49092,4.5763 2.25796,2.25796 4.5763,1.43166 4.5763,-1.63281 0,-1.61893 -1.32464,-2.94349 -2.94357,-2.94349 -0.0445,0 -0.0949,-10e-4 -0.14166,0 z"/> <path style="fill:#ebe9ac;stroke-width:0.999997;fill-opacity:1" d="m 173.89884,234.86447 c 0.3738,-2.61368 1.91901,-5.45831 3.43411,-6.3214 1.5151,-0.86316 2.75474,-3.55649 2.75474,-5.98519 0,-2.42877 0.85234,-5.26828 1.8941,-6.31004 1.21724,-1.21724 -0.16688,-3.27901 -3.8723,-5.76971 -3.17156,-2.13158 -6.3033,-6.31999 -6.95953,-9.30761 -1.66826,-7.5956 -6.95805,-10.01117 -13.94406,-6.3676 -3.06484,1.59854 -8.24583,2.91182 -11.51336,2.9185 -3.26761,0.006 -7.93936,1.41171 -10.38171,3.12239 -5.23224,3.66485 -4.40215,8.36531 2.7385,15.50586 2.65416,2.65424 4.75356,7.06581 4.75356,9.98899 0,4.30292 0.49692,4.82305 2.78982,2.92006 3.2415,-2.69022 10.94672,1.00542 10.94672,5.25033 0,2.98444 1.08589,3.07863 5.88424,0.51102 2.93964,-1.57325 3.91695,-1.16392 4.94343,2.07039 1.66069,5.23232 5.66034,3.86956 6.53174,-2.22562 z" id="path31437"/> <path style="fill:#ebe9ac;fill-opacity:1;stroke-width:1" d="m 189.94915,348.88814 c 0.77152,-0.90193 3.62232,-1.65477 6.33565,-1.67292 2.71334,-0.0182 5.01786,-0.77586 5.12115,-1.68377 0.10329,-0.90794 1.72982,-1.79811 3.61453,-1.97818 2.20218,-0.2104 -0.15537,-1.25932 -6.59557,-2.9351 -5.51234,-1.43425 -10.86686,-3.62939 -11.89913,-4.87813 -2.62418,-3.1747 -11.86658,-5.14082 -24.36326,-5.18279 -5.48244,-0.0184 -14.69121,-0.56871 -20.46402,-1.22292 -5.7729,-0.65472 -14.086,-1.06789 -18.47349,-0.91925 -9.39931,0.31845 -8.13274,2.24243 4.17852,6.34685 4.57605,1.52565 8.09731,3.59674 7.973,4.68949 -0.183,1.60854 0.67276,1.90285 4.80441,1.65228 5.84095,-0.3542 19.2961,2.57589 19.11557,4.16274 -0.12692,1.11566 1.78745,1.36911 10.37358,1.37362 5.26018,0.003 6.96932,0.35212 8.64519,1.76749 2.71131,2.28973 9.83519,2.58413 11.63385,0.48073 z" id="path31439"/> <ellipse style="fill:#7a6f10;fill-opacity:1;stroke-width:2.565;stroke-linecap:round;stroke-linejoin:round" id="path48910" cx="415.15778" cy="275.96494" rx="34.293888" ry="27.43511"/> <path style="fill:#7f5a06;fill-opacity:1;stroke:none;stroke-width:0.264583px;stroke-linecap:butt;stroke-linejoin:miter;stroke-opacity:1" d="M 45.646008,368.5915 C 98.999471,418.50531 187.00267,450.02083 268.74087,391.98508 222.82806,466.14555 102.73537,439.82644 45.646008,368.5915 Z" id="path50554"/> <path style="fill:#8cab30;fill-opacity:1;stroke:none;stroke-width:0.264583px;stroke-linecap:butt;stroke-linejoin:miter;stroke-opacity:1" d="M 104.98582,286.99928 C 33.668942,311.34724 59.353363,361.62783 89.009714,389.70279 26.821484,337.29623 46.183353,293.39599 104.98582,286.99928 Z" id="path54002"/> <path style="fill:#87a829;fill-opacity:1;stroke:none;stroke-width:0.264583px;stroke-linecap:butt;stroke-linejoin:miter;stroke-opacity:1" d="M 50.781182,209.40106 C 74.822667,120.21813 142.6319,109.66281 230.51233,146.6378 138.22998,68.850845 45.407354,132.87688 50.781182,209.40106 Z" id="path57003"/> <path style="fill:#8cab30;fill-opacity:1;stroke:none;stroke-width:0.264583px;stroke-linecap:butt;stroke-linejoin:miter;stroke-opacity:1" d="m 208.15317,287.56985 c 59.76798,28.13485 69.94924,68.95459 18.2584,107.83869 81.58779,-37.00103 42.81008,-94.2032 -18.2584,-107.83869 z" id="path59050"/> </g> </g> </svg>