<?xml version="1.0" encoding="UTF-8"?>
<svg enable-background="new 0 0 353.208 180.82" viewBox="0 0 353.208 180.82" xmlns="http://www.w3.org/2000/svg">
 <path d="m269.822,11.207c.43-3.434 1.073-6.852 1.912-10.207 5.516.489 11.108.603 16.518,1.921 3.738.841 7.332,2.205 10.906,3.563 2.449.956 4.974,1.712 7.396,2.732 3.955,1.554 8.047,3.038 11.377,5.761 6.648,5.667 12.357,12.344 17.587,19.324 3.181,3.881 5.779,8.235 7.624,12.907 1.479,3.477 2.389,7.149 3.496,10.752 1.496,5.071 3.007,10.136 4.525,15.201 1.094,3.64 1.375,7.448 1.904,11.194 .545,3.815 1.247,7.645 1.127,11.514-.186,2.577-.494,5.308-2.009,7.484-2.021,3.139-4.696,5.932-5.938,9.509-1.469,6.138.41,12.339 1.742,18.313 .588,2.709 1.246,5.4 1.787,8.117 .998.395 2.021.727 3.016,1.146 .668,2.807 1.084,5.703.967,8.589-.053,1.162-.049,2.329-.284,3.477-3.282.754-6.384,2.104-9.606,3.049-8.686,1.463-17.336,3.234-26.114,4.047-2.826-3.26-3.642-7.813-3.003-11.985 .367-1.803 1.324-3.457 1.455-5.313-.229-4.078-.536-8.176-1.459-12.164-.814-3.633-2.127-7.124-3.139-10.7-.476-1.288-.63-2.874-1.84-3.728-1.24-.875-2.563-1.631-3.929-2.281-1.288-.593-2.742-.352-4.099-.611-5.984-.773-12.028-.501-18.039-.345-2.51.227-5.037.315-7.537.649-7.715.875-15.434,1.696-23.125,2.74-13.27,1.779-26.49,3.872-39.703,6.025-.006,1.051-.086,2.097-.141,3.146-4.422,3.001-9.658,4.346-14.502,6.478-2.75,1.101-5.439,2.356-8.207,3.408-4.076,1.095-8.072,2.45-12.145,3.547-3.907.923-7.662,2.395-11.605,3.173-6.384,1.442-12.887,2.253-19.378,3.04-5.183.863-10.26,2.278-15.455,3.085-1.626.185-3.221.568-4.852.709-6.075.938-12.234,1.33-18.253,2.64-1.148.211-2.273.521-3.417.748-11.731,2.448-23.653,4.11-35.17,7.518-6.677,2.202-13.221,4.778-19.817,7.211-9.534,3.569-18.419,8.593-27.635,12.873-2.56,1.131-5.308,1.817-8.038,2.362-2.622-2.247-5.299-4.491-7.473-7.188-2.739-4.614-4.503-9.805-5.167-15.129-.25-2.376-1.232-4.657-1.049-7.079 .104-6.246-.667-12.802 1.842-18.711 1.139-2.965 3.373-5.848 6.644-6.5 8.997-.253 18.011.574 26.997-.18 3.555-.152 7.104-.495 10.665-.447 7.639.104 15.289-.391 22.818-1.689 18.047-3.816 35.839-8.775 53.452-14.254 6.156-1.925 12.246-4.06 18.41-5.957 6.286-1.975 12.566-3.966 18.802-6.09 5.622-2.02 11.506-3.139 17.332-4.391 4.3-.896 8.553-2.111 12.945-2.482 3.831-.484 7.701-.374 11.555-.299 1.377.158 2.648.872 3.603,1.873 .588.585 1.367,1.246 2.259,1.069 4.225-.715 8.475-1.263 12.711-1.913 5.396-.683 10.692-1.963 15.982-3.192 13.822-3.302 27.447-7.413 40.852-12.127 3.279-1.089 6.479-2.407 9.607-3.873 2.738-1.22 5.389-2.672 8.273-3.541 2.981-1.094 6.211-1.65 8.914-3.415 1.734-1.11 3.666-2.317 4.397-4.356 1.631-4.131 1.426-8.839-.142-12.959-.877-2.417-2.367-4.531-3.76-6.671-1.888-2.893-3.969-5.701-6.582-7.982-3.582-2.948-7.869-4.904-12.248-6.339-4.728-1.702-9.789-1.93-14.727-2.568-.579-3.83-1.46-7.61-2.593-11.314 7.401,1.71 15.024,2.438 22.3,4.69 2.316.715 4.329,2.106 6.418,3.294-2.669-2.839-6.24-4.584-9.835-5.943-5.891-2.152-12.119-3.119-18.102-4.955m3.157-8.187c-.438,2.331-1.086,4.644-1.257,7.012 5.012,1.432 10.167,2.354 15.122,3.994 4.123,1.412 8.286,3.181 11.467,6.252 2.017,1.825 3.493,4.126 4.908,6.423-2.953-1.116-5.698-2.674-8.354-4.373-3.129-2.025-6.84-2.759-10.42-3.566-4.322-.869-8.674-1.6-13.011-2.385 .726,2.503 1.187,5.068 1.718,7.617 4.604.45 9.297.827 13.682,2.41 5.203,1.699 10.308,4.118 14.302,7.938 2.165,2.191 3.938,4.723 5.619,7.293 1.194,1.859 2.548,3.646 3.366,5.719 1.442,3.354 2.041,7.093 1.623,10.724 2.572-3.659 3.811-8.038 5.158-12.249 1.043-3.389-.146-6.885-1.074-10.153-1.726-6.354-5.967-11.606-10.355-16.349-5.575-5.858-13.09-9.2-20.301-12.552-3.911-1.702-8.063-2.74-12.193-3.755m11.272.839c5.018,2.024 9.892,4.413 14.49,7.27 2.207,1.42 4.535,2.711 6.445,4.542 2.76,2.492 5.271,5.262 7.444,8.283 3.608,4.956 5.858,10.806 6.925,16.819 .557,2.898-.359,5.766-1.159,8.523-1.547,4.987-3.806,9.83-7.187,13.85-1.586,2.03-3.811,3.408-5.945,4.786-2.087,1.298-4.479,1.943-6.801,2.673 1.813,7.082 2.76,14.341 4.186,21.504 1.047,6.551 2.911,13.002 3.086,19.671 6.707-.115 13.221,1.845 19.61,3.673 .335.012.532.265.407.574l-.186-.417c-2.232.015-4.466.114-6.695.03-2.685-.048-5.33-.549-7.933-1.167 .531.503 1.138,1.001 1.37,1.728 1.055,2.869 1.752,5.854 2.768,8.741 2.096,5.824 2.446,12.07 2.862,18.19 5.991-1.643 11.854-3.897 18.054-4.653 3.922-.447 7.869-.26 11.808-.297-.308-1.637-.718-3.248-1.058-4.877-1.345-6.182-3.328-12.428-2.498-18.829 .154-2.48 1.41-4.702 2.773-6.717-.643.464-1.27.948-1.888,1.438-2.312,1.825-4.979,3.109-7.61,4.403 1.055-1.257 2.154-2.473 3.215-3.724 3.152-3.378 7.353-5.532 10.625-8.775 1.34-2.632 1.188-5.691 1.108-8.563-.354-3.763-1.091-7.479-1.474-11.239-.357-2.629-.709-5.272-1.494-7.818-2.006-6.56-3.906-13.148-5.875-19.716-1.545-5.395-3.864-10.589-7.039-15.227-1.09-1.608-2.389-3.063-3.52-4.641-4.798-6.356-10.115-12.355-16.141-17.578-3.234-2.636-7.193-4.096-11.042-5.571-2.642-1.066-5.354-1.941-8.011-2.973-4.409-1.687-8.918-3.285-13.62-3.916m4.182,70.817c-2.297,1.041-4.598,2.082-6.961,2.962-16.184,5.791-32.675,10.771-49.463,14.49-7.518,1.825-15.247,2.48-22.857,3.789-.054.072-.156.225-.211.301 1.147,2.844 2.633,5.591 3.209,8.638 .881,5.03 2.094,10.044 2.18,15.18 18.658-3.021 37.34-5.943 56.139-7.943 3.215-.313 6.406-.81 9.633-1.015 4.859-.341 9.737-.523 14.611-.477 3.109.152 6.215.429 9.307.809-1.753-7.061-2.768-14.271-4.148-21.404-1.063-6.28-2.654-12.481-3.155-18.849-2.891.856-5.555,2.273-8.284,3.519m-105.122,20.102c-6.879,1.64-13.899,2.745-20.639,4.937-7.731,2.666-15.536,5.109-23.335,7.573-5.774,1.792-11.47,3.828-17.255,5.577-12.656,3.938-25.428,7.51-38.3,10.66-5.249,1.266-10.491,2.599-15.832,3.431-4.818.743-9.689,1.167-14.558,1.271-2.52.308-5.06.103-7.588.16-4.233-.108-8.446.396-12.667.607-5.251-.014-10.502-.008-15.75-.006-2.551.116-5.107-.521-7.647-.067-1.018.2-1.868.816-2.661,1.451 .869.926 1.806,1.786 2.675,2.712 2.137,2.582 4.053,5.444 4.983,8.699 1.052,3.279 1.465,6.716 2.458,10.012 .889,3.044 1.127,6.222 1.479,9.36 .304,2.141.295,4.319.158,6.475-.34,2.16-.509,4.404-1.479,6.398-.835,1.86-1.586,3.803-2.857,5.42 .346.15.661.573 1.083.443 1.777-.443 3.58-.839 5.29-1.514 1.361-.56 2.691-1.195 4.025-1.815 8.738-4.326 17.398-8.886 26.583-12.209 5.915-2.227 11.827-4.468 17.817-6.483 12.223-3.698 24.921-5.35 37.375-8.052 7.625-1.84 15.5-2.181 23.211-3.499 5.707-.748 11.259-2.32 16.923-3.296 8.595-1.051 17.247-2.118 25.56-4.639 .942-.302 1.875-.645 2.838-.884 4.412-1.063 8.723-2.494 13.078-3.757 3.299-.881 6.334-2.489 9.506-3.713 4.537-2.039 9.438-3.288 13.681-5.96 .313-2.25.329-4.533.082-6.789-.218-4.356-1.122-8.641-2.097-12.879-.681-2.584-1.821-5.016-2.953-7.425-.801-1.599-1.912-3.382-3.811-3.729-2.518-.051-5.033-.483-7.546-.106-3.989.095-7.948.733-11.83,1.636m137.458,49.985c-1.164.456-2.443.61-3.538,1.229-.591.343-1.038.945-1.097,1.64-.594,3.638.096,7.577 2.328,10.563 8.406-.935 16.715-2.542 25.049-3.966 2.947-.778 5.727-2.126 8.729-2.73 .17-3.423.154-6.894-.733-10.229-2.708-.938-5.595-.947-8.421-.893-7.656-.206-15.186,1.749-22.317,4.386z"/>
 <path d="m272.979,3.02c4.13,1.016 8.282,2.053 12.192,3.755 7.211,3.353 14.726,6.693 20.301,12.552 4.391,4.742 8.631,9.996 10.355,16.349 .928,3.269 2.117,6.765 1.074,10.153-1.349,4.21-2.586,8.589-5.158,12.249 .418-3.631-.181-7.369-1.623-10.724-.818-2.073-2.172-3.858-3.366-5.719-1.683-2.57-3.454-5.102-5.619-7.293-3.994-3.821-9.099-6.241-14.302-7.938-4.385-1.583-9.076-1.96-13.682-2.41-.531-2.548-.992-5.113-1.718-7.617 4.337.785 8.688,1.516 13.011,2.385 3.58.808 7.291,1.541 10.42,3.566 2.655,1.699 5.4,3.257 8.354,4.373-1.415-2.297-2.892-4.598-4.908-6.423-3.181-3.071-7.344-4.84-11.467-6.252-4.955-1.641-10.11-2.563-15.122-3.994 .172-2.369.82-4.681 1.258-7.012z" fill="#aaa"/>
 <path d="m284.251,3.859c4.701.633 9.211,2.229 13.627,3.917 2.654,1.031 5.367,1.906 8.01,2.973 3.848,1.477 7.809,2.936 11.042,5.571 6.024,5.223 11.343,11.222 16.142,17.578 1.131,1.577 2.43,3.031 3.519,4.641 3.175,4.638 5.495,9.833 7.039,15.227 1.969,6.567 3.87,13.157 5.876,19.716 .783,2.545 1.136,5.188 1.492,7.818 .384,3.762 1.119,7.477 1.475,11.239 .079,2.871.23,5.932-1.107,8.563-3.273,3.243-7.474,5.397-10.625,8.775-1.062,1.251-2.16,2.467-3.215,3.724 2.629-1.294 5.299-2.578 7.609-4.403 .619-.489 1.246-.975 1.889-1.438-1.365,2.015-2.619,4.235-2.773,6.717-.83,6.401 1.152,12.647 2.498,18.829 .34,1.629.75,3.24 1.057,4.877-3.938.037-7.887-.15-11.807.297-6.198.756-12.063,3.012-18.055,4.653-.416-6.12-.768-12.366-2.861-18.19-1.016-2.887-1.713-5.872-2.769-8.741-.233-.727-.839-1.225-1.37-1.728 2.602.618 5.248,1.119 7.932,1.167 2.23.084 4.464-.017 6.697-.03l.186.417c.124-.311-.073-.563-.408-.574-6.391-1.828-12.902-3.788-19.611-3.673-.174-6.669-2.039-13.12-3.084-19.671-1.427-7.164-2.375-14.422-4.187-21.504 2.323-.729 4.714-1.375 6.801-2.673 2.136-1.378 4.359-2.756 5.946-4.786 3.38-4.02 5.639-8.862 7.186-13.85 .799-2.759 1.717-5.625 1.159-8.523-1.065-6.014-3.315-11.863-6.925-16.819-2.174-3.021-4.686-5.791-7.443-8.283-1.91-1.831-4.24-3.122-6.447-4.542-4.603-2.859-9.477-5.247-14.495-7.271z" fill="#aaa"/>
 <path d="m288.433,74.676c2.729-1.246 5.393-2.663 8.28-3.521 .501,6.367 2.093,12.568 3.155,18.849 1.381,7.132 2.396,14.344 4.148,21.404-3.092-.38-6.195-.655-9.307-.809-4.875-.048-9.752.136-14.611.477-3.227.205-6.418.7-9.633,1.015-18.799,2-37.479,4.922-56.139,7.943-.086-5.136-1.299-10.148-2.18-15.18-.576-3.047-2.062-5.794-3.209-8.638 .055-.076.157-.229.211-.301 7.61-1.309 15.34-1.964 22.857-3.789 16.788-3.718 33.279-8.699 49.463-14.49 2.367-.878 4.668-1.919 6.965-2.96z" fill="#aaa"/>
 <path d="m320.769,144.763c7.131-2.638 14.661-4.593 22.316-4.385 2.826-.056 5.713-.045 8.421.893 .889,3.336.903,6.807.733,10.229-3.004.604-5.781,1.952-8.729,2.73-8.334,1.424-16.643,3.031-25.049,3.966-2.232-2.986-2.922-6.928-2.328-10.563 .059-.693.506-1.297 1.097-1.64 1.096-.619 2.375-.774 3.539-1.23z" fill="#aaa"/>
 <path d="m183.311,94.778c3.882-.902 7.841-1.541 11.832-1.635 2.513-.377 5.028.057 7.546.106 1.898.349 3.01,2.132 3.811,3.729 1.132,2.409 2.272,4.841 2.953,7.425 .975,4.238 1.879,8.521 2.097,12.879 .247,2.256.229,4.539-.082,6.789-4.241,2.672-9.144,3.921-13.681,5.96-3.172,1.224-6.207,2.832-9.506,3.713-4.355,1.263-8.666,2.694-13.078,3.757-.965.239-1.896.582-2.838.884-8.313,2.521-16.964,3.588-25.56,4.639-5.664.976-11.216,2.548-16.923,3.296-7.711,1.318-15.586,1.659-23.211,3.499-12.454,2.702-25.152,4.354-37.375,8.052-5.991,2.017-11.903,4.258-17.817,6.483-9.186,3.323-17.845,7.883-26.583,12.209-1.333.62-2.664,1.257-4.025,1.815-1.71.675-3.513,1.069-5.29,1.514-.422.13-.737-.293-1.083-.443 1.271-1.617 2.022-3.56 2.857-5.42 .97-1.994 1.139-4.238 1.479-6.398 .138-2.154.146-4.334-.158-6.475-.352-3.14-.59-6.316-1.479-9.36-.993-3.296-1.406-6.731-2.458-10.012-.931-3.255-2.846-6.117-4.983-8.699-.869-.926-1.806-1.786-2.675-2.712 .793-.635 1.643-1.251 2.661-1.451 2.54-.452 5.096.185 7.647.067 5.248-.002 10.499-.008 15.75.006 4.222-.211 8.435-.717 12.667-.607 2.529-.059 5.068.146 7.588-.159 4.868-.104 9.74-.528 14.558-1.271 5.341-.832 10.583-2.165 15.832-3.431 12.873-3.15 25.644-6.724 38.3-10.66 5.785-1.749 11.48-3.785 17.255-5.577 7.799-2.464 15.604-4.907 23.335-7.573 6.738-2.194 13.757-3.3 20.637-4.939z" fill="#840101"/>
</svg>
