<?xml version="1.0" encoding="utf-8"?>
<!-- Generator: Moho 12.5 build 22438 -->
<!DOCTYPE svg PUBLIC "-//W3C//DTD SVG 1.1//EN" "http://www.w3.org/Graphics/SVG/1.1/DTD/svg11.dtd">
<svg version="1.1" id="Frame_0" xmlns="http://www.w3.org/2000/svg" xmlns:xlink="http://www.w3.org/1999/xlink" width="1280px" height="720px">
<g id="Layer_3">
<path fill="#fee04e" fill-rule="evenodd" stroke="#fee04e" stroke-width="1" stroke-linecap="round" stroke-linejoin="round" d="M 912.358 189.942 C 894.141 174.242 867.815 155.554 846.957 143.582 C 828.257 132.848 801.899 120.925 781.556 113.779 C 752.826 103.687 713.150 93.776 683.003 89.486 C 654.510 85.432 615.915 84.370 587.155 85.447 C 578.006 85.789 565.904 87.623 556.796 88.556 C 556.796 88.556 556.796 88.556 556.796 88.556 C 534.418 115.818 504.484 152.088 482.204 179.430 C 437.304 234.529 377.963 308.420 333.288 363.701 C 333.288 363.701 333.288 363.701 333.288 363.701 C 368.959 356.103 416.566 346.183 452.191 338.373 C 601.011 305.750 798.850 259.622 947.419 225.872 C 947.419 225.872 923.767 199.774 912.358 189.942 Z"/>
<path fill="#fe8b14" fill-rule="evenodd" stroke="#fe8b14" stroke-width="0" stroke-linecap="round" stroke-linejoin="round" d="M 450.812 299.490 C 452.386 299.474 453.913 299.613 455.339 300.108 C 457.082 300.714 458.749 301.606 460.078 302.902 C 461.443 304.233 462.486 305.933 463.133 307.806 C 463.708 309.470 463.848 311.313 463.715 313.225 C 463.579 315.177 463.119 316.993 462.356 318.620 C 461.547 320.346 460.417 321.850 459.096 323.122 C 457.773 324.397 456.240 325.413 454.567 326.145 C 453.066 326.802 451.449 327.192 449.743 327.285 C 447.698 327.396 445.679 327.231 443.849 326.516 C 442.098 325.832 440.538 324.701 439.237 323.328 C 438.046 322.071 437.088 320.558 436.471 318.868 C 435.808 317.049 435.472 315.028 435.662 312.930 C 435.842 310.959 436.554 309.185 437.400 307.576 C 438.303 305.857 439.440 304.319 440.829 303.070 C 442.111 301.916 443.590 301.015 445.194 300.409 C 446.954 299.745 448.851 299.510 450.812 299.490 Z"/>
<path fill="#fe8b14" fill-rule="evenodd" stroke="#fe8b14" stroke-width="0" stroke-linecap="round" stroke-linejoin="round" d="M 574.488 147.224 C 579.402 145.620 584.266 144.461 589.223 144.414 C 595.102 144.359 601.073 144.999 606.506 147.336 C 611.743 149.588 616.617 153.080 620.333 157.694 C 623.502 161.629 625.604 166.558 626.847 171.916 C 628.126 177.428 628.192 182.891 627.252 188.003 C 626.211 193.660 623.866 198.852 620.920 203.539 C 617.825 208.462 613.843 212.686 609.327 216.296 C 605.144 219.639 600.419 222.262 595.182 224.201 C 588.874 226.536 582.476 228.130 576.028 227.958 C 570.089 227.800 564.201 226.397 558.802 223.834 C 554.126 221.614 549.723 218.521 546.267 214.399 C 542.693 210.137 539.822 204.913 538.592 198.985 C 537.422 193.349 538.197 187.781 539.411 182.635 C 540.761 176.914 543.102 171.609 546.269 166.921 C 549.340 162.375 553.246 158.521 557.660 155.318 C 562.655 151.693 568.371 149.221 574.488 147.224 Z"/>
<path fill="#fe8b14" fill-rule="evenodd" stroke="#fe8b14" stroke-width="0" stroke-linecap="round" stroke-linejoin="round" d="M 745.247 121.896 C 748.768 120.791 752.250 120.008 755.790 120.007 C 760.007 120.006 764.280 120.503 768.171 122.191 C 771.922 123.819 775.420 126.313 778.095 129.614 C 780.361 132.411 781.889 135.909 782.791 139.723 C 783.714 143.621 783.782 147.491 783.118 151.110 C 782.385 155.102 780.718 158.765 778.620 162.061 C 776.413 165.530 773.567 168.491 770.349 171.011 C 767.355 173.356 763.974 175.175 760.240 176.510 C 755.717 178.127 751.137 179.202 746.534 179.040 C 742.273 178.890 738.060 177.855 734.191 176.005 C 730.840 174.404 727.682 172.193 725.194 169.244 C 722.638 166.213 720.557 162.507 719.664 158.284 C 718.821 154.301 719.353 150.359 720.213 146.719 C 721.167 142.682 722.832 138.940 725.087 135.645 C 727.278 132.443 730.072 129.744 733.216 127.511 C 736.793 124.970 740.882 123.266 745.247 121.896 Z"/>
<path fill="#fabe12" fill-rule="evenodd" stroke="none" d="M 333.582 364.944 C 517.740 323.213 763.283 267.573 947.440 225.843 C 947.440 225.863 947.528 370.837 947.566 432.978 C 947.505 432.992 517.654 529.730 333.405 571.195 C 333.405 571.188 333.235 520.604 333.162 498.922 C 333.163 498.922 339.783 498.498 342.546 497.878 C 345.729 497.163 349.898 495.764 352.818 494.311 C 355.581 492.936 359.129 490.718 361.378 488.605 C 363.916 486.219 366.558 482.308 368.368 479.332 C 370.169 476.371 372.188 472.177 373.361 468.917 C 373.871 467.501 374.445 465.559 374.645 464.067 C 375.225 459.739 375.103 453.818 374.360 449.515 C 374.017 447.528 373.098 444.974 372.363 443.096 C 371.567 441.064 370.359 438.397 369.224 436.533 C 367.795 434.187 365.570 431.234 363.660 429.258 C 361.737 427.268 358.859 424.898 356.527 423.409 C 354.640 422.203 351.862 421.052 349.822 420.128 C 348.005 419.304 345.632 418.008 343.688 417.560 C 340.641 416.857 336.398 417.260 333.274 417.132 C 333.274 417.126 333.149 380.600 333.096 364.944 C 333.242 364.944 333.436 364.944 333.582 364.944 C 333.582 364.944 333.582 364.944 333.582 364.944 M 333.096 364.944 C 333.096 364.944 333.096 364.944 333.096 364.944 Z"/>
<path fill="none" stroke="#fabe12" stroke-width="4" stroke-linecap="round" stroke-linejoin="round" d="M 947.440 225.843 C 947.440 225.843 947.440 225.843 947.440 225.843 C 763.283 267.573 517.740 323.213 333.582 364.944 C 333.582 364.944 333.582 364.944 333.582 364.944 C 333.436 364.944 333.242 364.944 333.096 364.944 C 333.096 364.944 333.096 364.944 333.096 364.944 C 333.149 380.600 333.274 417.126 333.274 417.132 C 333.274 417.132 333.274 417.132 333.274 417.132 C 336.398 417.260 340.641 416.857 343.688 417.560 C 345.632 418.008 348.005 419.304 349.822 420.128 C 351.862 421.052 354.640 422.203 356.527 423.409 C 358.859 424.898 361.737 427.268 363.660 429.258 C 365.570 431.234 367.795 434.187 369.224 436.533 C 370.359 438.397 371.567 441.064 372.363 443.096 C 373.098 444.974 374.017 447.528 374.360 449.515 C 375.103 453.818 375.225 459.739 374.645 464.067 C 374.445 465.559 373.871 467.501 373.361 468.917 C 372.188 472.177 370.169 476.371 368.368 479.332 C 366.558 482.308 363.916 486.219 361.378 488.605 C 359.129 490.718 355.581 492.936 352.818 494.311 C 349.898 495.764 345.729 497.163 342.546 497.878 C 339.783 498.498 333.163 498.922 333.162 498.922 C 333.162 498.922 333.162 498.922 333.162 498.922 C 333.235 520.604 333.405 571.188 333.405 571.195 C 333.405 571.195 333.405 571.195 333.405 571.195 C 517.654 529.730 947.505 432.992 947.566 432.978 C 947.566 432.978 947.566 432.978 947.566 432.978 C 947.528 370.837 947.440 225.863 947.440 225.843 "/>
<path fill="#fe8b14" fill-rule="evenodd" stroke="#fe8b14" stroke-width="0" stroke-linecap="round" stroke-linejoin="round" d="M 523.128 362.622 C 526.611 362.587 529.987 362.894 533.142 363.990 C 536.999 365.330 540.687 367.305 543.627 370.171 C 546.648 373.115 548.956 376.877 550.386 381.020 C 551.658 384.701 551.969 388.779 551.674 393.009 C 551.374 397.327 550.357 401.347 548.668 404.946 C 546.878 408.763 544.378 412.091 541.455 414.906 C 538.527 417.726 535.136 419.974 531.434 421.595 C 528.114 423.047 524.536 423.909 520.763 424.115 C 516.238 424.362 511.770 423.997 507.723 422.415 C 503.848 420.900 500.398 418.399 497.519 415.362 C 494.884 412.581 492.764 409.233 491.400 405.493 C 489.932 401.470 489.188 396.999 489.610 392.356 C 490.007 387.995 491.583 384.072 493.455 380.511 C 495.453 376.709 497.968 373.306 501.041 370.541 C 503.878 367.990 507.149 365.995 510.698 364.656 C 514.592 363.187 518.788 362.665 523.128 362.622 Z"/>
<path fill="#fe8b14" fill-rule="evenodd" stroke="#fe8b14" stroke-width="0" stroke-linecap="round" stroke-linejoin="round" d="M 668.240 385.285 C 670.743 385.260 673.169 385.480 675.436 386.268 C 678.208 387.231 680.858 388.650 682.971 390.710 C 685.142 392.826 686.800 395.530 687.829 398.507 C 688.742 401.152 688.966 404.083 688.754 407.122 C 688.538 410.225 687.807 413.114 686.594 415.701 C 685.307 418.444 683.511 420.836 681.410 422.858 C 679.306 424.885 676.869 426.501 674.208 427.665 C 671.823 428.709 669.251 429.328 666.540 429.476 C 663.288 429.653 660.078 429.391 657.169 428.255 C 654.384 427.166 651.905 425.369 649.836 423.186 C 647.943 421.187 646.420 418.782 645.439 416.094 C 644.384 413.203 643.850 409.990 644.153 406.653 C 644.438 403.519 645.571 400.700 646.915 398.141 C 648.351 395.409 650.159 392.963 652.368 390.976 C 654.406 389.143 656.757 387.710 659.307 386.747 C 662.106 385.691 665.121 385.316 668.240 385.285 Z"/>
<path fill="#fe8b14" fill-rule="evenodd" stroke="#fe8b14" stroke-width="0" stroke-linecap="round" stroke-linejoin="round" d="M 852.622 368.393 C 857.109 368.348 861.459 368.742 865.525 370.155 C 870.493 371.881 875.245 374.426 879.034 378.119 C 882.925 381.912 885.899 386.760 887.743 392.097 C 889.381 396.840 889.781 402.094 889.402 407.544 C 889.015 413.108 887.704 418.287 885.528 422.925 C 883.221 427.843 880.001 432.131 876.235 435.757 C 872.462 439.390 868.093 442.288 863.323 444.375 C 859.046 446.246 854.436 447.357 849.575 447.622 C 843.744 447.940 837.988 447.470 832.773 445.432 C 827.780 443.481 823.335 440.258 819.627 436.344 C 816.231 432.761 813.501 428.448 811.742 423.629 C 809.851 418.446 808.893 412.685 809.437 406.703 C 809.947 401.084 811.979 396.029 814.390 391.442 C 816.964 386.543 820.205 382.158 824.165 378.596 C 827.820 375.309 832.034 372.739 836.607 371.014 C 841.624 369.121 847.030 368.448 852.622 368.393 Z"/>
<path fill="#fe8b14" fill-rule="evenodd" stroke="#fe8b14" stroke-width="0" stroke-linecap="round" stroke-linejoin="round" d="M 468.957 466.087 C 471.354 466.063 473.678 466.274 475.850 467.028 C 478.505 467.951 481.044 469.310 483.068 471.284 C 485.148 473.310 486.737 475.901 487.722 478.752 C 488.597 481.286 488.811 484.094 488.608 487.006 C 488.401 489.978 487.701 492.746 486.539 495.224 C 485.306 497.851 483.585 500.143 481.573 502.080 C 479.557 504.021 477.223 505.569 474.674 506.685 C 472.389 507.684 469.926 508.278 467.328 508.420 C 464.213 508.590 461.138 508.338 458.351 507.249 C 455.683 506.207 453.308 504.485 451.327 502.394 C 449.513 500.479 448.054 498.175 447.114 495.600 C 446.104 492.831 445.592 489.753 445.882 486.556 C 446.155 483.554 447.240 480.853 448.529 478.402 C 449.904 475.784 451.636 473.442 453.752 471.539 C 455.705 469.782 457.956 468.409 460.399 467.487 C 463.080 466.476 465.969 466.117 468.957 466.087 Z"/>
<path fill="#fa9841" fill-rule="evenodd" stroke="none" d="M 796.730 259.562 C 796.730 259.562 796.730 259.562 796.730 259.562 C 792.191 256.495 786.381 252.015 781.602 249.338 C 775.643 246.001 767.240 242.384 760.842 239.991 C 756.466 238.354 750.579 236.075 745.952 235.426 C 743.563 235.092 740.322 235.426 737.909 235.426 C 737.909 235.426 737.909 235.426 737.909 235.426 C 737.192 235.818 736.202 236.284 735.518 236.731 C 733.207 238.239 730.174 240.424 728.345 242.491 C 726.714 244.334 724.585 247.057 723.997 249.447 C 723.576 251.160 723.882 253.609 724.323 255.316 C 724.943 257.717 726.874 260.508 728.019 262.707 C 729.251 265.075 731.498 267.973 732.257 270.533 C 732.593 271.665 732.692 274.445 732.692 274.445 C 751.903 269.980 796.723 259.563 796.730 259.562 C 796.730 259.562 796.730 259.562 796.730 259.562 Z"/>
<path fill="none" stroke="#fa9841" stroke-width="1" stroke-linecap="round" stroke-linejoin="round" d="M 732.692 274.445 C 732.692 274.445 732.692 274.445 732.692 274.445 C 732.692 274.445 732.593 271.665 732.257 270.533 C 731.498 267.973 729.251 265.075 728.019 262.707 C 726.874 260.508 724.943 257.717 724.323 255.316 C 723.882 253.609 723.576 251.160 723.997 249.447 C 724.585 247.057 726.714 244.334 728.345 242.491 C 730.174 240.424 733.207 238.239 735.518 236.731 C 736.202 236.284 737.192 235.818 737.909 235.426 C 740.322 235.426 743.563 235.092 745.952 235.426 C 750.579 236.075 756.466 238.354 760.842 239.991 C 767.240 242.384 775.643 246.001 781.602 249.338 C 786.381 252.015 792.191 256.495 796.730 259.562 C 796.730 259.562 796.730 259.562 796.730 259.562 C 796.723 259.563 751.903 269.980 732.692 274.445 M 737.909 235.426 C 737.909 235.426 737.909 235.426 737.909 235.426 M 796.730 259.562 C 796.730 259.562 796.730 259.562 796.730 259.562 "/>
<path fill="#fe8b14" fill-rule="evenodd" stroke="#fe8b14" stroke-width="1" stroke-linecap="round" stroke-linejoin="round" d="M 795.645 258.682 C 795.645 258.682 795.645 258.682 795.645 258.682 C 776.690 262.955 751.109 267.411 732.462 272.927 C 732.462 272.927 731.612 274.881 731.401 275.768 C 730.932 277.746 730.859 280.490 730.802 282.525 C 730.702 286.027 730.729 290.732 731.251 294.195 C 731.499 295.841 732.056 298.001 732.601 299.570 C 733.451 302.017 734.889 305.179 736.200 307.402 C 737.512 309.625 739.525 312.453 741.298 314.312 C 743.807 316.941 747.658 319.957 750.745 321.836 C 753.532 323.533 757.492 325.497 760.641 326.289 C 763.925 327.116 768.514 327.296 771.887 327.057 C 775.786 326.781 780.984 325.728 784.633 324.293 C 787.680 323.094 791.543 320.869 794.079 318.765 C 797.423 315.990 801.373 311.525 803.526 307.709 C 805.924 303.458 807.963 297.062 808.624 292.199 C 809.121 288.546 808.805 283.545 808.174 279.914 C 807.729 277.346 806.617 274.024 805.625 271.622 C 804.630 269.211 803.179 265.984 801.577 263.944 C 800.101 262.066 795.646 258.682 795.645 258.682 C 795.645 258.682 795.645 258.682 795.645 258.682 Z"/>
</g>
</svg>
