<?xml version='1.0' encoding='utf-8'?>
<svg xmlns="http://www.w3.org/2000/svg" version="1.1" viewBox="0 0 141.59 141.59">
 <g transform="translate(-123.46 -155.59)">
  <g transform="translate(0 1.1193)" fill="none" stroke="#000">
   <path transform="translate(50.084 41.191)" d="m212.98 184.08c0 38.001-30.806 68.807-68.807 68.807s-68.807-30.806-68.807-68.807 30.806-68.807 68.807-68.807 68.807 30.806 68.807 68.807z" stroke-width="4"/>
   <path transform="matrix(.94004 0 0 .94004 58.729 52.229)" d="m212.98 184.08c0 38.001-30.806 68.807-68.807 68.807s-68.807-30.806-68.807-68.807 30.806-68.807 68.807-68.807 68.807 30.806 68.807 68.807z" stroke-width=".65487"/>
  </g>
  <g transform="matrix(.91841 0 0 .91841 -229.79 -76.057)">
   <g transform="matrix(.90457 0 0 1.1055 266.35 104.08)">
    <path d="m208.75 159.27v-1.5448h2.5795v-7.103l-2.4982 1.5596v-1.6335l2.6091-1.6926h1.9661v8.8695h2.3874v1.5448h-7.0438"/>
    <path d="m216.74 159.27v-1.4413c0.27101-0.59623 0.65536-1.1777 1.153-1.7443 0.5026-0.56666 1.1333-1.158 1.8922-1.7739 0.72926-0.59129 1.2392-1.0791 1.53-1.4635 0.29564-0.38434 0.44347-0.76129 0.44347-1.1309 0-0.90665-0.45579-1.36-1.3674-1.36-0.44348 1e-5 -0.78348 0.12073-1.02 0.36217-0.2316 0.23652-0.38188 0.59377-0.45087 1.0717l-2.0917-0.11825c0.11826-0.96578 0.47796-1.7024 1.0791-2.21 0.60607-0.50752 1.429-0.76129 2.4687-0.7613 1.1235 1e-5 1.9858 0.25624 2.5869 0.76869 0.60115 0.51247 0.90172 1.2319 0.90173 2.1582-1e-5 0.48783-0.0961 0.92884-0.28826 1.323-0.19217 0.3942-0.43855 0.75884-0.73912 1.0939-0.30058 0.33014-0.63565 0.64058-1.0052 0.93129-0.36464 0.29073-0.71942 0.57406-1.0643 0.84999-0.34493 0.27595-0.66029 0.55435-0.94608 0.83521-0.28087 0.28087-0.49029 0.58145-0.62825 0.90173h4.8339v1.7074h-7.2878"/>
   </g>
   <g transform="matrix(.90457 0 0 1.1055 266.35 104.08)">
    <path d="m244.58 167.09v-1.5448h2.5795v-7.103l-2.4982 1.5596v-1.6335l2.6091-1.6926h1.9661v8.8695h2.3874v1.5448h-7.0438"/>
   </g>
   <g transform="matrix(.90457 0 0 1.1055 266.35 104.08)">
    <path d="m264.71 184.31v-1.4413c0.27101-0.59622 0.65536-1.1777 1.153-1.7443 0.5026-0.56665 1.1333-1.158 1.8922-1.7739 0.72926-0.59129 1.2392-1.0791 1.53-1.4635 0.29564-0.38434 0.44347-0.76129 0.44347-1.1309 0-0.90665-0.45579-1.36-1.3674-1.36-0.44348 1e-5 -0.78348 0.12073-1.02 0.36217-0.2316 0.23652-0.38188 0.59377-0.45087 1.0717l-2.0917-0.11826c0.11826-0.96577 0.47796-1.7024 1.0791-2.21 0.60607-0.50752 1.429-0.76129 2.4687-0.7613 1.1235 1e-5 1.9858 0.25624 2.5869 0.76869 0.60115 0.51247 0.90172 1.2319 0.90173 2.1582-1e-5 0.48782-0.0961 0.92883-0.28826 1.323-0.19217 0.3942-0.43855 0.75883-0.73912 1.0939-0.30058 0.33014-0.63565 0.64057-1.0052 0.93129-0.36464 0.29073-0.71942 0.57406-1.0643 0.84999-0.34493 0.27594-0.66029 0.55435-0.94608 0.83521-0.28087 0.28087-0.49029 0.58145-0.62825 0.90173h4.8339v1.7074h-7.2878"/>
   </g>
   <g transform="matrix(.90457 0 0 1.1055 266.35 104.08)">
    <path d="m284.01 207.23c-1e-5 0.97565-0.3203 1.7296-0.96086 2.2617-0.64058 0.53216-1.5522 0.79825-2.7348 0.79825-1.1186 0-2.008-0.25623-2.6682-0.76869-0.66028-0.51738-1.0471-1.2614-1.1604-2.2322l2.1139-0.18478c0.13304 1.0003 0.70216 1.5004 1.7074 1.5004 0.49768 0 0.88448-0.12319 1.1604-0.36956 0.27593-0.24637 0.4139-0.62333 0.41391-1.1309-1e-5 -0.46318-0.16754-0.81796-0.50261-1.0643-0.33507-0.24637-0.83275-0.36955-1.493-0.36956h-0.72434v-1.6778h0.68c0.59622 0 1.0446-0.12072 1.3452-0.36217 0.30057-0.24637 0.45086-0.59622 0.45086-1.0496 0-0.42868-0.12072-0.76375-0.36217-1.0052-0.23652-0.24637-0.58391-0.36956-1.0422-0.36957-0.42869 1e-5 -0.77608 0.11827-1.0422 0.35478-0.26116 0.23653-0.41145 0.5716-0.45087 1.0052l-2.0769-0.14783c0.1084-0.89679 0.48043-1.599 1.1161-2.1065 0.63564-0.50752 1.4659-0.76129 2.4908-0.7613 1.089 1e-5 1.939 0.24638 2.55 0.73912 0.61593 0.48783 0.9239 1.1654 0.9239 2.0326 0 0.65043-0.19218 1.1851-0.57651 1.6039-0.37942 0.41885-0.92884 0.69725-1.6482 0.83521v0.0296c0.79824 0.0936 1.4117 0.35725 1.8404 0.79086 0.43361 0.42869 0.65042 0.97811 0.65043 1.6482"/>
   </g>
   <g transform="matrix(.90457 0 0 1.1055 266.35 104.08)">
    <path d="m272.56 233.82v2.1213h-1.9808v-2.1213h-4.7378v-1.5596l4.3978-6.7334h2.3208v6.7482h1.3896v1.5448h-1.3896m-1.9808-4.9521c0-0.26608 7e-3 -0.55433 0.0222-0.86477 0.0197-0.31042 0.0345-0.50999 0.0443-0.59869-0.12812 0.27595-0.35971 0.67507-0.69477 1.1974l-2.4169 3.6734h3.0452v-3.4074"/>
   </g>
   <g transform="matrix(.90457 0 0 1.1055 266.35 104.08)">
    <path d="m250.55 248.91c-1e-5 1.1038-0.34493 1.9833-1.0348 2.6387-0.68493 0.65043-1.6261 0.97564-2.8234 0.97564-1.0446 0-1.8823-0.23406-2.513-0.70217-0.62579-0.47303-1.0126-1.1555-1.1604-2.0474l2.0769-0.16999c0.1084 0.44347 0.30057 0.76622 0.57651 0.96825s0.62333 0.30304 1.0422 0.30304c0.51738 0 0.92882-0.16507 1.2343-0.49521 0.31043-0.33014 0.46564-0.80565 0.46565-1.4265-1e-5 -0.54695-0.14537-0.98303-0.43608-1.3082-0.29073-0.33013-0.69725-0.4952-1.2196-0.49521-0.57652 1e-5 -1.0471 0.22421-1.4117 0.6726h-2.0252l0.36217-5.8612h6.2604v1.5448h-4.3756l-0.17 2.6313c0.5026-0.44346 1.1308-0.6652 1.8848-0.66521 0.99042 1e-5 1.7813 0.30798 2.3726 0.92391 0.59622 0.61594 0.89433 1.4536 0.89434 2.513"/>
   </g>
   <g transform="matrix(.90457 0 0 1.1055 266.35 104.08)">
    <path d="m219.35 255.22c-1e-5 1.1087-0.31044 1.9784-0.9313 2.6091-0.62087 0.63071-1.4782 0.94607-2.5721 0.94607-1.227 0-2.1706-0.42869-2.8308-1.2861-0.65536-0.86231-0.98303-2.1385-0.98303-3.8286 0-1.8577 0.3326-3.2546 0.99781-4.1908 0.67014-0.94114 1.6261-1.4117 2.8678-1.4117 0.88201 1e-5 1.5768 0.19464 2.0843 0.58391 0.51245 0.38928 0.87462 0.99289 1.0865 1.8108l-1.9587 0.27347c-0.18725-0.68491-0.60609-1.0274-1.2565-1.0274-0.55681 1e-5 -0.99536 0.27841-1.3156 0.83521-0.31536 0.55681-0.47304 1.4019-0.47304 2.5352 0.22174-0.36956 0.5297-0.65289 0.92391-0.84999 0.39419-0.1971 0.84013-0.29564 1.3378-0.29565 0.93129 1e-5 1.6679 0.29565 2.21 0.88695 0.54202 0.5913 0.81303 1.3945 0.81304 2.4095m-2.0843 0.0591c0-0.59129-0.13797-1.0422-0.41391-1.3526-0.27101-0.31535-0.6455-0.47303-1.1235-0.47304-0.45826 1e-5 -0.82536 0.14783-1.1013 0.44348-0.27595 0.29072-0.41392 0.67753-0.41391 1.1604-1e-5 0.60608 0.14289 1.1087 0.42869 1.5078 0.29072 0.3942 0.67013 0.5913 1.1382 0.5913 0.4681 0 0.83274-0.16507 1.0939-0.49522 0.26115-0.33506 0.39173-0.79578 0.39173-1.3822"/>
   </g>
   <g transform="matrix(.90457 0 0 1.1055 266.35 104.08)">
    <path d="m188.63 244.39c-0.46811 0.73913-0.91159 1.4561-1.3304 2.1508-0.41391 0.69479-0.77608 1.3945-1.0865 2.0991-0.31043 0.69971-0.55681 1.4216-0.73912 2.1656-0.17739 0.73912-0.26609 1.5226-0.26608 2.3504h-2.1656c0-0.86724 0.11333-1.7049 0.33999-2.513 0.22667-0.81303 0.55434-1.6384 0.98304-2.4761 0.42868-0.84259 1.2072-2.0818 2.3356-3.7178h-5.1738v-1.7074h7.103v1.6482"/>
   </g>
   <g transform="matrix(.90457 0 0 1.1055 266.35 104.08)">
    <path d="m165.4 232.23c-1e-5 0.97565-0.32276 1.7345-0.96825 2.2765-0.64551 0.5371-1.567 0.80564-2.7643 0.80564-1.1875 0-2.109-0.26854-2.7643-0.80564-0.65043-0.53709-0.97564-1.291-0.97564-2.2617 0-0.66521 0.19217-1.2245 0.57652-1.6778 0.38434-0.45825 0.89926-0.74158 1.5448-0.84999v-0.0296c-0.56173-0.12318-1.0151-0.40158-1.36-0.83521-0.34493-0.43361-0.51739-0.93375-0.51739-1.5004 0-0.85244 0.30058-1.525 0.90173-2.0178 0.60608-0.49274 1.461-0.73911 2.5648-0.73912 1.1284 1e-5 1.9932 0.24146 2.5943 0.72434 0.60608 0.47797 0.90912 1.1604 0.90912 2.0474 0 0.56667-0.17246 1.0643-0.51738 1.493-0.34 0.4287-0.79826 0.69971-1.3748 0.81304v0.0296c0.67013 0.10841 1.1949 0.38435 1.5743 0.82782 0.38434 0.43855 0.57651 1.0052 0.57652 1.7m-2.3948-4.7526c0-0.49274-0.11334-0.85245-0.34-1.0791-0.22666-0.23159-0.56912-0.34738-1.0274-0.34739-0.8968 1e-5 -1.3452 0.47551-1.3452 1.4265 0 0.99535 0.45333 1.493 1.36 1.493 0.45332 1e-5 0.79085-0.11579 1.0126-0.34738 0.22666-0.23159 0.34-0.61347 0.34-1.1456m0.24391 4.5826c0-1.089-0.54203-1.6334-1.6261-1.6335-0.50261 1e-5 -0.88941 0.14291-1.1604 0.4287-0.26609 0.28579-0.39913 0.69724-0.39913 1.2343 0 0.61101 0.13304 1.057 0.39913 1.3378 0.26608 0.28087 0.6726 0.4213 1.2196 0.4213 0.53709 0 0.93129-0.14043 1.1826-0.4213 0.25622-0.28086 0.38434-0.73666 0.38434-1.3674"/>
   </g>
   <g transform="matrix(.90457 0 0 1.1055 266.35 104.08)">
    <path d="m155.27 203.97c-1e-5 1.8478-0.33754 3.23-1.0126 4.1465-0.67507 0.91651-1.6335 1.3748-2.8752 1.3748-0.91651 0-1.6359-0.19464-2.1582-0.58391-0.51738-0.3942-0.88448-1.0151-1.1013-1.8626l1.9513-0.27347c0.19216 0.72434 0.63564 1.0865 1.3304 1.0865 0.58143 1e-5 1.0274-0.2784 1.3378-0.8352 0.31535-0.55681 0.47796-1.3822 0.48782-2.4761-0.18725 0.36956-0.49522 0.66028-0.9239 0.87216-0.42377 0.20696-0.88203 0.31044-1.3748 0.31043-0.91652 1e-5 -1.6458-0.31043-2.1878-0.93129-0.5371-0.62579-0.80565-1.4708-0.80565-2.5352 0-1.0939 0.31536-1.9488 0.94608-2.5648 0.63564-0.61592 1.5324-0.92389 2.6904-0.9239 1.2466 1e-5 2.173 0.43363 2.7791 1.3009 0.611 0.86231 0.91651 2.1607 0.91652 3.8952m-2.1952-1.4561c0-0.64549-0.1429-1.158-0.42869-1.5374-0.28087-0.38434-0.65536-0.57651-1.1235-0.57652-0.45826 1e-5 -0.82043 0.16754-1.0865 0.5026-0.26116 0.33015-0.39174 0.78841-0.39174 1.3748 0 0.57652 0.13058 1.0397 0.39174 1.3896 0.26115 0.34493 0.62578 0.51739 1.0939 0.51739 0.44347 0 0.81056-0.15029 1.1013-0.45087 0.29564-0.3055 0.44347-0.71201 0.44347-1.2196"/>
   </g>
   <g transform="matrix(.90457 0 0 1.1055 266.35 104.08)">
    <path d="m155.06 185.09v-1.5448h2.5795v-7.103l-2.4982 1.5596v-1.6335l2.6091-1.6926h1.9661v8.8695h2.3874v1.5448h-7.0438"/>
    <path d="m170.33 179.88c0 1.7591-0.30304 3.092-0.90912 3.9986-0.60116 0.90666-1.5054 1.36-2.7126 1.36-2.3849 0-3.5774-1.7862-3.5774-5.3586 0-1.2466 0.13058-2.2642 0.39174-3.0526 0.26115-0.78839 0.65289-1.3698 1.1752-1.7443 0.52231-0.37447 1.2122-0.56172 2.0695-0.56173 1.2319 1e-5 2.1336 0.44595 2.7052 1.3378 0.57158 0.89189 0.85738 2.2322 0.85738 4.0208m-2.0843 0c-1e-5 -0.96085-0.0468-1.7074-0.14043-2.2395-0.0936-0.53216-0.24392-0.91404-0.45087-1.1456-0.20696-0.23158-0.50753-0.34738-0.90173-0.34739-0.41884 1e-5 -0.73666 0.11827-0.95347 0.35478-0.21188 0.2316-0.36463 0.61348-0.45825 1.1456-0.0887 0.52725-0.13305 1.2713-0.13304 2.2322-1e-5 0.95101 0.0468 1.6951 0.14043 2.2322 0.0986 0.53217 0.2513 0.91405 0.45825 1.1456 0.21188 0.23159 0.51739 0.34739 0.91652 0.34739 0.39419 0 0.69723-0.12073 0.90912-0.36217 0.2168-0.24638 0.37202-0.63811 0.46564-1.1752 0.0986-0.53709 0.14782-1.2664 0.14783-2.1878"/>
   </g>
   <g transform="matrix(.90457 0 0 1.1055 266.35 104.08)">
    <path d="m178 167.09v-1.5448h2.5795v-7.103l-2.4982 1.5596v-1.6335l2.6091-1.6926h1.9661v8.8695h2.3874v1.5448h-7.0438"/>
    <path d="m185.6 167.09v-1.5448h2.5795v-7.103l-2.4982 1.5596v-1.6335l2.6091-1.6926h1.9661v8.8695h2.3874v1.5448h-7.0438"/>
   </g>
  </g>
  <g transform="translate(-201.16 -19.16)">
   <path d="m400.94 248.8-6.5324-0.85353s-19.168-14.879-29.119-22.376c-0.10743-0.0809-0.26594-0.30487-0.26594-0.30487-0.16438-0.18903-0.0232-0.37775 0.16938-0.3188 0 0 0.24102 0.031 0.34377 0.0905 11.295 6.549 32.761 18.38 32.761 18.38l2.7938 5.1494c0.19673 0.32098 0.20686 0.30751-0.15051 0.23236z" stroke="#fff" stroke-width=".22466"/>
   <path d="m389.73 248.55 4.0762-5.5656s28.91-16.985 43.362-24.951c0.15603-0.086 0.51122-0.15598 0.51122-0.15598 0.3167-0.0961 0.46453 0.17761 0.28784 0.37872 0 0-0.16992 0.27498-0.29783 0.36694-14.06 10.109-40.983 29.543-40.983 29.543l-6.7612 0.69211c-0.49232 0.0634-0.4818 0.083-0.19486-0.30878z" stroke="#fff" stroke-width=".22466"/>
   <path d="m394.62 225.28 0.014 13.725 0.67398 0.4774v3.7209c-0.87481 0.16909-1.5305 0.93625-1.5305 1.8604 0 0.92421 0.65567 1.6914 1.5305 1.8604v53.188h0.70205v-53.181c0.88613-0.16001 1.5586-0.93525 1.5586-1.8675 0-0.93223-0.67245-1.7075-1.5586-1.8675v-3.7139l0.70908-0.4774v-13.718l-2.0992-7e-3zm1.0531 18.696c0.60002 0 1.0882 0.48818 1.0882 1.0882s-0.48818 1.0882-1.0882 1.0882c-0.60001 0-1.0882-0.48818-1.0882-1.0882s0.48818-1.0882 1.0882-1.0882z" stroke="#fff" stroke-width=".22466px"/>
   <g transform="translate(-78.343 11.454)">
    <g fill="none" stroke="#000" stroke-width=".25">
     <path transform="matrix(2.0643 0 0 2.0643 -409.52 -176)" d="m458.42 198.66c0 16.87-13.676 30.546-30.546 30.546s-30.546-13.676-30.546-30.546 13.676-30.546 30.546-30.546 30.546 13.676 30.546 30.546z" stroke-width=".1211"/>
     <path transform="matrix(1.9537 0 0 1.9537 -362.17 -154.02)" d="m458.42 198.66c0 16.87-13.676 30.546-30.546 30.546s-30.546-13.676-30.546-30.546 13.676-30.546 30.546-30.546 30.546 13.676 30.546 30.546z" stroke-width=".12796"/>
     <path d="m467.18 171.35 0.39999 3.4399"/>
     <path d="m480.14 171.27-0.15999 3.4399"/>
     <path d="m486.7 172.31-0.63998 3.2799"/>
     <path d="m493.26 174.15-1.12 3.1199"/>
     <path d="m499.26 176.47-1.36 3.0399"/>
     <path d="m510.7 182.95-1.9999 2.7199"/>
     <path d="m515.66 187.19-2.2399 2.3999"/>
     <path d="m520.46 191.91-2.4799 1.9999"/>
     <path d="m524.38 196.87-2.6399 1.9199"/>
     <path d="m531.42 207.99-3.1999 1.44"/>
     <path d="m533.66 214.23-3.1999 0.95997"/>
     <path d="m535.34 220.55-3.1999 0.71997"/>
     <path d="m536.38 226.95-3.2799 0.47998"/>
     <path d="m536.46 240.23-3.2799-0.47999"/>
     <path d="m535.58 246.71-3.3599-0.63998"/>
     <path d="m533.9 253.11-3.2799-1.04"/>
     <path d="m531.58 259.27-3.0399-1.36"/>
     <path d="m525.02 270.79-2.7999-1.9199"/>
     <path d="m520.86 275.91-2.6399-2.1599"/>
     <path d="m516.38 280.63-2.4799-2.4799"/>
     <path d="m511.02 284.87-2.1599-2.5599"/>
     <path d="m499.58 291.51-1.44-2.9599"/>
     <path d="m493.42 293.99-1.12-3.1999"/>
     <path d="m487.02 295.75-0.79998-3.3599"/>
     <path d="m480.38 296.87-0.39998-3.3599"/>
     <path d="m467.1 296.87 0.31998-3.3599"/>
     <path d="m460.54 295.83 0.71998-3.3599"/>
     <path d="m454.15 293.99 1.04-3.1199"/>
     <path d="m447.91 291.67 1.28-3.1199"/>
     <path d="m436.47 284.95 1.8399-2.6399"/>
     <path d="m431.35 280.71 2.1599-2.4799"/>
     <path d="m426.47 275.99 2.6399-2.2399"/>
     <path d="m422.47 270.79 2.7199-1.9999"/>
     <path d="m415.99 259.43 2.9599-1.52"/>
     <path d="m413.51 253.03 3.3599-0.95997"/>
     <path d="m411.91 246.63 3.5199-0.63998"/>
     <path d="m410.87 240.23 3.3599-0.24"/>
     <path d="m411.11 226.95 3.2799 0.47998"/>
     <path d="m412.07 220.63 3.2799 0.63998"/>
     <path d="m413.83 214.31 3.1999 0.87997"/>
     <path d="m416.31 208.23 3.0399 1.2"/>
     <path d="m422.79 196.79 2.7199 1.9199"/>
     <path d="m427.03 191.83 2.4799 2.1599"/>
     <path d="m431.59 187.19 2.3999 2.3199"/>
     <path d="m436.87 182.95 1.8399 2.6399"/>
     <path d="m448.07 176.39 1.52 3.0399"/>
     <path d="m454.31 173.99 1.12 3.2799"/>
     <path d="m460.54 172.39 0.71998 3.2799"/>
    </g>
    <text transform="scale(1.1486 .87059)" x="410.57278" y="199.47485" fill="#000000" font-family="Arimo" font-size="3.3279px" letter-spacing="0px" word-spacing="0px" style="line-height:125%"><tspan x="410.57278" y="199.47485" font-family="Arial" font-weight="bold">60</tspan></text>
    <text transform="matrix(.59514 .98244 -.74462 .45108 0 0)" x="386.53027" y="-395.41977" fill="#000000" font-family="Arimo" font-size="3.3279px" letter-spacing="0px" word-spacing="0px" style="line-height:125%"><tspan x="386.53027" y="-395.41977" font-family="Arial" font-weight="bold">10</tspan></text>
    <text transform="matrix(1.0133 .54099 -.41003 .76799 0 0)" x="460.30023" y="-88.282829" fill="#000000" font-family="Arimo" font-size="3.3279px" letter-spacing="0px" word-spacing="0px" style="line-height:125%"><tspan x="460.30023" y="-88.282829" font-family="Arial" font-weight="bold">5</tspan></text>
    <text transform="matrix(1.0054 -.55546 .421 .76203 0 0)" x="259.58377" y="429.32785" fill="#000000" font-family="Arimo" font-size="3.3279px" letter-spacing="0px" word-spacing="0px" style="line-height:125%"><tspan x="259.58377" y="429.32785" font-family="Arial" font-weight="bold">55</tspan></text>
    <text transform="matrix(.59865 -.9803 .743 .45374 0 0)" x="38.103039" y="535.27362" fill="#000000" font-family="Arimo" font-size="3.3279px" letter-spacing="0px" word-spacing="0px" style="line-height:125%"><tspan x="38.103039" y="535.27362" font-family="Arial" font-weight="bold">50</tspan></text>
    <text transform="matrix(.00057662 1.1486 -.87059 .00043704 0 0)" x="201.75618" y="-613.14307" fill="#000000" font-family="Arimo" font-size="3.3279px" letter-spacing="0px" word-spacing="0px" style="line-height:125%"><tspan x="201.75618" y="-613.14307" font-family="Arial" font-weight="bold">15</tspan></text>
    <text transform="matrix(.6315 -.95947 .72722 .47863 0 0)" x="58.154758" y="673.73621" fill="#000000" font-family="Arimo" font-size="3.3279px" letter-spacing="0px" word-spacing="0px" style="line-height:125%"><tspan x="58.154758" y="673.73621" font-family="Arial" font-weight="bold">20</tspan></text>
    <text transform="scale(1.1486 .87059)" x="410.69186" y="340.58279" fill="#000000" font-family="Arimo" font-size="3.3279px" letter-spacing="0px" word-spacing="0px" style="line-height:125%"><tspan x="410.69186" y="340.58279" font-family="Arial" font-weight="bold">30</tspan></text>
    <text transform="matrix(.60764 .97476 -.7388 .46055 0 0)" x="387.46454" y="-247.85196" fill="#000000" font-family="Arimo" font-size="3.3279px" letter-spacing="0px" word-spacing="0px" style="line-height:125%"><tspan x="387.46454" y="-247.85196" font-family="Arial" font-weight="bold">40</tspan></text>
    <text transform="matrix(1.0111 -.54494 .41303 .76638 0 0)" x="266.24387" y="566.38617" fill="#000000" font-family="Arimo" font-size="3.3279px" letter-spacing="0px" word-spacing="0px" style="line-height:125%"><tspan x="266.24387" y="566.38617" font-family="Arial" font-weight="bold">25</tspan></text>
    <text transform="matrix(-.004652 -1.1486 .87059 -.0035259 0 0)" x="-206.93031" y="473.80167" fill="#000000" font-family="Arimo" font-size="3.3279px" letter-spacing="0px" word-spacing="0px" style="line-height:125%"><tspan x="-206.93031" y="473.80167" font-family="Arial" font-weight="bold">45</tspan></text>
    <text transform="matrix(.98683 .58784 -.44554 .74795 0 0)" x="457.37579" y="24.195074" fill="#000000" font-family="Arimo" font-size="3.3279px" letter-spacing="0px" word-spacing="0px" style="line-height:125%"><tspan x="457.37579" y="24.195074" font-family="Arial" font-weight="bold">35</tspan></text>
   </g>
  </g>
  <path transform="matrix(1.1803 0 0 1.1803 -34.323 -39.994)" d="m194.57 225.29c0 0.39831-0.3229 0.7212-0.72121 0.7212s-0.7212-0.32289-0.7212-0.7212 0.32289-0.7212 0.7212-0.7212 0.72121 0.32289 0.72121 0.7212z" fill="#fff" stroke="#fff" stroke-width=".25"/>
 </g>
</svg>