<?xml version="1.0" encoding="utf-8"?>
<!-- Generator: Moho 12.4 build 22203 -->
<!DOCTYPE svg PUBLIC "-//W3C//DTD SVG 1.1//EN" "http://www.w3.org/Graphics/SVG/1.1/DTD/svg11.dtd">
<svg version="1.1" id="Frame_0" xmlns="http://www.w3.org/2000/svg" xmlns:xlink="http://www.w3.org/1999/xlink" width="1280px" height="720px">
<g id="Layer_2">
<g id="Layer_4">
<g id="Layer_2">
<path fill="#558048" fill-rule="evenodd" stroke="none" d="M 487.538 471.648 C 487.538 471.648 487.538 471.648 487.538 471.648 C 482.709 472.383 476.171 472.876 471.442 474.098 C 462.947 476.293 451.830 480.363 444.146 484.596 C 439.143 487.352 431.707 490.909 428.748 495.794 C 427.415 497.996 426.263 501.727 426.999 504.193 C 427.191 504.837 427.755 505.748 428.398 505.943 C 432.970 507.324 437.491 499.457 441.696 497.194 C 452.186 491.551 466.780 484.584 478.439 482.147 C 486.564 480.448 497.803 481.617 506.090 481.145 C 516.438 480.556 531.126 482.789 540.533 478.437 C 547.092 475.403 553.293 467.322 557.949 461.794 C 566.504 451.638 576.353 436.677 582.144 424.726 C 587.908 412.829 597.355 396.122 596.181 382.954 C 595.574 376.136 590.178 368.017 586.252 362.410 C 573.165 343.722 552.953 316.662 531.126 310.023 C 524.524 308.015 513.712 307.602 508.186 311.735 C 502.563 315.941 499.903 326.628 499.968 333.649 C 500.029 340.153 504.303 348.393 507.843 353.851 C 515.125 365.078 530.457 375.382 540.149 384.610 C 540.149 384.610 540.149 384.610 540.149 384.610 C 541.003 386.793 542.991 389.543 542.997 391.888 C 543.005 395.715 539.596 400.149 537.934 403.595 C 532.609 414.638 525.947 429.845 518.333 439.454 C 514.320 444.520 508.915 452.850 502.586 454.152 C 495.328 455.645 486.614 447.436 479.489 445.404 C 472.698 443.466 463.429 441.463 456.394 440.854 C 454.407 440.682 451.234 439.526 449.745 440.854 C 448.092 442.329 447.845 446.342 449.045 448.203 C 451.993 452.772 461.631 449.984 466.892 451.353 C 475.087 453.483 493.484 460.800 493.487 460.801 C 489.917 460.591 485.163 460.215 481.589 460.101 C 473.300 459.838 462.238 460.063 453.944 460.101 C 442.816 460.152 427.327 456.698 416.850 460.451 C 415.425 460.962 413.020 461.783 412.651 463.251 C 412.273 464.754 413.812 466.939 415.101 467.800 C 417.372 469.318 421.469 468.061 424.199 468.150 C 436.899 468.563 453.870 468.267 466.542 469.200 C 472.866 469.665 487.536 471.648 487.538 471.648 C 487.538 471.648 487.538 471.648 487.538 471.648 Z"/>
<path fill="#3b572f" d="M 492.835 462.609 C 492.774 462.586 474.444 455.294 466.409 453.212 L 467.376 449.493 C 475.730 451.673 494.194 459.015 494.138 458.994 L 492.835 462.609 Z"/>
<path fill="none" stroke="#3b572f" stroke-width="1" stroke-linecap="butt" stroke-linejoin="round" d="M 492.835 462.609 L 494.138 458.994 "/>
<path fill="#3b572f" d="M 466.409 453.212 C 461.813 451.897 451.723 454.674 447.431 449.245 L 450.659 447.162 C 452.262 450.869 461.448 448.072 467.376 449.493 L 466.409 453.212 Z"/>
<path fill="none" stroke="#3b572f" stroke-width="1" stroke-linecap="butt" stroke-linejoin="round" d="M 466.409 453.212 L 467.376 449.493 "/>
<path fill="#3b572f" d="M 447.431 449.245 C 445.948 446.650 446.277 441.700 448.466 439.421 L 451.024 442.288 C 449.908 442.957 449.741 446.035 450.659 447.162 L 447.431 449.245 Z"/>
<path fill="none" stroke="#3b572f" stroke-width="1" stroke-linecap="butt" stroke-linejoin="round" d="M 447.431 449.245 L 450.659 447.162 "/>
<path fill="#3b572f" d="M 448.466 439.421 C 451.163 437.607 454.886 438.822 456.560 438.940 L 456.228 442.768 C 453.928 442.543 451.304 441.446 451.024 442.288 L 448.466 439.421 Z"/>
<path fill="none" stroke="#3b572f" stroke-width="1" stroke-linecap="butt" stroke-linejoin="round" d="M 448.466 439.421 L 451.024 442.288 "/>
<path fill="#3b572f" d="M 456.560 438.940 C 463.733 439.566 473.156 441.600 480.016 443.556 L 478.962 447.251 C 472.241 445.332 463.125 443.360 456.228 442.768 L 456.560 438.940 Z"/>
<path fill="none" stroke="#3b572f" stroke-width="1" stroke-linecap="butt" stroke-linejoin="round" d="M 456.560 438.940 L 456.228 442.768 "/>
<path fill="#3b572f" d="M 480.016 443.556 C 487.658 445.823 496.073 453.874 502.198 452.270 L 502.973 456.034 C 494.583 457.416 485.571 449.049 478.962 447.251 L 480.016 443.556 Z"/>
<path fill="none" stroke="#3b572f" stroke-width="1" stroke-linecap="butt" stroke-linejoin="round" d="M 480.016 443.556 L 478.962 447.251 "/>
<path fill="#3b572f" d="M 502.198 452.270 C 507.696 451.365 512.748 443.415 516.827 438.261 L 519.839 440.648 C 515.891 445.625 510.134 454.335 502.973 456.034 L 502.198 452.270 Z"/>
<path fill="none" stroke="#3b572f" stroke-width="1" stroke-linecap="butt" stroke-linejoin="round" d="M 502.198 452.270 L 502.973 456.034 "/>
<path fill="#3b572f" d="M 516.827 438.261 C 524.281 428.887 530.861 413.840 536.204 402.761 L 539.665 404.430 C 534.356 415.436 527.612 430.803 519.839 440.648 L 516.827 438.261 Z"/>
<path fill="none" stroke="#3b572f" stroke-width="1" stroke-linecap="butt" stroke-linejoin="round" d="M 516.827 438.261 L 519.839 440.648 "/>
<path fill="#3b572f" d="M 536.204 402.761 C 537.981 399.109 541.228 394.983 541.075 391.892 L 544.918 391.884 C 544.782 396.446 541.212 401.188 539.665 404.430 L 536.204 402.761 Z"/>
<path fill="none" stroke="#3b572f" stroke-width="1" stroke-linecap="butt" stroke-linejoin="round" d="M 536.204 402.761 L 539.665 404.430 "/>
<path fill="#3b572f" d="M 541.075 391.892 C 541.202 390.244 539.338 387.753 538.359 385.310 L 541.938 383.910 C 542.668 385.834 544.781 388.843 544.918 391.884 L 541.075 391.892 Z"/>
<path fill="none" stroke="#3b572f" stroke-width="1" stroke-linecap="butt" stroke-linejoin="round" d="M 541.075 391.892 L 544.918 391.884 "/>
<path fill="#3b572f" d="M 538.824 386.001 C 529.275 376.897 513.800 366.469 506.231 354.896 L 509.455 352.805 C 516.450 363.686 531.639 373.868 541.473 383.218 L 538.824 386.001 Z"/>
<path fill="none" stroke="#3b572f" stroke-width="1" stroke-linecap="butt" stroke-linejoin="round" d="M 538.824 386.001 L 541.473 383.218 "/>
<path fill="#3b572f" d="M 506.231 354.896 C 502.634 349.345 500.029 340.153 499.968 333.649 L 499.968 333.649 C 500.029 340.153 505.972 347.441 509.455 352.805 L 506.231 354.896 Z"/>
<path fill="none" stroke="#3b572f" stroke-width="1" stroke-linecap="butt" stroke-linejoin="round" d="M 506.231 354.896 L 509.455 352.805 "/>
<path fill="#3b572f" d="M 531.126 310.023 C 552.953 316.662 574.718 342.592 587.825 361.308 L 584.678 363.512 C 571.612 344.853 552.953 316.662 531.126 310.023 L 531.126 310.023 Z"/>
<path fill="none" stroke="#3b572f" stroke-width="1" stroke-linecap="butt" stroke-linejoin="round" d="M 531.126 310.023 L 531.126 310.023 "/>
<path fill="#3b572f" d="M 587.825 361.308 C 591.768 366.938 597.356 375.419 598.095 382.784 L 594.268 383.125 C 593.791 376.852 588.589 369.096 584.678 363.512 L 587.825 361.308 Z"/>
<path fill="none" stroke="#3b572f" stroke-width="1" stroke-linecap="butt" stroke-linejoin="round" d="M 587.825 361.308 L 584.678 363.512 "/>
<path fill="#3b572f" d="M 598.095 382.784 C 599.207 396.635 589.604 413.731 583.873 425.564 L 580.415 423.889 C 586.212 411.927 595.504 395.610 594.268 383.125 L 598.095 382.784 Z"/>
<path fill="none" stroke="#3b572f" stroke-width="1" stroke-linecap="butt" stroke-linejoin="round" d="M 598.095 382.784 L 594.268 383.125 "/>
<path fill="#3b572f" d="M 583.873 425.564 C 578.014 437.642 568.053 452.773 559.418 463.032 L 556.479 460.557 C 564.954 450.502 574.692 435.712 580.415 423.889 L 583.873 425.564 Z"/>
<path fill="none" stroke="#3b572f" stroke-width="1" stroke-linecap="butt" stroke-linejoin="round" d="M 583.873 425.564 L 580.415 423.889 "/>
<path fill="#3b572f" d="M 559.418 463.032 C 554.795 468.520 548.354 476.851 541.340 480.181 L 539.726 476.693 C 545.830 473.954 551.791 466.123 556.479 460.557 L 559.418 463.032 Z"/>
<path fill="none" stroke="#3b572f" stroke-width="1" stroke-linecap="butt" stroke-linejoin="round" d="M 559.418 463.032 L 556.479 460.557 "/>
<path fill="#3b572f" d="M 541.340 480.181 C 531.295 484.702 516.312 482.473 506.200 483.063 L 505.981 479.227 C 516.564 478.639 530.958 480.875 539.726 476.693 L 541.340 480.181 Z"/>
<path fill="none" stroke="#3b572f" stroke-width="1" stroke-linecap="butt" stroke-linejoin="round" d="M 541.340 480.181 L 539.726 476.693 "/>
<path fill="#3b572f" d="M 506.200 483.063 C 497.735 483.537 486.617 482.368 478.832 484.027 L 478.046 480.266 C 486.512 478.527 497.872 479.697 505.981 479.227 L 506.200 483.063 Z"/>
<path fill="none" stroke="#3b572f" stroke-width="1" stroke-linecap="butt" stroke-linejoin="round" d="M 506.200 483.063 L 505.981 479.227 "/>
<path fill="#3b572f" d="M 478.832 484.027 C 467.428 486.393 453.049 493.267 442.607 498.886 L 440.786 495.502 C 451.323 489.834 466.132 482.775 478.046 480.266 L 478.832 484.027 Z"/>
<path fill="none" stroke="#3b572f" stroke-width="1" stroke-linecap="butt" stroke-linejoin="round" d="M 478.832 484.027 L 478.046 480.266 "/>
<path fill="#3b572f" d="M 442.607 498.886 C 438.947 500.711 434.085 508.888 427.843 507.782 L 428.954 504.104 C 431.854 505.760 436.035 498.203 440.786 495.502 L 442.607 498.886 Z"/>
<path fill="none" stroke="#3b572f" stroke-width="1" stroke-linecap="butt" stroke-linejoin="round" d="M 442.607 498.886 L 440.786 495.502 "/>
<path fill="#3b572f" d="M 427.843 507.782 C 426.458 507.166 425.463 505.678 425.157 504.742 L 428.840 503.644 C 428.918 503.997 429.052 504.331 428.954 504.104 L 427.843 507.782 Z"/>
<path fill="none" stroke="#3b572f" stroke-width="1" stroke-linecap="butt" stroke-linejoin="round" d="M 427.843 507.782 L 428.954 504.104 "/>
<path fill="#3b572f" d="M 425.157 504.742 C 424.346 501.598 425.643 497.254 427.105 494.799 L 430.392 496.790 C 429.187 498.738 428.180 501.856 428.840 503.644 L 425.157 504.742 Z"/>
<path fill="none" stroke="#3b572f" stroke-width="1" stroke-linecap="butt" stroke-linejoin="round" d="M 425.157 504.742 L 428.840 503.644 "/>
<path fill="#3b572f" d="M 427.105 494.799 C 430.496 489.417 438.274 485.639 443.219 482.913 L 445.073 486.279 C 440.013 489.066 432.918 492.400 430.392 496.790 L 427.105 494.799 Z"/>
<path fill="none" stroke="#3b572f" stroke-width="1" stroke-linecap="butt" stroke-linejoin="round" d="M 427.105 494.799 L 430.392 496.790 "/>
<path fill="#3b572f" d="M 443.219 482.913 C 451.054 478.605 462.363 474.463 470.961 472.238 L 471.922 475.958 C 463.532 478.123 452.607 482.120 445.073 486.279 L 443.219 482.913 Z"/>
<path fill="none" stroke="#3b572f" stroke-width="1" stroke-linecap="butt" stroke-linejoin="round" d="M 443.219 482.913 L 445.073 486.279 "/>
<path fill="#3b572f" d="M 470.961 472.238 C 475.882 470.976 482.503 470.473 487.249 469.749 L 487.827 473.547 C 482.915 474.293 476.460 474.775 471.922 475.958 L 470.961 472.238 Z"/>
<path fill="none" stroke="#3b572f" stroke-width="1" stroke-linecap="butt" stroke-linejoin="round" d="M 470.961 472.238 L 471.922 475.958 "/>
<path fill="#3b572f" d="M 487.329 473.558 C 487.278 473.552 472.644 471.574 466.401 471.116 L 466.684 467.284 C 473.089 467.757 487.793 469.744 487.747 469.738 L 487.329 473.558 Z"/>
<path fill="none" stroke="#3b572f" stroke-width="1" stroke-linecap="butt" stroke-linejoin="round" d="M 487.329 473.558 L 487.747 469.738 "/>
<path fill="#3b572f" d="M 466.401 471.116 C 453.828 470.188 436.892 470.484 424.137 470.070 L 424.261 466.230 C 436.907 466.642 453.911 466.346 466.684 467.284 L 466.401 471.116 Z"/>
<path fill="none" stroke="#3b572f" stroke-width="1" stroke-linecap="butt" stroke-linejoin="round" d="M 466.401 471.116 L 466.684 467.284 "/>
<path fill="#3b572f" d="M 424.137 470.070 C 421.793 469.955 417.293 471.238 414.033 469.397 L 416.168 466.203 C 417.450 467.398 421.145 466.168 424.261 466.230 L 424.137 470.070 Z"/>
<path fill="none" stroke="#3b572f" stroke-width="1" stroke-linecap="butt" stroke-linejoin="round" d="M 424.137 470.070 L 424.261 466.230 "/>
<path fill="#3b572f" d="M 414.033 469.397 C 412.404 468.246 410.440 465.331 410.788 462.782 L 414.514 463.720 C 414.105 464.177 415.220 465.632 416.168 466.203 L 414.033 469.397 Z"/>
<path fill="none" stroke="#3b572f" stroke-width="1" stroke-linecap="butt" stroke-linejoin="round" d="M 414.033 469.397 L 416.168 466.203 "/>
<path fill="#3b572f" d="M 410.788 462.782 C 411.797 460.301 414.794 459.147 416.202 458.643 L 417.498 462.260 C 416.056 462.777 414.243 463.264 414.514 463.720 L 410.788 462.782 Z"/>
<path fill="none" stroke="#3b572f" stroke-width="1" stroke-linecap="butt" stroke-linejoin="round" d="M 410.788 462.782 L 414.514 463.720 "/>
<path fill="#3b572f" d="M 416.202 458.643 C 427.305 454.777 443.059 458.247 453.936 458.180 L 453.953 462.023 C 442.572 462.058 427.349 458.620 417.498 462.260 L 416.202 458.643 Z"/>
<path fill="none" stroke="#3b572f" stroke-width="1" stroke-linecap="butt" stroke-linejoin="round" d="M 416.202 458.643 L 417.498 462.260 "/>
<path fill="#3b572f" d="M 453.936 458.180 C 462.212 458.142 473.303 457.917 481.650 458.181 L 481.528 462.022 C 473.296 461.760 462.264 461.984 453.953 462.023 L 453.936 458.180 Z"/>
<path fill="none" stroke="#3b572f" stroke-width="1" stroke-linecap="butt" stroke-linejoin="round" d="M 453.936 458.180 L 453.953 462.023 "/>
<path fill="#3b572f" d="M 481.650 458.181 C 485.275 458.297 490.053 458.675 493.600 458.883 L 493.374 462.719 C 489.782 462.508 485.050 462.133 481.528 462.022 L 481.650 458.181 Z"/>
<path fill="none" stroke="#3b572f" stroke-width="1" stroke-linecap="butt" stroke-linejoin="round" d="M 481.650 458.181 L 481.528 462.022 "/>
<path fill="#558048" fill-rule="evenodd" stroke="none" d="M 655.315 475.087 C 651.459 478.541 650.829 486.304 648.907 491.111 C 648.909 491.110 659.039 481.626 664.574 480.072 C 672.424 477.868 683.485 482.423 691.636 482.564 C 703.515 482.770 719.303 480.819 731.161 480.072 C 731.158 480.073 714.118 487.008 706.591 489.331 C 697.877 492.020 684.806 491.675 677.037 496.451 C 671.558 499.819 664.689 506.329 662.794 512.476 C 662.637 512.986 662.794 513.722 662.794 514.256 C 662.796 514.255 672.918 507.334 677.749 505.354 C 689.382 500.586 706.216 497.949 718.698 496.451 C 736.096 494.364 760.207 500.055 777.095 495.384 C 795.549 490.279 816.702 474.456 832.288 463.337 C 855.819 446.549 886.599 422.294 904.647 399.716 C 913.925 388.109 924.567 370.836 929.277 356.743 C 932.047 348.456 935.881 336.319 933.470 327.920 C 931.925 322.539 926.848 315.942 921.941 313.247 C 912.974 308.322 897.928 309.770 887.877 311.675 C 868.465 315.352 845.603 330.334 828.660 340.497 C 812.344 350.284 790.953 364.452 777.303 377.705 C 772.652 382.221 767.764 389.444 763.677 394.475 C 763.678 394.472 774.325 377.368 780.351 371.272 C 789.474 362.043 804.665 353.197 815.530 346.101 C 825.811 339.385 839.800 330.811 850.710 325.174 C 858.738 321.027 871.431 318.853 878.207 312.874 C 879.828 311.443 881.936 309.100 882.354 306.979 C 882.914 304.141 881.508 300.085 879.967 297.638 C 878.360 295.087 875.157 291.978 872.242 291.209 C 861.835 288.465 848.056 298.061 837.972 301.824 C 824.920 306.694 808.251 314.986 795.513 320.627 C 782.659 330.523 764.092 342.099 752.667 353.615 C 743.203 363.154 728.810 376.174 725.447 389.183 C 723.419 397.028 725.836 408.335 728.350 416.039 C 730.408 422.342 733.762 431.535 739.239 435.273 C 745.674 439.666 758.894 433.707 765.006 438.540 C 766.267 439.537 767.650 441.654 767.547 443.258 C 767.018 451.488 754.473 457.838 747.222 461.767 C 741.758 464.728 733.369 466.201 727.244 467.254 C 711.534 469.955 689.910 467.477 674.188 470.102 C 668.412 471.066 659.677 471.180 655.315 475.087 M 795.513 320.627 C 795.513 320.627 795.513 320.627 795.513 320.627 Z"/>
<path fill="#3b572f" d="M 647.123 490.398 C 648.947 485.921 649.675 477.828 654.033 473.656 L 656.597 476.518 C 653.243 479.255 652.712 486.686 650.691 491.824 L 647.123 490.398 Z"/>
<path fill="none" stroke="#3b572f" stroke-width="1" stroke-linecap="butt" stroke-linejoin="round" d="M 647.123 490.398 L 650.691 491.824 "/>
<path fill="#3b572f" d="M 654.033 473.656 C 659.113 469.343 668.269 469.150 673.871 468.207 L 674.504 471.997 C 668.554 472.982 660.241 473.016 656.597 476.518 L 654.033 473.656 Z"/>
<path fill="none" stroke="#3b572f" stroke-width="1" stroke-linecap="butt" stroke-linejoin="round" d="M 654.033 473.656 L 656.597 476.518 "/>
<path fill="#3b572f" d="M 673.871 468.207 C 689.902 465.556 711.523 468.034 726.918 465.360 L 727.569 469.147 C 711.546 471.876 689.917 469.398 674.504 471.997 L 673.871 468.207 Z"/>
<path fill="none" stroke="#3b572f" stroke-width="1" stroke-linecap="butt" stroke-linejoin="round" d="M 673.871 468.207 L 674.504 471.997 "/>
<path fill="#3b572f" d="M 726.918 465.360 C 733.040 464.308 741.172 462.898 746.307 460.078 L 748.138 463.456 C 742.343 466.558 733.699 468.093 727.569 469.147 L 726.918 465.360 Z"/>
<path fill="none" stroke="#3b572f" stroke-width="1" stroke-linecap="butt" stroke-linejoin="round" d="M 726.918 465.360 L 727.569 469.147 "/>
<path fill="#3b572f" d="M 746.307 460.077 C 753.588 456.132 765.588 450.205 765.630 443.135 L 769.464 443.382 C 768.448 452.771 755.358 459.543 748.138 463.456 L 746.307 460.077 Z"/>
<path fill="none" stroke="#3b572f" stroke-width="1" stroke-linecap="butt" stroke-linejoin="round" d="M 746.307 460.077 L 748.138 463.456 "/>
<path fill="#3b572f" d="M 765.630 443.135 C 765.833 442.279 764.802 440.781 763.814 440.047 L 766.198 437.033 C 767.731 438.294 769.467 441.029 769.464 443.382 L 765.630 443.135 Z"/>
<path fill="none" stroke="#3b572f" stroke-width="1" stroke-linecap="butt" stroke-linejoin="round" d="M 765.630 443.135 L 769.464 443.382 "/>
<path fill="#3b572f" d="M 763.814 440.047 C 759.006 435.625 745.827 441.581 738.156 436.860 L 740.322 433.686 C 745.522 437.751 758.782 431.789 766.198 437.033 L 763.814 440.047 Z"/>
<path fill="none" stroke="#3b572f" stroke-width="1" stroke-linecap="butt" stroke-linejoin="round" d="M 763.814 440.047 L 766.198 437.033 "/>
<path fill="#3b572f" d="M 738.156 436.860 C 732.176 432.618 728.594 422.975 726.524 416.635 L 730.177 415.442 C 732.222 421.709 735.349 430.451 740.322 433.686 L 738.156 436.860 Z"/>
<path fill="none" stroke="#3b572f" stroke-width="1" stroke-linecap="butt" stroke-linejoin="round" d="M 738.156 436.860 L 740.322 433.686 "/>
<path fill="#3b572f" d="M 726.524 416.635 C 723.976 408.817 721.498 397.067 723.587 388.702 L 727.307 389.663 C 725.340 396.989 727.695 407.852 730.177 415.442 L 726.524 416.635 Z"/>
<path fill="none" stroke="#3b572f" stroke-width="1" stroke-linecap="butt" stroke-linejoin="round" d="M 726.524 416.635 L 730.177 415.442 "/>
<path fill="#3b572f" d="M 723.587 388.702 C 727.222 375.091 741.883 361.758 751.303 352.262 L 754.030 354.969 C 744.523 364.550 730.397 377.257 727.307 389.663 L 723.587 388.702 Z"/>
<path fill="none" stroke="#3b572f" stroke-width="1" stroke-linecap="butt" stroke-linejoin="round" d="M 723.587 388.702 L 727.307 389.663 "/>
<path fill="#3b572f" d="M 752.667 353.615 C 764.092 342.099 781.575 328.937 794.341 319.104 L 796.685 322.149 C 783.743 332.109 764.092 342.099 752.667 353.615 L 752.667 353.615 Z"/>
<path fill="none" stroke="#3b572f" stroke-width="1" stroke-linecap="butt" stroke-linejoin="round" d="M 752.667 353.615 L 752.667 353.615 "/>
<path fill="#3b572f" d="M 879.478 314.314 C 872.173 320.625 859.299 322.864 851.591 326.881 L 849.828 323.468 C 858.178 319.189 870.689 317.081 876.936 311.433 L 879.478 314.314 Z"/>
<path fill="none" stroke="#3b572f" stroke-width="1" stroke-linecap="butt" stroke-linejoin="round" d="M 879.478 314.314 L 876.936 311.433 "/>
<path fill="#3b572f" d="M 851.591 326.881 C 840.752 332.479 826.835 341.011 816.580 347.709 L 814.479 344.492 C 824.787 337.760 838.847 329.142 849.828 323.468 L 851.591 326.881 Z"/>
<path fill="none" stroke="#3b572f" stroke-width="1" stroke-linecap="butt" stroke-linejoin="round" d="M 851.591 326.881 L 849.828 323.468 "/>
<path fill="#3b572f" d="M 816.580 347.709 C 805.668 354.836 790.621 363.585 781.717 372.623 L 778.985 369.921 C 788.328 360.502 803.662 351.558 814.479 344.492 L 816.580 347.709 Z"/>
<path fill="none" stroke="#3b572f" stroke-width="1" stroke-linecap="butt" stroke-linejoin="round" d="M 816.580 347.709 L 814.479 344.492 "/>
<path fill="#3b572f" d="M 781.717 372.623 C 775.885 378.489 765.310 395.488 765.282 395.531 L 762.072 393.419 C 762.047 393.457 772.764 376.246 778.985 369.921 L 781.717 372.623 Z"/>
<path fill="none" stroke="#3b572f" stroke-width="1" stroke-linecap="butt" stroke-linejoin="round" d="M 781.717 372.623 L 778.985 369.921 "/>
<path fill="#3b572f" d="M 762.186 393.263 C 766.214 388.309 771.161 381.009 775.964 376.327 L 778.641 379.083 C 774.143 383.432 769.314 390.579 765.168 395.686 L 762.186 393.263 Z"/>
<path fill="none" stroke="#3b572f" stroke-width="1" stroke-linecap="butt" stroke-linejoin="round" d="M 762.186 393.263 L 765.168 395.686 "/>
<path fill="#3b572f" d="M 775.964 376.327 C 789.769 362.939 811.314 348.662 827.672 338.850 L 829.648 342.145 C 813.375 351.906 792.137 365.965 778.641 379.083 L 775.964 376.327 Z"/>
<path fill="none" stroke="#3b572f" stroke-width="1" stroke-linecap="butt" stroke-linejoin="round" d="M 775.964 376.327 L 778.641 379.083 "/>
<path fill="#3b572f" d="M 827.672 338.850 C 844.577 328.710 867.689 313.595 887.520 309.787 L 888.235 313.562 C 869.240 317.110 846.630 331.958 829.648 342.145 L 827.672 338.850 Z"/>
<path fill="none" stroke="#3b572f" stroke-width="1" stroke-linecap="butt" stroke-linejoin="round" d="M 827.672 338.850 L 829.648 342.145 "/>
<path fill="#3b572f" d="M 887.520 309.787 C 897.674 307.866 913.250 306.421 922.866 311.563 L 921.016 314.931 C 912.699 310.224 898.183 311.675 888.235 313.562 L 887.520 309.787 Z"/>
<path fill="none" stroke="#3b572f" stroke-width="1" stroke-linecap="butt" stroke-linejoin="round" d="M 887.520 309.787 L 888.235 313.562 "/>
<path fill="#3b572f" d="M 922.866 311.563 C 928.156 314.536 933.606 321.610 935.316 327.390 L 931.623 328.450 C 930.244 323.469 925.539 317.349 921.016 314.931 L 922.866 311.563 Z"/>
<path fill="none" stroke="#3b572f" stroke-width="1" stroke-linecap="butt" stroke-linejoin="round" d="M 922.866 311.563 L 921.016 314.931 "/>
<path fill="#3b572f" d="M 935.316 327.390 C 937.797 336.451 933.875 349.047 931.099 357.352 L 927.455 356.134 C 930.219 347.865 933.964 336.186 931.623 328.450 L 935.316 327.390 Z"/>
<path fill="none" stroke="#3b572f" stroke-width="1" stroke-linecap="butt" stroke-linejoin="round" d="M 935.316 327.390 L 931.623 328.450 "/>
<path fill="#3b572f" d="M 931.099 357.352 C 926.292 371.680 915.506 389.200 906.148 400.915 L 903.146 398.516 C 912.343 387.018 922.841 369.991 927.455 356.134 L 931.099 357.352 Z"/>
<path fill="none" stroke="#3b572f" stroke-width="1" stroke-linecap="butt" stroke-linejoin="round" d="M 931.099 357.352 L 927.455 356.134 "/>
<path fill="#3b572f" d="M 906.148 400.915 C 887.929 423.680 856.977 448.082 833.404 464.901 L 831.172 461.773 C 854.661 445.017 885.269 420.907 903.146 398.516 L 906.148 400.915 Z"/>
<path fill="none" stroke="#3b572f" stroke-width="1" stroke-linecap="butt" stroke-linejoin="round" d="M 906.148 400.915 L 903.146 398.516 "/>
<path fill="#3b572f" d="M 833.404 464.901 C 817.838 476.006 796.446 491.978 777.607 497.235 L 776.583 493.532 C 794.651 488.580 815.565 472.907 831.172 461.773 L 833.404 464.901 Z"/>
<path fill="none" stroke="#3b572f" stroke-width="1" stroke-linecap="butt" stroke-linejoin="round" d="M 833.404 464.901 L 831.172 461.773 "/>
<path fill="#3b572f" d="M 777.607 497.235 C 760.160 501.976 735.929 496.278 718.927 498.359 L 718.469 494.544 C 736.262 492.450 760.255 498.134 776.583 493.532 L 777.607 497.235 Z"/>
<path fill="none" stroke="#3b572f" stroke-width="1" stroke-linecap="butt" stroke-linejoin="round" d="M 777.607 497.235 L 776.583 493.532 "/>
<path fill="#3b572f" d="M 718.927 498.359 C 706.484 499.851 689.865 502.445 678.478 507.131 L 677.021 503.576 C 688.898 498.727 705.948 496.047 718.469 494.544 L 718.927 498.359 Z"/>
<path fill="none" stroke="#3b572f" stroke-width="1" stroke-linecap="butt" stroke-linejoin="round" d="M 718.927 498.359 L 718.469 494.544 "/>
<path fill="#3b572f" d="M 678.478 507.131 C 673.901 508.984 663.880 515.841 663.813 515.885 L 661.776 512.627 C 661.711 512.669 671.935 505.683 677.021 503.576 L 678.478 507.131 Z"/>
<path fill="none" stroke="#3b572f" stroke-width="1" stroke-linecap="butt" stroke-linejoin="round" d="M 678.478 507.131 L 677.021 503.576 "/>
<path fill="#3b572f" d="M 660.873 514.256 C 660.888 513.958 660.716 512.986 660.958 511.909 L 664.630 513.042 C 664.558 512.986 664.701 513.485 664.716 514.256 L 660.873 514.256 Z"/>
<path fill="none" stroke="#3b572f" stroke-width="1" stroke-linecap="butt" stroke-linejoin="round" d="M 660.873 514.256 L 664.716 514.256 "/>
<path fill="#3b572f" d="M 660.958 511.910 C 663.109 505.236 670.357 498.319 676.031 494.815 L 678.043 498.088 C 672.758 501.320 666.268 507.423 664.630 513.042 L 660.958 511.910 Z"/>
<path fill="none" stroke="#3b572f" stroke-width="1" stroke-linecap="butt" stroke-linejoin="round" d="M 660.958 511.910 L 664.630 513.042 "/>
<path fill="#3b572f" d="M 676.031 494.815 C 684.407 489.796 697.671 490.110 706.025 487.495 L 707.158 491.167 C 698.083 493.930 685.206 493.555 678.043 498.088 L 676.031 494.815 Z"/>
<path fill="none" stroke="#3b572f" stroke-width="1" stroke-linecap="butt" stroke-linejoin="round" d="M 676.031 494.815 L 678.043 498.088 "/>
<path fill="#3b572f" d="M 706.025 487.495 C 713.441 485.210 730.434 478.293 730.520 478.260 L 731.801 481.883 C 731.883 481.852 714.796 488.806 707.158 491.167 L 706.025 487.495 Z"/>
<path fill="none" stroke="#3b572f" stroke-width="1" stroke-linecap="butt" stroke-linejoin="round" d="M 706.025 487.495 L 707.158 491.167 "/>
<path fill="#3b572f" d="M 731.282 481.989 C 719.490 482.732 703.636 484.687 691.603 484.485 L 691.670 480.643 C 703.394 480.853 719.117 478.907 731.040 478.154 L 731.282 481.989 Z"/>
<path fill="none" stroke="#3b572f" stroke-width="1" stroke-linecap="butt" stroke-linejoin="round" d="M 731.282 481.989 L 731.040 478.154 "/>
<path fill="#3b572f" d="M 691.603 484.485 C 683.028 484.289 672.187 479.775 665.094 481.921 L 664.055 478.222 C 672.661 475.961 683.941 480.557 691.670 480.643 L 691.603 484.485 Z"/>
<path fill="none" stroke="#3b572f" stroke-width="1" stroke-linecap="butt" stroke-linejoin="round" d="M 691.603 484.485 L 691.670 480.643 "/>
<path fill="#3b572f" d="M 665.094 481.921 C 660.145 483.196 650.222 492.512 649.946 492.727 L 647.868 489.495 C 647.596 489.707 657.932 480.055 664.055 478.222 L 665.094 481.921 Z"/>
<path fill="none" stroke="#3b572f" stroke-width="1" stroke-linecap="butt" stroke-linejoin="round" d="M 665.094 481.921 L 664.055 478.222 "/>
</g>
<g id="Layer_5">
<g id="Layer_3">
<clipPath id="ce220416-1585-4958-9094-428153439f33">
<path fill="#568149" fill-rule="evenodd" stroke="none" d="M 362.627 260.955 C 374.319 248.351 393.916 235.850 407.326 225.091 C 407.325 225.090 400.739 214.587 399.529 209.499 C 398.230 204.038 397.345 195.958 399.529 190.787 C 402.879 182.854 412.777 174.583 420.839 171.555 C 427.408 169.089 437.976 168.369 444.228 171.555 C 449.285 174.133 453.429 181.411 455.663 186.629 C 456.601 188.822 456.754 192.086 457.223 194.425 C 457.233 194.425 526.896 191.138 556.496 194.425 C 576.315 196.626 601.527 208.645 621.466 208.459 C 634.066 208.341 650.099 201.695 662.527 199.623 C 675.561 197.449 693.067 195.044 706.266 194.434 C 721.927 193.711 743.354 191.871 758.502 195.909 C 787.270 203.578 820.275 228.159 844.415 245.585 C 872.940 266.176 909.951 296.208 931.824 323.764 C 937.363 330.743 945.384 340.522 947.025 349.281 C 950.267 366.589 942.357 390.932 934.271 406.575 C 930.010 414.817 921.353 424.180 914.242 430.139 C 894.340 446.816 862.612 462.845 837.988 471.085 C 808.768 480.863 767.184 485.131 736.388 486.137 C 708.091 487.061 669.323 487.104 642.315 478.611 C 617.626 470.847 587.768 451.661 567.684 435.338 C 559.549 428.727 552.444 415.716 543.712 409.915 C 539.067 406.830 531.614 405.125 526.483 402.941 C 519.285 399.878 509.142 396.697 502.689 392.275 C 495.224 387.160 486.421 378.446 481.358 370.944 C 478.862 367.246 478.176 360.735 475.205 357.407 C 466.220 347.338 447.480 342.404 435.092 337.052 C 422.446 331.589 404.663 326.651 391.891 321.490 C 382.737 317.790 369.770 313.952 361.838 308.073 C 358.315 305.461 354.405 300.949 351.911 297.341 C 351.133 296.215 350.408 294.523 349.764 293.316 C 349.257 289.688 347.294 284.804 348.073 281.225 C 349.665 273.910 357.535 266.443 362.627 260.955 M 349.764 293.316 C 349.764 293.316 349.764 293.316 349.764 293.316 Z"/>
</clipPath>
<path fill="#568149" fill-rule="evenodd" stroke="none" d="M 362.627 260.955 C 374.319 248.351 393.916 235.850 407.326 225.091 C 407.325 225.090 400.739 214.587 399.529 209.499 C 398.230 204.038 397.345 195.958 399.529 190.787 C 402.879 182.854 412.777 174.583 420.839 171.555 C 427.408 169.089 437.976 168.369 444.228 171.555 C 449.285 174.133 453.429 181.411 455.663 186.629 C 456.601 188.822 456.754 192.086 457.223 194.425 C 457.233 194.425 526.896 191.138 556.496 194.425 C 576.315 196.626 601.527 208.645 621.466 208.459 C 634.066 208.341 650.099 201.695 662.527 199.623 C 675.561 197.449 693.067 195.044 706.266 194.434 C 721.927 193.711 743.354 191.871 758.502 195.909 C 787.270 203.578 820.275 228.159 844.415 245.585 C 872.940 266.176 909.951 296.208 931.824 323.764 C 937.363 330.743 945.384 340.522 947.025 349.281 C 950.267 366.589 942.357 390.932 934.271 406.575 C 930.010 414.817 921.353 424.180 914.242 430.139 C 894.340 446.816 862.612 462.845 837.988 471.085 C 808.768 480.863 767.184 485.131 736.388 486.137 C 708.091 487.061 669.323 487.104 642.315 478.611 C 617.626 470.847 587.768 451.661 567.684 435.338 C 559.549 428.727 552.444 415.716 543.712 409.915 C 539.067 406.830 531.614 405.125 526.483 402.941 C 519.285 399.878 509.142 396.697 502.689 392.275 C 495.224 387.160 486.421 378.446 481.358 370.944 C 478.862 367.246 478.176 360.735 475.205 357.407 C 466.220 347.338 447.480 342.404 435.092 337.052 C 422.446 331.589 404.663 326.651 391.891 321.490 C 382.737 317.790 369.770 313.952 361.838 308.073 C 358.315 305.461 354.405 300.949 351.911 297.341 C 351.133 296.215 350.408 294.523 349.764 293.316 C 349.257 289.688 347.294 284.804 348.073 281.225 C 349.665 273.910 357.535 266.443 362.627 260.955 M 349.764 293.316 C 349.764 293.316 349.764 293.316 349.764 293.316 Z"/>
<path fill="none" stroke="#325f24" stroke-width="4" stroke-linecap="round" stroke-linejoin="round" d="M 407.326 225.091 C 407.326 225.091 407.326 225.091 407.326 225.091 C 393.916 235.850 374.319 248.351 362.627 260.955 C 357.535 266.443 349.665 273.910 348.073 281.225 C 347.294 284.804 349.257 289.688 349.764 293.316 C 349.764 293.316 349.764 293.316 349.764 293.316 C 350.408 294.523 351.133 296.215 351.911 297.341 C 354.405 300.949 358.315 305.461 361.838 308.073 C 369.770 313.952 382.737 317.790 391.891 321.490 C 404.663 326.651 422.446 331.589 435.092 337.052 C 447.480 342.404 466.220 347.338 475.205 357.407 C 478.176 360.735 478.862 367.246 481.358 370.944 C 486.421 378.446 495.224 387.160 502.689 392.275 C 509.142 396.697 519.285 399.878 526.483 402.941 C 531.614 405.125 539.067 406.830 543.712 409.915 C 552.444 415.716 559.549 428.727 567.684 435.338 C 587.768 451.661 617.626 470.847 642.315 478.611 C 669.323 487.104 708.091 487.061 736.388 486.137 C 767.184 485.131 808.768 480.863 837.988 471.085 C 862.612 462.845 894.340 446.816 914.242 430.139 C 921.353 424.180 930.010 414.817 934.271 406.575 C 942.357 390.932 950.267 366.589 947.025 349.281 C 945.384 340.522 937.363 330.743 931.824 323.764 C 909.951 296.208 872.940 266.176 844.415 245.585 C 820.275 228.159 787.270 203.578 758.502 195.909 C 743.354 191.871 721.927 193.711 706.266 194.434 C 693.067 195.044 675.561 197.449 662.527 199.623 C 650.099 201.695 634.066 208.341 621.466 208.459 C 601.527 208.645 576.315 196.626 556.496 194.425 C 526.896 191.138 457.233 194.425 457.223 194.425 C 457.223 194.425 457.223 194.425 457.223 194.425 C 456.754 192.086 456.601 188.822 455.663 186.629 C 453.429 181.411 449.285 174.133 444.228 171.555 C 437.976 168.369 427.408 169.089 420.839 171.555 C 412.777 174.583 402.879 182.854 399.529 190.787 C 397.345 195.958 398.230 204.038 399.529 209.499 C 400.739 214.587 407.325 225.090 407.326 225.091 "/>
<path fill="#fff83d" fill-rule="evenodd" stroke="#fff83d" stroke-width="4" stroke-linecap="round" stroke-linejoin="round" d="M 440.672 318.407 C 464.984 321.951 498.444 323.684 521.324 332.638 C 538.042 339.181 558.131 353.050 572.050 364.389 C 587.340 376.844 601.496 400.298 617.359 412.012 C 634.943 424.996 661.681 438.258 682.705 444.238 C 709.411 451.834 747.164 451.155 774.906 452.293 C 805.015 453.529 845.232 452.633 875.352 451.701 C 884.994 451.403 898.146 447.561 907.464 450.054 C 909.921 450.711 914.170 451.728 914.875 454.172 C 924.612 487.881 837.349 481.295 802.894 487.930 C 776.828 492.949 741.298 497.632 714.794 496.164 C 681.754 494.334 636.549 487.860 606.929 473.109 C 585.583 462.478 566.465 434.299 546.000 422.058 C 534.503 415.182 515.697 412.601 504.829 404.768 C 491.613 395.244 482.705 373.031 469.424 363.598 C 454.315 352.867 428.331 349.721 411.788 341.367 C 405.471 338.177 398.019 332.180 391.686 329.022 C 384.280 325.331 370.963 325.621 365.984 319.012 C 364.240 316.699 364.658 312.384 364.090 309.543 C 364.090 309.543 364.090 309.543 364.090 309.543 C 364.073 309.355 417.786 315.070 440.672 318.407 Z" clip-path="url(#ce220416-1585-4958-9094-428153439f33)"/>
<path fill="#5fa044" fill-rule="evenodd" stroke="#5fa044" stroke-width="4" stroke-linecap="round" stroke-linejoin="round" d="M 404.216 275.566 C 415.611 270.640 430.568 263.068 442.658 260.252 C 463.335 255.435 492.064 255.491 513.292 255.877 C 523.926 256.070 539.829 252.996 548.607 259.002 C 557.328 264.969 559.961 280.904 564.234 290.569 C 566.599 295.919 568.142 303.852 571.423 308.695 C 573.058 311.111 577.980 312.671 578.298 315.571 C 579.260 324.338 565.855 332.845 557.984 336.824 C 553.320 339.181 546.015 339.845 540.793 339.636 C 534.704 339.391 527.073 335.864 521.103 334.635 C 506.246 331.576 486.032 329.799 471.099 327.134 C 454.318 324.140 432.218 318.729 415.467 315.571 C 403.970 313.403 388.683 310.002 377.025 309.008 C 371.534 308.539 363.590 311.234 358.654 308.781 C 355.676 307.301 353.623 302.874 351.467 300.342 C 351.467 300.342 351.467 300.342 351.467 300.342 C 351.368 300.245 388.169 282.505 404.216 275.566 Z" clip-path="url(#ce220416-1585-4958-9094-428153439f33)"/>
<path fill="#4d7541" d="M 513.727 283.581 C 516.683 295.772 532.594 300.846 542.712 295.456 L 545.888 302.119 C 531.944 308.198 515.557 296.818 512.236 283.954 L 513.727 283.581 Z" clip-path="url(#ce220416-1585-4958-9094-428153439f33)"/>
<path fill="#4d7541" d="M 542.712 295.456 C 544.288 294.998 549.742 291.761 552.049 289.444 L 553.135 290.531 C 550.975 292.679 549.713 300.002 545.887 302.119 L 542.712 295.456 Z" clip-path="url(#ce220416-1585-4958-9094-428153439f33)"/>
<path fill="none" stroke="#4d7541" stroke-width="1" stroke-linecap="butt" stroke-linejoin="round" d="M 542.712 295.456 L 545.887 302.119 " clip-path="url(#ce220416-1585-4958-9094-428153439f33)"/>
<path fill="#4d7541" d="M 560.210 231.437 C 577.712 231.452 593.565 235.096 609.933 236.682 L 609.170 244.329 C 591.635 242.535 577.405 232.958 560.210 232.974 L 560.210 231.437 Z" clip-path="url(#ce220416-1585-4958-9094-428153439f33)"/>
<path fill="none" stroke="#4d7541" stroke-width="1" stroke-linecap="butt" stroke-linejoin="round" d="M 560.210 231.437 L 560.210 232.974 " clip-path="url(#ce220416-1585-4958-9094-428153439f33)"/>
<path fill="#4d7541" d="M 609.933 236.682 C 633.265 239.035 656.287 235.922 679.305 230.807 L 680.971 238.309 C 657.632 243.489 633.395 246.719 609.170 244.329 L 609.933 236.682 Z" clip-path="url(#ce220416-1585-4958-9094-428153439f33)"/>
<path fill="none" stroke="#4d7541" stroke-width="1" stroke-linecap="butt" stroke-linejoin="round" d="M 609.933 236.682 L 609.170 244.329 " clip-path="url(#ce220416-1585-4958-9094-428153439f33)"/>
<path fill="#4d7541" d="M 679.305 230.807 C 698.448 226.562 719.324 224.505 738.858 223.944 L 739.066 231.221 C 719.828 231.767 699.683 234.147 680.971 238.309 L 679.305 230.807 Z" clip-path="url(#ce220416-1585-4958-9094-428153439f33)"/>
<path fill="none" stroke="#4d7541" stroke-width="1" stroke-linecap="butt" stroke-linejoin="round" d="M 679.305 230.807 L 680.971 238.309 " clip-path="url(#ce220416-1585-4958-9094-428153439f33)"/>
<path fill="#4d7541" d="M 738.858 223.944 C 741.048 223.891 756.485 225.081 757.153 229.490 L 755.616 229.490 C 756.284 226.605 741.771 231.135 739.066 231.221 L 738.858 223.944 Z" clip-path="url(#ce220416-1585-4958-9094-428153439f33)"/>
<path fill="none" stroke="#4d7541" stroke-width="1" stroke-linecap="butt" stroke-linejoin="round" d="M 738.858 223.944 L 739.066 231.221 " clip-path="url(#ce220416-1585-4958-9094-428153439f33)"/>
</g>
<g id="Layer_3">
<clipPath id="884b9b71-273e-4d93-9c74-a637024d1871">
<path fill="#edee3b" fill-rule="evenodd" stroke="none" d="M 472.882 227.737 C 487.920 227.738 500.051 239.869 500.052 254.907 C 500.052 269.946 487.920 282.078 472.882 282.079 C 457.842 282.079 445.710 269.946 445.710 254.907 C 445.711 239.869 457.843 227.737 472.882 227.737 Z"/>
</clipPath>
<path fill="#edee3b" fill-rule="evenodd" stroke="#edee3b" stroke-width="4" stroke-linecap="round" stroke-linejoin="round" d="M 472.882 227.737 C 487.920 227.738 500.051 239.869 500.052 254.907 C 500.052 269.946 487.920 282.078 472.882 282.079 C 457.842 282.079 445.710 269.946 445.710 254.907 C 445.711 239.869 457.843 227.737 472.882 227.737 Z"/>
<path fill="#010101" fill-rule="evenodd" stroke="#010101" stroke-width="4" stroke-linecap="round" stroke-linejoin="round" d="M 473.627 240.660 C 481.651 240.661 488.123 247.133 488.123 255.156 C 488.123 263.180 481.651 269.652 473.627 269.652 C 465.604 269.652 459.130 263.180 459.130 255.156 C 459.130 247.133 465.604 240.660 473.627 240.660 Z" clip-path="url(#884b9b71-273e-4d93-9c74-a637024d1871)"/>
<path fill="#ffffff" fill-rule="evenodd" stroke="#ffffff" stroke-width="4" stroke-linecap="round" stroke-linejoin="round" d="M 481.910 235.689 C 486.816 235.689 490.773 239.647 490.773 244.553 C 490.773 249.459 486.816 253.416 481.910 253.416 C 477.004 253.416 473.046 249.459 473.046 244.553 C 473.046 239.647 477.004 235.689 481.910 235.689 Z" clip-path="url(#884b9b71-273e-4d93-9c74-a637024d1871)"/>
<path fill="#3b572f" fill-rule="evenodd" stroke="#304b25" stroke-width="4" stroke-linecap="round" stroke-linejoin="round" d="M 524.970 157.844 C 524.959 157.844 417.160 158.979 417.149 158.979 C 417.150 158.991 423.966 273.606 423.967 273.618 C 423.976 273.613 521.556 224.764 521.566 224.759 C 521.566 224.753 524.969 157.850 524.970 157.844 Z" clip-path="url(#884b9b71-273e-4d93-9c74-a637024d1871)"/>
</g>
</g>
<g id="Layer_4">
<path fill="#558048" fill-rule="evenodd" stroke="none" d="M 547.477 516.808 C 547.477 516.808 547.477 516.808 547.477 516.808 C 542.648 517.543 536.110 518.035 531.381 519.257 C 522.886 521.453 511.769 525.522 504.085 529.756 C 499.082 532.512 491.646 536.068 488.687 540.954 C 487.354 543.156 486.202 546.886 486.937 549.353 C 487.130 549.997 487.694 550.908 488.337 551.102 C 492.909 552.484 497.430 544.616 501.635 542.354 C 512.125 536.710 526.719 529.744 538.378 527.306 C 546.503 525.608 557.742 526.776 566.029 526.305 C 576.377 525.716 591.065 527.948 600.472 523.596 C 607.031 520.562 613.232 512.481 617.888 506.954 C 626.443 496.797 636.292 481.837 642.083 469.886 C 647.847 457.989 657.294 441.282 656.120 428.114 C 655.513 421.295 650.117 413.177 646.191 407.569 C 633.104 388.882 612.892 361.822 591.065 355.183 C 584.463 353.174 573.651 352.762 568.125 356.895 C 562.502 361.100 559.842 371.788 559.907 378.809 C 559.968 385.313 564.242 393.553 567.782 399.010 C 575.064 410.237 590.396 420.542 600.088 429.769 C 600.088 429.769 600.088 429.769 600.088 429.769 C 600.942 431.953 602.930 434.703 602.936 437.048 C 602.944 440.874 599.535 445.308 597.873 448.755 C 592.548 459.798 585.886 475.005 578.272 484.614 C 574.259 489.679 568.854 498.009 562.525 499.312 C 555.267 500.805 546.553 492.596 539.428 490.563 C 532.637 488.626 523.368 486.623 516.333 486.014 C 514.346 485.842 511.172 484.686 509.684 486.014 C 508.031 487.488 507.783 491.502 508.984 493.363 C 511.932 497.931 521.570 495.144 526.831 496.512 C 535.026 498.643 553.423 505.960 553.426 505.961 C 549.856 505.751 545.102 505.374 541.528 505.261 C 533.239 504.998 522.177 505.223 513.883 505.261 C 502.755 505.312 487.266 501.858 476.789 505.611 C 475.364 506.121 472.959 506.942 472.590 508.410 C 472.212 509.914 473.751 512.098 475.040 512.960 C 477.311 514.478 481.408 513.221 484.138 513.310 C 496.838 513.723 513.809 513.427 526.481 514.359 C 532.805 514.825 547.475 516.807 547.477 516.808 C 547.477 516.808 547.477 516.808 547.477 516.808 Z"/>
<path fill="#3b572f" d="M 552.774 507.768 C 552.713 507.745 534.383 500.453 526.348 498.372 L 527.315 494.653 C 535.669 496.833 554.133 504.175 554.077 504.153 L 552.774 507.768 Z"/>
<path fill="none" stroke="#3b572f" stroke-width="1" stroke-linecap="butt" stroke-linejoin="round" d="M 552.774 507.768 L 554.077 504.153 "/>
<path fill="#3b572f" d="M 526.348 498.372 C 521.752 497.057 511.662 499.834 507.370 494.404 L 510.598 492.321 C 512.201 496.029 521.387 493.231 527.315 494.653 L 526.348 498.372 Z"/>
<path fill="none" stroke="#3b572f" stroke-width="1" stroke-linecap="butt" stroke-linejoin="round" d="M 526.348 498.372 L 527.315 494.653 "/>
<path fill="#3b572f" d="M 507.370 494.404 C 505.887 491.809 506.216 486.859 508.405 484.580 L 510.963 487.448 C 509.847 488.117 509.680 491.194 510.598 492.321 L 507.370 494.404 Z"/>
<path fill="none" stroke="#3b572f" stroke-width="1" stroke-linecap="butt" stroke-linejoin="round" d="M 507.370 494.404 L 510.598 492.321 "/>
<path fill="#3b572f" d="M 508.405 484.580 C 511.102 482.766 514.825 483.981 516.499 484.100 L 516.167 487.928 C 513.867 487.703 511.243 486.606 510.963 487.448 L 508.405 484.580 Z"/>
<path fill="none" stroke="#3b572f" stroke-width="1" stroke-linecap="butt" stroke-linejoin="round" d="M 508.405 484.580 L 510.963 487.448 "/>
<path fill="#3b572f" d="M 516.499 484.100 C 523.672 484.726 533.095 486.760 539.955 488.716 L 538.901 492.411 C 532.180 490.492 523.064 488.520 516.167 487.928 L 516.499 484.100 Z"/>
<path fill="none" stroke="#3b572f" stroke-width="1" stroke-linecap="butt" stroke-linejoin="round" d="M 516.499 484.100 L 516.167 487.928 "/>
<path fill="#3b572f" d="M 539.955 488.716 C 547.596 490.982 556.012 499.034 562.137 497.430 L 562.912 501.194 C 554.522 502.576 545.510 494.209 538.901 492.411 L 539.955 488.716 Z"/>
<path fill="none" stroke="#3b572f" stroke-width="1" stroke-linecap="butt" stroke-linejoin="round" d="M 539.955 488.716 L 538.901 492.411 "/>
<path fill="#3b572f" d="M 562.137 497.430 C 567.635 496.525 572.687 488.574 576.766 483.421 L 579.778 485.807 C 575.831 490.784 570.073 499.494 562.912 501.194 L 562.137 497.430 Z"/>
<path fill="none" stroke="#3b572f" stroke-width="1" stroke-linecap="butt" stroke-linejoin="round" d="M 562.137 497.430 L 562.912 501.194 "/>
<path fill="#3b572f" d="M 576.766 483.421 C 584.220 474.047 590.800 459.000 596.143 447.920 L 599.604 449.590 C 594.295 460.596 587.551 475.963 579.778 485.807 L 576.766 483.421 Z"/>
<path fill="none" stroke="#3b572f" stroke-width="1" stroke-linecap="butt" stroke-linejoin="round" d="M 576.766 483.421 L 579.778 485.807 "/>
<path fill="#3b572f" d="M 596.143 447.920 C 597.920 444.269 601.167 440.143 601.014 437.052 L 604.857 437.044 C 604.721 441.606 601.151 446.348 599.604 449.590 L 596.143 447.920 Z"/>
<path fill="none" stroke="#3b572f" stroke-width="1" stroke-linecap="butt" stroke-linejoin="round" d="M 596.143 447.920 L 599.604 449.590 "/>
<path fill="#3b572f" d="M 601.014 437.052 C 601.141 435.403 599.277 432.912 598.298 430.470 L 601.877 429.069 C 602.607 430.994 604.720 434.003 604.857 437.044 L 601.014 437.052 Z"/>
<path fill="none" stroke="#3b572f" stroke-width="1" stroke-linecap="butt" stroke-linejoin="round" d="M 601.014 437.052 L 604.857 437.044 "/>
<path fill="#3b572f" d="M 598.763 431.161 C 589.214 422.056 573.739 411.629 566.170 400.056 L 569.394 397.965 C 576.389 408.846 591.578 419.027 601.412 428.378 L 598.763 431.161 Z"/>
<path fill="none" stroke="#3b572f" stroke-width="1" stroke-linecap="butt" stroke-linejoin="round" d="M 598.763 431.161 L 601.412 428.378 "/>
<path fill="#3b572f" d="M 566.170 400.056 C 562.573 394.505 559.968 385.313 559.907 378.809 L 559.907 378.809 C 559.968 385.313 565.911 392.601 569.394 397.965 L 566.170 400.056 Z"/>
<path fill="none" stroke="#3b572f" stroke-width="1" stroke-linecap="butt" stroke-linejoin="round" d="M 566.170 400.056 L 569.394 397.965 "/>
<path fill="#3b572f" d="M 591.065 355.183 C 612.892 361.822 634.657 387.751 647.764 406.467 L 644.617 408.671 C 631.551 390.012 612.892 361.822 591.065 355.183 L 591.065 355.183 Z"/>
<path fill="none" stroke="#3b572f" stroke-width="1" stroke-linecap="butt" stroke-linejoin="round" d="M 591.065 355.183 L 591.065 355.183 "/>
<path fill="#3b572f" d="M 647.764 406.467 C 651.707 412.097 657.295 420.579 658.034 427.943 L 654.207 428.284 C 653.730 422.012 648.528 414.256 644.617 408.671 L 647.764 406.467 Z"/>
<path fill="none" stroke="#3b572f" stroke-width="1" stroke-linecap="butt" stroke-linejoin="round" d="M 647.764 406.467 L 644.617 408.671 "/>
<path fill="#3b572f" d="M 658.034 427.943 C 659.146 441.795 649.543 458.891 643.812 470.724 L 640.354 469.048 C 646.151 457.086 655.443 440.769 654.207 428.284 L 658.034 427.943 Z"/>
<path fill="none" stroke="#3b572f" stroke-width="1" stroke-linecap="butt" stroke-linejoin="round" d="M 658.034 427.943 L 654.207 428.284 "/>
<path fill="#3b572f" d="M 643.812 470.724 C 637.953 482.802 627.992 497.933 619.357 508.192 L 616.418 505.716 C 624.893 495.662 634.631 480.871 640.354 469.048 L 643.812 470.724 Z"/>
<path fill="none" stroke="#3b572f" stroke-width="1" stroke-linecap="butt" stroke-linejoin="round" d="M 643.812 470.724 L 640.354 469.048 "/>
<path fill="#3b572f" d="M 619.357 508.192 C 614.734 513.679 608.293 522.011 601.279 525.340 L 599.665 521.853 C 605.769 519.114 611.730 511.283 616.418 505.716 L 619.357 508.192 Z"/>
<path fill="none" stroke="#3b572f" stroke-width="1" stroke-linecap="butt" stroke-linejoin="round" d="M 619.357 508.192 L 616.418 505.716 "/>
<path fill="#3b572f" d="M 601.279 525.340 C 591.234 529.862 576.251 527.633 566.138 528.223 L 565.920 524.387 C 576.503 523.798 590.897 526.034 599.665 521.853 L 601.279 525.340 Z"/>
<path fill="none" stroke="#3b572f" stroke-width="1" stroke-linecap="butt" stroke-linejoin="round" d="M 601.279 525.340 L 599.665 521.853 "/>
<path fill="#3b572f" d="M 566.138 528.223 C 557.674 528.697 546.556 527.528 538.771 529.187 L 537.985 525.425 C 546.451 523.687 557.811 524.856 565.920 524.387 L 566.138 528.223 Z"/>
<path fill="none" stroke="#3b572f" stroke-width="1" stroke-linecap="butt" stroke-linejoin="round" d="M 566.138 528.223 L 565.920 524.387 "/>
<path fill="#3b572f" d="M 538.771 529.187 C 527.367 531.552 512.988 538.427 502.546 544.046 L 500.725 540.662 C 511.262 534.994 526.071 527.935 537.985 525.425 L 538.771 529.187 Z"/>
<path fill="none" stroke="#3b572f" stroke-width="1" stroke-linecap="butt" stroke-linejoin="round" d="M 538.771 529.187 L 537.985 525.425 "/>
<path fill="#3b572f" d="M 502.546 544.046 C 498.886 545.870 494.024 554.048 487.782 552.942 L 488.893 549.263 C 491.793 550.920 495.974 543.362 500.725 540.662 L 502.546 544.046 Z"/>
<path fill="none" stroke="#3b572f" stroke-width="1" stroke-linecap="butt" stroke-linejoin="round" d="M 502.546 544.046 L 500.725 540.662 "/>
<path fill="#3b572f" d="M 487.782 552.942 C 486.397 552.325 485.402 550.837 485.096 549.902 L 488.779 548.804 C 488.857 549.157 488.991 549.491 488.893 549.263 L 487.782 552.942 Z"/>
<path fill="none" stroke="#3b572f" stroke-width="1" stroke-linecap="butt" stroke-linejoin="round" d="M 487.782 552.942 L 488.893 549.263 "/>
<path fill="#3b572f" d="M 485.096 549.902 C 484.285 546.757 485.582 542.413 487.044 539.959 L 490.331 541.949 C 489.126 543.898 488.119 547.015 488.779 548.804 L 485.096 549.902 Z"/>
<path fill="none" stroke="#3b572f" stroke-width="1" stroke-linecap="butt" stroke-linejoin="round" d="M 485.096 549.902 L 488.779 548.804 "/>
<path fill="#3b572f" d="M 487.044 539.959 C 490.435 534.577 498.213 530.799 503.158 528.073 L 505.012 531.439 C 499.952 534.225 492.857 537.560 490.331 541.949 L 487.044 539.959 Z"/>
<path fill="none" stroke="#3b572f" stroke-width="1" stroke-linecap="butt" stroke-linejoin="round" d="M 487.044 539.959 L 490.331 541.949 "/>
<path fill="#3b572f" d="M 503.158 528.073 C 510.993 523.765 522.302 519.623 530.900 517.397 L 531.861 521.117 C 523.471 523.283 512.545 527.280 505.012 531.438 L 503.158 528.073 Z"/>
<path fill="none" stroke="#3b572f" stroke-width="1" stroke-linecap="butt" stroke-linejoin="round" d="M 503.158 528.073 L 505.012 531.438 "/>
<path fill="#3b572f" d="M 530.900 517.397 C 535.821 516.136 542.442 515.632 547.188 514.908 L 547.766 518.707 C 542.854 519.453 536.399 519.934 531.861 521.117 L 530.900 517.397 Z"/>
<path fill="none" stroke="#3b572f" stroke-width="1" stroke-linecap="butt" stroke-linejoin="round" d="M 530.900 517.397 L 531.861 521.117 "/>
<path fill="#3b572f" d="M 547.270 518.718 C 547.217 518.711 532.583 516.733 526.340 516.276 L 526.622 512.443 C 533.028 512.917 547.732 514.904 547.683 514.898 L 547.270 518.718 Z"/>
<path fill="none" stroke="#3b572f" stroke-width="1" stroke-linecap="butt" stroke-linejoin="round" d="M 547.270 518.718 L 547.683 514.898 "/>
<path fill="#3b572f" d="M 526.340 516.276 C 513.767 515.347 496.831 515.644 484.076 515.230 L 484.200 511.389 C 496.846 511.801 513.850 511.506 526.622 512.443 L 526.340 516.276 Z"/>
<path fill="none" stroke="#3b572f" stroke-width="1" stroke-linecap="butt" stroke-linejoin="round" d="M 526.340 516.276 L 526.622 512.443 "/>
<path fill="#3b572f" d="M 484.076 515.230 C 481.732 515.115 477.232 516.397 473.972 514.557 L 476.107 511.362 C 477.389 512.558 481.084 511.327 484.200 511.389 L 484.076 515.230 Z"/>
<path fill="none" stroke="#3b572f" stroke-width="1" stroke-linecap="butt" stroke-linejoin="round" d="M 484.076 515.230 L 484.200 511.389 "/>
<path fill="#3b572f" d="M 473.972 514.557 C 472.343 513.406 470.379 510.491 470.727 507.942 L 474.453 508.879 C 474.044 509.337 475.159 510.791 476.107 511.362 L 473.972 514.557 Z"/>
<path fill="none" stroke="#3b572f" stroke-width="1" stroke-linecap="butt" stroke-linejoin="round" d="M 473.972 514.557 L 476.107 511.362 "/>
<path fill="#3b572f" d="M 470.727 507.942 C 471.736 505.460 474.733 504.307 476.141 503.802 L 477.437 507.420 C 475.995 507.936 474.182 508.424 474.453 508.879 L 470.727 507.942 Z"/>
<path fill="none" stroke="#3b572f" stroke-width="1" stroke-linecap="butt" stroke-linejoin="round" d="M 470.727 507.942 L 474.453 508.879 "/>
<path fill="#3b572f" d="M 476.141 503.802 C 487.244 499.937 502.998 503.406 513.875 503.340 L 513.892 507.182 C 502.511 507.218 487.288 503.779 477.437 507.420 L 476.141 503.802 Z"/>
<path fill="none" stroke="#3b572f" stroke-width="1" stroke-linecap="butt" stroke-linejoin="round" d="M 476.141 503.802 L 477.437 507.420 "/>
<path fill="#3b572f" d="M 513.875 503.340 C 522.150 503.302 533.242 503.077 541.589 503.341 L 541.467 507.181 C 533.235 506.919 522.203 507.144 513.892 507.182 L 513.875 503.340 Z"/>
<path fill="none" stroke="#3b572f" stroke-width="1" stroke-linecap="butt" stroke-linejoin="round" d="M 513.875 503.340 L 513.892 507.182 "/>
<path fill="#3b572f" d="M 541.589 503.341 C 545.214 503.456 549.991 503.834 553.539 504.043 L 553.313 507.879 C 549.721 507.667 544.989 507.292 541.467 507.181 L 541.589 503.341 Z"/>
<path fill="none" stroke="#3b572f" stroke-width="1" stroke-linecap="butt" stroke-linejoin="round" d="M 541.589 503.341 L 541.467 507.181 "/>
<path fill="#558048" fill-rule="evenodd" stroke="none" d="M 715.254 520.246 C 711.398 523.701 710.768 531.463 708.846 536.271 C 708.848 536.269 718.978 526.786 724.513 525.231 C 732.363 523.028 743.424 527.583 751.575 527.724 C 763.454 527.930 779.242 525.979 791.100 525.231 C 791.097 525.232 774.057 532.168 766.530 534.490 C 757.816 537.180 744.745 536.835 736.976 541.611 C 731.497 544.979 724.628 551.489 722.733 557.635 C 722.576 558.146 722.733 558.881 722.733 559.415 C 722.735 559.414 732.857 552.493 737.688 550.513 C 749.321 545.746 766.155 543.109 778.637 541.611 C 796.035 539.524 820.146 545.215 837.034 540.543 C 855.488 535.439 876.641 519.616 892.227 508.496 C 915.758 491.709 946.538 467.453 964.586 444.875 C 973.864 433.268 984.505 415.995 989.216 401.902 C 991.986 393.615 995.820 381.478 993.409 373.080 C 991.864 367.699 986.786 361.102 981.880 358.407 C 972.913 353.482 957.867 354.930 947.816 356.834 C 928.404 360.512 905.542 375.494 888.599 385.657 C 872.284 395.444 850.892 409.611 837.242 422.865 C 832.591 427.380 827.703 434.603 823.616 439.634 C 823.617 439.632 834.263 422.527 840.290 416.431 C 849.413 407.203 864.604 398.357 875.469 391.260 C 885.750 384.545 899.739 375.970 910.649 370.334 C 918.677 366.186 931.370 364.013 938.146 358.033 C 939.767 356.603 941.875 354.260 942.293 352.138 C 942.852 349.301 941.447 345.245 939.906 342.798 C 938.299 340.246 935.096 337.137 932.181 336.369 C 921.773 333.624 907.995 343.221 897.911 346.983 C 884.859 351.853 868.190 360.145 855.452 365.786 C 842.598 375.683 824.031 387.259 812.606 398.775 C 803.142 408.313 788.749 421.334 785.386 434.342 C 783.358 442.188 785.775 453.495 788.289 461.198 C 790.347 467.502 793.701 476.694 799.178 480.433 C 805.613 484.826 818.833 478.867 824.945 483.700 C 826.206 484.697 827.589 486.814 827.486 488.418 C 826.957 496.648 814.412 502.997 807.161 506.926 C 801.697 509.888 793.308 511.360 787.183 512.413 C 771.474 515.114 749.849 512.636 734.126 515.261 C 728.351 516.226 719.616 516.339 715.254 520.246 M 855.452 365.786 C 855.452 365.786 855.452 365.786 855.452 365.786 Z"/>
<path fill="#3b572f" d="M 707.062 535.557 C 708.886 531.081 709.614 522.988 713.972 518.815 L 716.536 521.677 C 713.182 524.414 712.651 531.846 710.630 536.984 L 707.062 535.557 Z"/>
<path fill="none" stroke="#3b572f" stroke-width="1" stroke-linecap="butt" stroke-linejoin="round" d="M 707.062 535.557 L 710.630 536.984 "/>
<path fill="#3b572f" d="M 713.972 518.815 C 719.052 514.503 728.208 514.310 733.810 513.366 L 734.443 517.156 C 728.493 518.142 720.180 518.176 716.536 521.677 L 713.972 518.815 Z"/>
<path fill="none" stroke="#3b572f" stroke-width="1" stroke-linecap="butt" stroke-linejoin="round" d="M 713.972 518.815 L 716.536 521.677 "/>
<path fill="#3b572f" d="M 733.810 513.366 C 749.841 510.715 771.462 513.193 786.857 510.520 L 787.508 514.307 C 771.485 517.036 749.856 514.558 734.443 517.156 L 733.810 513.366 Z"/>
<path fill="none" stroke="#3b572f" stroke-width="1" stroke-linecap="butt" stroke-linejoin="round" d="M 733.810 513.366 L 734.443 517.156 "/>
<path fill="#3b572f" d="M 786.857 510.520 C 792.979 509.467 801.111 508.058 806.246 505.237 L 808.077 508.615 C 802.282 511.718 793.638 513.253 787.508 514.307 L 786.857 510.520 Z"/>
<path fill="none" stroke="#3b572f" stroke-width="1" stroke-linecap="butt" stroke-linejoin="round" d="M 786.857 510.520 L 787.508 514.307 "/>
<path fill="#3b572f" d="M 806.246 505.237 C 813.527 501.292 825.527 495.365 825.569 488.295 L 829.403 488.541 C 828.387 497.930 815.297 504.702 808.077 508.615 L 806.246 505.237 Z"/>
<path fill="none" stroke="#3b572f" stroke-width="1" stroke-linecap="butt" stroke-linejoin="round" d="M 806.246 505.237 L 808.077 508.615 "/>
<path fill="#3b572f" d="M 825.569 488.295 C 825.772 487.439 824.741 485.941 823.753 485.207 L 826.137 482.193 C 827.670 483.453 829.406 486.189 829.403 488.541 L 825.569 488.295 Z"/>
<path fill="none" stroke="#3b572f" stroke-width="1" stroke-linecap="butt" stroke-linejoin="round" d="M 825.569 488.295 L 829.403 488.541 "/>
<path fill="#3b572f" d="M 823.753 485.207 C 818.945 480.785 805.766 486.741 798.094 482.020 L 800.261 478.846 C 805.461 482.911 818.721 476.949 826.137 482.193 L 823.753 485.207 Z"/>
<path fill="none" stroke="#3b572f" stroke-width="1" stroke-linecap="butt" stroke-linejoin="round" d="M 823.753 485.207 L 826.137 482.193 "/>
<path fill="#3b572f" d="M 798.094 482.020 C 792.115 477.778 788.533 468.135 786.463 461.794 L 790.116 460.602 C 792.161 466.868 795.288 475.611 800.261 478.846 L 798.094 482.020 Z"/>
<path fill="none" stroke="#3b572f" stroke-width="1" stroke-linecap="butt" stroke-linejoin="round" d="M 798.094 482.020 L 800.261 478.846 "/>
<path fill="#3b572f" d="M 786.463 461.794 C 783.915 453.977 781.437 442.227 783.526 433.861 L 787.246 434.823 C 785.279 442.149 787.634 453.012 790.116 460.602 L 786.463 461.794 Z"/>
<path fill="none" stroke="#3b572f" stroke-width="1" stroke-linecap="butt" stroke-linejoin="round" d="M 786.463 461.794 L 790.116 460.602 "/>
<path fill="#3b572f" d="M 783.526 433.861 C 787.161 420.251 801.822 406.917 811.242 397.422 L 813.969 400.128 C 804.462 409.709 790.336 422.416 787.246 434.823 L 783.526 433.861 Z"/>
<path fill="none" stroke="#3b572f" stroke-width="1" stroke-linecap="butt" stroke-linejoin="round" d="M 783.526 433.861 L 787.246 434.823 "/>
<path fill="#3b572f" d="M 812.606 398.775 C 824.031 387.259 841.514 374.097 854.280 364.264 L 856.624 367.308 C 843.682 377.269 824.031 387.259 812.606 398.775 L 812.606 398.775 Z"/>
<path fill="none" stroke="#3b572f" stroke-width="1" stroke-linecap="butt" stroke-linejoin="round" d="M 812.606 398.775 L 812.606 398.775 "/>
<path fill="#3b572f" d="M 939.417 359.474 C 932.112 365.785 919.238 368.024 911.530 372.041 L 909.767 368.627 C 918.117 364.349 930.628 362.240 936.875 356.593 L 939.417 359.474 Z"/>
<path fill="none" stroke="#3b572f" stroke-width="1" stroke-linecap="butt" stroke-linejoin="round" d="M 939.417 359.474 L 936.875 356.593 "/>
<path fill="#3b572f" d="M 911.530 372.041 C 900.691 377.639 886.774 386.170 876.519 392.869 L 874.418 389.652 C 884.726 382.919 898.786 374.302 909.767 368.627 L 911.530 372.041 Z"/>
<path fill="none" stroke="#3b572f" stroke-width="1" stroke-linecap="butt" stroke-linejoin="round" d="M 911.530 372.041 L 909.767 368.627 "/>
<path fill="#3b572f" d="M 876.519 392.869 C 865.607 399.996 850.560 408.745 841.656 417.782 L 838.924 415.081 C 848.267 405.661 863.601 396.718 874.418 389.652 L 876.519 392.869 Z"/>
<path fill="none" stroke="#3b572f" stroke-width="1" stroke-linecap="butt" stroke-linejoin="round" d="M 876.519 392.869 L 874.418 389.652 "/>
<path fill="#3b572f" d="M 841.656 417.782 C 835.824 423.648 825.249 440.647 825.202 440.719 L 822.030 438.549 C 821.986 438.617 832.703 421.406 838.924 415.081 L 841.656 417.782 Z"/>
<path fill="none" stroke="#3b572f" stroke-width="1" stroke-linecap="butt" stroke-linejoin="round" d="M 841.656 417.782 L 838.924 415.081 "/>
<path fill="#3b572f" d="M 822.125 438.423 C 826.153 433.468 831.100 426.169 835.903 421.486 L 838.580 424.243 C 834.082 428.592 829.253 435.739 825.107 440.846 L 822.125 438.423 Z"/>
<path fill="none" stroke="#3b572f" stroke-width="1" stroke-linecap="butt" stroke-linejoin="round" d="M 822.125 438.423 L 825.107 440.846 "/>
<path fill="#3b572f" d="M 835.903 421.486 C 849.708 408.098 871.253 393.822 887.611 384.009 L 889.587 387.305 C 873.314 397.065 852.076 411.124 838.580 424.243 L 835.903 421.486 Z"/>
<path fill="none" stroke="#3b572f" stroke-width="1" stroke-linecap="butt" stroke-linejoin="round" d="M 835.903 421.486 L 838.580 424.243 "/>
<path fill="#3b572f" d="M 887.611 384.009 C 904.516 373.869 927.628 358.754 947.458 354.946 L 948.174 358.722 C 929.180 362.269 906.568 377.118 889.587 387.305 L 887.611 384.009 Z"/>
<path fill="none" stroke="#3b572f" stroke-width="1" stroke-linecap="butt" stroke-linejoin="round" d="M 887.611 384.009 L 889.587 387.305 "/>
<path fill="#3b572f" d="M 947.458 354.946 C 957.613 353.026 973.189 351.581 982.805 356.723 L 980.955 360.091 C 972.638 355.383 958.122 356.834 948.174 358.722 L 947.458 354.946 Z"/>
<path fill="none" stroke="#3b572f" stroke-width="1" stroke-linecap="butt" stroke-linejoin="round" d="M 947.458 354.946 L 948.174 358.722 "/>
<path fill="#3b572f" d="M 982.805 356.723 C 988.095 359.695 993.545 366.769 995.255 372.550 L 991.562 373.610 C 990.182 368.628 985.478 362.508 980.955 360.091 L 982.805 356.723 Z"/>
<path fill="none" stroke="#3b572f" stroke-width="1" stroke-linecap="butt" stroke-linejoin="round" d="M 982.805 356.723 L 980.955 360.091 "/>
<path fill="#3b572f" d="M 995.255 372.550 C 997.736 381.611 993.814 394.206 991.038 402.512 L 987.394 401.293 C 990.158 393.024 993.903 381.346 991.562 373.610 L 995.255 372.550 Z"/>
<path fill="none" stroke="#3b572f" stroke-width="1" stroke-linecap="butt" stroke-linejoin="round" d="M 995.255 372.550 L 991.562 373.610 "/>
<path fill="#3b572f" d="M 991.038 402.512 C 986.231 416.840 975.445 434.359 966.087 446.075 L 963.085 443.676 C 972.282 432.178 982.780 415.151 987.394 401.293 L 991.038 402.512 Z"/>
<path fill="none" stroke="#3b572f" stroke-width="1" stroke-linecap="butt" stroke-linejoin="round" d="M 991.038 402.512 L 987.394 401.293 "/>
<path fill="#3b572f" d="M 966.087 446.075 C 947.868 468.840 916.916 493.242 893.343 510.060 L 891.111 506.932 C 914.600 490.176 945.208 466.067 963.085 443.676 L 966.087 446.075 Z"/>
<path fill="none" stroke="#3b572f" stroke-width="1" stroke-linecap="butt" stroke-linejoin="round" d="M 966.087 446.075 L 963.085 443.676 "/>
<path fill="#3b572f" d="M 893.343 510.060 C 877.777 521.165 856.385 537.137 837.546 542.395 L 836.522 538.692 C 854.590 533.740 875.504 518.067 891.111 506.932 L 893.343 510.060 Z"/>
<path fill="none" stroke="#3b572f" stroke-width="1" stroke-linecap="butt" stroke-linejoin="round" d="M 893.343 510.060 L 891.111 506.932 "/>
<path fill="#3b572f" d="M 837.546 542.395 C 820.099 547.135 795.868 541.438 778.866 543.519 L 778.408 539.703 C 796.201 537.610 820.194 543.294 836.522 538.692 L 837.546 542.395 Z"/>
<path fill="none" stroke="#3b572f" stroke-width="1" stroke-linecap="butt" stroke-linejoin="round" d="M 837.546 542.395 L 836.522 538.692 "/>
<path fill="#3b572f" d="M 778.866 543.519 C 766.424 545.011 749.805 547.605 738.417 552.291 L 736.960 548.735 C 748.837 543.886 765.887 541.206 778.408 539.703 L 778.866 543.519 Z"/>
<path fill="none" stroke="#3b572f" stroke-width="1" stroke-linecap="butt" stroke-linejoin="round" d="M 778.866 543.519 L 778.408 539.703 "/>
<path fill="#3b572f" d="M 738.417 552.291 C 733.840 554.144 723.819 561.000 723.752 561.045 L 721.715 557.786 C 721.650 557.829 731.874 550.842 736.960 548.735 L 738.417 552.291 Z"/>
<path fill="none" stroke="#3b572f" stroke-width="1" stroke-linecap="butt" stroke-linejoin="round" d="M 738.417 552.291 L 736.960 548.735 "/>
<path fill="#3b572f" d="M 720.812 559.415 C 720.827 559.118 720.655 558.146 720.897 557.069 L 724.569 558.202 C 724.497 558.146 724.640 558.645 724.655 559.415 L 720.812 559.415 Z"/>
<path fill="none" stroke="#3b572f" stroke-width="1" stroke-linecap="butt" stroke-linejoin="round" d="M 720.812 559.415 L 724.655 559.415 "/>
<path fill="#3b572f" d="M 720.897 557.069 C 723.048 550.395 730.296 543.479 735.970 539.974 L 737.982 543.248 C 732.697 546.479 726.207 552.583 724.569 558.201 L 720.897 557.069 Z"/>
<path fill="none" stroke="#3b572f" stroke-width="1" stroke-linecap="butt" stroke-linejoin="round" d="M 720.897 557.069 L 724.569 558.201 "/>
<path fill="#3b572f" d="M 735.970 539.974 C 744.346 534.956 757.610 535.269 765.964 532.655 L 767.097 536.326 C 758.021 539.090 745.145 538.714 737.982 543.248 L 735.970 539.974 Z"/>
<path fill="none" stroke="#3b572f" stroke-width="1" stroke-linecap="butt" stroke-linejoin="round" d="M 735.970 539.974 L 737.982 543.248 "/>
<path fill="#3b572f" d="M 765.964 532.655 C 773.380 530.370 790.373 523.453 790.440 523.427 L 791.760 527.036 C 791.822 527.012 774.735 533.966 767.097 536.326 L 765.964 532.655 Z"/>
<path fill="none" stroke="#3b572f" stroke-width="1" stroke-linecap="butt" stroke-linejoin="round" d="M 765.964 532.655 L 767.097 536.326 "/>
<path fill="#3b572f" d="M 791.221 527.149 C 779.429 527.891 763.575 529.847 751.542 529.645 L 751.609 525.803 C 763.333 526.012 779.056 524.067 790.979 523.314 L 791.221 527.149 Z"/>
<path fill="none" stroke="#3b572f" stroke-width="1" stroke-linecap="butt" stroke-linejoin="round" d="M 791.221 527.149 L 790.979 523.314 "/>
<path fill="#3b572f" d="M 751.542 529.645 C 742.967 529.449 732.126 524.934 725.033 527.081 L 723.994 523.382 C 732.600 521.121 743.880 525.716 751.609 525.803 L 751.542 529.645 Z"/>
<path fill="none" stroke="#3b572f" stroke-width="1" stroke-linecap="butt" stroke-linejoin="round" d="M 751.542 529.645 L 751.609 525.803 "/>
<path fill="#3b572f" d="M 725.033 527.081 C 720.084 528.356 710.161 537.672 709.952 537.842 L 707.740 534.699 C 707.535 534.867 717.871 525.215 723.994 523.382 L 725.033 527.081 Z"/>
<path fill="none" stroke="#3b572f" stroke-width="1" stroke-linecap="butt" stroke-linejoin="round" d="M 725.033 527.081 L 723.994 523.382 "/>
</g>
</g>
</g>
</svg>
