<?xml version="1.0" encoding="UTF-8"?>
<svg viewBox="0 0 341.81314 279.31873" xmlns="http://www.w3.org/2000/svg">
 <defs>
  <filter id="b">
   <feGaussianBlur stdDeviation="3.76611"/>
  </filter>
  <linearGradient id="a" x2="0" y1="-3.6829" y2="32.478" gradientUnits="userSpaceOnUse">
   <stop stop-color="#c61e19" offset="0"/>
   <stop stop-color="#db1d15" offset=".01563"/>
   <stop stop-color="#f01c12" offset=".03125"/>
   <stop stop-color="#f81b0c" offset=".0625"/>
   <stop stop-color="#f11900" offset=".125"/>
   <stop stop-color="#e43200" offset="1"/>
  </linearGradient>
 </defs>
 <g transform="matrix(.50332 0 0 1 -16.11 48.736)">
  <path transform="translate(32.213 93.939)" d="m300.97 6.002s7.6633 3.0793 11.454 3.8521c3.8128 0.77743 7.7815 1.5736 11.631 1.0026 1.7803-0.26408 3.2142-1.9524 5.0132-2.0053 1.9016-0.05588 3.5119 1.8048 5.4143 1.8048 6.1299 0 17.689-5.9366 17.689-5.9366" fill="none" stroke="#000"/>
  <path transform="translate(32.213 93.939)" d="m315.56 19.287c-0.38284-0.23808-1.766-1.5166-3.1478-2.8413-3.1934-3.0613-3.9155-3.4886-5.7898-3.843-0.79972-0.15118-2.285-0.84769-2.4853-1.029-0.31714-0.28701-2.1816-4.4442-2.1816-4.7221 0-0.05664 2.0009 0.49746 3.1866 0.93486 6.6055 2.4369 13.855 3.6919 18.12 3.2519 1.4068-0.14515 2.0545-0.38807 3.5761-1.1523 1.0922-0.54852 2.4631-0.91739 2.8686-0.91739 0.37988 0 1.462 0.49167 2.4605 0.96347 1.6321 0.77119 2.2133 0.77958 3.6008 0.75822 2.947-0.04537 6.3744-1.2008 12.107-3.7242 1.4751-0.64933 3.6385-1.5582 3.6958-1.501 0.11668 0.11669-2.5049 7.6497-3.106 8.8279-0.21239 0.41631-0.94472 1.1814-1.0345 1.1814s-1.0435-0.88589-1.5264-1.5981c-1.2987-1.9151-0.97817-1.6925-4.5341-1.5147-3.4896 0.17444-3.3485-0.04413-3.8369 2.1187-0.38013 1.6833-0.87429 2.0154-1.6782 2.0154-0.33446 0-1.8519 0.56676-3.0756 0.963-2.9845 0.96639-4.1004 0.84192-4.8945 0.25478-0.33099-0.24471-1.0703-0.7237-1.6429-0.9903-2.0213-0.94109-3.4105-0.40989-6.5465 1.6968-2.0339 1.3663-3.1801 1.4608-4.1353 0.86685z" fill="#0d1c08"/>
  <g transform="matrix(1.1456 0 0 1 -41.652 0)" fill="#84827d" filter="url(#b)">
   <path d="m532.31-18.95c10.133-11.43 31.454-7.351 37.655 6.3903 4.4056 9.2065-0.23463 23.557-11.509 23.524-9.8166-1.2248-18.727-10.923-20.002-20.857-0.0898-1.3557-0.11575-2.715-0.22618-4.0695m-84.842-8.6941c6.1874-9.7364 17.556-19.869 29.673-15.635 8.3959 1.9038 11.367 20.036 17.883 17.274 5.6076-11.61 19.9-12.617 29.896-6.9566 11.249 3.0134 12.081 18.708-0.12558 20.709-13.77 4.6179-19.812-11.278-28.167-18.508-5.8037-3.8883-13.07-4.9231-19.849-3.9965m-67.102 4.7422c-12.008-5.0105-25.346 10.99-16.953 21.874l0.84902 1.6689 0.67858 1.7496m64.017-20.55c-9.7561-5.5937-22.482-12.467-33.163-5.2351-13.19 5.4828-6.5333 24.438 6.8512 22.943 8.1875 2.0228 20.81 1.221 22.35-9.4075-0.62341-13.818-16.195-18.628-25.196-26.034-11.026-4.8644-24.197 4.406-25.669 15.95 0.95426 10.464 12.894 15.168 21.784 12.501 3.0283-0.34725 6.0834-0.73838 9.1334-0.44301m47.82-10.275c-8.1934-5.9248-31.806-6.3752-26.397 8.6046 6.1524 9.261 20.393 13.114 29.827 7.0189 2.8054-2.0753 4.3635-5.8049 3.5114-9.3006m-16.197 15.808c-11.828-6.4022-26.174 11.741-17.133 22.092 9.3843 7.0981 22.847 6.6311 32.552 0.46175 7.751-9.5877 5.8226-25.574-5.791-30.738-8.7488-8.2576-27.046 2.4125-18.041 13.57 8.6691 11.992 24.391 13.603 37.835 13.28 9.7542 1.4025 26.189-2.1006 22.862-15.67-2.889-10.579-13.055-17.327-22.687-20.493-13.596-5.5057-23.663 14.605-9.0174 20.555 12.38 6.4429 26.517 2.1697 39.518 0.52869 6.936-1.8836 15.75-3.206 20.026-9.5334 0.31092-1.6015-0.142-3.165-0.60439-4.6646m-145.85 28c10.612-5.8368 9.9031-22.835-1.9521-26.457-8.1745-6.0626-23.588-1.8444-22.846 10.044 0.72584 9.7897 5.6516 20.166 14.771 24.317m22.367-20.55c3.7631 11.911 16.993 16.98 28.255 17.013 12.081-5.2353 3.8417-21.514-4.3282-26.469-7.5365-6.3568-22.202-4.2511-26.685 4.852-7.0684-0.76457-7.0282 11.329-4.9554 15.67m6.0944 45.414c11.536 5.0495 26.47 0.04281 32.027-11.707 6.4729-8.6941 10.467-22.93 1.5853-31.439-5.6203-5.7466-15.712-12.857-23.13-6.1422m-7.3209 20.472c7.643-5.2014 22.414-13.544 25.107 1.2442 6.1973 11.158-1.8368 25.23-14.754 20.557-7.143-1.6595-12.46-7.8914-14.98-14.688m-16.197-20.55c-11.693-3.17-27.421 12.042-15.705 22.14 7.3618 7.6788 31.977 5.5976 25.968-8.7702-3.6141-8.6192-27.358-12.06-21.692 1.3257 8.5332 7.8824 18.786 13.36 26.291 22.572 5.6906 4.4412 8.6077-1.2793 8.0833-6.5369-1.5068-3.8894-4.8883-7.514-7.0583-11.248m-50.596 72.202c-3.7714 6.6803-13.332 3.3794-16.197-2.3711m2.3139-9.4845c-2.3678 12.529 21.257 9.7513 18.195-1.4302-3.8063-9.6761-15.188-6.3377-21.595-2.1634-8.4025 5.6726 2.6984 22.912 9.062 12.77l0.50885-1.2726m21.596-67.972c-11.833 4.5221-9.7833 26.12 3.3317 26.986 13.473 2.9118 19.892-17.339 10.234-25.49-4.8209-3.5041-15.364-2.7938-7.1971-9.7631l0.0995-0.96574-0.41066-1.0066m-2.9719 22.095c5.9487-7.5679 27.66-9.4497 25.469 3.8809-2.6721 5.0898-9.6243 6.9522-14.671 4.8132m11.658 14.615c9.8833 9.7918 23.819-10.119 12.269-17.003-8.5924-10.084-18.276 11.79-5.4162 11.872m-37.022-5.5326c-10.668 6.2659-5.8473 25.428 6.3631 25.893 11.719 0.67872 25.73-6.1951 27.653-19.125-0.70599-11.662-20.497-17.256-25.957-6.6366-2.7984 8.4177 6.0275 15.903 13.537 16.466m-46.817 15.748c-3.9308-13.443 14.957-25.985 24.963-16.178 9.9795 11.175-11.55 27.294-15.193 10.315-5.4873-9.7633-0.98047-24.35 11.522-22.847 3.6148-0.33125 7.2465-0.35508 10.871-0.47482" stroke="#484849" stroke-width=".93429"/>
   <path d="m397.74 59.042c-3.7576-1.0353-13.322-7.0362-4.9377-9.3228 7.7105-6.4524 12.034 3.0504 8.124 9.3944l-1.0366 0.05356-2.1497-0.12522-4e-5 1e-6z"/>
   <path d="m421.84 39.982c-5.0864-5.2138-9.4206-11.17-14.119-16.765 4.807-4.7631 10.666-4.4087 13.324-10.92 2.7575-6.072 4.4082-3.9994 6.8863 1.4751 6.0898 3.0215 4.2069 8.1672 2.7666 13.549-0.10658 5.9724-6.3896 7.649-8.858 12.661z"/>
   <path d="m438.43 55.625c-5.1081-0.5665-12.902-5.2459-11.071-11.323 1.0498-3.604 1.1304-7.9322 2.7709-11.095 5.5512-3.4062 15.175-10.134 19.153-1.2766 3.4638 7.1064 6.6999 21.887-4.3244 23.412-2.1594 0.17635-4.3706 0.81699-6.5284 0.283z"/>
   <path d="m459.12 9.8814c-0.18047-6.1353-12.707-11.742-2.6618-14.021 3.925-3.1576 3.9504-10.27 8.1442-3.0898 6.8251 2.6637 2.5816 10.243-2.1586 12.848-1.2605 0.67142-2.4 4.7868-3.3238 4.2636z"/>
   <path d="m491.73-17.162c-6.2002-7.3053-17.646-9.3567-26.348-6.1033-1.4532 3.3839-9.3839-1.4858-3.6266-1.2778 9.7852-2.0547 19.462-6.0177 29.58-4.5558 2.6755 3.2994 7.4906 15.286 10.702 7.6742 1.7072-7.5641 12.808 9.8608 3.2558 4.7677-5.2987-1.4118-9.9204 5.351-13.563-0.505z"/>
   <path d="m526.45-5.2223c2.972-0.54613 16.03-8.4459 10.088-0.80022-3.2446 0.07098-7.0756 1.8318-10.088 0.80022z"/>
   <path d="m545.35 2.4678c-3.7664-3.8788-8.673-10.676 0.52795-9.4284 4.8992-1.6665 17.434-2.7389 10.358 5.1161-3.2757 1.6004-7.3484 4.6717-10.886 4.3123z"/>
   <path d="m419.6-0.29739c-2.3211-7.0324-17.722-7.2254-9.6367-15.231 3.4149 3.5457 12.501 6.59 17.542 10.248-0.40391-0.00713-6.7261 9.2265-7.9058 4.983z"/>
   <path d="m374.95 75.353c-3.0856-8.5069 16.572-7.9454 6.4024-2.7087-1.6386 0.6049-7.353 8.0476-6.4024 2.7087z"/>
   <path d="m380.26 87.803c-4.6125-2.4368-6.9682-13.538-0.36238-5.1325 0.86216 0.65969 2.8476 7.8887 0.36238 5.1325z"/>
   <path d="m371.34 98.434c-8.207-3.3706-2.3225-7.4152 1.9124-1.0668 2.1594 1.6529-1.5305 1.2632-1.9124 1.0668z"/>
   <path d="m409.16 62.389c-2.4363-1.399 4.8458-3.6038 1.0965 0.6423l-1.0965-0.6423z"/>
   <path d="m414.12 56.201c-0.0567-4.9911 4.919 0.87253 0 0z"/>
   <path d="m360.47 92.644c4.9591-5.9752 3.9431 1.684 0 0z"/>
  </g>
  <path d="m32.713 229.96c120.46-34.142 198.31-58.928 297.46-131.61 4.325-0.72971 4.675 8.6372 8.2785 8.2077s8.2071 8.1088 11.086 7.304c2.6738-0.74746 5.8306-5.7862 10.391-2.0254 1.9005 1.5672 6.5739-1.3407 8.6187-1.2397s0.93103-4.3603 2.6582-4.2057 3.5777-0.25519 5.0882-0.10877 2.0382 3.2424 3.4331 3.319 4.6031-12.718 5.9833-12.773c141.87 87.43 198.67 110.58 324.71 133.4" fill="#453424" stroke="#000"/>
  <path d="m302.6 133.82c10.076-5.3032 20.377-9.9305 28.615-20.746" fill="none" stroke="#151300"/>
  <path d="m371.28 138.11c-1.756-4.4439-4.0537-8.3461-2.1461-16.454" fill="none" stroke="#151300"/>
  <path d="m383.44 116.65c21.176 8.18 24.369 21.211 36.484 20.746" fill="none" stroke="#151300"/>
  <path d="m217.47 192.48c17.909-18.007 41.802-20.012 49.361-32.907" fill="none" stroke="#1c1400"/>
  <path d="m288.3 193.2c3.1154 1.9848 20.253-18.2 19.315-22.892" fill="none" stroke="#1c1400"/>
  <path d="m378.43 171.02c7.5831 9.7053 9.2925 17.942 9.2999 25.753" fill="none" stroke="#1c1400"/>
  <path d="m462.85 173.17c4.2922-0.71537 32.907 24.323 45.069 24.323" fill="none" stroke="#1c1400"/>
  <path d="m141.09 213.55c14.708 0.6108 22.836-17.149 39.621-17.395" fill="none" stroke="#1c1400"/>
  <path transform="translate(32.213 93.939)" d="m293.37 7.8353c-0.80027 0.88104-5.88 3.3765-5.3638 4.449 0.68365 1.4204 7.2085-1.1419 8.4342-0.15056 0.74753 0.60461 0.626 1.8602 1.2281 2.6098 1.4167 1.7634 5.2196 3.5309 5.3731 4.1449s-1.9901 8.7674 0.76906 10.591c2.5274 1.6702 10.977-4.998 15.964-3.529 1.0072 0.29663 1.3069 1.8165 2.3027 2.1492 4.588 1.533 10.056-3.6001 14.431-1.5352 2.4386 1.1511 3.4821 4.2386 4.452 6.7547 6.4116 4.7354 19.952 26.6 8.9586-0.55347-0.55827-3.7819 0.14038-5.3002-0.0547-9.1181-0.19445-3.8056 4.2985-9.9786 4.2985-10.593s3.1607-6.5277 1.2281-8.7504c-0.53721-0.61787-1.7793-0.46056-2.4563 0-3.4569 2.3519-2.523 8.4273-5.0649 10.902-1.1421 1.1116-1.5855-1.8818-3.0714-2.4581-1.7652-0.68465-4.1261-1.0816-5.6801 0-1.2093 0.84168-0.41147 3.192-1.5352 4.1449-2.2656 1.9214-5.7932 1.9703-8.7504 1.6887-1.646-0.15673-2.9546-1.9336-4.6055-1.8422-2.4916 0.138-4.111 3.6918-6.6012 3.5309-3.9536-0.25553-6.0898-5.2149-9.6715-6.9082-1.2457-0.5889-2.882-0.25747-3.9914-1.0746-2.389-1.7597-1.9423-6.5896-4.759-7.5223-0.67661-0.22405-1.3551 0.45513-1.9957 0.76758-1.3409 0.65403-2.8348 1.1984-3.8379 2.3028z" fill="url(#a)"/>
  <path transform="translate(32.213 93.939)" d="m308.57-3.3406c-3.8609-13.058-10.477-24.586-31.14-28.309" fill="none" stroke="#000" stroke-width=".4"/>
  <path transform="translate(32.213 93.939)" d="m321.31-6.1715c0.36595-18.427-0.60307-36.304-7.785-56.618" fill="none" stroke="#000" stroke-width=".4"/>
  <path d="m304.37058,59.95699c-.19718-.04912-.39747.08204-.37094.2747 .0148.20321-.0255.47095-.22718.56745-.20495.14805-.42114.31758-.53196.52813-.007.21809-.22946.42356-.0965.63185 .20489.07382.25897.31691.40304.38869 .16795.11454.27232.29243.43243.40372 .12793.15273.14611.42017.3876.46015 .22068-.06203.46643-.10824.71606-.08162 .23229-.02463.45265.02798.67636.03608 .23632-.06301.18146-.36441.24906-.54382 .0178-.19651.12403-.35391.25337-.49166 .12009-.13377.26096-.24317.4011-.34301 .15514-.06223.24986-.18617.41683-.25866 .0889-.09152.16416-.16122.21473-.31083 .10918-.02253.1595-.27436.27206-.36278 .0758-.14268.2948-.34065.055-.38586-.17124-.06704-.38312-.00011-.55354-.13098-.24487-.01446-.44709-.12486-.66389-.22461-.25687-.04024-.52198-.06933-.77322.0082-.22766-.01029-.4558-.0017-.68379-.0045-.0962-.13743-.33344-.14233-.50204-.15366l-.0266-.002-.0479-.0051 1e-005-4e-006z" fill="#573800" stroke="#000" stroke-width=".5"/>
  <path d="m341.15839,25.64624c-.1829-.15489-.41506-.06717-.61174-.08512-.16144-.01305-.33788-.04973-.40203.11559-.20332.07125-.005.45052-.27828.30709-.21289.04177-.38523.16634-.49602.34275-.0862.11616-.40465.23583-.12127.35833 .22877.09569.43088.30678.69129.26842 .1626.02449.3489-.02016.44139-.0067 .25004-.04312.50324.03594.73386.14297 .23579.03747.41017.22247.64409.26391 .20039.07765.3807.20473.57444.30002 .14759.09209.33123.14146.42636.29372 .18933.20302.42288.35926.62732.5459 .13943.11549.38391.43956.54371.23487 .0579-.16743.0517-.33737.072-.51659-.004-.19184.1172-.3768.17431-.56657 .0911-.19051.24807-.36704.28139-.5754-.15192-.15484-.38892-.22116-.57316-.3429-.17816-.05389-.39615-.10491-.58762-.07684-.0834.02489-.20325.03814-.18598.08435-.20231.0048-.39748-.11096-.5128-.2634-.0677-.15102-.20731-.34157-.39823-.40815-.19553-.04193-.33708-.03629-.51261-.13545-.19348-.02643-.37403-.10862-.50637-.25791l-.024-.02277-1e-005-5e-006z" fill="#573800" stroke="#000" stroke-width=".5"/>
 </g>
</svg>
