<?xml version="1.0" encoding="UTF-8"?>
<svg enable-background="new 0 0 366.018 416.703" viewBox="0 0 366.018 416.703" xmlns="http://www.w3.org/2000/svg">
 <path d="m12.792,109.629c11.635-15.71 19.793-36.568 22.224-55.992 1.283-10.253 4.069-20.006 14.525-23.489 8.876-2.957 10.671-21.033 13.711-30.148l10.969,21.926 24.134-20.83c1.859,19.497 1.878,19.417 14.364,31.895 9.178,9.172 16.286,20.208 21.423,32.189 9.046,21.096 9.146,69.489 42.097,60.893 10.537-2.748 19.571-10.978 29.62-15.349 11.821-5.142 24.033-10.844 36.748-13.154 21-3.816 53.224-3.96 66.365,16.443 30.914-17.967 38.804,22.396 37.411,43.238-.761,11.388-10.236,67.487 6.47,67.487 11.674,0 13.736-3.833 7.678,4.385-5.315,7.208-18.898,14.376-27.345,18.596-27.62,13.803-26.924-15.46-38.474-31.751 .353,10.234.705,20.468 1.061,30.702 .058,1.7-9.248,10.077-10.974,12.662-10.158,15.221-8.734,31.152-8.734,48.725 0,17.457-6.041,24.707-8.594,42.574-.91,6.374-20.284,15.173-25.414,10.049-17.015-17.006 17.15-59.346 19.745-75.646 3.689-23.167 7.002-64.468-9.871-82.222-5.046,8.33-9.408,19.649-9.872,29.601-.537,11.505 5.552,21.359 4.103,32.968-3.002,24.031-13.357,46.391-17.734,70.456-4.846,26.649-44.384,22.2-36.302-6.059 2.536-8.867 18.876-15.971 20.463-22.313l12.449-49.77c1.084-4.336-15.931-27.553-20.278-28.572-5.872-1.375-36.998,12.136-41.684,16.444-13.113,12.056-17.551,38.684-17.551,55.362 0,8.251-3.002,8.733-6.033,14.802-4.377,8.759-3.155,17.642-3.84,27.407-.549,7.815-.288,21.395-3.839,28.503-4.153,8.313-8.227,15.827-8.227,25.763 0,14.576-16.498,22.962-25.231,9.866-7.467-11.195 9.932-39.073 14.018-49.962 6.774-18.057 1.82-41.452 10.116-58.022 6.19-12.365 8.898-47.992-6.485-48.474-23.892-.746-40.673,1.694-63.356,9.25-3.382,1.127-22.161,5.671-20.659,10.172 2.767,8.29 7.891,15.227 11.761,22.961 5.436,10.863 20.432,10.506 28.278,11.572 6.875.934 11.041-3.41 16.455,4.385 3.205,4.614 1.597,15.545 3.291,20.828-12.176,0-25.253.212-36.75-4.383-11.739-4.692-23.522-23.09-31.263-32.891-4.239-5.365-23.439-24.813-18.648-29.599 9.008-9.001 21.815-13.032 30.715-21.925 10.938-10.932 14.26-6.371 14.26-22.008 0-15.736 1.514-28.716 6.033-43.771 4.263-14.201 17.109-24.092 18.648-39.466 1.347-13.461-.911-26.267-2.742-39.467-6.615,8.08-15.58,24.229-24.133,28.504-16.678,8.339-24.362-1.927-35.102-15.345" fill="#b39084" fill-rule="evenodd"/>
 <path d="m243.16 333.27c4.181 0 23.146-2.345 24.62 1.154 3.563 8.455 11.999 17.234 3.353 22.415-7.88 4.724-16.477 9.634-25.229 4.388-8.27-4.959-3.773-20.25-2.744-27.957" fill="#8f8f8f" fill-rule="evenodd"/>
 <path d="m204.76 323.41c5.801 5.037 14.58 11.908 21.941 6.576 7.29 36.636-49.677 22.692-21.941-6.576" fill="#8f8f8f" fill-rule="evenodd"/>
 <path d="m100.55 385.89c6.294 4.517 18.163 9.221 23.037 1.097 8.534 11.213-1.004 27.407-14.464 27.407-19.382 0-9.846-18.002-8.573-28.504" fill="#8f8f8f" fill-rule="evenodd"/>
 <path d="m72.028 304.77c0.813 7.564 4.855 22.458-5.485 24.117 11.258-3.742 24.134 2.165 24.134-11.51 0-13.689-7.48-12.607-18.649-12.607" fill="#8f8f8f" fill-rule="evenodd"/>
 <path d="m31.44,106.34c10.386-20.554 14.852-42.394 29.618-60.844 25.286-31.589 47.302,10.151 58.729,28.096 10.052,15.788 25.099,53.578 46.378,53.578 12.323,0 23.4-.862 35.389-3.857 14.451-3.61 22.099-12.292 34.473-19.713 11.293-6.771 63.992-9.214 47.717,11.511-6.12,7.795-23.631,14.418-31.811,20.83-10.148,7.954-19.411,17.115-29.577,24.93-18.278,14.051-45.642,41.589-64.601,15.754-17.479-23.819-29.913-49.542-41.667-76.557-6.228-14.313-12.335-31.274-21.022-44.156-7.047,18.794-23.813,32.075-38.882,44.623-4.433,3.69-25.018,21.786-24.744,5.805" fill="#bfaea8" fill-rule="evenodd"/>
 <path d="m306.78 115.11c36.396-20.18 40.332 21.897 38.392 47.141-0.697 9.067-10.329 82.154 15.358 62.489-6.202 8.535-9.029 18.061-20.844 23.021-20.061 8.425-38.392 1.655-38.392-21.926 0-16.844 8.953-33.558 10.967-50.429 2.438-20.421-1.84-40.271-5.481-60.296" fill="#ffbf00" fill-rule="evenodd"/>
 <path d="m99.453,26.312c4.656,29.422 1.408,59.076-1.269,88.491-1.16,12.743-4.636,29.81 1.269,41.967 3.276,6.745 6.429,8.37 13.243,12.261 8.212,4.689 9.521,13.075 13.084,21.723 5.554-4.441 18.996-11.25 21.938-17.54 2.429-5.19.43-18.303.926-24.256 1.392-16.689-.159-34.765-2.022-51.389-1.879-16.762-8.174-30.34-17.483-44.296-4.505-6.755-21.387-40.039-29.686-26.961" fill="#ffbf00" fill-rule="evenodd"/>
 <path d="m361.628,231.319c-9.24,2.889-8.713,18.617-20.84,13.153-5.175,11.053-22.746-7.788-25.233-15.348 6.395,5.045 15.657,15.825 23.038,15.348-2.84-1.742-4.885-4.76-7.68-6.577 5.128.424 11.329,6.078 16.456,4.386 5.326-1.76 6.311-11.773 13.163-14.253-9.039-8.006-6.533,4.731-12.067,6.578-10.916,3.643-20.738-11.196-25.23-18.637 10.649,3.789 12.492,17.322 24.134,11.51 7.064-3.527 14.33-10.012 18.649,1.646-3.865-1.026-3.237,1.676-4.39,2.194m-19.744-24.12c2.873-21.43 18.613-80.056-8.775-93.732-6.395-3.194-12.563-.548-19.198-.548-10.112,0-20.204-6.533-29.15-11.003-28.344-14.163-47.315-5.327-73.335,7.674-15.351,7.669-44.389,22.176-58.22,7.714-12.773-13.356-5.613-40.974-13.164-58.103-4.731-10.733-10.254-18.042-19.257-25.541-3.201-2.665-20.123-9.706-20.396-12.018-.395-3.36-3.027-29.612-8.065-14.516-1.564,4.687-12.85,18.997-11.518,23.57v2.193c8.208-4.899 11.3-14.371 14.26-23.022 3.29,6.385 2.193,13.718 2.193,20.829 1.135-.794 2.616-1.62 3.292-2.192 13.479,20.347 9.048,41.691 7.13,64.682-1.301,15.592-6.976,65.514 3.839,75.643 0-31.317-2.8-64.751 2.193-94.281 4.609,18.019.898,37.075-.926,55.294-.758,7.574-1.11,17.197-.171,24.735 .405,3.249 7.086,18.599 6.469,10.577-2.974-38.627 1.64-77.396-4.274-115.821 .533,2.961.071,4.177 0,6.578-2.724-9.385-8.729-21.818-9.874-29.599 17.448,14.527 27.393,30.244 35.347,51.444 2.958,7.881 1.961,23.203 2.875,32.352 1.147,11.478 5.448,21.74 4.559,33.506-.357,4.734-12.64,39.359-2.193,29.6 11.986-11.196 2.846-42.633 3.291-57.007 23.761,42.181 78.437-21.926 107.502-21.926 48.785,0 66.729,56.266 47.721,94.281-5.545,11.091-10.863,20.747-12.615,32.889-1.156,8.017.607,16.115-2.195,24.118-4.06,11.593-13.162,18.462-13.162,31.793 0,13.879-1.776,25.515.548,39.467 1.611,9.665-9.323,7.891-9.323,13.701 0,6.545 6.581,12.487 6.581,18.638 0,8.569-15.583,16.092-23.039,14.801-27.587-4.777 12.899-63.04 13.166-77.836 .175-9.645-2.195-19.792-2.195-29.602 0-10.668 5.123-20.058 3.576-30.897-2.644-18.507-16.92-30.588-9.062-50.227-1.096.365-1.461,0-1.096-1.097-4.148,7.381-3.29,15.416-3.29,23.57 0,1.6-14.394,4.258-17.552,4.933 .141-8.2 2.712-21.86 7.68-28.503-14.196,5.64-11.241,40.793-30.715,42.755 4.965-8.047 5.073-17.299 6.581-26.311-2.443,7.333-13.53,22.465-10.971,28.504 2.711-.267.965-.164 3.29,0-3.43,7.01-11.994,10.219-18.647,13.156v-2.193c-2.119.771-3.762,2.19-5.485,3.289-1.438-1.753-.247-2.348-2.193-3.289 .319.611-.831,2.909-1.097,3.289 1.602.872 1.583-.487 3.29,1.096-7.345,3.902-14.072,10.189-23.036,8.771 1.685-5.81 5.485-13.152 5.485-19.185 0-4.98-5.147-14.814-8.777-7.127-.071.151 4.41,9.76 3.839,12.607-1.121,5.605-3.643,11.551-6.582,16.444-4.314,7.186-13.712,22.05-13.712,30.229 0,9.731 2.566,23.49 0,32.809-3.42,12.423-11.239,17.903-12.065,31.793-.652,10.947 2.961,24.063-3.251,33.375-6.03,9.039-2.471,15.813-4.977,25.824-3.05,12.188-18.018,19.017-23.585,5.48-6.686-16.254 13.532-39.403 17.551-53.718 6.008-21.403 6.109-44.573 9.874-65.776 1.34-7.55 3.397-21.027 2.193-28.505-1.333-8.274-7.784-14.283-7.679-23.021-1.828.365-3.656.731-5.484,1.096 2.309,11.568 8.775,20.348 8.775,32.89 0,14.104-5.484,27.236-5.484,40.766 0,23.747-4.506,47.166-15.115,68.375-5.273,10.542-17.412,36.502 1.951,38.858 11.895,1.447 19.746-11.375 19.746-21.379 0-13.718 8.776-20.923 8.776-33.982 0-16.945 6.198-32.008 9.872-47.689 1.933-8.25-1.061-20.91 3.048-30.493 4.788-11.166 9.958-22.129 14.747-33.295 1.322-3.081 23.161-8.204 28.278-10.761 17.12-8.552 18.954,3.428 30.075,17.81 13.313,17.217-23.941,67.181-30.076,82.5-4.563,11.398 7.476,11.813 14.809,14.254 11.254,3.747 14.914-1.765 20.294-10.414 14.116-22.692 11.731-47.821 21.697-71.058 8.148-18.999-15.771-56.339 5.728-69.269 .929,5.856 4.857,9.533 6.581,15.347 2.735,9.226-.045,19.019-1.096,28.504-2.675,24.154 3.609,43.892-6.581,66.875-3.263,7.355-30.135,53.717-3.84,53.717 8.124,0 13.451-3.563 20.843-6.027 9.763-3.257 1.987-13.966 1.646-20.282-.77-14.16 9.885-13.494 8.776-28.504-1.703-23.049 3.542-35.588 14.016-56.52 7.369-14.729 4.723-30.803 10.118-47.628 4.096-12.778 7.311-23.93 8.772-38.37 .706-6.977-.233-13.858 1.1-20.83 8.548,27.771-1.35,40.231-9.874,65.778-4.713,14.123-2.968,36.461 16.455,37.273 4.838.203 12.709-1.106 7.678-5.482-1.447-1.258-9.972,2.382-14.259-1.096-16.603-13.468 2.554-42.174 8.775-57.007 1.18,9.399-7.272,14.866-5.485,24.119 16.194-11.522 10.553-39.807 7.678-57.008 .397,10.333 3.951,24.506-1.097,33.985-3.318-9.494.237-20.607-2.194-30.695-1.621-6.722-6.071-12.44-7.677-18.637-1.781-6.874-.18-14.015-2.195-20.83 18.523-4.571 24.373,28.38 25.23,40.563 .765,10.881-12.797,47.075-4.387,51.525-.353-5.719 1.119-10.354 3.291-15.347-1.801,8.495 2.329,28.09 12.066,28.503-2.059-5.687-4.317-11.627-5.485-17.542m-3.291-30.696c1.583-16.845-.337-64.878-28.521-59.2 32.173-18.508 35.845,39.513 28.521,59.2m-93.241,84.414c-3.075,8.189-7.308,15.697-9.875,24.118-2.158,7.077.572,22.968-1.644,27.405-1.895,3.79-6.309,6.104-8.229,9.869-2.813,5.515-.838,12.461-3.291,17.539-4.786,9.915-14.382,10.964-25.229,10.964-16.606,0 8.939-34.78 11.01-37.883 8.365-12.532 17.354-37.339 18.609-52.013 1.058-12.367-8.654-15.722-15.359-25.764-6.479-9.706 25.854-26.636 34.009-30.147-8.703,15.487-10.085,40.611-.001,55.912m-44.977-44.948c-2.234-8.785 11.481-23.282 9.871-36.178 2.631,11.112 1.472,29.97-9.871,36.178m-37.298-23.022c-18.971-16.402-19.834,28.74-37.297,30.697 4.87-4.237 29.414-54.455 37.297-30.697m-26.327-20.829c-2.155,5.978-.961,18.519-8.777,14.252-4.96,10.34-7.059-2.905-6.41-9.388 .919-9.176 1.818-18.355 2.835-27.521 1.528-13.759.246-35.149 4.672-46.409-1.247,24.66-1.069,52.045 0,76.74 5.946-15.156 9.084-36.484 10.97-52.622 .731.365 1.463.731 2.195,1.096-2.841,14.186-6.29,29.336-5.485,43.852m-19.746,78.933c-7.788,2.047-18.958,2.585-26.326-1.096-8.137-4.069-11.955,4.34-20.295,7.672-6.024,2.408-37.845,3.58-37.845,12.061 0,4.39 4.507,11.401 6.582,15.348 8.168,15.532 16.641,18.638 30.715,18.638 8.885,0 23.037-5.449 23.037,8.768 0,5.063.89,11.192 1.096,15.35-37.104,13.906-56.69-12.528-76.788-39.466-5.905-7.915-20.597-16.327-16.454-26.312 4.337-10.452 28.253-16.175 36.749-24.667 11.1-11.094 9.324-11.053 9.324-26.858 0-13.455 1.597-27.494 7.679-39.466 10.828-21.314 17.551-31.967 17.551-57.007 0-27.297-12.778,2.368-20.842,9.867-11.543,10.735-24.439,6.272-35.103-4.386-9.79-9.783 10.052-29.868 13.164-40.563 3.363-11.56 2.48-22.905 8.775-32.34 3.993-5.984 9.581-10.505 13.164-16.993 3.418-6.189 6.124-25.391 10.97-28.503 4.563-2.93 3.736,1.852 6.582,8.771 3.909,9.505.511,12.904 14.26,10.962-14.36,6.369-27.827,9.309-38.943,24.119-13.352,17.789-12.9,41.772-24.682,61.39 1.91,2.24.576,3.357 2.194,6.578-8.358,3.085 13.719,23.375 28.521,7.674 8.458-8.973 15.33-18.606 24.134-27.407 5.131-5.131 5.707-15.326 10.97-18.638-1.194,4.035-.86,7.773-1.098,12.06 12.589-9.24 13.049-23.518 9.872-37.274 8.216,11.211 3.35,26.6-4.388,36.178-3.332,4.125-10.459,6.898-13.163,10.963-4.417,6.64-1.097,16.439-1.097,25.012 0,16.967-7.72,29.03-10.97,42.958-1.947,8.344 1.817,17.426-1.097,25.214-3.107-4.395-3.442-10.15-4.388-15.348-11.246,12.873-10.358,37.157-4.388,52.073 5.501,13.744 14.759,15.573 27.423,18.089 6.318,1.255 35.027,6.402 35.105,6.579m-43.879-181.985c6.33-13.292-12.577-7.889-9.873,2.193 1.942-1.466 3.404-1.545 5.485-3.29 .769,1.638 2.168,1.103 4.388,1.097m15.358,256.533c-21.138,5.427-34.504-2.691-48.592-16.771-5.418-5.414-37.085-42.208-35.327-45.719 3.06-6.112 8.834-3.918 13.712-6.578 6.737-3.672 12.675-9.907 19.197-14.251 2.438-1.624 6.792-7.022 9.324-7.675 7.378-1.899 2.389-.703 9.873,3.289 7.948,4.241 13.457,10.231 23.037,12.061-12.175,5.099-45.22,3.977-50.461,18.637-4.256,11.903 13.738,38.37 26.328,38.37 5.478,0 16.659-2.754 24.133,0 8.507,3.134 8.207,8.933 8.776,18.637" fill-rule="evenodd"/>
 <path d="m56.671 27.407c12.858-4.419 11.489-9.367 7.679-19.732-1.606 6.862-5.253 13-7.679 19.732m19.746 209.39c-9.64-8.247-7.724-24.944-6.582-33.985-5.805 8.841-6.13 32.223 6.582 33.985m-41.686-116.21c5.578-4.079 4.261-14.942-3.292-10.963-7.403 3.901-2.644 11.928 3.292 10.963m250.11 16.444c-25.573-1.82-13.313 42.487-10.971 55.363 2.139 11.769 6.336 24.618 4.386 36.726-1.104 6.851-8.997 16.732 1.646 20.283 9.963 3.322 16.267-47.34 18.101-56.46 2.689-13.374 18.064-61.483-13.162-55.912" fill="#bfaea8" fill-rule="evenodd"/>
 <path d="m143.33 207.2c-16.291 4.669-10.97 48.178-10.97 61.394 0 6.449-7.152 47.962-2.193 50.428 3.205 1.593 15.167-56.053 16.455-62.488 1.844-9.219 14.262-49.05-3.292-49.334" fill="#bfaea8" fill-rule="evenodd"/>
</svg>
