<?xml version="1.0" encoding="UTF-8"?>
<svg viewBox="0 0 302.66 372.13" xmlns="http://www.w3.org/2000/svg" xmlns:xlink="http://www.w3.org/1999/xlink">
 <defs>
  <filter id="at">
   <feGaussianBlur stdDeviation="2.4482"/>
  </filter>
  <filter id="as" x="-.43759" y="-.51053" width="1.8752" height="2.021">
   <feGaussianBlur stdDeviation="12.8927"/>
  </filter>
  <linearGradient id="a">
   <stop stop-color="#fff" offset="0"/>
   <stop stop-color="#232323" offset="1"/>
  </linearGradient>
  <linearGradient id="aq" x1="157.63" x2="261.84" gradientUnits="userSpaceOnUse">
   <stop stop-color="#2ea72e" offset="0"/>
   <stop stop-color="#9ee49e" offset="1"/>
  </linearGradient>
  <linearGradient id="ap" x1="-240.47" x2="-240.47" y1="560.82" y2="500.52" gradientUnits="userSpaceOnUse">
   <stop offset="0"/>
   <stop offset="1"/>
  </linearGradient>
  <linearGradient id="ao" x2="0" y1="555.75" y2="546.77" gradientUnits="userSpaceOnUse">
   <stop stop-color="#fff" offset="0"/>
   <stop stop-color="#fff" offset="1"/>
  </linearGradient>
  <linearGradient id="an" x2="0" y1="524.06" y2="500.79" gradientUnits="userSpaceOnUse">
   <stop stop-color="#fff" offset="0"/>
   <stop stop-color="#fff" offset="1"/>
  </linearGradient>
  <linearGradient id="am" x2="0" y1="515.95" y2="502.11" gradientUnits="userSpaceOnUse">
   <stop offset="0"/>
   <stop offset="1"/>
  </linearGradient>
  <linearGradient id="al" x2="0" y1="504.41" y2="502.78" gradientUnits="userSpaceOnUse">
   <stop stop-color="#fff" offset="0"/>
   <stop stop-color="#fff" offset="1"/>
  </linearGradient>
  <linearGradient id="ak" x2="0" y1="506.12" y2="504.14" gradientUnits="userSpaceOnUse">
   <stop stop-color="#fff" offset="0"/>
   <stop stop-color="#fff" offset="1"/>
  </linearGradient>
  <linearGradient id="aj" x2="0" y1="508.72" y2="504.77" gradientUnits="userSpaceOnUse">
   <stop stop-color="#fdcdb8" offset="0"/>
   <stop stop-color="#988a74" offset="1"/>
  </linearGradient>
  <linearGradient id="ai" x2="0" y1="508.38" y2="505.33" gradientUnits="userSpaceOnUse">
   <stop stop-color="#fdcdb8" offset="0"/>
   <stop stop-color="#988a74" offset="1"/>
  </linearGradient>
  <linearGradient id="ah" x2="0" y1="511.37" y2="507.77" gradientUnits="userSpaceOnUse">
   <stop stop-color="#fff" offset="0"/>
   <stop stop-color="#fff" offset="1"/>
  </linearGradient>
  <linearGradient id="ag" x2="0" y1="512.02" y2="508.01" gradientUnits="userSpaceOnUse">
   <stop stop-color="#fff" offset="0"/>
   <stop stop-color="#fff" offset="1"/>
  </linearGradient>
  <linearGradient id="af" x2="0" y1="528.01" y2="509.32" gradientUnits="userSpaceOnUse">
   <stop stop-color="#fff" offset="0"/>
   <stop stop-color="#fff" offset="1"/>
  </linearGradient>
  <linearGradient id="ae" x2="0" y1="520.18" y2="511.37" gradientUnits="userSpaceOnUse">
   <stop stop-color="#fff" offset="0"/>
   <stop stop-color="#fff" offset="1"/>
  </linearGradient>
  <linearGradient id="ad" x2="0" y1="520.4" y2="511.4" gradientUnits="userSpaceOnUse">
   <stop stop-color="#fff" offset="0"/>
   <stop stop-color="#fff" offset="1"/>
  </linearGradient>
  <linearGradient id="ac" x2="0" y1="522.15" y2="519.7" gradientUnits="userSpaceOnUse">
   <stop offset="0"/>
   <stop offset="1"/>
  </linearGradient>
  <linearGradient id="ab" x2="0" y1="524.55" y2="521.17" gradientUnits="userSpaceOnUse">
   <stop stop-color="#fdcdb8" offset="0"/>
   <stop stop-color="#988a74" offset="1"/>
  </linearGradient>
  <linearGradient id="aa" x2="0" y1="543.65" y2="531.17" gradientUnits="userSpaceOnUse">
   <stop stop-color="#fdcdb8" offset="0"/>
   <stop stop-color="#988a74" offset="1"/>
  </linearGradient>
  <linearGradient id="z" x2="0" y1="542.24" y2="532.47" gradientUnits="userSpaceOnUse">
   <stop stop-color="#a28963" offset="0"/>
   <stop stop-color="#fff2d0" offset="1"/>
  </linearGradient>
  <linearGradient id="y" x2="0" y1="547.5" y2="529.4" gradientUnits="userSpaceOnUse">
   <stop stop-color="#a28963" offset="0"/>
   <stop stop-color="#fff2d0" offset="1"/>
  </linearGradient>
  <linearGradient id="x" x2="0" y1="557.28" y2="539.15" gradientUnits="userSpaceOnUse">
   <stop stop-color="#fff2d0" offset="0"/>
   <stop stop-color="#f0f0f0" offset="1"/>
  </linearGradient>
  <linearGradient id="w" x2="0" y1="553.27" y2="539.27" gradientUnits="userSpaceOnUse">
   <stop stop-color="#fff2d0" offset="0"/>
   <stop stop-color="#f0f0f0" offset="1"/>
  </linearGradient>
  <linearGradient id="v" x2="0" y1="541.68" y2="539.6" gradientUnits="userSpaceOnUse">
   <stop stop-color="#fdcdb8" offset="0"/>
   <stop stop-color="#988a74" offset="1"/>
  </linearGradient>
  <linearGradient id="u" x2="0" y1="555.54" y2="553.32" gradientUnits="userSpaceOnUse">
   <stop stop-color="#454545" offset="0"/>
   <stop stop-color="#999" offset="1"/>
  </linearGradient>
  <linearGradient id="t" x2="0" y1="557.28" y2="554.47" gradientUnits="userSpaceOnUse">
   <stop stop-color="#454545" offset="0"/>
   <stop stop-color="#999" offset="1"/>
  </linearGradient>
  <linearGradient id="s" x2="0" y1="557.84" y2="555.38" gradientUnits="userSpaceOnUse">
   <stop stop-color="#454545" offset="0"/>
   <stop stop-color="#999" offset="1"/>
  </linearGradient>
  <linearGradient id="r" x2="0" y1="559.01" y2="557.16" gradientUnits="userSpaceOnUse">
   <stop stop-color="#454545" offset="0"/>
   <stop stop-color="#999" offset="1"/>
  </linearGradient>
  <linearGradient id="q" x2="0" y1="559.37" y2="557.31" gradientUnits="userSpaceOnUse">
   <stop stop-color="#454545" offset="0"/>
   <stop stop-color="#999" offset="1"/>
  </linearGradient>
  <linearGradient id="p" x2="0" y1="560.2" y2="557.88" gradientUnits="userSpaceOnUse">
   <stop stop-color="#454545" offset="0"/>
   <stop stop-color="#999" offset="1"/>
  </linearGradient>
  <linearGradient id="o" x2="0" y1="560.57" y2="558.35" gradientUnits="userSpaceOnUse">
   <stop stop-color="#454545" offset="0"/>
   <stop stop-color="#999" offset="1"/>
  </linearGradient>
  <linearGradient id="n" x2="0" y1="511.06" y2="510.57" gradientUnits="userSpaceOnUse">
   <stop stop-color="#fff2d0" offset="0"/>
   <stop stop-color="#fff" offset="1"/>
  </linearGradient>
  <linearGradient id="m" x2="0" y1="511.11" y2="510.6" gradientUnits="userSpaceOnUse">
   <stop stop-color="#fff2d0" offset="0"/>
   <stop stop-color="#fff" offset="1"/>
  </linearGradient>
  <linearGradient id="l" x1="-234.52" x2="-234.52" y1="558.95" y2="502.01" gradientUnits="userSpaceOnUse">
   <stop stop-color="#fff" offset="0"/>
   <stop stop-color="#fff" offset="1"/>
  </linearGradient>
  <linearGradient id="k" x2="0" y1="532.59" y2="511.66" gradientUnits="userSpaceOnUse">
   <stop offset="0"/>
   <stop offset="1"/>
  </linearGradient>
  <linearGradient id="j" x2="0" y1="554.81" y2="552.3" gradientUnits="userSpaceOnUse">
   <stop stop-color="#454545" offset="0"/>
   <stop stop-color="#999" offset="1"/>
  </linearGradient>
  <linearGradient id="i" x2="0" y1="538.02" y2="517.61" gradientUnits="userSpaceOnUse">
   <stop offset="0"/>
   <stop offset="1"/>
  </linearGradient>
  <linearGradient id="h" x2="0" y1="526.44" y2="512.52" gradientUnits="userSpaceOnUse">
   <stop offset="0"/>
   <stop offset="1"/>
  </linearGradient>
  <linearGradient id="g" x2="0" y1="521.19" y2="505.89" gradientUnits="userSpaceOnUse">
   <stop offset="0"/>
   <stop offset="1"/>
  </linearGradient>
  <linearGradient id="f" x2="0" y1="535.61" y2="531.8" gradientUnits="userSpaceOnUse">
   <stop offset="0"/>
   <stop offset="1"/>
  </linearGradient>
  <linearGradient id="e" x2="0" y1="541.48" y2="539.26" gradientUnits="userSpaceOnUse">
   <stop stop-color="#a28963" offset="0"/>
   <stop stop-color="#fff2d0" offset="1"/>
  </linearGradient>
  <linearGradient id="d" x2="0" y1="547.47" y2="527.2" gradientUnits="userSpaceOnUse">
   <stop stop-color="#a28963" offset="0"/>
   <stop stop-color="#fff2d0" offset="1"/>
  </linearGradient>
  <linearGradient id="ar" x1="-132.7" x2="-257.6" y1="524.36" y2="533.41" gradientUnits="userSpaceOnUse" xlink:href="#a"/>
  <linearGradient id="c" x1="298.02" x2="58.245" gradientUnits="userSpaceOnUse" xlink:href="#a"/>
  <linearGradient id="b" x1="622.14" x2="372.35" gradientUnits="userSpaceOnUse" xlink:href="#a"/>
 </defs>
 <g transform="translate(-1.7704 -202.13)">
  <path transform="matrix(1.8993 .3349 0 1.4451 -77.61 -208.48)" d="m144.45 453.34c0 16.737-15.829 30.305-35.355 30.305s-35.355-13.568-35.355-30.305 15.829-30.305 35.355-30.305 35.355 13.568 35.355 30.305z" fill="#333" filter="url(#as)"/>
  <path d="m155.48 536.49c-19.358-4.5085-28.675-8.9061-38.663-18.249-4.0236-3.7637-8.1281-9.3497-9.425-12.827-3.3731-9.0446-48.509-237.66-48.408-245.19 0.52777-39.545 111.12-64.102 191.03-42.417 17.214 4.6714 32.294 12.26 39.867 20.063 10.697 11.022 11.189 2.3009-7.7997 138.12-10.519 75.236-17.965 123.94-19.482 127.43-3.1924 7.3489-16.874 19.805-26.713 24.321-16.44 7.545-26.531 9.5882-50.029 10.129-14.592 0.33619-25.024-0.13928-30.374-1.3859z" fill="url(#c)" stroke="#1a1a1a" stroke-width="1.4817"/>
  <g transform="matrix(1.4778 .1071 -.1071 1.4778 452.32 -272.14)" fill="url(#ar)" font-family="Tuffy" font-size="20" font-weight="bold">
   <path d="m-191.09 511.61 1.8984 2.0578-1.8035 5.7727 5.8991-1.3332 1.8442 1.999-8.3917 1.7287-5.0567 4.665-1.7767-1.9259 5.0567-4.665z"/>
   <path d="m-180.62 528.98c0.98161-1.6965 1.2812-3.1328 0.8988-4.3089-0.21821-0.63442-0.64463-1.1352-1.2793-1.5025-1.2809-0.74116-2.5723-0.47952-3.8742 0.7849-0.49531 0.48392-0.94655 1.0777-1.3537 1.7814-1.0218 1.7659-1.388 3.264-1.0985 4.4944 0.16934 0.74485 0.58877 1.311 1.2583 1.6984 1.258 0.72791 2.567 0.42241 3.927-0.9165 0.54686-0.54622 1.054-1.2233 1.5215-2.0312zm-7.9973-4.6273c0.95472-1.65 2.1756-2.8151 3.6626-3.4952 1.7209-0.79112 3.4296-0.69587 5.1262 0.28575 1.9621 1.1353 2.9072 2.8297 2.8354 5.0832-0.0443 1.4073-0.45692 2.7859-1.238 4.1359-1.0151 1.7543-2.2894 3.0118-3.8231 3.7726-1.7678 0.87213-3.5 0.81738-5.1965-0.16424-1.9043-1.1019-2.8154-2.8153-2.7332-5.1404 0.0562-1.5076 0.51171-3 1.3666-4.4775z"/>
   <path d="m-174.55 539.29c-2.2097-0.66211-3.5313-2.1508-3.9648-4.4662-0.25958-1.4557-0.14253-3.0074 0.35116-4.655 0.58934-1.9668 1.5798-3.4378 2.9712-4.4128 1.4366-1.0307 3.0809-1.2687 4.9327-0.7138 1.4305 0.42865 2.4608 1.287 3.0909 2.5751 0.24673 0.4779 0.40145 0.98366 0.46416 1.5173l-2.6552 0.0811c7e-3 -0.44293-0.26667-0.92179-0.82221-1.4366-0.28234-0.26555-0.53207-0.43085-0.74916-0.49591-1.1752-0.35213-2.2601 0.0398-3.2546 1.1758-0.5985 0.69742-1.0432 1.5314-1.334 2.5019-0.47465 1.5841-0.51835 2.9838-0.13109 4.1991 0.30943 1.0115 0.89836 1.6474 1.7668 1.9076 1.418 0.4249 2.5155-0.0327 3.2926-1.3728 0.20059-0.34342 0.36215-0.71957 0.48468-1.1284l-2.8356-0.84968 0.67168-2.2416 5.4409 1.6303-0.40767 1.3605c-0.6238 2.0818-1.6419 3.5515-3.0542 4.409-1.2423 0.7551-2.6618 0.89346-4.2583 0.41508z"/>
   <path d="m-157.15234,527.8553 2.6623.30798-.85499,7.3909c-.33555,2.90058-1.34484,4.83742-3.02786,5.81054-.89337.52746-1.9227.72379-3.08802.58898-2.05337-.23753-3.43128-1.32307-4.13374-3.25661-.43776-1.20493-.55782-2.66168-.36017-4.37026l.85499-7.3909 2.6623.30798-.85499,7.39089c-.26966,2.33106.11,3.86475 1.13897,4.60107 .28485.20744.60614.33186.96386.37324 1.01981.11797 1.83276-.41203 2.43887-1.59001 .36543-.72289.61326-1.64718.74349-2.7729z"/>
   <path d="m-151.10494,534.25403 .9598-.0236c1.82601-.045 2.79715-.68227 2.9134-1.91191 .0105-.12032.0141-.24719.0108-.38063-.0236-.95958-.79643-1.47395-2.31836-1.54312-.21389-.008-.44735-.009-.70036-.003l-.95979.0236zm4.77664,7.92497-3.89858-5.5655-.81945.0202 .13934,5.65808-2.61944.0645-.3501-14.21566 2.61945-.0645 .95979-.0236c2.3593-.0581 4.03352.50084 5.02266,1.67678 .49477.58819.75249,1.30207.77318,2.14165 .0361,1.46603-.58241,2.62154-1.85553,3.46653-.43251.30412-.93353.53666-1.50305.69762l4.51056,6.0706z"/>
   <path d="m-144.37 527.99 11.589-1.8755 0.37383 2.31-4.4026 0.71247 1.8978 11.727-2.5866 0.41859-1.8978-11.727-4.6002 0.74445z"/>
  </g>
  <path transform="matrix(1.4817 0 0 1.4817 -148.04 -211.73)" d="m248.76 430.72c0 22.722-19.269 46.416-42.107 41.282s-35.936-39.123-35.936-61.846 13.098-25.574 35.936-20.439 42.107 18.281 42.107 41.003" fill="url(#aq)" filter="url(#at)"/>
  <g transform="matrix(1.0983 .21006 -.10716 1.2214 469.63 -167.19)" fill-rule="evenodd">
   <path d="m-207.4608,536.8311c-.33419-.35502-.82837-.57109-.79943-1.31166 2.07847-4.90729 1.13399-10.94091.46524-16.01768-.46524,0-.23243,1.2962-.23243,1.88256 .34875,3.42594.45068,7.42258-.65418,10.72504-1.81654,4.2127 1.1773,5.81754-.58118,9.1971-2.65965,8.9194-.36312,10.43167-1.07574,10.89432-1.68566.18535-.17399,3.39503-1.43848,5.15429-.0579.70965-1.5841.92571-3.37171.77129-.33437-.12309-.53768-.53976-.63962-.78655-.56661,0-1.2206.49378-1.43866,0-.0437-.75624 1.45361-3.20968 1.97653-3.50306 .0583-.75603 0-.84861.17438-1.48135 .31981-1.14198 2.52878-7.39166.49399-10.9407-.20331,0-1.68604,4.50568-1.68604,5.52437-.1305,2.22192-.84274,4.02776-1.32198,4.22817-2.58722-1.01869-1.23536,6.95932-6.62768,3.85768-.45068-.35503-.68311.201-1.13342-.15422 .11594-1.79019 1.65711-3.22514 3.51715-4.81472 2.29597-3.19402 2.31072-6.45049 2.31072-6.45049-1.51148,1.38897-.71187-2.60807-1.65673-2.63859-.21806-.12349-2.06372-.44759-2.3981-.67912-.26193.78716-.42155,1.09559-.62524,1.35825-1.33673.92571-.69749-1.51227-.69749-2.22212-.78487-.94138-1.24936-2.05244-1.4243-3.33318-4.75231,1.15725-13.6909-1.31166-14.44645-.0928-.0435,2.22232-1.84585,2.22232-2.29653,3.76531-.654,2.46911.82855,5.35489-.0581,7.83946-1.24992,3.50266-.2033,6.23402-.0726,8.88847-.14563.67873-.74137.46266-.85749.9723-.13068.53997.27612,1.66669.0581,2.46891-1.2208.72511-2.97927,1.43516-4.21501.24699-.55206-.35502-1.00274.47812-1.33711.1235-.21787-.24699-.21787-.60222-.21787-.83355-1.45361-.33916-2.77578.7717-3.90958-.70985 .21787-.78695.93011-1.63576 1.62779-1.92914-.6103-.69418.247-1.34238.87168-3.61069 .42174-2.87032.0728-2.9165-.24681-4.10467-.77049-1.20383-.45049-4.04302-1.62779-8.30192-1.77323.37009-3.53171-.72551-4.73813-1.66668-2.02004-1.32713-1.94761-7.2993-3.47365-8.87341-.93011-.74058.0582-4.28982-.82837-5.58602-1.22079.23153-2.02003.29297-3.09558-.26245-.0146-.0151-1.24974-.63254-1.0173-2.45345 .55224-2.00625-.43612-4.08921-1.19167-5.61694-.23263-.83355-.15981-1.35825-.27594-2.05244-.10175-.60221-.58155-.87953-.78486-1.21909 .0726-.23153.46505-1.14218.26156-1.26528-.39244-.12349-.66856-.72551-.46506-1.69781-.33437-.13876-.65399.41667-.75574.18514 .79924-.63254.95924-.43173.55224-1.944-.21806-.9721-2.33984.9717-3.34277.38555-1.32255-.95684-1.32255-1.17311-3.34277-2.96289-.62506-.55563-1.4243-1.18817 1.13361-1.88276 4.85444.0155 5.04338-.75583 5.9298.6484 .77031-.58655 2.64509-2.02171 2.45616-3.30245 .39262-.72511.79924-.29298 1.11905.046 .52331-1.28034.63962-.29298 1.24992-.38555 3.02296-.81829 4.70882-.21627 5.0865.47832 .47981.2006.31981.37008.31981.67892 .63943.24659.31981,0 .63943.41667 1.16273.26206 2.29635.86407 2.74703,1.20363 2.00566-.69458 4.21482.61708 6.10399,1.66629 .10193.21607-.11632.52471-.0289.89519 1.33711.23153 3.31346.95664 4.76707,1.31167 1.36623.44759 5.45018-1.51227 8.44421-1.51227 2.67422-.1235 4.78144.41667 7.5576.0616 2.55734-.72511 6.04573-3.44101 8.32752-1.82071 2.12216-.83314 4.46182-2.12955 6.78748-2.46891 .33399-.12349 1.00274-.12349 1.45342.10804 .53768.35502 1.1043,1.1727 1.6711,1.88255 .7705.13876 1.75886.70985 2.10761,1.75906 2.87771,8.39489 2.29634,14.81425 1.77323,24.48968 0,.47852.10156,3.65748.0146,4.36732-.10175.8952 1.48217.98757.31962,4.41332 .4068.98756 1.00274,1.31166.75555,2.1452-.18875.63254-.55224.58616-.6973.63254 .37768.81768-.26194.91026-.63962,1.40424-.65418,1.01869.23224,1.58958-.36369,3.79603-.18874,1.17271.55244,2.12935-.84273,2.99362 1.43848-2.45345-.14563-.50905.15981-4.32074-.58118,1.37371-.10156,2.87052-.53787,2.34581-.43575-.54037-.77031-3.30245-.36331-5.21593-.36331-.66387-.58137-1.71328.63943-3.54945-.334-.83334.00019-1.41989.00019-2.23758z" fill="url(#ap)"/>
   <path d="m-248.39 546.77c2.6451 2.8701 1.6132 8.4409 0.4503 8.9806-0.30506-0.92572-0.36331-1.1263 0.31981-1.3267 0.26175-1.4042-1.1917-4.4444-0.77011-7.6539z" fill="url(#ao)"/>
   <path d="m-260.04379,523.80684c0-.46306 0-.94118-.4505-1.04921-.33418-.37049.21806-.94158.55224-1.18817 .13088-1.21909-2.03478.89479-2.16566-.94158-1.54042-.13856-1.16273-.94118-1.26448-1.06467-.23244-.10804-.34875-.13856-.71225-.0616-.55224.35502-.74117,1.12612-1.17711,1.60484-.11631.58635.87187,1.17251 0,1.4195-.11631.10823-.11631.10823-.23262.33956-.10175.35502.66856.94118.45031,1.18817-.78449-.35503-.78449-1.2962-.78449-2.02131 .33418-2.46931 1.33692-5.06172.5668-7.53063v-.849c.55225-1.28034-.11631-2.57674 0-3.88821-.23262-.69458-.66855-1.15764-.66855-1.75926-.56699-.94157-1.55517-.35502-2.12216-.81808-.10175-.12349-.2035-.69459-.30506-.81768 .2035-1.75926-5.63912-2.34581-3.42996-1.06507-2.45597-1.20323-3.37152-.37009-3.58958.23152-.21806-.12309-.47962-.18514-.59593-.53976 .407-.60202 1.23536-.84901 1.70061-.84901 3.90938.0926 4.02589-.47852 4.94144-.046 .40699.26205.49399.83314 1.17729.72511 .90099-.94158 2.31073-2.16027 2.25266-3.42595 .32-.67873.63981.12349.97381.12349 .21806-.12349.21806-.47812.53768-.47812 .87205.52451 3.6917-1.01868 5.43562.23113 .13068.47852.75574.24699.30524.94158 .74118.16988.53769.3241.654.75624 .71205.0926.82836,1.37331 1.27904,1.60484 .98837.35502 1.84586-.83315 3.06666-.74058 1.61323.13896 3.02296,1.08014 4.52007,1.66669-.13088,1.12612-1.00293,1.31167-1.22099,1.4197 .61068-.81808.13069-.83314-.30525-1.08013 1.20624-1.48175-3.70608-.41708-3.96764-.71005-.26155-.35463 2.45635-.5711 1.1773-.86427-1.43885.23153-2.93577,1.14218-3.83695,2.31489-.2035.60161.90118.35502 1.0173.94117-.56681.72511-1.67129-.12349-2.33985.47852-1.22079,1.06468-1.6276,2.62333-1.84585,4.27436 .98817,1.75926-.0435,4.10467.17456,6.34245 .23243,1.17271.56681,2.36088.88643,3.53358v.94158c-.10175.35482-.43612.35482-.65418.70945z" fill="url(#an)"/>
   <path d="m-261.6279,515.474c-.63943,1.38877-.93011-.80262-1.7441-.0464-.90118-1.88255-1.11905-1.83637-.71225-3.2406 .31981-1.06488-1.13361-1.20384-.84292-4.05829-.4505-1.75926.0582-1.58958-1.20624-2.19119-1.03186-.46306-.69749-.74098-.17437-1.49681-1.00293-.0775.42156-1.92874.81399-2.33015 .43593-.46306.21768,1.38877.56681,1.1725 1.04642-.63253 1.04642,1.28074 1.49691.69459 .21807-.37049.53787-1.12672.71225-1.54339 .33437-.86427.74118.54016.9303.21606 .47943-.81768 1.40973-.35502 1.17711.71005-.087,1.51227 1.22099-.78695 2.00566-.18534 .69749.84861-.45049,1.88276-.78486,2.70044 1.19186-.0305-.2035,1.04961-.53768,1.51267 1.52604.16948.43612,1.1727 0,1.58938-.47981,1.31166-1.81692.21586-1.70061,6.49647z" fill="url(#am)"/>
   <path d="m-255.1 503.98c-1.9765 1.2807-1.4822-0.61728-2.6012-1.2038 1.7728 0.33956 2.049 0.83334 2.6012 1.2038z" fill="url(#al)"/>
   <path d="m-227.08 506.12c1.8895-0.58656 5.0144-2.8549 7.1508-1.6512-2.1076 0.71005-4.9272 1.5277-7.1508 1.6512z" fill="url(#ak)"/>
   <path d="m-271.26 505.89c0.0872-0.46306-1.773-1.4968 0.15981-1.0181-0.15981 1.4502 1.3082 0.63254 1.6132 1.5428 0.33418 0.58656-0.47943 0.33957-0.87206 0.41708 1.8459 0.5245-0.37787 2.0213-1.6713 1.8824-0.63962-0.24679-2.2381-2.1914-3.1391-2.7775 0.39224-2.0988 3.1391-0.74118 3.9094-0.0466z" fill="url(#aj)"/>
   <path d="m-250.88734,505.62889c-.69768.6478.87205.55563.53768.95684-1.36623,1.71267-3.80783,2.7159-4.57813.60161-.40681-.69459 1.7876.24699.47981-1.71287 1.00273.10803 1.43866-.38595 1.61323,0 1.20585,0 2.54315-.41667 1.94741.15442z" fill="url(#ai)"/>
   <path d="m-265.86 511.37c-1.1338 0-0.11631-1.111-2.5433-1.5894-0.10175-0.35503 0.2035-1.389 0.63943-1.605 0.23243 0 0.81399-0.66326 1.2645-0.30863 0.36331 1.2346 1.4532 1.7902 0.63943 3.503z" fill="url(#ah)"/>
   <path d="m-258.40144,508.2984c.75574-.78676 1.84585.20061 1.70061.67913-.17456.75623.68311,1.01828.15962,1.23415-.81361.30904-.62487-1.15725-2.63053.21607-.88662.21606-.43593,1.58957-.87205,1.58957 0-1.52773.26155-2.31468 1.64235-3.71892z" fill="url(#ag)"/>
   <path d="m-206.97 509.32c0.53749 3.2866 1.5839 10.694 0.98836 16.527-0.31981-2.7312-0.36331 4.3055-0.65418-2.1295-0.1305 1.3273-0.1305 4.6448-0.24718 4.2898 0-4.1201-0.61069-9.012-1.1043-9.1355 0.34874-1.7743 0.79924-7.7925 1.0173-9.5515z" fill="url(#af)"/>
   <path d="m-266.46759,511.36932c1.13361,1.08014.74118,1.92874.85749,3.13258 .49399,1.60484.52331,2.1448-.11631,5.67858-.11631.1235-.29069-2.37633-.98837-3.41008-.91574-1.4197.27631-2.2683-1.27886-3.79603 0-.1235.11613-.67913.11613-.92572 .33437-.0777 1.09011.13836 1.40992-.67933z" fill="url(#ae)"/>
   <path d="m-257.22414,511.81692c.34875,1.06467-.7703,2.62313-.407,3.31751-.3633.94158-1.4971,3.17916-1.97653,5.26212-1.1773-2.87012.43593-5.09244-.31981-7.9005-.15981-.33957.39243-.30884.50855-1.096 .6105.26245 1.04662,1.0958 2.19479.41687z" fill="url(#ad)"/>
   <path d="m-263.65 519.72c0 1.034 1.0462 0.74097 1.2934 1.0805s-0.24719 1.0032 1.3369 0.70965c-1.1773 0.84881-2.4127 0.98756-3.7061-0.38555 0.1165-0.44759 0.56718-1.6203 1.0757-1.4046z" fill="url(#ac)"/>
   <path d="m-261.70071,524.05383c-1.30799,1.48134-4.50532-.75624-3.31365-1.38898 .50856-.2006.31981,1.0956 1.11905.92592 .47981-.13856.3635-.87953-.10175-1.0956-.46487-.23112-1.40973-.89519-.93011-1.32732 .93011,1.25021 1.88935,1.65142 2.77596,1.2964 .33438,0 .72662-.52471 1.49692-.7713-.24699.80242-1.46779.7713-1.5406,1.40444 .15999.58615.37787.5245.62505.47812 .27612-.0464.46506-.98777.98818-.7717 .85767,1.20363-.2905.9721-1.11905,1.25002z" fill="url(#ab)"/>
   <path d="m-218.01 531.17c2.9936 0 1.2352 3.8886 2.921 7.0061 0.47943 1.0183-0.50856 1.0183-0.59575 1.4508 0.58118 3.0398-0.18912 2.2065-0.42155 2.2065-0.31981-0.46306-0.42137-1.8056-1.192-1.8056-0.82856 0.46306-1.5989 0.52491-2.18 0.69439-0.18894 1.2191 0.29068 2.7623-0.59574 2.932-0.77012-0.8952 0.0584-1.929-0.66856-3.0245-2.3253-0.24699-4.6653-1.6048-5.0141-4.1972 2.9066-0.60201 5.6535-2.3149 7.7467-5.2623z" fill="url(#aa)"/>
   <path d="m-207.9548,542.23198c-.55262-1.75906.62468-2.79301.79943-3.53378-.30543-.47852-.14543-1.23476.14525-1.8673-1.07574-.92611-1.2208-.74057-.14525-4.36712-.66874,3.90407-.43612,3.2408-.13087,3.5645 1.36604.57109.17437,1.52773.17437,1.72834 .23244.80262-.13087,1.95986-.71224,3.14803-.0872.7717.62505.7717-.13069,1.32733z" fill="url(#z)"/>
   <path d="m-206.37 529.39c0.9443 3.7342-0.42156 5.4627 0.90118 6.5117 0.71224 1.0342-0.90118 3.3645-0.49418 4.29 0.91574 2.1914-1.0173 0.49399-0.59575 4.9999 0.17438 1.1727-0.31981 0.91025-0.14543 2.2994-0.46487-0.84861 0.0144-1.1113-0.16019-1.8673s-0.34856-2.6079 0.17456-3.503c1.221-1.2651 0-1.6508 0.39243-2.9165 0.37768-1.2498 0.82856-1.8671 0.58137-2.685-1.0462-1.8056-0.37806-4.7374-0.65399-7.1292z" fill="url(#y)"/>
   <path d="m-251.38152,557.20045c-1.14818-1.99059.46505-.74057.66855-6.32699 0-.92572-.71205-1.95947-.95943-3.00908-.21787-2.23738-.21787-5.23119-.88642-7.11375 1.51129-.13895 1.00274-1.31166 3.06627-1.60484 .33456-.12349.21806.57069.567.92572 .2033,1.89822.31981,4.50568.42155,6.51213-1.3806,1.88276 1.19187,7.39167-.0581,7.97782 .11613,1.06467.55244,1.88275-.33437,2.7159-.78486-.23133-.36331-.72511-2.48509-.0769z" fill="url(#x)"/>
   <path d="m-215.71608,539.9946c.10175,0 .33437-.49358.69768-.72511 .21787.61708.31962.84861.33437,1.24982-2.58722,5.53983-2.09266,8.76497-2.79053,9.99912-.43631.58656-.94448-.2002-1.5406.95704-.4505.92572-.567.50945-.98799,1.57412-.63962-.1235-2.54391-.0309-3.40159.21567-.11593-.24659.21806-.63274 0-1.17271 .2765-.74077.90156-1.20383 1.75886-1.66649 1.01767-1.51227 1.9476-3.00948 3.25577-9.58306l1.1773-.46305c.56662.72531.27593,1.92874 1.30798,1.71287 .58137-.2.30544-1.15704.18875-2.09822z" fill="url(#w)"/>
   <path d="m-224.75584,539.59319c.31962.12349 1.16254.95704.40699,1.97513-.78486.54016-.50893-1.12632-.40699-1.97513z" fill="url(#v)"/>
   <path d="m-223.27 553.6c0.34913-0.41647 2.3692-0.27751 3.2707-0.24699-0.49456 3.349-3.0379 1.9293-3.8084 1.5898 0.0291-0.50945-0.10137-0.35503 0.53768-1.3428z" fill="url(#u)"/>
   <path d="m-215.53 554.47c1.0027 0.17008-0.36368 1.2191-0.45087 2.6079-0.10156 0-0.91574 0.0926-1.0317 0.20061-0.1165-0.57069 1.1336-2.2374 1.4825-2.8085z" fill="url(#t)"/>
   <path d="m-211.86437,555.41067c-.1165.12349-.33456.35462-.21769.58615 .45031,2.00625-.8433,1.79038-3.18353,1.83657-.11593-.95704.26194-1.80565.81437-2.14521 .53787,0 .52293-.46266 2.58685-.27751z" fill="url(#s)"/>
   <path d="m-251.59 557.28c-0.39243 0.7719-0.87224 1.1265-1.1919 1.7285-0.63962-0.10803-0.46506-0.16988-0.68312-0.27791 0.42156-0.57089 1.061-1.9904 1.875-1.4506z" fill="url(#r)"/>
   <path d="m-251.21 557.48c1.1626-0.47832 1.7295 0.20061 2.3398 0.37029-0.56681 0.47852-0.79943 0.74057-0.98818 1.4813-1.1047-0.37008-2.2235 0.20081-2.8921 0 0.55187-0.41627 1.0606-1.836 1.5404-1.8516z" fill="url(#q)"/>
   <path d="m-247.43 558.08c-0.43612 1.1882-0.43612 2.1757-1.1336 1.6667-1.5552 1.4657-0.74118-1.0187 0.0581-1.8673 0.56662 0.26206 0.4505 0 1.0756 0.20061z" fill="url(#p)"/>
   <path d="m-244.36179,559.5308c-.82856,1.06467-2.55791,1.52773-3.3719.33956 .37806-.37048.75593-.78696.98836-1.52773 .39225.18514 1.45342.37009 2.38354,1.18817z" fill="url(#o)"/>
   <path d="m-257.89269,510.5667c.27593.1235.43593.21607.46505.30864 .0289.0773-.0435.13896-.27593.18535-.20388.0616-.47981-.63294-.18912-.49399z" fill="url(#n)"/>
   <path d="m-267.42683,510.59783c.2905.13876.45049.23133.47962.30864 .0291.0924-.0581.15442-.27593.2006-.20369.0458-.49456-.63274-.20369-.50924z" fill="url(#m)"/>
   <path d="m-207.3 511.42c-0.90118 0-2.4128 16.589-1.9622 20.138-0.21806 0.70964-0.26194 1.9133-0.59574 2.6233-0.21806 3.5645 1.3804 3.6571 0.59574 6.018-1.0464 3.0091-2.3979 7.8854-1.4241 11.45-0.21807 0.37008-1.0612 1.2189-0.97362 1.79-0.17437 0.47852 0.0288 0.6482-0.0876 1.5894-0.78468 0-1.773 0.13895-2.6597 0.26265-0.4503 0.1235-0.33418-0.81808-0.66836-0.94138h-0.11612c0.78448-0.81808 0-1.6512 0.66855-2.4689 1.6713-4.3671 1.4536-10.138-0.55243-14.151-0.23225-0.37049-0.33437-0.71005-0.33437-1.0801-0.66837-2.1143 0-4.5986-0.66837-6.466-0.4503-0.23153-0.69749-1.0337-2.2964 0.8952-5.4795 6.435-12.499 5.2314-17.557 4.5677-1.2354-0.16948-4.0405-0.63254-5.0867 0.21606 0-1.2962 0.14562-3.148 1.0756-3.8272 1.9188-1.3117 3.2556 3.5494 9.0838 3.5494-0.0584-0.0773 0.0581-0.15442-0.2035-0.18534-5.1595 0.18534-7.0492-5.0458-9.1131-3.4872-1.4239 1.2962-0.98799 3.441-1.2206 5.2159-0.21806 1.0647-1.6569 1.2958-1.9911 2.2528-1.0027 2.5924 1.1192 6.2186-0.20331 8.8266-1.0608 2.8085 0.84292 8.0708-0.63962 8.981-0.46487 0.27791-0.31962 1.2807-0.31962 1.7593-1.119-0.71005-1.0175-0.80262-2.5577-0.80262-0.37806-0.80222-1.3082-0.30824-1.192-0.66326 0.37806-2.5308 2.1222-0.0619 1.5841-7.8393-0.11594-1.0647-0.78449-2.0063-1.2208-2.8856-1.0608-2.0526 1.2499-8.1481-2.4995-11.327-0.62505 0 1.5113 1.4042 1.4532 3.2715-0.94467 0.2006-1.7295 0.0771-2.18 0.55563-2.0057 1.6508-4.8834 1.5273-6.4386-0.35503-2.1364-1.4815-1.962-7.5923-3.4589-8.7033-0.68292-0.52471-0.23243-3.4103-0.68292-5.6631 3.7352-0.10843 2.6595-2.3613 2.3835-3.6575 0.79924-3.4721 1.4243-3.4721 2.2381-5.725-0.23244-0.66346 0.52312-2.0062 0.0726-3.04 0.10175-0.35503 0.34894-0.71005 0.42156-1.4197 0.52331 0 1.3952 0.81768 0.71224 0.13896-0.10175 0-0.42156-0.47852-0.42156-0.47852 0.66837-0.35503-0.5668-0.74057-0.0437-1.9904 0.40718-0.9721 2.1074 1.5277 3.5463 0.83314 1.4534-0.49358 2.5579-2.0062 4.0111-2.7159 1.8895 0.23153 3.5608 1.5277 5.6684 1.5277 1.0462 0.16968 5.0576-1.8207 10.086-1.5127 4.6797 0.849 9.2287 0.50944 18.327-3.9348 3.7498-1.3117 3.168-0.10803 4.6362 1.1572-1.2206 0.10843-1.7292 0.71005-2.5286 1.4197-0.27612-1.3113-2.5728 0.0464-2.0927 0.43213 3.7057 0.21607 2.703-2.3454 5.6535-1.1882 1.8597 0.95624 1.7725 4.4438 1.7725 7.0364z" fill="url(#l)"/>
   <path d="m-207.45 511.66c-0.26194 3.5956-0.61068 5.9565-0.92992 7.5614 0.15981 3.0247 0.69749 9.259-0.71244 12.422-6.511 4.0738-3.168-6.2652-1.6857-5.6174 1.1626-2.0675-1.5117-1.0335 0.36312-5.1539-1.0752-7.4533 1.2792-8.8421 2.9649-9.2126z" fill="url(#k)"/>
   <path d="m-223.68048,552.29315c.46505-.23152-.45031,1.94481-.94468,1.94481-.11593,0-.37787.44719-.47943.57069-.10175-.58635.72681-1.6203 1.42411-2.5155z" fill="url(#j)"/>
   <path d="m-230.86 535.58c1.802 0.13855 5.4498 0.37028 7.1069-3.179 1.1189-1.4197 2.9066-2.932 2.1218-4.8149-1.1771-2.1139 0.71224-1.9444 1.7587-2.7468 4.084-3.2406 2.1365-11.496-3.9678-13.394-1.1043-0.29358 0.18912-1.5584-0.78468-1.5894-1.4534 0-3.0375 0.30864-4.1568 1.1113-2.5725 1.4502-1.3954-1.7442-8.066 0.10804-1.4097 0.47812-1.3371 1.7743-1.0029 2.4689 0.45087 1.4348 2.3253 1.651 2.7903 3.0862-0.23244 2.5769 0.65418 5.6635-0.18894 7.1138-1.1332 1.9448-0.29049 2.392 0.40681 3.133 1.6571 1.6508 0.23262 3.7651 0.43631 6.481 0.11593 1.5432 1.5115 0.55543 3.5463 2.2223z"/>
   <path d="m-261.47 525.37c2.9214-1.0342 3.2847 13.518 8.3425 12.654 2.3835-1.2036 0.77031-1.4042 1.0173-2.3145 0.30506-1.3426 0.75574-0.21646 1.5696-1.6052 0.52349-0.91025-3.0084-0.40121-3.0665-1.5737 0.87206-3.6575 4.6943-1.7747 5.1306-2.4538 0.8138-1.9287-0.2035-6.4503-2.1222-6.1107-0.45049-1.8056 3.3717-6.9595-1.119-6.2961-3.081 0.78696-1.8894 5.2928-3.7787 3.4412-1.2354-1.0032-3.4591 1.5277-3.5461-1.6512-0.0291 0.20061-0.36368 0.9721-0.40718 1.3735 0.24737 1.1418 0.61049 1.5273 0.16 2.8081-0.56681 0.60202-1.9765 0.98797-2.456 0.81809 0.0577 0.27771 0.14487 0.61727 0.27574 0.91085z" fill="url(#i)"/>
   <path d="m-244.27 512.6c2.994-0.70965 4.5346 2.7159 7.3104 3.0709 0.23244 0.46266 0.95924 1.6512 0.27613 2.8394-0.30487 0.53996 3.4734 2.901-1.0756 6.4346-0.81381 1.3271-1.3664 2.6697-3.4154-0.1235-1.3226-1.9287 1.3371-7.4995-2.2094-9.1505-2.9791-1.1418-1.4383-2.8239-0.88624-3.0709z" fill="url(#h)"/>
   <path d="m-218.3 506.12c3.343 2.0062 0.23262 4.5368 5.77 10.617 0.85768 0.75664-1.4097 4.3517-2.5433 4.4446-1.5113-0.10843-0.45031-1.8828-1.453-3.7348-2.5292-2.0213-1.0033-7.4378-3.5466-7.0674-3.9822 0.52471-3.0226-1.8982-3.75-2.3763-0.88605-0.60201-2.6738 0.13856-2.136-0.47852 0.55205-0.58615 1.5257 0.0769 1.9909-0.81768 2.6158 1.4348 3.3136-1.6824 5.6681-0.58675z" fill="url(#g)"/>
   <path d="m-248.82 531.94c1.9039-0.77169 0.20368 1.7593 1.7876 3.179-0.77031 1.8978-3.8948-2.2838-1.7876-3.179z" fill="url(#f)"/>
   <path d="m-205.51282,539.25383c.20331.8486 1.20604,1.66648-.0293,2.22191-.26193-.75603.79924.0775.0293-2.22191z" fill="url(#e)"/>
   <path d="m-206.61769,527.20146c.47962,3.85808-.77011,8.30252.56662,9.32101 .71262,1.03354-1.27905,2.793-.87186,3.71912 .91555,2.16027-1.00293.47812-.58137,4.95328 .16038,1.14178-.31962.87953-.14544,2.2683-.47943-.83314.0148-1.09559-.15962-1.83637-.17437-.77169-.36331-2.60786.17437-3.48759 1.22061-1.25022.11613-1.46589.47962-2.70044 .39244-1.24982 1.35149-1.82091.65381-3.04-1.13343-1.97493.16018-6.80511-.11613-9.19731z" fill="url(#d)"/>
  </g>
  <g transform="translate(-319.21 -141.42)" stroke="#000">
   <path d="m533.93 467.43c36.134-4.1995 62.037-13.638 76.55-27.893 9.6762-9.5043 11.664-15.592 11.664-35.72 0-14.198-2.817-20.786-12.16-28.44-24.486-20.057-74.861-31.899-128.24-30.145-48.088 1.5804-83.307 11.761-100.64 29.091-8.4767 8.4767-9.3702 11.947-8.4871 32.965 0.51833 12.336 1.2481 16.143 3.942 20.568 11.153 18.319 46.446 33.319 91.785 39.008 17.944 2.2518 48.78 2.5175 65.579 0.56508z" fill="url(#b)"/>
   <path d="m464.38 443.03c-47.796-5.9508-82.97-21.837-90.145-40.713-8.3218-21.892 14.896-41.42 60.602-50.972 69.868-14.601 157.31 0.24235 180.36 30.616 6.0444 7.9658 7.107 18.557 2.6905 26.819-9.5664 17.896-45.588 31.968-90.581 35.387-18.404 1.3984-46.66 0.8879-62.923-1.1369z" fill="none"/>
  </g>
 </g>
</svg>
